<?xml version="1.0" encoding="UTF-8" standalone="no"?>
<!-- Created with Inkscape (http://www.inkscape.org/) -->

<svg
   width="150.49411mm"
   height="182.81432mm"
   viewBox="0 0 150.49411 182.81432"
   version="1.1"
   id="svg358"
   inkscape:version="1.2.1 (9c6d41e, 2022-07-14)"
   sodipodi:docname="gen_left.svg"
   xmlns:inkscape="http://www.inkscape.org/namespaces/inkscape"
   xmlns:sodipodi="http://sodipodi.sourceforge.net/DTD/sodipodi-0.dtd"
   xmlns="http://www.w3.org/2000/svg"
   xmlns:svg="http://www.w3.org/2000/svg">
  <sodipodi:namedview
     id="namedview360"
     pagecolor="#505050"
     bordercolor="#ffffff"
     borderopacity="1"
     inkscape:showpageshadow="0"
     inkscape:pageopacity="0"
     inkscape:pagecheckerboard="1"
     inkscape:deskcolor="#505050"
     inkscape:document-units="mm"
     showgrid="false"
     inkscape:zoom="0.2102413"
     inkscape:cx="-38.051515"
     inkscape:cy="575.52916"
     inkscape:window-width="1440"
     inkscape:window-height="456"
     inkscape:window-x="0"
     inkscape:window-y="0"
     inkscape:window-maximized="0"
     inkscape:current-layer="layer1" />
  <defs
     id="defs355" />
  <g
     inkscape:label="Calque 1"
     inkscape:groupmode="layer"
     id="layer1"
     transform="translate(65.179257,3.3139407)">
    <path
       style="fill:#000000;stroke-width:1"
       d="m -63.35113,179.34149 c -0.25669,-0.21682 -0.29789,-0.51634 -0.40746,-2.96171 -0.0284,-0.63288 -0.10237,-1.23291 -0.16446,-1.33338 -0.10593,-0.1714 -0.28805,-1.80119 -0.40243,-3.60131 -0.0277,-0.43656 -0.0997,-1.30969 -0.15999,-1.94028 -0.27316,-2.85854 -0.36353,-8.41373 -0.30561,-18.78542 0.009,-1.55222 0.0159,-2.94128 0.0161,-3.0868 1.8e-4,-0.14552 0.007,-1.01865 0.0149,-1.94028 0.0206,-2.38218 -0.17923,-9.38334 -0.27217,-9.53373 -0.099,-0.16011 -0.0985,-6.48873 5.3e-4,-7.66419 0.0409,-0.48506 0.006,-1.18649 -0.0774,-1.55871 -0.12388,-0.55249 -0.093,-0.73547 0.16792,-0.99644 0.34774,-0.34774 0.55031,-0.36748 7.23443,-0.70496 1.98879,-0.10041 4.01285,-0.21538 4.49792,-0.2555 6.64601,-0.54958 11.26753,-0.72857 18.64012,-0.72195 4.47243,0.004 4.73006,0.0223 5.20347,0.36839 0.27394,0.20029 0.64819,0.66648 0.83167,1.03598 0.28825,0.58049 0.35698,0.63005 0.50556,0.36455 0.0946,-0.169 0.7382,-0.56794 1.43029,-0.88655 1.41348,-0.65071 3.16077,-0.87005 8.49028,-1.06584 1.55222,-0.057 3.17941,-0.14155 3.61597,-0.18784 0.43656,-0.0463 2.65906,-0.11864 4.93889,-0.16077 2.27982,-0.0421 4.38326,-0.11155 4.6743,-0.15425 0.29104,-0.0427 2.62367,-0.0903 5.18361,-0.10573 3.43418,-0.0207 4.68844,0.027 4.78416,0.18184 0.099,0.16021 0.22014,0.16151 0.5116,0.006 0.48977,-0.26212 0.96559,-0.1084 1.21136,0.39136 0.10824,0.22009 0.23526,1.87295 0.28782,3.74534 0.0517,1.84326 0.17242,4.02607 0.26818,4.85069 0.15317,1.31903 0.38772,5.129 0.60978,9.90515 0.0774,1.66508 -0.0249,1.91291 -0.78999,1.91291 -0.76,0 -1.00618,-0.88567 -1.05773,-3.80523 -0.0238,-1.35112 -0.0529,-2.97252 -0.0645,-3.60311 -0.0117,-0.63059 -0.0773,-1.66247 -0.14589,-2.29306 -0.0686,-0.63059 -0.16688,-1.70215 -0.21848,-2.38125 -0.0516,-0.6791 -0.1467,-1.59191 -0.21135,-2.02847 -0.0647,-0.43656 -0.12213,-1.82563 -0.12773,-3.08681 -0.009,-1.9451 -0.0503,-2.28357 -0.27477,-2.23053 -0.14552,0.0344 -0.78052,0.0503 -1.41111,0.0355 -3.66482,-0.0865 -16.69839,0.10959 -16.93333,0.25479 -0.0614,0.0379 -1.13816,0.11333 -2.39292,0.16758 -1.25476,0.0542 -2.83701,0.13512 -3.51611,0.1797 -0.6791,0.0446 -2.10785,0.12933 -3.175,0.18835 -3.34393,0.18492 -5.02708,1.01061 -5.02708,2.46611 0,0.32638 -0.065,0.63359 -0.14445,0.68269 -0.30695,0.18971 -0.11423,39.9775 0.20642,42.61766 0.0412,0.33955 0.0839,1.14612 0.0947,1.79237 0.017,1.01449 0.0619,1.16821 0.3284,1.12508 0.40366,-0.0653 0.74965,0.21989 0.74965,0.61791 0,0.36287 0.33328,0.45265 2.29306,0.61768 0.7276,0.0613 1.60073,0.13795 1.94027,0.17041 1.00884,0.0964 4.93191,0.1114 5.08078,0.0194 0.0756,-0.0468 1.32482,-0.13919 2.77595,-0.20542 1.45113,-0.0662 2.70403,-0.15958 2.78423,-0.20742 0.0802,-0.0478 0.60279,-0.0806 1.1613,-0.0727 0.55852,0.008 1.48504,-0.0621 2.05894,-0.15552 0.57391,-0.0934 2.27382,-0.21219 3.77759,-0.26396 2.38362,-0.0821 3.90672,-0.18475 5.20357,-0.35086 0.19403,-0.0248 1.06295,-0.10215 1.93093,-0.17178 0.86798,-0.0696 1.70141,-0.1487 1.85208,-0.17571 0.15067,-0.027 0.73849,-0.10555 1.30627,-0.17451 l 1.03233,-0.12542 -0.10768,-5.5854 c -0.0592,-3.07196 -0.18215,-6.22039 -0.27317,-6.9965 -0.091,-0.77612 -0.16977,-2.41085 -0.175,-3.63273 -0.008,-1.97262 0.0284,-2.25592 0.3286,-2.52761 0.26973,-0.2441 0.41241,-0.26621 0.70555,-0.10932 0.438,0.2344 0.39539,0.008 0.4494,2.3891 0.0242,1.06715 0.13233,3.09122 0.24029,4.49792 0.16879,2.19939 0.31135,5.70445 0.46167,11.35069 0.0356,1.33587 0.0208,1.39155 -0.41762,1.57752 -0.24996,0.10603 -0.59436,0.30968 -0.76533,0.45256 -0.19055,0.15924 -0.94145,0.31214 -1.94028,0.39506 -0.89618,0.0744 -2.50255,0.22585 -3.5697,0.33651 -2.61808,0.2715 -2.9362,0.29799 -5.1428,0.42826 -1.05202,0.0621 -2.38901,0.14889 -2.97109,0.19284 -4.20864,0.31782 -6.08998,0.4424 -7.9375,0.52559 -1.16417,0.0524 -2.38276,0.1382 -2.70799,0.19062 -1.21046,0.19514 -5.12413,0.0849 -7.24336,-0.20397 -1.81317,-0.24718 -2.39014,-0.26289 -3.35139,-0.0912 -3.47285,0.62016 -7.0172,0.82176 -17.38893,0.98906 -7.45186,0.12019 -8.03424,0.14791 -11.55347,0.54972 -0.43656,0.0498 -1.00561,0.0838 -1.26455,0.0755 -0.25895,-0.008 -1.33051,0.11495 -2.38125,0.27398 -2.83946,0.42979 -3.12071,0.44648 -3.40975,0.20234 z m 4.97611,-2.06225 c 3.42697,-0.38148 7.0841,-0.53141 15.57319,-0.63844 3.20146,-0.0404 6.41615,-0.11637 7.14375,-0.16889 2.79053,-0.20148 5.57603,-0.45392 6.04132,-0.54753 l 0.48507,-0.0976 0.0204,-1.79398 c 0.0112,-0.98668 0.0323,-1.91302 0.0469,-2.05855 0.0146,-0.14552 -0.0381,-0.35672 -0.11711,-0.46937 -0.0797,-0.11361 -0.06,-0.25645 0.0442,-0.32087 0.10331,-0.0638 0.1407,-0.19233 0.0831,-0.28555 -0.1751,-0.28332 -0.28736,-9.65131 -0.31684,-26.44087 -0.0264,-15.06184 -0.0466,-16.01853 -0.35668,-16.94317 -0.5925,-1.76669 -0.0458,-1.62567 -6.32026,-1.63039 -6.13981,-0.005 -12.42628,0.20648 -15.57321,0.52297 -1.81065,0.18209 -7.13211,0.4549 -9.30466,0.47701 -1.34641,0.0137 -2.25972,0.0937 -2.27555,0.19927 -0.15784,1.05302 -0.172,7.90737 -0.0213,10.31875 0.0697,1.11566 0.1337,7.38629 0.14217,13.93473 0.008,6.54843 0.0708,12.58093 0.1385,13.40555 0.0677,0.82462 0.16273,2.25337 0.21117,3.175 0.0484,0.92163 0.2097,2.70757 0.35837,3.96875 0.14867,1.26118 0.3125,2.76931 0.36405,3.35139 0.0516,0.58208 0.17509,1.27182 0.2745,1.53275 0.0994,0.26093 0.12875,0.55859 0.0652,0.66146 -0.14787,0.23927 -0.27971,0.24537 3.29384,-0.15242 z m -1.72578,-2.26498 c -0.41238,-0.28238 -0.42466,-0.76644 -0.0295,-1.16116 0.31923,-0.31886 0.81848,-0.45662 2.59996,-0.71745 2.99135,-0.43799 6.98869,-1.12076 7.84931,-1.34073 0.60771,-0.15533 2.00761,-0.3082 7.14375,-0.78015 0.53357,-0.049 2.0417,-0.1733 3.35138,-0.27617 1.30969,-0.10287 3.1123,-0.27321 4.0058,-0.37853 1.60768,-0.1895 2.6252,-0.10889 2.43851,0.19318 -0.0531,0.0859 -0.006,0.18626 0.1043,0.22308 0.28327,0.0944 -0.28148,1.14533 -0.68174,1.26857 -0.17084,0.0526 -1.34249,0.13767 -2.60367,0.18902 -1.26118,0.0513 -2.49149,0.12611 -2.73403,0.16615 -0.79342,0.13097 -2.35207,0.27847 -3.95624,0.37437 -0.86625,0.0518 -1.89812,0.16882 -2.29306,0.26005 -0.39493,0.0912 -1.15462,0.16814 -1.6882,0.17092 -0.53357,0.003 -2.08139,0.2086 -3.43958,0.45736 -1.3582,0.24875 -3.06476,0.53123 -3.79236,0.62773 -0.72761,0.0965 -1.44198,0.22084 -1.5875,0.2763 -0.14552,0.0555 -0.55042,0.12361 -0.89978,0.15147 -0.34935,0.0278 -1.09815,0.1362 -1.66399,0.2408 -1.19333,0.22059 -1.85666,0.23784 -2.1234,0.0552 z m 27.93054,-2.05306 c -0.0446,-0.23327 -0.0119,-0.54784 0.0727,-0.69903 0.19997,-0.35732 0.2339,-2.55742 0.0888,-5.75597 -0.0638,-1.4067 -0.16424,-4.2642 -0.22315,-6.35 -0.0589,-2.0858 -0.14358,-4.22892 -0.18817,-4.7625 -0.0446,-0.53358 -0.11107,-2.87514 -0.14775,-5.20347 -0.0529,-3.35974 -0.11477,-4.2323 -0.29967,-4.22831 -1.36122,0.0293 -4.74887,0.50358 -8.25866,1.15615 -2.26627,0.42137 -3.00815,0.5152 -4.84895,0.61332 -1.06812,0.0569 -2.73578,0.22067 -3.70591,0.36385 -2.65353,0.39163 -4.6331,0.58933 -5.90903,0.59014 -1.92487,0.001 -2.36626,-0.2651 -1.73384,-1.0461 0.30991,-0.38273 0.52937,-0.43538 2.31691,-0.55591 1.08601,-0.0732 2.4905,-0.22434 3.1211,-0.3358 1.73267,-0.30628 5.24578,-0.68568 6.43819,-0.69529 1.16389,-0.009 2.94649,-0.28494 6.17361,-0.95431 3.51124,-0.7283 6.78099,-1.01464 7.23964,-0.63399 0.11063,0.0918 0.24658,0.12151 0.30211,0.066 0.0555,-0.0555 0.26474,-0.0133 0.46492,0.0938 0.34851,0.18651 0.3646,0.34639 0.37857,3.76255 0.008,1.96227 0.0168,3.72652 0.0195,3.92054 0.003,0.19403 0.0733,1.42434 0.15683,2.73403 0.0836,1.30969 0.1956,4.36563 0.24897,6.79097 0.0534,2.42535 0.14326,5.36223 0.19977,6.52639 0.1199,2.47031 -0.11766,4.47284 -0.56984,4.80348 -0.16819,0.12298 -0.51949,0.22361 -0.78068,0.22361 -0.36146,0 -0.49426,-0.10132 -0.55598,-0.42417 z m -27.82566,-1.77062 c -0.0901,-0.23702 -0.16246,-2.55874 -0.16079,-5.15938 0.002,-2.60066 0.004,-5.83972 0.005,-7.19792 0.001,-1.35819 0.0373,-3.38225 0.0801,-4.49791 0.0427,-1.11566 0.073,-2.35909 0.0673,-2.76317 -0.006,-0.40409 0.0785,-0.78968 0.1872,-0.85687 0.12809,-0.0792 0.15772,-0.41269 0.0842,-0.94746 -0.0953,-0.6927 -0.0561,-0.87721 0.24354,-1.14842 0.25301,-0.22897 0.49433,-0.28866 0.82819,-0.20487 l 0.47114,0.11825 -0.14299,3.47453 c -0.15892,3.86171 -0.14336,16.67112 0.0222,18.23253 0.0936,0.88334 0.0644,1.02189 -0.25085,1.19063 -0.63208,0.33828 -1.25423,0.23421 -1.43451,-0.23994 z m 5.11145,-27.2714 c -1.98878,-0.0536 -3.64507,-0.11313 -3.68064,-0.1323 -0.0356,-0.0192 -0.0231,-0.19378 0.0277,-0.38804 0.0549,-0.20978 -0.0151,-0.4133 -0.17214,-0.50121 -0.26145,-0.14632 -0.67384,-2.85644 -0.86309,-5.67199 -0.199,-2.96055 -0.24637,-3.50765 -0.38724,-4.47273 -0.14666,-1.00469 -0.13711,-1.04327 0.34674,-1.40099 0.3195,-0.23622 0.46397,-0.47362 0.40374,-0.66341 -0.18169,-0.57244 0.58476,-0.81131 3.09021,-0.96307 3.72274,-0.2255 10.33392,-0.18128 10.73327,0.0718 0.13946,0.0884 0.30697,0.72679 0.40425,1.5407 0.0914,0.76439 0.23795,1.94542 0.32574,2.62452 0.0878,0.6791 0.2862,2.2666 0.4409,3.52778 0.1547,1.26118 0.3543,2.80455 0.44355,3.42971 0.19293,1.35126 0.1251,1.46827 -1.18764,2.04883 -1.42873,0.63185 -2.97312,1.0155 -3.70759,0.92102 -0.36383,-0.0468 -1.09807,-0.0374 -1.63164,0.0209 -0.53358,0.0583 -2.59733,0.0621 -4.58612,0.009 z m 8.68067,-1.98052 0.65497,-0.30261 -0.078,-1.11656 c -0.0429,-0.61411 -0.16289,-1.70567 -0.26659,-2.42569 -0.10369,-0.72002 -0.22658,-1.62663 -0.27307,-2.01468 -0.0465,-0.38806 -0.15937,-0.98337 -0.25084,-1.32292 -0.0915,-0.33955 -0.19102,-1.19137 -0.22124,-1.89294 -0.0302,-0.70157 -0.14251,-1.36315 -0.24953,-1.47018 -0.36829,-0.36829 -5.43998,-0.52586 -8.08452,-0.25117 -1.06715,0.11084 -2.28066,0.18434 -2.69668,0.16333 l -0.75639,-0.0382 0.10281,1.52409 c 0.17755,2.63197 0.44467,5.53062 0.63624,6.90396 0.10149,0.7276 0.22672,1.62582 0.27829,1.99603 l 0.0938,0.67311 5.22793,-0.0615 c 4.47961,-0.0527 5.32168,-0.1048 5.8829,-0.36409 z m 4.94538,0.63822 c -0.35285,-0.14237 -0.25501,-0.76797 0.17638,-1.12786 0.46062,-0.38426 1.18534,-0.43135 2.01595,-0.131 1.20495,0.43572 0.49787,1.38379 -1.0156,1.36175 -0.52594,-0.008 -1.05547,-0.054 -1.17673,-0.10289 z m 0.96238,-4.01717 c -0.40236,-0.40236 -0.37921,-0.67069 0.096,-1.11207 0.36139,-0.3357 0.56823,-0.36342 2.31353,-0.31013 1.05416,0.0322 1.99417,0.13604 2.08891,0.23078 0.22597,0.22597 -0.10283,0.8442 -0.5867,1.10317 -0.20098,0.10756 -1.09562,0.23912 -1.98809,0.29237 -1.37893,0.0823 -1.66787,0.0516 -1.9236,-0.20412 z m -0.12454,-3.24849 c -0.2985,-0.0866 -0.45818,-0.27396 -0.49424,-0.57979 -0.10431,-0.88451 0.44203,-1.01473 5.55968,-1.32512 1.50858,-0.0915 1.87504,-0.0616 2.24896,0.18338 0.57634,0.37764 0.5652,0.70628 -0.0384,1.13126 -0.40647,0.28621 -0.92197,0.36054 -3.18162,0.45872 -1.4831,0.0644 -2.91185,0.1492 -3.175,0.18835 -0.26314,0.0392 -0.67688,0.0136 -0.91942,-0.0568 z m -1.2638,-3.49594 c -0.50572,-0.13394 -0.54615,-0.62097 -0.0895,-1.07766 0.3358,-0.3358 0.70779,-0.45659 1.77465,-0.57623 0.74239,-0.0833 1.41273,-0.19027 1.48966,-0.23782 0.0769,-0.0475 1.49357,-0.14105 3.1481,-0.2078 2.91714,-0.11768 3.01962,-0.10997 3.38426,0.25468 0.45686,0.45685 0.47494,0.76101 0.0672,1.13002 -0.24849,0.22488 -0.94646,0.2999 -3.57187,0.3839 -1.79467,0.0574 -3.62022,0.17862 -4.05678,0.26933 -0.82562,0.17153 -1.6421,0.19497 -2.14575,0.0616 z m 20.41655,41.53172 c -0.76811,-0.0696 -1.45337,-0.18866 -1.52279,-0.26458 -0.0694,-0.0759 -0.17106,-0.65396 -0.22585,-1.28455 -0.0548,-0.63059 -0.18826,-1.76825 -0.29661,-2.52813 -0.10835,-0.75989 -0.22189,-2.78395 -0.25231,-4.49792 -0.0304,-1.71397 -0.10425,-5.53725 -0.16407,-8.49618 -0.0598,-2.95892 -0.15227,-8.50292 -0.20545,-12.31999 -0.10047,-7.21094 -0.0817,-7.43556 0.62186,-7.43556 0.16907,0 0.49669,-0.14714 0.72806,-0.32698 0.29147,-0.22656 0.85405,-0.36004 1.83177,-0.43462 0.77611,-0.0592 2.28424,-0.22376 3.35139,-0.3657 1.06715,-0.14193 2.53559,-0.31008 3.2632,-0.37365 0.7276,-0.0636 1.81567,-0.22621 2.41792,-0.3614 0.60226,-0.13519 2.2328,-0.36528 3.62343,-0.51132 1.39063,-0.14604 3.14045,-0.35065 3.88849,-0.45469 1.69853,-0.23624 6.2343,-0.12805 6.51783,0.15547 0.11189,0.1119 0.34448,0.20344 0.51687,0.20344 0.64111,0 0.80676,0.67304 0.93337,3.79237 0.0669,1.64923 0.14997,3.35579 0.1845,3.79236 0.34375,4.34583 0.44167,6.0692 0.52617,9.26041 0.0539,2.03729 0.17166,4.41854 0.26157,5.29167 0.0899,0.87312 0.20692,2.81781 0.26002,4.32153 0.0531,1.50371 0.17073,3.18449 0.26137,3.73505 0.23802,1.44556 0.43152,5.14419 0.29714,5.6796 -0.0646,0.25733 -0.34452,0.57559 -0.64124,0.72903 -0.28964,0.14977 -0.52661,0.37705 -0.52661,0.50504 0,0.38728 -0.57652,0.77207 -1.32292,0.88302 -0.70857,0.1053 -4.97847,0.45621 -6.79097,0.55807 -0.53358,0.03 -2.3592,0.14085 -4.05695,0.24635 -1.69774,0.10552 -4.19805,0.23772 -5.55624,0.29381 -1.3582,0.0561 -3.38226,0.15431 -4.49792,0.21828 -1.11566,0.064 -2.65693,0.0594 -3.42503,-0.0102 z m 3.33683,-1.73687 c 0.77612,-0.0867 2.4033,-0.20238 3.61598,-0.25713 1.21267,-0.0548 3.87173,-0.21726 5.90902,-0.36114 7.26182,-0.51285 10.91921,-0.75103 11.86216,-0.77246 0.38547,-0.009 0.39674,-0.0609 0.39232,-1.81702 -0.002,-0.99439 -0.0835,-2.60174 -0.17997,-3.57188 -0.0965,-0.97013 -0.20903,-2.31951 -0.2501,-2.99861 -0.17615,-2.91205 -0.3198,-5.15176 -0.36203,-5.64444 -0.0249,-0.29104 -0.10089,-1.9976 -0.16877,-3.79236 -0.0679,-1.79476 -0.19494,-4.33476 -0.28236,-5.64445 -0.0874,-1.30968 -0.24497,-4.40436 -0.35012,-6.87706 -0.10515,-2.4727 -0.20536,-4.49676 -0.22268,-4.49792 -0.0173,-0.001 -1.65869,0.0508 -3.64747,0.11553 -3.62417,0.1179 -5.01729,0.23936 -8.46667,0.73817 -2.85636,0.41306 -4.31506,0.59473 -6.61458,0.82378 -1.16417,0.11596 -2.55323,0.27391 -3.08681,0.35099 -0.53358,0.0771 -1.35198,0.12379 -1.81867,0.10381 l -0.84852,-0.0363 0.10289,4.94819 c 0.0566,2.72151 0.14298,8.32163 0.19198,12.44472 0.049,4.12309 0.11966,8.05216 0.15702,8.73125 0.0374,0.6791 0.12051,2.22691 0.18476,3.43959 0.0706,1.33194 0.25291,2.67193 0.46056,3.38462 0.32511,1.11587 0.37455,1.18281 0.91276,1.23585 0.31296,0.0308 0.68809,0.0686 0.83361,0.084 0.14552,0.0153 0.89958,-0.043 1.67569,-0.1297 z M 7.64539,151.36135 c -1.10197,-0.68068 -1.29852,-1.13805 -1.05873,-2.46372 0.10482,-0.5795 0.24193,-0.8029 0.56911,-0.9273 0.23707,-0.0901 0.4978,-0.12261 0.5794,-0.0722 0.0816,0.0504 0.35275,-0.001 0.60256,-0.11524 0.68422,-0.31176 1.28509,0.0422 1.71274,1.00899 0.88154,1.99287 -0.66451,3.64459 -2.40508,2.56945 z m 0.78135,-2.18536 c 0.007,-0.0728 -0.11515,-0.13229 -0.27105,-0.13229 -0.18601,0 -0.24665,0.0959 -0.17639,0.27901 0.0589,0.15345 0.11264,0.37174 0.11946,0.48507 0.0119,0.19845 0.30266,-0.36155 0.32798,-0.63179 z M 12.3555,148.127 c -0.47776,-0.47776 -0.22529,-0.83435 0.97843,-1.38192 1.6532,-0.75202 3.77483,-1.85514 5.30624,-2.75891 0.71137,-0.41982 1.33292,-0.7633 1.38122,-0.7633 0.0483,0 0.49815,-0.26822 0.99966,-0.59605 0.85916,-0.56161 1.81583,-1.13147 3.02851,-1.80398 1.75584,-0.97374 22.55001,-14.88635 23.96277,-16.03261 0.11957,-0.097 0.34283,-0.25577 0.49612,-0.35278 1.10446,-0.69896 4.49962,-3.05674 4.76244,-3.30729 0.17809,-0.16978 0.37584,-0.30868 0.43945,-0.30868 0.0636,0 0.36126,-0.18635 0.66146,-0.41411 0.57203,-0.434 4.07413,-2.8271 6.63123,-4.53134 3.79745,-2.53091 10.90333,-6.50095 12.6118,-7.04619 0.38806,-0.12384 0.78567,-0.28806 0.88358,-0.36493 0.15101,-0.11855 3.04786,-1.22538 3.20713,-1.22538 0.0299,0 0.0544,0.14645 0.0544,0.32544 0,0.56801 -0.83395,1.09054 -3.70417,2.32091 -3.64452,1.5623 -9.42486,4.82136 -13.74049,7.74714 -0.25235,0.17108 -0.816,0.54152 -1.25256,0.82322 -0.43656,0.28169 -0.83344,0.55637 -0.88194,0.61039 -0.0485,0.054 -2.03289,1.44888 -4.40973,3.09968 -2.37684,1.65079 -5.0359,3.50434 -5.90902,4.11901 -2.06473,1.45354 -11.43821,7.84357 -13.20209,9.00005 -0.22195,0.14552 -1.23486,0.8202 -2.25092,1.4993 -1.01605,0.6791 -2.66604,1.75066 -3.66665,2.38125 -1.0006,0.63059 -1.91355,1.2259 -2.02878,1.32292 -0.24815,0.20891 -0.39499,0.30031 -2.57587,1.60336 -0.92163,0.55066 -1.95351,1.18046 -2.29305,1.39957 -0.33955,0.2191 -0.98649,0.59943 -1.43765,0.84518 -0.45116,0.24575 -1.16553,0.66569 -1.5875,0.93321 -0.85297,0.54076 -5.32497,2.7873 -5.89079,2.95928 -0.19859,0.0604 -0.45656,0.0143 -0.57326,-0.10244 z m -29.84572,-14.94202 c -0.96185,-0.19136 -2.4372,-1.07493 -3.05476,-1.82946 -0.30856,-0.377 -0.77862,-0.79964 -1.04458,-0.93919 -0.45905,-0.24088 -0.51444,-0.2245 -1.09266,0.32327 -0.335,0.31736 -0.80353,0.9342 -1.04119,1.37077 -0.34119,0.62676 -0.54122,0.80492 -0.95084,0.84685 -0.88858,0.091 -1.03288,-0.325 -0.48942,-1.41087 0.547,-1.09296 0.93645,-1.54113 2.05283,-2.36243 1.33188,-0.97983 2.09195,-0.79817 3.90656,0.9337 1.07684,1.02774 1.84275,1.46358 2.57196,1.46358 0.44488,0 0.64648,-0.17676 1.35795,-1.19062 1.50353,-2.1426 2.37911,-2.8629 3.80536,-3.13046 0.86597,-0.16246 1.6322,0.19872 2.98741,1.40818 1.48991,1.32968 2.82447,2.20366 3.49446,2.28845 0.43583,0.0552 0.63252,-0.0402 1.01107,-0.49006 0.25848,-0.30719 0.62278,-0.91632 0.80954,-1.35361 0.49105,-1.14977 1.36038,-2.45047 1.79226,-2.68161 0.71657,-0.38349 1.1644,-0.27886 2.79041,0.65196 1.2342,0.70652 1.71658,1.08995 1.95906,1.5572 0.27181,0.52376 0.28619,0.67673 0.0927,0.98648 -0.30863,0.49419 -0.87491,0.46199 -1.38279,-0.0786 -0.57472,-0.61177 -2.55331,-1.69436 -2.87269,-1.5718 -0.14348,0.0551 -0.52131,0.69741 -0.83962,1.42745 -1.14029,2.6153 -2.00996,3.34374 -3.74287,3.13505 -1.04135,-0.12541 -2.17376,-0.79284 -4.00612,-2.36114 -1.87368,-1.60368 -1.67613,-1.51222 -2.48179,-1.14892 -0.52397,0.23628 -1.00546,0.72289 -1.8391,1.85868 -1.57177,2.14143 -2.31464,2.59132 -3.79319,2.29717 z m -14.52289,-18.65511 c -0.0387,-0.0387 -1.14619,-0.0729 -2.46101,-0.0759 -1.31483,-0.003 -2.61519,-0.0652 -2.88971,-0.13816 -0.65956,-0.17531 -0.75876,-0.78219 -0.18887,-1.1556 0.36707,-0.24051 2.06468,-0.28894 13.46046,-0.38399 7.17223,-0.0598 13.59604,-0.13219 14.27513,-0.16079 0.6791,-0.0286 2.54441,-0.10464 4.14514,-0.16896 1.60073,-0.0643 3.46604,-0.16651 4.14514,-0.22711 2.35825,-0.21043 3.75933,-0.14956 4.08642,0.17753 0.26604,0.26604 0.27185,0.35343 0.051,0.76617 -0.13714,0.25624 -0.40977,0.52635 -0.60586,0.60025 -0.19609,0.0739 -1.66621,0.18909 -3.26694,0.25597 -1.60073,0.0669 -3.66448,0.16373 -4.58611,0.21522 -0.92163,0.0515 -6.91444,0.12418 -13.31736,0.16155 -6.40291,0.0374 -11.89711,0.0986 -12.20932,0.13609 -0.31221,0.0375 -0.59934,0.0365 -0.63807,-0.002 z M 3.28285,112.31071 C 3.03107,112.11581 2.98563,111.16915 2.89119,104.15273 2.77528,95.54049 2.62797,80.72159 2.56787,71.62819 c -0.0356,-5.391968 -0.0565,-5.724435 -0.3708,-5.909027 -0.49106,-0.2884 -1.021,-0.81524 -1.58692,-1.577631 -0.54606,-0.735634 -1.42187,-1.350293 -1.9255,-1.351337 -0.19405,-3.53e-4 -0.407,0.222423 -0.54722,0.572604 -0.12624,0.315296 -0.29346,0.732014 -0.37159,0.926042 -0.0781,0.194028 -0.13148,0.432153 -0.11856,0.529167 0.0129,0.09701 -0.15516,0.493889 -0.37352,0.881944 -0.35183,0.625233 -0.48073,0.711675 -1.1323,0.75931 -0.41668,0.03046 -0.96032,-0.06262 -1.25468,-0.214843 -0.67788,-0.35055 -1.86668,-1.534564 -2.41862,-2.408885 -0.24068,-0.381272 -0.57825,-0.693221 -0.75014,-0.693221 -0.40117,0 -0.91777,0.871928 -0.91777,1.549021 0,0.623766 -0.35583,0.969324 -0.91633,0.889866 -0.36887,-0.05229 -0.40437,-0.142986 -0.38276,-0.977681 0.0312,-1.204869 0.68883,-2.357157 1.58909,-2.784357 0.62499,-0.296578 0.68103,-0.296598 1.23097,-3.53e-4 0.3169,0.17066 0.89074,0.756564 1.2752,1.302008 1.0326,1.464992 1.65394,2.000416 2.24133,1.931421 0.43567,-0.05117 0.53428,-0.189288 0.86464,-1.211007 0.4443,-1.374111 1.05336,-2.413682 1.46936,-2.50798 0.42451,-0.09623 1.89533,0.494088 2.63307,1.056788 0.34166,0.260601 0.81583,0.782116 1.05369,1.158919 0.23787,0.376806 0.4596,0.657756 0.49273,0.624338 0.10227,-0.103225 0.26135,-7.028205 0.16145,-7.028205 -0.0517,0 -0.26359,0.09078 -0.4709,0.201733 -0.20732,0.110954 -1.17445,0.228325 -2.14917,0.260824 -0.97473,0.0325 -3.20098,0.138032 -4.94723,0.234516 -5.7331,0.316766 -8.24698,0.415294 -11.46527,0.449358 -4.00854,0.04243 -7.79632,0.223975 -10.84792,0.519929 -1.30969,0.12702 -3.58614,0.219498 -5.05878,0.205513 l -2.67754,-0.02543 -0.1356,1.502126 c -0.0746,0.826168 -0.10908,2.454626 -0.0767,3.618792 0.0324,1.164167 0.0464,2.592917 0.0311,3.175 -0.0153,0.582083 -0.061,4.550833 -0.10157,8.819448 -0.0406,4.26861 -0.11489,11.16613 -0.16509,15.32784 -0.0502,4.1617 -0.0888,10.15451 -0.0858,13.31736 0.008,8.27201 0.0608,7.60675 -0.60406,7.5971 -0.92083,-0.0134 -0.94977,-0.1521 -0.80818,-3.87494 0.072,-1.89177 0.17977,-7.44802 0.2396,-12.34723 0.0598,-4.8992 0.18242,-10.84392 0.27243,-13.21049 0.09,-2.36658 0.13207,-4.35397 0.0935,-4.41644 -0.0936,-0.15149 -0.0982,-3.38691 -0.0171,-12.094592 0.067,-7.198567 0.13515,-8.66264 0.41615,-8.943638 0.0811,-0.08114 0.90218,-0.05222 1.82452,0.06427 1.45459,0.18372 2.28338,0.160122 6.24942,-0.177937 2.53575,-0.216144 7.59729,-0.47198 11.36339,-0.574365 3.73504,-0.10154 7.0291,-0.207917 7.32014,-0.236391 0.69116,-0.06762 6.10453,-0.309201 8.02569,-0.358158 0.82462,-0.02101 1.6848,-0.09766 1.91152,-0.170319 0.48925,-0.156803 1.66609,0.03085 1.53398,0.244602 -0.11986,0.193933 0.38608,0.401941 1.04363,0.429071 0.63118,0.02604 0.81835,0.54682 0.57829,1.608972 C 3.487,59.699228 3.58361,80.42693 3.90833,80.43112 c 0.14252,0.002 0.13466,0.05 -0.0246,0.15098 -0.16896,0.10712 -0.21267,0.46695 -0.15745,1.29636 0.042,0.63145 0.12794,1.23142 0.19088,1.33327 0.063,0.10184 0.0277,0.21409 -0.0784,0.24944 -0.1237,0.0412 -0.14877,0.29893 -0.07,0.71908 0.0676,0.36014 0.19351,0.61113 0.27989,0.55775 0.0864,-0.0534 0.15705,-0.013 0.15705,0.0897 0,0.10273 -0.0765,0.18679 -0.1699,0.18679 -0.10149,0 -0.16682,1.02995 -0.16225,2.55764 0.005,1.76541 0.0688,2.55764 0.20518,2.55764 0.1412,0 0.13891,0.0586 -0.008,0.20553 -0.15645,0.15645 -0.13328,0.26488 0.097,0.45405 0.1664,0.13669 0.20881,0.20166 0.0942,0.14438 -0.32281,-0.16142 -0.46715,0.23565 -0.20377,0.56054 0.16928,0.20881 0.17338,0.25329 0.0146,0.15788 -0.17323,-0.10409 -0.21844,0.40402 -0.20885,2.34739 0.008,1.72418 0.0732,2.48023 0.21227,2.48023 0.14267,0 0.13933,0.0607 -0.0116,0.21167 -0.28808,0.28808 -0.26603,0.49389 0.0529,0.49389 0.3033,0 0.35356,0.27696 0.0808,0.44551 -0.12164,0.0752 -0.14788,0.9581 -0.0776,2.61215 0.0584,1.37422 0.1001,2.92428 0.0927,3.44457 -0.011,0.77606 0.0347,0.92756 0.25402,0.84339 0.16411,-0.063 0.26738,-0.003 0.26738,0.15644 0,0.14248 -0.0992,0.2392 -0.22049,0.21495 -0.14581,-0.0292 -0.22368,0.19486 -0.22993,0.66146 -0.0115,0.85583 0.11281,1.15549 0.28773,0.69385 0.13111,-0.34601 0.0992,2.23851 -0.0534,4.33323 -0.046,0.63059 -0.0955,1.32512 -0.1101,1.54341 -0.0303,0.45326 -0.64401,0.54941 -1.12589,0.17638 z m 1.21984,-5.10425 c -0.0563,-0.14071 -0.0981,-0.0989 -0.10657,0.10657 -0.008,0.18594 0.034,0.29012 0.0927,0.23151 0.0586,-0.0586 0.0649,-0.21075 0.0139,-0.33808 z m -15.74638,2.36753 c -0.10552,-0.0713 -0.23605,-0.30455 -0.29005,-0.51839 -0.18219,-0.72135 0.46489,-0.91797 3.96453,-1.20468 1.77109,-0.1451 3.57409,-0.33593 4.00667,-0.42408 0.76629,-0.15614 1.35167,-0.0183 1.61219,0.37967 0.20321,0.31039 -0.0673,1.05062 -0.43764,1.19748 -0.40622,0.1611 -6.58144,0.71447 -7.87009,0.70526 -0.43656,-0.003 -0.88009,-0.064 -0.98561,-0.13526 z m -3.11543,-0.23192 c -0.44934,-0.26171 -0.37784,-0.81437 0.1501,-1.16029 0.33796,-0.22144 0.5354,-0.2526 0.74966,-0.11834 0.41921,0.26268 0.47435,0.96323 0.0975,1.23878 -0.3737,0.27326 -0.58222,0.28159 -0.99727,0.0399 z m -17.44417,-0.18477 c -0.62283,-0.22826 -0.75724,-0.78518 -0.27159,-1.12534 0.90155,-0.63147 1.84333,0.0292 1.27597,0.8951 -0.30916,0.47183 -0.3313,0.47691 -1.00438,0.23024 z m 3.69143,-0.93378 c -0.55366,-0.27603 -0.59215,-0.73297 -0.0895,-1.06232 0.30429,-0.19938 1.0364,-0.30107 2.61253,-0.3629 1.20437,-0.0472 2.75796,-0.13212 3.45241,-0.18864 1.12064,-0.0912 1.27373,-0.0665 1.36126,0.21947 0.24846,0.81176 -0.0716,1.24985 -0.99642,1.36394 -1.6696,0.20598 -5.947,0.22652 -6.34029,0.0305 z m 32.68437,-4.26188 c 0.008,-0.20548 0.0503,-0.24728 0.10657,-0.10657 0.051,0.12733 0.0447,0.27947 -0.0139,0.33808 -0.0586,0.0586 -0.1003,-0.0456 -0.0926,-0.23151 z m -36.53629,-0.57519 c -0.47117,-0.38152 -0.38944,-0.7305 0.25138,-1.07346 0.40929,-0.21904 0.50011,-0.21077 0.81511,0.0743 0.49098,0.44433 0.44844,0.9447 -0.098,1.15244 -0.57019,0.21679 -0.49726,0.22833 -0.96852,-0.15328 z m 4.94876,-0.14754 c -0.3131,-0.12924 -0.52272,-0.41323 -0.52647,-0.71325 -0.005,-0.39824 0.95576,-0.6942 2.37855,-0.73273 0.77611,-0.021 2.08247,-0.11212 2.90301,-0.20246 1.75421,-0.19314 2.31795,0.01 2.17037,0.78203 -0.0879,0.45971 -0.22834,0.53619 -1.28102,0.6975 -1.02078,0.15642 -5.36013,0.28627 -5.64444,0.16891 z m 13.09687,-0.0617 c -0.47976,-0.19302 -0.51461,-0.71537 -0.0743,-1.11384 0.42423,-0.38393 0.78782,-0.36888 1.16529,0.0482 0.30338,0.33522 0.25239,1.07097 -0.0742,1.07097 -0.0825,0 -0.25579,0.0347 -0.38499,0.0772 -0.1292,0.0425 -0.41351,0.005 -0.63179,-0.0825 z m 5.20359,-0.2926 c -0.1697,-0.0444 -0.36,-0.28563 -0.42288,-0.53615 -0.15346,-0.61142 0.33603,-0.96382 1.26061,-0.90754 0.38806,0.0236 1.06274,-0.009 1.49931,-0.0733 0.43656,-0.0639 1.68474,-0.16291 2.77373,-0.21994 1.84704,-0.0967 2.00677,-0.0787 2.37889,0.26794 0.25295,0.23566 0.33052,0.41714 0.21201,0.49603 -0.10279,0.0684 -0.23258,0.24879 -0.28842,0.40084 -0.0825,0.22478 -0.67353,0.31573 -3.16213,0.48663 -3.12986,0.21494 -3.71112,0.22663 -4.25112,0.0855 z m -16.88935,-3.22483 c -1.11566,-0.0579 -2.16738,-0.17058 -2.33715,-0.2504 -0.43639,-0.20516 -0.38285,-0.72377 0.10792,-1.04533 0.35345,-0.23158 1.01183,-0.26204 4.34252,-0.20085 2.45533,0.0451 4.01222,0.14375 4.15633,0.26335 0.28916,0.23997 0.21714,1.03346 -0.11275,1.24231 -0.26411,0.1672 -2.83309,0.16342 -6.15687,-0.009 z m -6.08882,-0.25026 c -0.28793,-0.21054 -0.30573,-0.31042 -0.12569,-0.70555 0.33454,-0.73424 1.6284,-0.59938 1.6284,0.16973 0,0.68484 -0.87314,0.99618 -1.50271,0.53582 z m 18.12251,-1.08766 c -0.55397,-0.38801 -0.49519,-0.8746 0.1373,-1.13659 0.42197,-0.17479 0.58295,-0.17475 0.79375,1.8e-4 0.31769,0.26365 0.34595,0.90612 0.0528,1.19931 -0.28165,0.28165 -0.513,0.26685 -0.98381,-0.0629 z m 3.35938,0.0464 c -0.52315,-0.23343 -0.61402,-0.57463 -0.25888,-0.97198 0.32915,-0.36829 2.26474,-0.69124 4.97414,-0.82995 0.82462,-0.0422 2.10687,-0.12623 2.84945,-0.1867 1.22919,-0.10011 1.38433,-0.0758 1.7316,0.27149 0.30372,0.30372 0.3387,0.43295 0.17166,0.63422 -0.11539,0.13903 -0.14054,0.25531 -0.0559,0.25839 0.0846,0.003 -1.8e-4,0.12215 -0.18851,0.26459 -0.26215,0.19828 -0.90563,0.25897 -2.74573,0.25897 -1.32183,0 -2.83463,0.0735 -3.36177,0.16328 -1.56867,0.26723 -2.71248,0.31778 -3.11606,0.13769 z m -22.58577,-3.22139 c -0.47278,-0.33114 -0.48358,-0.44863 -0.0833,-0.90651 0.24688,-0.28244 0.62648,-0.37766 1.89618,-0.47567 0.87312,-0.0674 2.06375,-0.19444 2.64583,-0.28233 0.58208,-0.0879 2.32942,-0.20172 3.88297,-0.25295 1.55356,-0.0512 3.06168,-0.13297 3.35139,-0.18163 0.28971,-0.0487 1.3205,-0.13456 2.29064,-0.1909 1.76389,-0.10243 1.932,-0.11937 3.08681,-0.31102 1.08191,-0.17956 4.23001,-0.46416 7.23194,-0.6538 1.60073,-0.10112 3.56783,-0.26975 4.37134,-0.37473 1.11904,-0.14621 1.58343,-0.14014 1.98438,0.0259 0.5631,0.23324 0.716,0.81676 0.25987,0.99179 -0.14496,0.0556 -0.22521,0.16321 -0.17833,0.23906 0.20093,0.32511 -0.47834,0.49416 -2.38032,0.5924 -2.90862,0.15022 -7.25953,0.463 -7.67291,0.55159 -1.15425,0.24736 -9.23051,0.83799 -14.46389,1.05777 -1.26118,0.053 -3.00743,0.17348 -3.88056,0.26781 -2.02219,0.21846 -1.8837,0.22419 -2.342,-0.0968 z m 96.1373,-2.72933 C 62.83373,92.21375 59.28666,91.94057 55.44678,91.8096 53.79754,91.7533 50.82098,91.55305 48.83219,91.3645 46.84341,91.17595 43.98591,90.94078 42.4822,90.84191 25.78622,89.74414 22.5455,89.45303 21.91873,88.99472 c -0.2031,-0.14851 -0.25514,-0.33609 -0.16875,-0.60826 0.19552,-0.61602 0.82038,-0.75324 2.17057,-0.47665 0.65304,0.13378 1.90172,0.29476 2.77484,0.35774 1.7986,0.12972 2.84223,0.22126 5.11528,0.44869 0.87312,0.0874 2.61937,0.20919 3.88055,0.27074 1.26118,0.0615 2.57087,0.14946 2.91042,0.19534 0.33955,0.0459 2.16517,0.19223 4.05694,0.32521 1.89177,0.13298 5.02709,0.40167 6.96736,0.5971 1.94028,0.19543 5.43278,0.43992 7.76112,0.54331 5.27052,0.23404 7.67291,0.72044 7.67291,1.55349 0,0.34408 -0.0893,0.3963 -0.66146,0.38663 -0.3638,-0.006 -0.83982,-0.0829 -1.05782,-0.17052 z M 16.21613,90.31259 c -0.93844,-0.15179 -1.42699,-0.67977 -1.42699,-1.54214 0,-0.79204 0.38584,-1.42989 1.23168,-2.03614 1.00581,-0.72091 1.95313,-0.61329 2.41198,0.27403 0.37778,0.73053 0.44192,2.20822 0.11736,2.70356 -0.22261,0.33975 -1.13987,0.81324 -1.45019,0.74859 -0.0583,-0.0121 -0.45601,-0.0787 -0.88384,-0.1479 z m 1.51832,-2.78114 c -0.29898,-0.29898 -0.92061,-0.16913 -1.07139,0.22381 -0.064,0.16663 0.012,0.25787 0.21457,0.25787 0.17244,0 0.46761,0.1137 0.65592,0.25267 0.30854,0.22769 0.34826,0.21674 0.40172,-0.11076 0.0326,-0.1999 -0.0577,-0.48051 -0.20082,-0.62359 z m -49.99704,2.15348 c -0.46961,-0.33214 -0.49189,-0.49326 -0.11969,-0.86545 0.2771,-0.27711 1.3791,-0.37509 1.91325,-0.17012 0.43998,0.16884 0.33437,0.76256 -0.16974,0.95422 -0.89667,0.34092 -1.23301,0.35777 -1.62382,0.0814 z m 19.81225,-2.65454 c -0.75595,-0.75595 -0.0716,-1.12141 2.11274,-1.12832 l 1.77257,-0.006 -0.0699,0.59874 c -0.0819,0.7015 -0.40099,0.81237 -2.33815,0.81237 -0.8558,0 -1.2796,-0.0795 -1.47726,-0.27718 z M -31.73343,86.1558 c -0.21828,-0.15364 -0.39687,-0.39111 -0.39687,-0.52772 0,-0.45552 0.68765,-0.6252 2.68951,-0.66364 l 1.98479,-0.0381 0.0558,0.48498 c 0.0719,0.6252 -0.27124,0.75796 -2.34886,0.90868 -1.29673,0.0941 -1.66019,0.064 -1.98438,-0.16418 z m 18.88391,-2.76309 c -0.49241,-0.23794 -0.59989,-0.52184 -0.33482,-0.88433 0.16821,-0.23004 0.60756,-0.29607 2.22933,-0.33502 2.2275,-0.0535 2.77475,0.0988 2.72613,0.75876 -0.024,0.32522 -0.16661,0.42974 -0.72086,0.5282 -1.04494,0.18563 -3.46247,0.14372 -3.89978,-0.0676 z M -31.20843,81.9769 c -0.60778,-0.1575 -0.70522,-0.41295 -0.34529,-0.9052 0.19613,-0.26822 0.68146,-0.3174 3.92466,-0.3977 2.59545,-0.0643 3.89151,-0.0294 4.3392,0.11658 0.61167,0.1995 0.63033,0.22947 0.4464,0.71677 -0.10558,0.2797 -0.27378,0.5174 -0.37378,0.52822 -0.9518,0.10295 -7.55453,0.0545 -7.99119,-0.0587 z m 18.26154,-1.54444 c -0.53644,-0.42197 -0.48006,-0.80502 0.14144,-0.96101 0.23414,-0.0588 1.47856,-0.14601 2.76536,-0.19386 1.28681,-0.0479 2.61746,-0.12561 2.95701,-0.17277 0.62772,-0.0872 1.57066,0.38877 1.11234,0.56147 -0.11582,0.0436 -0.16919,0.1872 -0.11861,0.31901 0.16685,0.43481 -0.51922,0.57228 -3.47008,0.69533 -2.7919,0.11641 -2.93753,0.10575 -3.38746,-0.24817 z m -16.27299,-0.8862 c -2.24244,-0.10417 -3.43959,-0.3256 -3.43959,-0.6362 0,-0.0638 0.16791,-0.26159 0.37312,-0.43957 0.34943,-0.30307 0.7497,-0.31936 6.3059,-0.25673 3.26303,0.0368 6.07169,0.12205 6.24147,0.18949 0.40764,0.16193 0.39076,0.53196 -0.0441,0.96682 -0.3301,0.3301 -0.56535,0.35079 -3.66007,0.32185 -1.81901,-0.017 -4.41854,-0.0826 -5.77673,-0.14566 z M 82.85735,78.3396 c -1.10582,-0.57332 -2.72495,-1.4601 -3.59807,-1.97063 -0.87313,-0.51053 -2.10344,-1.2204 -2.73403,-1.57749 -0.63059,-0.3571 -2.16506,-1.29863 -3.40992,-2.092284 -1.24487,-0.793658 -2.29737,-1.443014 -2.33889,-1.443014 -0.0415,0 -0.72955,-0.424099 -1.52896,-0.942442 -0.79942,-0.518344 -2.24723,-1.442851 -3.21737,-2.054458 -0.97014,-0.611607 -2.27983,-1.445246 -2.91042,-1.85253 C 59.92963,64.346359 55.78771,61.698593 54.21206,60.712439 53.72699,60.408849 52.4173,59.626053 51.30164,58.972892 50.18598,58.319731 48.95567,57.573749 48.56761,57.315158 48.17956,57.056565 47.30643,56.502843 46.62733,56.084664 45.94824,55.666486 45.1148,55.1499 44.77525,54.936697 44.4357,54.723492 43.8007,54.332727 43.36414,54.068331 42.92758,53.803932 42.16362,53.336318 41.66645,53.029187 41.16928,52.722055 40.43009,52.272328 40.02381,52.029794 39.61753,51.787259 38.99243,51.397937 38.6347,51.164634 38.27697,50.931332 37.50803,50.48722 36.92595,50.177719 36.34386,49.868218 34.62421,48.902745 33.10451,48.032224 31.5848,47.161702 29.579,46.097689 28.64718,45.66775 27.4039,45.094102 26.92573,44.781978 26.85063,44.495051 c -0.0563,-0.215046 -0.15393,-0.37719 -0.21698,-0.36032 -0.0631,0.01686 -0.44248,-0.02488 -0.84317,-0.09278 -1.06734,-0.180873 -1.36765,-0.724329 -1.25675,-2.274272 0.0894,-1.249161 0.4637,-1.973876 0.92759,-1.795866 0.12765,0.04898 0.48593,-0.0422 0.79618,-0.202638 0.31024,-0.160434 0.73493,-0.248821 0.94374,-0.196412 0.88313,0.221653 1.26437,1.887781 0.72651,3.175074 -0.22317,0.534114 -0.22682,0.638901 -0.0223,0.638901 0.13457,0 1.14767,0.523676 2.25132,1.163724 1.10366,0.640047 2.1654,1.23517 2.35942,1.322495 0.19403,0.08732 0.50871,0.258181 0.69928,0.379679 0.88317,0.563056 2.67139,1.620834 4.79186,2.834515 1.27388,0.729121 2.9961,1.768868 3.82716,2.310548 0.83106,0.541679 1.58891,0.984872 1.68411,0.984872 0.0952,0 0.2791,0.10601 0.40866,0.235577 0.12957,0.129566 0.7504,0.552771 1.37962,0.940454 0.62922,0.387683 2.09653,1.291325 3.2607,2.008094 1.16417,0.716768 2.15636,1.346897 2.20486,1.400288 0.0485,0.05339 0.32125,0.199704 0.60609,0.325141 0.28484,0.125439 0.80077,0.452108 1.14652,0.725932 0.34576,0.273824 0.96058,0.670867 1.36628,0.882318 0.4057,0.211452 0.83214,0.498324 0.94764,0.637493 0.1155,0.13917 0.28688,0.253037 0.38085,0.253037 0.094,0 0.62003,0.309618 1.16903,0.688041 0.549,0.378423 1.67286,1.105481 2.49748,1.615682 0.82462,0.510203 2.41212,1.524427 3.52778,2.25383 3.76706,2.462856 4.84911,3.154131 5.29166,3.380625 0.24254,0.124127 1.11566,0.676445 1.94028,1.227371 0.82462,0.550927 2.05493,1.337527 2.73403,1.747998 0.6791,0.410471 1.75066,1.072391 2.38125,1.470933 1.82142,1.151165 5.47356,3.283905 7.40833,4.326255 2.71459,1.46246 3.19848,1.81687 3.14081,2.30035 -0.0297,0.24898 -0.14143,0.48133 -0.24829,0.51635 -0.10685,0.035 -1.09904,-0.40542 -2.20486,-0.97874 z M 26.95997,41.534675 c 0,-0.339549 -0.0696,-0.617361 -0.15479,-0.617361 -0.22816,0 -0.61937,0.519354 -0.48923,0.649492 0.0615,0.06149 0.0234,0.218322 -0.0847,0.348515 -0.15586,0.187794 -0.10086,0.236715 0.26611,0.236715 0.41106,0 0.46257,-0.06875 0.46257,-0.617361 z M -13.47718,78.2548 c -0.16977,-0.13558 -0.30868,-0.36704 -0.30868,-0.51435 0,-0.33419 0.93315,-0.7373 1.41504,-0.61128 0.19753,0.0517 0.89261,0.0271 1.54462,-0.0545 2.20016,-0.27541 5.054,-0.51742 7.2197,-0.61226 1.99265,-0.0873 2.16714,-0.0691 2.33392,0.24251 0.13683,0.25566 0.11729,0.36099 -0.0811,0.43711 -0.14375,0.0552 -0.26135,0.21716 -0.26135,0.36 0,0.14284 -0.095,0.3184 -0.21104,0.39014 -0.11608,0.0717 -1.76311,0.19471 -3.66007,0.27326 -1.89697,0.0786 -4.40153,0.18626 -5.5657,0.23935 -1.66012,0.0757 -2.18325,0.0433 -2.42535,-0.15001 z m -16.66875,-3.66926 c -0.12126,-0.12369 -0.22048,-0.36327 -0.22048,-0.53239 0,-0.16913 -0.15407,-0.41541 -0.34238,-0.54731 -0.45437,-0.31825 -0.65845,-2.201269 -0.69519,-6.414337 -0.0224,-2.566451 0.0213,-3.23534 0.22207,-3.401971 0.13745,-0.114076 0.20975,-0.360994 0.16066,-0.548707 -0.0632,-0.241724 0.0322,-0.389469 0.32689,-0.506411 0.60217,-0.238928 4.62221,-0.530398 8.79461,-0.637648 1.98879,-0.05112 4.44941,-0.132614 5.46806,-0.181096 1.01865,-0.04848 2.1299,-0.02453 2.46944,0.05324 l 0.61737,0.141386 0.017,1.492052 c 0.009,0.82063 0.0791,2.563615 0.15496,3.873303 0.0759,1.309687 0.149,3.088396 0.16251,3.952687 l 0.0246,1.57144 -0.7087,0.307532 c -0.74962,0.3253 -1.17305,0.36479 -8.44914,0.7881 -0.86176,0.0501 -1.63224,0.13158 -1.71219,0.18099 -0.0799,0.0494 -1.1608,0.16247 -2.40191,0.25124 -1.24111,0.0888 -2.57407,0.21122 -2.96212,0.2721 -0.46934,0.0736 -0.77938,0.0354 -0.92604,-0.1142 z m 5.07118,-1.768732 c 1.00179,-0.176047 4.55678,-0.462585 6.05321,-0.487899 0.79476,-0.01344 0.84236,-0.04005 0.73578,-0.411249 -0.2122,-0.739053 -1.06762,-1.803068 -1.76924,-2.200668 -0.59966,-0.339824 -0.86006,-0.380518 -1.84475,-0.288295 -0.94232,0.08826 -1.2879,0.215425 -1.94027,0.714011 -0.43657,0.333647 -1.01058,0.938957 -1.27559,1.345131 -0.76944,1.179306 -0.77583,1.183868 -1.36903,0.97708 -0.29171,-0.101692 -0.53038,-0.259667 -0.53038,-0.351054 0,-0.395357 0.75556,-1.589499 1.56851,-2.479 l 0.87955,-0.962372 -0.28143,-0.782641 c -0.36796,-1.023237 -0.20375,-1.866643 0.52646,-2.704017 0.49537,-0.568066 0.69797,-0.666634 1.54558,-0.751958 0.76563,-0.07707 1.026,-0.03732 1.21036,0.184818 0.32942,0.396934 0.11413,0.816674 -0.41889,0.816674 -0.65891,0 -1.67394,0.714872 -1.67657,1.180789 -0.001,0.212872 0.17641,0.585278 0.39469,0.827569 0.37287,0.413883 0.45541,0.430728 1.36447,0.27848 0.88146,-0.147624 1.02637,-0.123155 1.62782,0.274861 0.36312,0.240302 0.76597,0.436912 0.89522,0.436912 0.2798,0 1.55702,1.345134 1.95202,2.055832 0.1534,0.275994 0.39512,0.796357 0.53715,1.156363 l 0.25823,0.654554 0.93793,-0.104027 c 0.51586,-0.05721 0.99511,-0.154956 1.06501,-0.2172 0.19792,-0.176242 0.22771,-3.193431 0.0597,-6.046881 l -0.15247,-2.589552 -3.19216,0.065 c -5.19359,0.105755 -10.00079,0.267645 -11.07117,0.372836 l -0.99983,0.09826 -0.10896,0.822199 c -0.2522,1.903233 -0.12586,5.099673 0.29149,7.374455 l 0.19892,1.084201 1.77925,-0.0864 c 0.97858,-0.0475 2.21581,-0.163075 2.74938,-0.256841 z M -9.68684,70.78566 c -0.12238,-0.04915 -0.30387,-0.241406 -0.40332,-0.427228 -0.13831,-0.258438 -0.10674,-0.417096 0.13431,-0.674935 0.26639,-0.28494 0.6698,-0.354661 2.60819,-0.45077 3.87146,-0.191957 4.80117,-0.142715 5.22038,0.276502 0.35465,0.354647 0.35578,0.374967 0.0415,0.747088 -0.17767,0.210388 -0.3859,0.428955 -0.46273,0.485704 -0.17201,0.12705 -6.82937,0.167748 -7.13837,0.04364 z M -50.73933,44.894552 c -0.097,-0.0362 -0.39585,-0.114265 -0.66409,-0.17347 -0.48343,-0.106703 -0.48681,-0.117283 -0.3847,-1.206054 0.0567,-0.604125 0.12954,-6.773721 0.16196,-13.710214 0.0324,-6.936493 0.10942,-13.603992 0.17111,-14.816666 0.0617,-1.212673 0.14871,-2.919236 0.19339,-3.792361 0.16208,-3.167189 0.45738,-6.718457 0.61603,-7.408333 0.0892,-0.388056 0.1642,-0.962013 0.16657,-1.275459 0.004,-0.468013 0.088,-0.590915 0.47259,-0.687432 0.25755,-0.06464 0.59489,-0.03674 0.74965,0.06199 0.31666,0.202032 0.31983,0.53373 0.0291,3.047425 -0.10658,0.921632 -0.25983,2.747257 -0.34054,4.056944 -0.0807,1.309688 -0.16315,2.619375 -0.18319,2.910417 -0.02,0.291041 -0.0662,7.464243 -0.10262,15.940447 l -0.0662,15.411278 1.00156,-0.10611 c 1.56347,-0.165644 5.87675,-0.445435 8.49809,-0.551251 1.30969,-0.05287 3.81,-0.172094 5.55625,-0.264947 1.74625,-0.09285 4.36563,-0.211961 5.82083,-0.264685 1.45521,-0.05273 3.00303,-0.134262 3.43959,-0.181196 0.43656,-0.04693 2.14312,-0.166638 3.79236,-0.266008 1.64923,-0.09937 3.51455,-0.219754 4.14514,-0.267519 1.90261,-0.144113 10.35562,-0.43825 15.61041,-0.543193 2.71639,-0.05425 7.05396,-0.143307 9.63903,-0.19791 l 4.70014,-0.09928 0.0937,-0.634677 c 0.10115,-0.684825 0.0173,-6.391864 -0.12984,-8.83676 -0.0496,-0.824619 -0.13538,-2.570868 -0.19055,-3.880556 -0.0552,-1.309687 -0.14153,-3.254375 -0.19188,-4.321528 -0.0504,-1.067152 -0.12569,-4.083402 -0.1674,-6.702777 -0.0854,-5.361279 -0.18969,-7.770038 -0.34753,-8.025439 -0.0591,-0.09557 -0.10613,-1.900817 -0.10459,-4.011661 0.002,-2.110846 -0.0706,-4.1554 -0.16034,-4.543455 -0.14462,-0.62541 -0.11881,-0.739635 0.2272,-1.005572 0.33537,-0.25776 1.05302,-0.276885 1.33807,-0.03566 0.0362,0.03062 0.13488,2.02367 0.21932,4.429006 0.0844,2.405336 0.22969,5.286149 0.32278,6.401809 0.0931,1.11566 0.17088,3.933472 0.17287,6.261805 0.002,2.328333 0.0395,4.774683 0.0834,5.436332 0.0439,0.661651 0.13354,3.003213 0.19929,5.203472 0.0657,2.200261 0.15128,4.052831 0.19008,4.116823 0.0692,0.114041 0.25612,5.463812 0.30784,8.808328 0.0179,1.154952 0.10428,1.786825 0.27201,1.988891 0.21213,0.255557 0.20102,0.379358 -0.081,0.903099 -0.36607,0.679753 -1.06364,0.94011 -1.66151,0.620135 -0.50546,-0.270513 -14.77911,-0.220853 -20.19912,0.07028 -0.97014,0.05211 -3.3117,0.139402 -5.20347,0.193984 -3.99522,0.115272 -8.02294,0.354296 -11.81806,0.701345 -0.53358,0.04879 -2.00201,0.127496 -3.26319,0.174895 -7.27189,0.273298 -15.34762,0.637099 -17.72709,0.798581 -1.50371,0.10205 -3.24996,0.220006 -3.88055,0.262125 -0.63059,0.04212 -1.2259,0.04696 -1.32292,0.01076 z m 3.97562,-8.596609 c -0.45468,-0.488048 -0.45693,-0.794036 -0.007,-0.936879 0.19403,-0.06158 0.35278,-0.185993 0.35278,-0.27647 0,-0.09047 0.37703,-0.165222 0.83785,-0.166102 0.46081,-8.82e-4 1.83003,-0.114002 3.04271,-0.251379 1.21267,-0.137378 3.99079,-0.335511 6.17361,-0.440295 2.18281,-0.104783 4.48468,-0.227622 5.11527,-0.272977 0.63059,-0.04536 2.01966,-0.127933 3.08681,-0.18351 1.06715,-0.05557 2.57528,-0.173417 3.35139,-0.26187 0.77611,-0.08845 2.36361,-0.208347 3.52778,-0.266434 1.16416,-0.05809 3.38666,-0.218435 4.93888,-0.35633 1.55223,-0.137894 3.5366,-0.292691 4.40973,-0.343994 0.87312,-0.0513 2.06375,-0.133435 2.64583,-0.182517 0.58208,-0.04908 2.48708,-0.16771 4.23333,-0.26362 1.74625,-0.09591 3.88938,-0.216 4.7625,-0.266866 2.68328,-0.156322 6.9256,-0.179209 7.06922,-0.03814 0.0748,0.07352 0.0627,0.42551 -0.027,0.782206 -0.11918,0.473995 -0.282,0.680037 -0.60498,0.765579 -0.24305,0.06437 -1.9893,0.172813 -3.88055,0.24098 -1.89125,0.06817 -3.67677,0.153083 -3.96781,0.188703 -0.29104,0.03562 -1.64042,0.116621 -2.99861,0.179999 -2.76772,0.129152 -3.03328,0.144765 -7.23194,0.425138 -1.64924,0.11013 -3.26431,0.243602 -3.58906,0.296602 -0.32474,0.053 -1.07881,0.128471 -1.6757,0.167708 -0.59688,0.03924 -1.64087,0.112436 -2.31997,0.162657 -0.67909,0.05022 -2.02847,0.134695 -2.99861,0.187715 -0.97014,0.05302 -2.12107,0.132842 -2.55764,0.177384 -1.4054,0.143387 -2.86007,0.242471 -5.11527,0.34843 -5.94348,0.27925 -10.98891,0.58835 -12.87639,0.788851 -2.57145,0.27316 -3.28922,0.233444 -3.6973,-0.204572 z m 2.32234,-5.009809 c -0.70824,-0.366005 -0.67814,-0.716444 0.10702,-1.245558 0.51298,-0.345701 0.72991,-0.37958 1.8364,-0.286815 1.18821,0.09961 1.24677,0.08734 1.10476,-0.231558 -0.0825,-0.185212 -0.15534,-0.852687 -0.16193,-1.483277 l -0.012,-1.146528 -2.66362,-0.08819 c -2.73724,-0.09063 -3.25207,-0.227201 -3.23986,-0.859444 0.003,-0.157896 0.2071,-0.433932 0.45346,-0.613415 0.36662,-0.267108 0.66173,-0.309834 1.62605,-0.235421 0.64798,0.05 1.7933,0.04618 2.54516,-0.0085 l 1.36701,-0.0994 v -0.742989 c 0,-0.408642 -0.0515,-1.118486 -0.11438,-1.57743 l -0.11437,-0.834445 -2.40047,0.113152 c -2.27386,0.107183 -2.42134,0.09371 -2.79604,-0.255379 -0.48716,-0.453854 -0.49264,-0.603399 -0.0376,-1.0273 0.29015,-0.270314 0.74951,-0.355834 2.42535,-0.451531 3.0112,-0.171954 2.86115,-0.08966 2.86115,-1.569125 v -1.240905 l -2.51354,0.118597 c -2.13568,0.100767 -2.57321,0.07677 -2.91042,-0.159637 -0.52858,-0.370565 -0.50031,-0.689718 0.0989,-1.116374 0.42502,-0.30264 0.83396,-0.360975 2.86632,-0.408887 l 2.37058,-0.05588 -0.006,-1.763889 -0.006,-1.763889 -1.91468,0.06056 c -2.13211,0.06744 -2.74675,-0.109652 -2.74675,-0.791392 0,-0.632107 0.73425,-0.880245 2.70721,-0.914892 0.95538,-0.01677 1.79326,-0.06523 1.86194,-0.10768 0.0687,-0.04245 0.11505,-0.419359 0.10304,-0.837581 l -0.0218,-0.760403 -2.01649,0.04218 c -1.70641,0.0357 -2.07885,-0.0061 -2.42198,-0.271832 -0.78325,-0.606569 -0.0506,-1.258587 1.55201,-1.381276 1.99419,-0.152663 2.54388,-0.249359 2.95725,-0.520208 0.37979,-0.248846 0.53868,-0.258874 1.11068,-0.0701 0.52669,0.173825 1.57256,0.178831 4.95845,0.02373 2.36004,-0.108105 4.48942,-0.231196 4.73195,-0.273535 0.24254,-0.04234 1.3141,-0.126677 2.38125,-0.187415 1.06715,-0.06074 2.89278,-0.225991 4.05695,-0.367229 1.16416,-0.141236 3.08874,-0.302498 4.27685,-0.358359 l 2.16018,-0.101564 0.18146,0.47728 c 0.23649,0.622017 0.0693,1.115091 -0.41254,1.216397 -0.21182,0.04454 -1.31879,0.126975 -2.45995,0.183199 -2.35078,0.115821 -2.58393,0.170429 -2.50151,0.585883 0.0324,0.163509 0.10331,0.577208 0.15749,0.919332 l 0.0985,0.62204 2.06609,-0.0047 2.06609,-0.0047 0.1732,0.487842 c 0.30836,0.868556 -0.13153,1.083975 -2.36992,1.160591 l -1.93666,0.06628 0.002,1.3475 c 0.003,1.92853 0.0991,2.192284 0.75977,2.095316 1.14139,-0.167522 2.38954,0.378963 2.40721,1.053966 0.009,0.353587 -0.72426,0.653412 -1.83866,0.751544 -0.9822,0.08649 -1.04979,0.121186 -1.03936,0.533481 0.006,0.242535 0.0225,0.892815 0.0363,1.445066 l 0.0251,1.004093 0.74638,0.05424 c 0.63691,0.04629 0.77173,0.126744 0.91927,0.548617 0.23029,0.658522 -0.046,1.077609 -0.75716,1.148378 -0.71205,0.07086 -0.85492,0.396126 -0.76988,1.752731 l 0.0691,1.10243 h 1.10927 c 1.17835,0 1.4627,0.162163 1.59698,0.910751 0.12854,0.71658 -0.15708,0.917541 -1.41818,0.997842 l -1.17419,0.07477 0.10349,0.849692 c 0.0569,0.467331 0.0228,1.062011 -0.0759,1.321509 -0.15112,0.397499 -0.13616,0.455233 0.095,0.366532 0.1509,-0.05791 0.85712,-0.154292 1.56938,-0.214189 1.40295,-0.117981 2.04338,0.07098 2.04338,0.602912 0,0.171211 0.0952,0.406544 0.21167,0.522961 0.16463,0.164629 0.14503,0.211666 -0.0882,0.211666 -0.16493,0 -0.29987,0.07578 -0.29987,0.168397 0,0.202322 -0.20589,0.23494 -4.56248,0.722752 -4.53314,0.50758 -4.16911,0.479779 -7.92594,0.605278 -1.81411,0.0606 -3.81432,0.147691 -4.44491,0.193532 -0.63059,0.04584 -2.73403,0.125371 -4.6743,0.17673 -3.09631,0.08196 -3.59887,0.05664 -4.10899,-0.20698 z m 10.51358,-1.858056 c 2.69998,-0.02718 4.41427,-0.139435 8.05929,-0.527738 1.80019,-0.191774 3.10829,-0.468917 2.34796,-0.497455 -0.21955,-0.0082 -0.32736,-0.231458 -0.41004,-0.849029 -0.0617,-0.460816 -0.14732,-0.947192 -0.19029,-1.080837 -0.0796,-0.247569 -0.66219,-0.237506 -5.12524,0.08854 l -1.43734,0.105005 0.13892,0.484376 c 0.16882,0.588641 0.0298,1.414296 -0.29241,1.736495 -0.31365,0.313643 -1.23946,0.11096 -1.47122,-0.322084 -0.0962,-0.179765 -0.17492,-0.68925 -0.17492,-1.132191 v -0.805346 h -2.35463 c -1.29506,0 -2.96193,0.05134 -3.70417,0.114078 l -1.34953,0.114076 v 0.935957 c 0,0.514776 0.0965,1.147658 0.21435,1.406405 0.21287,0.467204 0.22412,0.469713 1.6316,0.363691 0.77948,-0.05872 2.63243,-0.118992 4.11767,-0.133943 z m -1.73029,-4.640416 c 0.82462,-0.05078 1.83665,-0.09409 2.24896,-0.09623 l 0.74965,-0.0039 v -1.499306 c 0,-1.305345 -0.0399,-1.500993 -0.30868,-1.512356 -1.10403,-0.04668 -6.82942,0.04325 -6.93571,0.108937 -0.10982,0.06787 -0.11301,1.041335 -0.009,2.83878 0.0237,0.411202 0.15813,0.416384 4.25508,0.16407 z m 11.21693,-0.474378 c 0.10593,-0.08352 0.24484,-0.09963 0.30868,-0.03579 0.0638,0.06384 0.11606,0.03669 0.11606,-0.06033 0,-0.09701 -0.0595,-0.236102 -0.13229,-0.309085 -0.0728,-0.07298 -0.1323,-0.70137 -0.1323,-1.396412 0,-1.157611 -0.0296,-1.260823 -0.35277,-1.229254 -0.19403,0.01895 -1.62278,0.08469 -3.175,0.146087 -1.55223,0.06139 -2.92631,0.144482 -3.05353,0.18464 -0.17684,0.05582 -0.20481,0.374422 -0.11877,1.353218 0.0619,0.704113 0.14549,1.384225 0.18577,1.51136 0.0586,0.185128 0.6794,0.20689 3.11738,0.109287 1.67428,-0.06703 3.13082,-0.190205 3.23677,-0.273723 z m -10.20269,-4.549278 c 2.24987,-0.01741 2.09325,0.123806 1.87548,-1.691052 l -0.10583,-0.881945 -3.59681,0.05104 -3.5968,0.05104 v 1.301273 c 0,0.722599 0.0795,1.327784 0.17884,1.360887 0.0984,0.03279 0.87226,0.0066 1.71979,-0.05814 0.84752,-0.06476 2.43392,-0.12466 3.52533,-0.133109 z m 8.76266,-0.342348 1.57482,-0.113982 -0.0435,-1.234722 c -0.0239,-0.679098 -0.10394,-1.296626 -0.17779,-1.372288 -0.0739,-0.07566 -1.08044,-0.0534 -2.23685,0.04946 -1.15642,0.102865 -2.57072,0.226872 -3.1429,0.275573 -0.57218,0.0487 -1.11115,0.132316 -1.19771,0.185815 -0.14323,0.08852 -0.017,2.10261 0.15029,2.397338 0.0676,0.119175 1.64464,0.06099 5.07367,-0.187193 z m -8.54218,-3.880402 c 1.46104,-0.0472 1.46807,-0.05818 1.31806,-2.059074 l -0.12935,-1.725298 -3.35466,0.112206 c -1.84506,0.06172 -3.37569,0.133456 -3.4014,0.159424 -0.0609,0.06155 -0.11269,1.569559 -0.0928,2.702426 l 0.0157,0.891318 2.33715,-0.02483 c 1.28543,-0.01365 2.77371,-0.03893 3.30729,-0.05617 z m 5.64445,-0.453942 c 0.53357,-0.04608 1.70436,-0.138765 2.60173,-0.205974 l 1.6316,-0.122197 -0.002,-0.724345 c -8.8e-4,-0.39839 -0.0519,-1.143621 -0.11343,-1.656069 l -0.11191,-0.931725 -1.96741,0.117621 c -1.08207,0.06469 -2.59868,0.126782 -3.37024,0.137977 l -1.40278,0.02035 0.0217,0.617361 c 0.012,0.339548 0.0318,1.155876 0.0441,1.814061 l 0.0224,1.196701 0.83784,-0.08999 c 0.46082,-0.0495 1.27441,-0.127693 1.80799,-0.17377 z m -7.23138,-4.949264 c 1.5034,-0.06972 2.74821,-0.140033 2.76624,-0.156252 0.018,-0.01621 -0.0123,-0.36531 -0.0673,-0.775762 l -0.10009,-0.746277 -1.07921,-0.02779 c -1.26479,-0.03257 -0.99947,-0.03948 -3.48137,0.09068 -1.08232,0.05676 -1.99492,0.130261 -2.028,0.16334 -0.0833,0.08329 -0.12911,0.655616 -0.0957,1.195167 0.0251,0.40559 0.095,0.447839 0.68997,0.417457 0.36411,-0.01859 1.89208,-0.09084 3.39549,-0.160565 z m 8.88741,-0.267361 c 1.25037,-0.09145 2.31164,-0.204528 2.35839,-0.251275 0.0468,-0.04675 0.0159,-0.507825 -0.0685,-1.02462 l -0.15353,-0.939624 -2.38125,0.228724 c -1.30969,0.125799 -2.77813,0.247299 -3.2632,0.270004 l -0.88194,0.04128 -0.0559,0.680007 c -0.0307,0.374005 -0.0134,0.790724 0.0386,0.926042 0.11291,0.294247 1.1176,0.310083 4.40735,0.06946 z m 11.26833,17.956138 c -0.47804,-0.23249 -0.67809,-0.776639 -0.40604,-1.104449 0.15655,-0.188623 0.12066,-0.266546 -0.16443,-0.357032 -0.35193,-0.111696 -0.36149,-0.203262 -0.27324,-2.616569 0.0503,-1.375454 0.13596,-3.310501 0.19035,-4.300107 0.0544,-0.989605 0.13137,-3.29148 0.17107,-5.115277 0.0397,-1.823798 0.15185,-4.308182 0.24924,-5.520856 0.0974,-1.212673 0.17887,-2.378106 0.18107,-2.589849 0.003,-0.241251 0.15091,-0.431615 0.39747,-0.50987 0.2164,-0.06868 0.6188,-0.291475 0.8942,-0.495092 0.35743,-0.264255 0.88848,-0.402995 1.8555,-0.484755 0.74511,-0.063 2.30725,-0.208042 3.47142,-0.322321 1.16417,-0.114279 2.71198,-0.237788 3.43958,-0.274463 0.72761,-0.03668 1.68011,-0.107935 2.11667,-0.158354 0.43656,-0.05042 1.50812,-0.141946 2.38125,-0.203391 0.87312,-0.06145 1.64814,-0.149003 1.72225,-0.194574 0.32301,-0.198614 5.50605,-0.49211 7.27181,-0.411775 1.8564,0.08446 1.9472,0.106869 2.14392,0.529167 0.13726,0.294655 0.15761,0.733603 0.0613,1.322916 -0.0793,0.48507 -0.15293,3.223507 -0.1637,6.085417 -0.0278,7.399572 -0.13701,12.933341 -0.28471,14.431408 -0.10845,1.100037 -0.19098,1.332209 -0.55932,1.573553 -0.35269,0.231094 -0.4587,0.240047 -0.57695,0.04873 -0.1186,-0.191909 -0.52346,-0.198266 -2.2339,-0.03507 -1.14898,0.109625 -4.70842,0.244364 -7.90988,0.29942 -3.20146,0.05505 -6.73364,0.172792 -7.8493,0.261639 -3.70054,0.294693 -5.71503,0.341248 -6.12564,0.141558 z m 4.44994,-1.721581 c 2.41946,-0.207958 4.99476,-0.320359 10.40695,-0.454215 4.1177,-0.10184 7.39079,-0.312526 8.26539,-0.532036 0.66603,-0.167164 0.61678,0.734388 0.70118,-12.836015 0.04,-6.427456 0.0147,-7.217191 -0.23534,-7.351009 -0.37162,-0.19888 -5.21793,-0.002 -6.73307,0.273592 -0.54708,0.09949 -6.20923,0.586242 -9.23011,0.793469 -1.64923,0.113134 -3.71298,0.296362 -4.58611,0.407171 l -1.5875,0.201473 -0.13068,1.411111 c -0.23438,2.530886 -0.24685,8.215806 -0.0178,8.127753 0.11234,-0.0432 0.86641,-0.512799 1.67569,-1.043566 3.23708,-2.12302 5.0874,-2.714942 5.0874,-1.62747 0,0.232603 0.0876,0.452126 0.19476,0.48783 0.10711,0.0357 -0.54774,0.413551 -1.45521,0.839659 -1.42103,0.667246 -2.6067,1.376498 -4.77372,2.855565 -0.26286,0.17941 -0.59096,0.326201 -0.72911,0.326201 -0.36451,0 -0.50647,1.713209 -0.43802,5.286105 l 0.0576,3.003952 0.79375,-0.0014 c 0.43656,-7.05e-4 1.66687,-0.07644 2.73402,-0.168171 z m 8.9823,-2.20784 -0.49409,-0.393975 0.46628,-0.46628 c 0.62082,-0.620819 1.31413,-0.621106 1.55003,-7.06e-4 0.13745,0.361513 0.11419,0.535083 -0.10398,0.776166 -0.43982,0.485994 -0.88188,0.512404 -1.41824,0.08473 z m -1.25352,-1.841517 c -0.59283,-0.552309 -1.50052,-2.751824 -2.58996,-6.275991 -0.38987,-1.261173 -0.40918,-1.45328 -0.18172,-1.807986 0.26082,-0.406724 1.1813,-0.562866 1.38407,-0.234779 0.0551,0.08915 0.29648,0.863059 0.5364,1.719792 0.68247,2.437015 0.9703,3.223674 1.70166,4.650817 0.78106,1.524117 0.79473,1.600146 0.35862,1.994817 -0.42203,0.381932 -0.76315,0.368764 -1.20907,-0.04667 z m 3.50719,-1.813352 C -0.42073,19.992445 -0.44703,19.359768 -0.21524,19.124467 0.15762,18.74602 2.39928,14.919468 3.53867,12.716469 5.30155,9.30799 5.54918,8.946518 6.02186,9.091715 c 0.506,0.155432 0.47784,0.116729 0.58448,0.803398 0.0723,0.465857 -0.0356,0.805835 -0.49716,1.565257 -0.32426,0.533577 -0.69937,1.235331 -0.83356,1.559455 -0.1342,0.324123 -0.78884,1.47506 -1.45476,2.557638 -0.66593,1.082578 -1.48706,2.523949 -1.82474,3.203046 -0.33768,0.679097 -0.74788,1.333941 -0.91156,1.455208 -0.37694,0.27927 -0.97854,0.283505 -1.25323,0.0088 z m -7.88458,-7.952415 c -0.19403,-0.117915 -0.37366,-0.222047 -0.39919,-0.231405 -0.0255,-0.0093 0.0748,-0.307014 0.22285,-0.661458 0.22001,-0.526544 0.36065,-0.644444 0.76873,-0.644444 0.28095,0 0.64391,0.159612 0.82963,0.364832 0.30132,0.332954 0.30708,0.406162 0.0659,0.837847 -0.29568,0.529197 -0.93218,0.672344 -1.48789,0.334628 z M 5.41597,7.932593 4.99956,7.579815 5.41597,7.227037 C 6.2491,6.521229 7.34768,7.072764 6.81324,7.928531 6.52949,8.382891 5.94949,8.384577 5.41597,7.932631 Z M -49.72509,1.377215 c -0.44482,-0.122199 -0.57326,-0.252829 -0.57326,-0.583004 0,-0.234037 0.0865,-0.478967 0.19217,-0.544289 0.19628,-0.121311 4.51212,-0.710524 6.42241,-0.876811 0.58208,-0.05067 1.29646,-0.126411 1.5875,-0.168316 0.29104,-0.0419 1.3626,-0.128489 2.38125,-0.192409 1.01864,-0.06392 1.89661,-0.142187 1.95104,-0.173926 0.11121,-0.06485 3.33043,-0.199151 8.4559,-0.352761 1.89177,-0.0567 3.83646,-0.132316 4.32153,-0.168045 4.34842,-0.320291 13.27712,-0.734181 22.84236,-1.058859 1.4067,-0.04775 2.87514,-0.127913 3.26319,-0.178144 1.42222,-0.184095 2.5363,-0.254461 5.64445,-0.356509 3.42718,-0.112522 4.00268,-0.0075 4.11185,0.750677 0.10596,0.735911 -0.51711,0.905131 -3.4063,0.925126 -2.48421,0.01719 -3.12041,0.04861 -5.55625,0.274415 -0.53357,0.04946 -4.10545,0.207229 -7.9375,0.350592 -10.7758,0.403141 -11.7071,0.442274 -14.81666,0.622611 -4.33028,0.25113 -6.11532,0.332678 -9.525,0.435146 -5.83933,0.17548 -9.94043,0.47174 -15.08125,1.089452 -3.03627,0.364832 -3.59783,0.391752 -4.27743,0.205054 z"
       id="path340" />
  </g>
</svg>
