<?xml version="1.0" encoding="UTF-8" standalone="no"?>
<!-- Created with Inkscape (http://www.inkscape.org/) -->

<svg
   width="164.134mm"
   height="146.99541mm"
   viewBox="0 0 164.134 146.99541"
   version="1.1"
   id="svg525"
   inkscape:version="1.2.1 (9c6d41e, 2022-07-14)"
   sodipodi:docname="gen_right.svg"
   xmlns:inkscape="http://www.inkscape.org/namespaces/inkscape"
   xmlns:sodipodi="http://sodipodi.sourceforge.net/DTD/sodipodi-0.dtd"
   xmlns="http://www.w3.org/2000/svg"
   xmlns:svg="http://www.w3.org/2000/svg">
  <sodipodi:namedview
     id="namedview527"
     pagecolor="#505050"
     bordercolor="#ffffff"
     borderopacity="1"
     inkscape:showpageshadow="0"
     inkscape:pageopacity="0"
     inkscape:pagecheckerboard="1"
     inkscape:deskcolor="#505050"
     inkscape:document-units="mm"
     showgrid="false"
     inkscape:zoom="0.2102413"
     inkscape:cx="-371.00227"
     inkscape:cy="275.87348"
     inkscape:window-width="1440"
     inkscape:window-height="456"
     inkscape:window-x="0"
     inkscape:window-y="0"
     inkscape:window-maximized="0"
     inkscape:current-layer="layer1" />
  <defs
     id="defs522" />
  <g
     inkscape:label="Calque 1"
     inkscape:groupmode="layer"
     id="layer1"
     transform="translate(-22.386384,-75.002296)">
    <path
       style="fill:#000000;stroke-width:1"
       d="m 112.47705,221.9617 c -1.47436,-0.20037 -3.55814,-0.66849 -4.28269,-0.9621 -0.4637,-0.18791 -0.92011,-0.29406 -1.01423,-0.23589 -0.0941,0.0582 -0.17114,0.039 -0.17114,-0.0425 0,-0.0816 -0.34536,-0.25026 -0.76747,-0.3749 -0.42211,-0.12463 -0.98599,-0.33998 -1.25308,-0.47854 -0.26708,-0.13857 -0.55672,-0.20799 -0.64364,-0.15427 -0.0869,0.0537 -0.15803,0.019 -0.15803,-0.0773 0,-0.0962 -0.16579,-0.22753 -0.36843,-0.29184 -0.4781,-0.15175 -2.52432,-1.35993 -2.60078,-1.53563 -0.0323,-0.0743 -0.17125,-0.1351 -0.30868,-0.1351 -0.13744,0 -0.24989,-0.0669 -0.24989,-0.14861 0,-0.0817 -0.27781,-0.29823 -0.61736,-0.48109 -0.339547,-0.18285 -0.61736,-0.39379 -0.61736,-0.46874 0,-0.075 -0.08504,-0.13628 -0.188988,-0.13628 -0.103942,0 -0.299328,-0.0992 -0.43419,-0.22049 -0.13486,-0.12127 -0.610064,-0.53798 -1.056007,-0.92604 -1.235835,-1.07541 -3.602986,-3.46263 -4.022845,-4.05694 -0.455714,-0.64507 -0.654041,-0.8975 -1.011394,-1.28729 -0.151377,-0.16512 -0.579942,-0.76808 -0.95237,-1.33991 -1.497832,-2.29981 -3.139662,-4.07056 -4.272701,-4.60823 -0.616835,-0.2927 -0.7841,-0.83686 -0.335107,-1.09018 0.137504,-0.0776 0.491656,-1.09356 0.787003,-2.25773 0.295349,-1.16416 0.657495,-2.59291 0.804769,-3.175 0.147276,-0.58208 0.54888,-2.24895 0.892455,-3.70416 1.967057,-8.33146 1.923389,-8.1629 3.244476,-12.52361 0.702972,-2.32041 1.35799,-4.2307 1.854084,-5.40725 0.261796,-0.62087 0.319146,-0.65272 1.549398,-0.86022 2.374739,-0.40056 4.872327,0.11435 6.757497,1.39314 0.51971,0.35255 1.95486,1.59349 3.18922,2.75766 1.23435,1.16417 2.33175,2.19604 2.43867,2.29306 6.1982,5.62428 12.80372,7.85701 18.1845,6.14654 1.32458,-0.42107 5.32952,-2.4693 8.11389,-4.14965 1.35819,-0.81966 2.85675,-1.72334 3.33011,-2.00818 0.47337,-0.28483 1.13673,-0.69986 1.47414,-0.92229 1.59872,-1.05389 7.03763,-3.74073 7.57228,-3.74073 0.0822,0 0.82365,-0.26242 1.6476,-0.58316 0.82395,-0.32074 1.97434,-0.68277 2.55643,-0.80452 0.58208,-0.12175 1.4552,-0.33131 1.94027,-0.46568 2.78626,-0.77183 7.29172,-1.03197 10.84792,-0.62634 3.66566,0.41812 7.99115,1.2376 8.95174,1.69594 l 0.92604,0.44186 v 0.95602 c 0,0.52581 -0.078,1.33695 -0.1733,1.80255 -0.16581,0.80994 -0.33819,2.35067 -0.71638,6.40277 -0.0951,1.01865 -0.20558,2.16959 -0.24557,2.55764 -0.04,0.38806 -0.12794,1.8565 -0.19544,3.2632 -0.0675,1.4067 -0.14861,2.60266 -0.18025,2.65768 -0.0316,0.055 -0.0709,1.75646 -0.0873,3.78096 -0.0287,3.54152 -0.0164,3.6859 0.32521,3.81225 1.02544,0.37934 0.56672,1.12387 -0.79226,1.2859 -3.16611,0.37749 -5.42498,0.61785 -6.75413,0.7187 -2.80878,0.21313 -3.39123,0.27498 -5.17933,0.54998 -0.98342,0.15124 -2.58178,0.38084 -3.55192,0.51021 -1.8182,0.24247 -3.5534,0.55983 -3.7619,0.68804 -0.0653,0.0401 -0.54742,0.12727 -1.07147,0.19365 -0.52405,0.0664 -1.07968,0.15317 -1.23472,0.19287 -0.15505,0.0397 -0.79784,0.20417 -1.42843,0.36549 -1.44145,0.36878 -4.69586,1.4453 -5.32701,1.76212 -0.26197,0.1315 -0.59143,0.23909 -0.73214,0.23909 -0.48273,0 -6.25357,2.77271 -6.83113,3.28215 -0.15316,0.1351 -0.33862,0.24563 -0.41214,0.24563 -0.0735,0 -0.46414,0.22553 -0.86805,0.50119 -0.40392,0.27565 -1.29002,0.87275 -1.96912,1.32689 -1.46021,0.9765 -2.65208,1.84031 -4.07567,2.95385 -1.32101,1.0333 -3.9269,2.76567 -5.18474,3.44676 -1.76047,0.95326 -4.5327,1.72102 -6.96736,1.92961 -1.7334,0.1485 -3.73116,0.2072 -4.32153,0.12696 z m 5.52246,-1.65298 c 1.3935,-0.20559 3.20505,-0.74088 4.20445,-1.24236 1.36469,-0.68477 4.22328,-2.58909 6.58906,-4.38946 6.03171,-4.59016 11.31038,-7.29818 18.69722,-9.59189 3.01791,-0.9371 12.09675,-2.38665 17.81528,-2.84444 0.6791,-0.0544 2.10785,-0.18527 3.175,-0.2909 1.06715,-0.10563 2.11887,-0.19275 2.33715,-0.19358 l 0.39688,-0.002 v -3.7203 c 0,-3.53877 0.12534,-6.03342 0.54204,-10.78769 0.30207,-3.44648 0.70815,-7.17038 0.88262,-8.09386 0.21259,-1.1253 0.20742,-2.17651 -0.0114,-2.31174 -0.0958,-0.0592 -0.90941,-0.18627 -1.80799,-0.28236 -0.89857,-0.0961 -2.66565,-0.32575 -3.92683,-0.51037 -3.31471,-0.48525 -4.1451,-0.56098 -6.14557,-0.56047 -2.04374,5.2e-4 -6.03432,0.47193 -7.08359,0.83679 -0.38806,0.13495 -0.85053,0.24651 -1.02772,0.24792 -0.17718,0.001 -1.52656,0.40573 -2.99861,0.89848 -2.77647,0.92939 -7.34328,3.07898 -9.21871,4.33923 -1.58912,1.06791 -4.62807,2.87881 -4.83096,2.87881 -0.0991,0 -0.18025,0.074 -0.18025,0.1645 0,0.0905 -0.17859,0.21893 -0.39688,0.28545 -0.21828,0.0665 -0.51593,0.22124 -0.66145,0.34382 -0.14552,0.12259 -0.89959,0.54975 -1.6757,0.94925 -0.77611,0.3995 -1.49048,0.78836 -1.5875,0.86413 -0.41577,0.32476 -2.40626,1.19739 -3.79236,1.66259 -1.87828,0.63038 -4.33385,0.81054 -6.81505,0.5 -0.95689,-0.11977 -1.81919,-0.27892 -1.9162,-0.35367 -0.097,-0.0748 -0.68165,-0.30827 -1.29918,-0.51891 -0.61754,-0.21065 -1.42797,-0.53868 -1.80096,-0.72897 -0.37299,-0.19028 -0.79378,-0.34597 -0.93508,-0.34597 -0.1413,0 -0.28337,-0.061 -0.31571,-0.13548 -0.0323,-0.0745 -0.49535,-0.40883 -1.02893,-0.74293 -2.30135,-1.44099 -4.49837,-3.23406 -7.67681,-6.26534 -0.73768,-0.70351 -2.63011,-2.41707 -2.95278,-2.67366 -1.1022,-0.87651 -4.107121,-1.66276 -5.615304,-1.46928 -0.480266,0.0616 -0.937151,0.18554 -1.015294,0.2754 -0.293324,0.33728 -2.811715,8.48105 -3.296054,10.65851 -0.324016,1.45669 -0.582085,2.52503 -1.140296,4.72052 -0.203793,0.80153 -0.478331,1.99216 -0.610089,2.64584 -0.236816,1.1749 -0.955608,4.1966 -1.686449,7.0896 -0.363812,1.44014 -0.365666,1.49914 -0.05399,1.71739 0.938028,0.65687 2.815273,2.78231 3.942855,4.46415 1.676834,2.50108 4.627621,5.69858 6.673956,7.23195 0.323665,0.24253 0.798985,0.59972 1.056245,0.79375 1.13072,0.85277 1.66488,1.16602 3.42594,2.00911 2.30091,1.10154 2.96435,1.35521 4.97932,1.90389 2.67464,0.72832 6.18562,0.95776 8.78566,0.57414 z m -4.60789,-2.61116 c -0.18724,-0.11874 -0.1449,-0.50153 0.2196,-1.98552 0.24836,-1.01113 0.72831,-3.46388 1.06655,-5.45055 0.33824,-1.98668 1.08603,-5.44678 1.66176,-7.68913 1.26696,-4.93458 1.66528,-6.76357 2.04997,-9.41286 0.16169,-1.11351 0.42996,-2.28963 0.59616,-2.61359 0.30212,-0.58889 0.30228,-0.58895 0.71202,-0.25716 0.4054,0.32828 0.40749,0.3489 0.193,1.90804 -0.29084,2.1142 -1.18595,6.6761 -1.5033,7.66159 -0.60401,1.87563 -1.90698,7.33708 -2.2935,9.6132 -0.23063,1.35819 -0.5481,3.02507 -0.70547,3.70416 -0.15737,0.6791 -0.30601,1.35379 -0.33031,1.49931 -0.24202,1.44927 -0.57854,2.5836 -0.84573,2.85079 -0.36071,0.3607 -0.48253,0.38619 -0.82075,0.17172 z m -4.31006,-0.15732 c -0.20643,-0.046 -0.30868,-0.2368 -0.30868,-0.57589 0,-0.48097 -0.0259,-0.49803 -0.50312,-0.33167 -0.8332,0.29045 -3.01399,-0.0732 -4.35421,-0.72614 -1.76638,-0.86052 -5.355051,-3.66031 -5.064312,-3.95105 0.05646,-0.0565 -0.0098,-0.10629 -0.147222,-0.11071 -0.137437,-0.004 -0.622238,-0.50285 -1.077339,-1.1076 -0.455099,-0.60474 -1.772345,-2.0894 -2.927214,-3.29924 -1.154867,-1.20983 -2.358393,-2.49735 -2.674498,-2.86115 -0.316107,-0.36381 -0.682787,-0.66146 -0.814845,-0.66146 -0.2987,0 -0.604557,-0.54915 -0.607555,-1.09084 -0.0068,-1.21942 1.875536,-7.80649 2.989744,-10.46263 0.08139,-0.19403 0.445399,-1.30528 0.808907,-2.46945 0.911553,-2.91933 1.67528,-4.6743 2.034153,-4.6743 0.158615,0 0.432058,-0.15875 0.607651,-0.35278 0.175594,-0.19403 0.409851,-0.35278 0.520573,-0.35278 0.110723,0 0.805856,0.39688 1.54474,0.88194 0.738883,0.48507 1.393247,0.88195 1.454147,0.88195 0.0609,0 1.15925,0.6608 2.44077,1.46844 4.25509,2.68163 7.37291,4.01603 10.39465,4.44882 0.9411,0.1348 1.66837,0.81038 1.81655,1.68745 0.0759,0.44919 0.0484,0.79255 -0.0732,0.91415 -0.10711,0.10711 -0.19475,0.39875 -0.19475,0.64809 0,0.24933 -0.14605,1.00736 -0.32457,1.68451 -0.17851,0.67715 -0.41234,1.62805 -0.51962,2.11312 -0.10729,0.48507 -0.35353,1.55663 -0.54721,2.38125 -0.19368,0.82462 -0.48176,2.41212 -0.64018,3.52778 -0.33807,2.38077 -0.85395,4.66787 -1.92965,8.55486 -0.42957,1.55222 -0.80543,3.01202 -0.83525,3.24399 -0.0566,0.4407 -0.54125,0.70891 -1.06845,0.59134 z m 0.0185,-2.20373 c 0.0987,-0.41231 0.42733,-1.66247 0.73037,-2.77813 0.76867,-2.82998 1.53274,-6.2414 1.67903,-7.49652 0.0678,-0.58209 0.24332,-1.61396 0.38996,-2.29306 0.14663,-0.6791 0.32703,-1.55222 0.40089,-1.94028 0.24013,-1.26179 1.40808,-6.33677 1.57301,-6.83507 l 0.16055,-0.48507 h -0.94613 c -0.52038,0 -1.36676,-0.0897 -1.88086,-0.19937 -1.57618,-0.33618 -5.45637,-2.00864 -6.93195,-2.98784 -0.38805,-0.25751 -1.10243,-0.71521 -1.5875,-1.01711 -0.48507,-0.30189 -0.96997,-0.62304 -1.07757,-0.71366 -0.1076,-0.0906 -0.54416,-0.34228 -0.97014,-0.55926 -0.42598,-0.21697 -1.032479,-0.5909 -1.347774,-0.83095 -0.315295,-0.24005 -0.573264,-0.37912 -0.573264,-0.30905 0,0.0701 -0.282565,-0.1207 -0.627922,-0.42392 -0.947847,-0.83222 -0.734312,-1.19296 -2.75841,4.65991 -1.806894,5.22481 -2.341924,6.96043 -2.874623,9.32518 l -0.434543,1.92901 0.639066,0.72291 c 0.351486,0.3976 1.639693,1.76507 2.86268,3.03882 1.222987,1.27376 3.156151,3.31042 4.295921,4.5259 2.555439,2.72521 4.783119,4.27002 6.658939,4.6177 1.38149,0.25606 1.94028,0.44145 1.94028,0.64369 0,0.0857 0.11264,0.15582 0.2503,0.15582 0.14873,0 0.32309,-0.30418 0.42969,-0.74965 z m 10.30022,0.9049 c -0.66785,-0.19262 -0.73989,-0.57111 -0.17639,-0.9268 0.47738,-0.30133 2.89106,-0.54265 3.4173,-0.34166 0.28839,0.11014 0.34332,0.22662 0.23869,0.5061 -0.10485,0.28009 -0.40069,0.41182 -1.29483,0.57658 -0.63741,0.11744 -1.26076,0.24449 -1.38522,0.28233 -0.12446,0.0378 -0.48426,-0.006 -0.79955,-0.0965 z m 1.07638,-3.32907 c -0.83107,-0.33532 -0.62432,-0.98093 0.372,-1.1616 0.27386,-0.0497 0.824,-0.25509 1.22252,-0.45652 0.39852,-0.20142 1.12146,-0.46434 1.60653,-0.58426 0.74708,-0.1847 0.96286,-0.17668 1.41111,0.0525 0.29135,0.14894 1.17779,0.30586 1.97245,0.34917 1.35096,0.0736 1.43025,0.0995 1.23961,0.40479 -0.11202,0.17937 -0.43001,0.41988 -0.70664,0.53447 -0.65935,0.27311 -2.35706,0.2106 -3.00068,-0.11047 -0.4578,-0.22839 -0.57557,-0.21974 -1.17537,0.0863 -0.52082,0.2657 -2.5627,1.10203 -2.5627,1.04965 0,-0.006 -0.17047,-0.0799 -0.37883,-0.16394 z m -0.30476,-3.08512 c -0.4092,-0.30987 -0.27264,-0.73015 0.32586,-1.00284 0.24526,-0.11175 0.44592,-0.31419 0.44592,-0.44986 0,-0.13567 0.0794,-0.19761 0.17645,-0.13763 0.097,0.06 0.55361,-0.20897 1.01458,-0.59767 0.46098,-0.3887 1.12335,-0.82589 1.47194,-0.97154 0.56293,-0.23521 0.73054,-0.23533 1.49896,-10e-4 1.10249,0.33607 1.8568,0.19618 2.63725,-0.48906 0.76556,-0.67218 1.87577,-0.84969 2.68783,-0.42975 0.75085,0.38827 1.30753,0.3585 2.93097,-0.15675 0.76418,-0.24253 1.66602,-0.44097 2.0041,-0.44097 0.50479,0 0.73611,-0.13793 1.29375,-0.77145 0.72266,-0.82099 1.7834,-1.43655 2.19999,-1.27669 0.39204,0.15044 0.31241,0.33262 -0.55379,1.26693 -1.96332,2.11767 -1.81541,2.01589 -2.92972,2.01589 -0.65661,0 -1.43513,0.15674 -2.19026,0.44097 -1.33929,0.50411 -2.27665,0.55602 -3.18523,0.17639 -0.82999,-0.34679 -0.83591,-0.34587 -1.51006,0.23257 -1.09171,0.93675 -1.87794,1.0663 -3.93079,0.64774 -0.45613,-0.093 -0.67523,0.0179 -1.5875,0.80362 -0.94504,0.81394 -1.94463,1.413 -2.33148,1.39727 -0.0759,-0.003 -0.28682,-0.11834 -0.46877,-0.25611 z m 0.70864,-4.17279 c -0.30087,-0.17484 -0.31818,-0.35877 -0.21124,-2.2436 0.13494,-2.37805 0.54712,-5.62563 0.83668,-6.59209 0.26514,-0.88496 0.53753,-1.10191 1.04351,-0.83112 0.50529,0.27043 2.2602,0.098 3.02433,-0.29714 0.82133,-0.42473 4.01432,-1.47654 4.48234,-1.47654 0.6415,0 0.69246,0.17306 1.21472,4.12481 0.16525,1.25043 0.34524,1.98855 0.51615,2.11667 0.14434,0.10819 0.28378,0.3882 0.30989,0.62224 0.0411,0.36885 -0.17491,0.552 -1.62235,1.37526 -2.02063,1.14927 -5.03254,2.48823 -6.35589,2.82554 -0.53357,0.136 -1.24795,0.31961 -1.5875,0.408 -0.80667,0.21001 -1.2489,0.20143 -1.65064,-0.032 z m 3.22436,-1.9228 c 1.53967,-0.40757 6.11975,-2.64635 6.05399,-2.95924 -0.0719,-0.34223 -0.41378,-2.67108 -0.55443,-3.77695 -0.0707,-0.55598 -0.16925,-1.05155 -0.21897,-1.10127 -0.0852,-0.0852 -2.11982,0.61292 -3.52242,1.20851 -0.64163,0.27247 -0.986,0.35376 -2.3913,0.56449 -0.59365,0.089 -0.78485,0.20049 -0.84348,0.49171 -0.1027,0.51005 -0.41618,3.44869 -0.52677,4.93791 -0.088,1.18468 -0.0817,1.20755 0.3022,1.09566 0.21563,-0.0629 0.98116,-0.27022 1.70118,-0.46082 z m 22.13997,-0.821 c -0.0791,-0.17502 -0.20091,-1.15166 -0.2706,-2.1703 -0.0697,-1.01865 -0.208,-2.64584 -0.30736,-3.61597 -0.23475,-2.29227 -0.61276,-10.42233 -0.6315,-13.58195 l -0.0146,-2.46944 0.57448,-0.0554 c 0.35911,-0.0346 0.60313,0.0315 0.65092,0.17639 0.0421,0.12747 0.204,3.36707 0.35989,7.19912 0.15589,3.83204 0.37733,7.72142 0.49208,8.64305 0.11476,0.92163 0.21023,2.66788 0.21216,3.88056 l 0.004,2.20486 -0.46253,0.0536 c -0.31089,0.036 -0.50971,-0.0507 -0.60642,-0.26459 z m 3.54402,-1.28214 c -0.31362,-0.34654 -0.31381,-0.37124 -0.006,-0.71177 0.38888,-0.42971 1.24083,-0.46836 1.39624,-0.0634 0.15139,0.3945 -0.044,0.94529 -0.33536,0.94529 -0.13105,0 -0.34899,0.0425 -0.48431,0.0944 -0.13533,0.0519 -0.39225,-0.0671 -0.57093,-0.26459 z m 13.98148,-0.12621 c -0.16522,-0.0435 -0.34472,-0.21873 -0.39889,-0.38943 -0.0542,-0.1707 -0.0571,-2.8445 -0.007,-5.94179 0.0506,-3.09728 0.0884,-7.78798 0.084,-10.42378 -0.005,-3.05952 0.0568,-4.83235 0.17105,-4.90297 0.11779,-0.0728 0.10601,-0.22747 -0.0344,-0.45236 -0.17526,-0.28064 -0.15852,-0.39665 0.0936,-0.64879 0.27556,-0.27556 0.68913,-0.30225 4.03416,-0.26039 2.04991,0.0257 3.87473,0.12564 4.05514,0.2222 0.51234,0.27419 0.41035,0.86826 -0.18782,1.09405 -0.37276,0.14069 -0.54426,0.34612 -0.61825,0.74053 -0.22145,1.18044 -0.44704,4.40675 -0.54913,7.85356 -0.0589,1.98878 -0.20928,5.22292 -0.33417,7.18698 -0.12489,1.96406 -0.19041,3.76281 -0.14559,3.99723 0.10638,0.55652 -0.25698,0.74084 -1.71757,0.87124 -2.06102,0.18401 -3.13915,0.4323 -3.51673,0.80989 -0.37161,0.3716 -0.40754,0.38104 -0.9288,0.24383 z m 3.42419,-2.28542 1.18351,-0.11337 0.0888,-0.72498 c 0.14669,-1.19824 0.27702,-3.71651 0.36618,-7.07499 0.13237,-4.98681 0.30856,-7.6808 0.64919,-9.92635 0.10707,-0.70581 0.13978,-1.33818 0.0727,-1.40527 -0.0671,-0.0671 -1.14986,-0.153 -2.40617,-0.19092 l -2.2842,-0.069 0.007,2.53255 c 0.006,2.05488 -0.0935,7.61944 -0.23678,13.29228 -0.0123,0.48507 -0.005,1.58686 0.0156,2.44842 l 0.0378,1.56648 0.66145,-0.11077 c 0.36381,-0.0609 1.19404,-0.16178 1.84498,-0.22413 z m -13.57484,1.94191 c -0.12126,-0.0523 -0.22048,-0.28126 -0.22048,-0.50883 0,-0.44389 0.13161,-0.48578 2.99861,-0.95431 3.20033,-0.52301 4.44587,-0.5234 4.54639,-0.001 0.0876,0.45492 -0.52196,0.82224 -1.54778,0.93268 -0.53358,0.0574 -1.60514,0.18916 -2.38125,0.29268 -2.01991,0.26942 -3.14207,0.34848 -3.39549,0.23922 z m -18.82006,-0.56506 c -0.0636,-0.20048 -0.27171,-0.41402 -0.4624,-0.47455 -0.56646,-0.17978 -0.99101,-1.28178 -1.50885,-3.91655 -0.54842,-2.79033 -0.50091,-3.047 0.56399,-3.047 0.3231,0 0.80948,-0.0972 1.08083,-0.21604 0.72215,-0.31622 2.72603,-1.60641 3.42027,-2.20213 0.83267,-0.71451 2.24976,-1.63878 2.51256,-1.63878 0.12007,0 0.46862,0.21828 0.77456,0.48507 0.53343,0.46518 0.56794,0.5791 0.84156,2.77795 0.15693,1.26109 0.48306,2.88193 0.72473,3.60187 0.52925,1.57659 0.50656,2.19466 -0.0836,2.27817 -0.22947,0.0325 -0.49326,-0.017 -0.5862,-0.10996 -0.10773,-0.10772 -1.17161,0.33844 -2.93465,1.23072 -3.01915,1.52801 -4.14707,1.84779 -4.34275,1.23123 z m 3.59482,-2.40944 c 1.49728,-0.7253 2.79312,-1.38953 2.87966,-1.47607 0.0922,-0.0922 0.0502,-0.51811 -0.10142,-1.02871 -0.14232,-0.47925 -0.35417,-1.62021 -0.47078,-2.53547 -0.34249,-2.68834 -0.28619,-2.54383 -0.84781,-2.17586 -0.26279,0.17218 -1.06475,0.77947 -1.78213,1.34953 -0.71738,0.57006 -1.65105,1.19945 -2.07482,1.39865 -0.42377,0.1992 -0.81385,0.43233 -0.86685,0.51808 -0.053,0.0857 -0.23058,0.15712 -0.39463,0.15861 -0.74753,0.007 -0.78814,0.21305 -0.39722,2.01737 0.52287,2.41335 0.75831,3.09542 1.06794,3.0939 0.14616,-7e-4 1.49078,-0.59473 2.98806,-1.32003 z m 10.27395,-0.13979 c -0.22432,-0.27029 -0.082,-0.52984 0.44178,-0.80552 0.54157,-0.28506 1.28253,-0.25221 1.40318,0.0622 0.24034,0.62633 -1.39518,1.28527 -1.84496,0.74332 z m 4.79296,-0.83239 c -0.51562,-0.20581 -0.64153,-0.45808 -0.42787,-0.85731 0.25159,-0.4701 0.99859,-0.56848 4.27732,-0.56333 3.12833,0.005 3.55553,0.1229 3.15497,0.87136 -0.1099,0.20534 -0.29624,0.38043 -0.4141,0.38908 -0.11785,0.009 -1.4049,0.0344 -2.86011,0.0572 -1.45521,0.0228 -2.80458,0.0893 -2.99861,0.14784 -0.19403,0.0585 -0.52325,0.0383 -0.7316,-0.0448 z m -29.37811,-2.36256 c -0.99661,-0.52903 -1.90307,-1.7762 -1.90421,-2.61997 -5.3e-4,-0.43448 0.0621,-0.48507 0.60096,-0.48507 0.53316,0 0.64302,0.0853 0.96529,0.74966 0.20001,0.41231 0.5196,0.84643 0.71021,0.96471 0.308,0.19114 0.42975,0.11777 1.09445,-0.65949 0.41134,-0.48101 0.88925,-0.91942 1.062,-0.97425 0.17276,-0.0548 0.63317,0.0832 1.02315,0.30672 l 0.70904,0.4064 0.81135,-0.92604 c 0.92642,-1.05737 1.27326,-1.13288 2.14597,-0.46723 0.57906,0.44166 0.61113,0.4466 0.85847,0.13229 0.14132,-0.17958 0.41011,-0.61357 0.59732,-0.96442 0.50376,-0.94411 1.22841,-1.74335 1.58065,-1.74335 0.17056,0 0.49315,0.15875 0.71687,0.35278 0.22371,0.19403 0.4333,0.35278 0.46574,0.35278 0.0325,0 0.24815,-0.29964 0.47934,-0.66586 0.71267,-1.12895 1.96259,-2.29106 2.67606,-2.48806 1.2234,-0.33779 1.85233,0.47911 0.72992,0.94809 -0.62329,0.26042 -1.57511,1.22106 -2.30967,2.33105 -0.24434,0.36922 -0.71432,0.81675 -1.04441,0.99452 -0.55284,0.29772 -0.64206,0.30154 -1.13147,0.0485 l -0.5313,-0.27475 -0.65222,1.11525 c -0.92384,1.57969 -2.01399,2.02054 -2.96364,1.19847 -0.28756,-0.24893 -0.36895,-0.21252 -1.00546,0.44991 -0.82476,0.85832 -1.53972,1.06897 -2.31517,0.68213 l -0.54976,-0.27426 -0.73058,0.78556 c -0.82916,0.89156 -1.40029,1.0895 -2.0889,0.72397 z m 24.86214,-1.35528 c -0.42882,-0.24976 -0.38532,-0.5908 0.10911,-0.8554 0.57305,-0.30669 1.07016,-0.17659 1.13784,0.29779 0.0416,0.29119 -0.0656,0.44115 -0.40835,0.57146 -0.5461,0.20763 -0.4558,0.20912 -0.8386,-0.0138 z m 4.49127,-0.90746 c -0.63727,-0.16513 -0.78081,-0.71727 -0.25794,-0.99217 0.43652,-0.2295 4.05322,-0.55568 6.16136,-0.55568 1.39211,0 1.82634,0.0594 2.00461,0.2742 0.19034,0.22934 0.16421,0.33756 -0.15966,0.66146 -0.35689,0.35691 -0.57693,0.39014 -2.80771,0.42409 -1.33126,0.0203 -2.86002,0.1039 -3.39725,0.18588 -0.53724,0.082 -1.23177,0.083 -1.54341,0.002 z m -42.63865,-1.44088 c -0.76734,-0.33436 -1.57986,-1.33847 -2.00711,-2.48038 -0.20397,-0.54517 -0.37086,-1.09977 -0.37086,-1.23245 0,-0.18516 -0.23578,-0.22306 -1.01423,-0.16304 -1.17712,0.0908 -1.4028,-0.0437 -1.87928,-1.11934 -0.26802,-0.60508 -0.38459,-0.71344 -0.62759,-0.58339 -0.16414,0.0879 -0.69063,0.21174 -1.16998,0.27533 -1.08688,0.14418 -1.50933,-0.15987 -1.96535,-1.41453 l -0.31918,-0.87818 -0.74042,0.0535 c -0.59899,0.0432 -0.825641,-0.0318 -1.186502,-0.39262 -0.39835,-0.39835 -0.446075,-0.58847 -0.446075,-1.77701 0,-0.80369 -0.07266,-1.33093 -0.183417,-1.33093 -0.329124,0 -1.558413,0.69663 -1.926519,1.09174 -0.19773,0.21224 -0.359509,0.32152 -0.359509,0.24284 0,-0.0787 -0.115254,-0.0474 -0.256118,0.0695 -0.317744,0.26371 -0.907385,0.0943 -1.060501,-0.30475 -0.251808,-0.6562 2.300252,-2.15766 3.667405,-2.15766 0.501721,0 0.930921,0.11805 1.189006,0.32703 0.36221,0.29331 0.40037,0.46258 0.36995,1.64097 l -0.0339,1.31394 0.9787,-0.009 c 1.111,-0.0106 1.17504,0.0477 1.58594,1.44583 0.1497,0.50932 0.29966,0.92604 0.33326,0.92604 0.0336,0 0.39855,-0.11906 0.811,-0.26458 0.93259,-0.32904 1.83446,-0.34004 2.09546,-0.0256 0.1091,0.13146 0.30555,0.54818 0.43656,0.92604 0.23785,0.68602 0.23963,0.68704 1.23236,0.70199 1.18956,0.0179 1.62256,0.33423 1.88906,1.38005 0.32592,1.27896 0.55253,1.6891 1.42638,2.58153 0.47173,0.48176 0.85768,0.99459 0.85768,1.13962 0,0.3259 -0.60069,0.334 -1.32619,0.0179 z m 38.07887,-2.841 c -0.16161,-0.42117 0.0457,-0.73873 0.56798,-0.8698 0.36648,-0.092 0.5732,-0.0308 0.85209,0.25206 0.36321,0.36841 0.36356,0.37697 0.0258,0.62791 -0.44916,0.33375 -1.31627,0.32765 -1.4459,-0.0102 z m 4.29224,-0.29918 c -0.36122,-0.27158 -0.25847,-0.75463 0.19963,-0.93848 0.16227,-0.0651 0.7316,-0.15681 1.26518,-0.20375 0.53358,-0.0469 1.6486,-0.19789 2.47784,-0.33544 2.72618,-0.4522 4.11226,-0.51173 4.38081,-0.18815 0.26029,0.31363 0.15519,0.79078 -0.19597,0.88973 -0.12347,0.0348 -0.93886,0.1525 -1.81198,0.26158 -0.87313,0.10907 -2.02407,0.27623 -2.55764,0.37145 -1.90839,0.34058 -3.41867,0.39807 -3.75787,0.14306 z m -4.10182,-3.21827 c -0.27349,-0.20308 -0.30327,-0.31845 -0.14799,-0.57326 0.38999,-0.63997 1.48129,-0.41942 1.48129,0.29938 0,0.173 -0.17582,0.35772 -0.39688,0.41696 -0.54269,0.14544 -0.54924,0.14444 -0.93642,-0.14308 z m 3.89094,-1.04613 c -0.28101,-0.21224 -0.31356,-0.33044 -0.16,-0.58097 0.27683,-0.45165 1.08925,-0.57215 4.98632,-0.73965 3.59272,-0.15441 4.28105,-0.0719 4.39638,0.52697 0.0836,0.43393 -0.46446,0.53011 -3.93104,0.68993 -1.74625,0.0805 -3.57187,0.19673 -4.05694,0.25827 -0.65097,0.0826 -0.97433,0.0421 -1.23472,-0.15455 z m -3.75709,-2.96822 c -0.36208,-0.36208 -0.23374,-0.79473 0.3015,-1.01643 0.62416,-0.25854 1.25073,0.003 1.25073,0.52254 0,0.59255 -1.1027,0.94341 -1.55223,0.49389 z m 4.54071,-0.11805 c -0.40327,-0.33048 -0.41196,-0.3723 -0.13577,-0.65324 0.27962,-0.28444 0.75027,-0.39878 3.2327,-0.7854 1.74212,-0.27133 5.65031,-0.21908 5.89756,0.0788 0.25372,0.30572 -0.0956,0.97831 -0.51603,0.9937 -0.14644,0.005 -1.17906,0.003 -2.29472,-0.006 -1.7371,-0.0136 -4.06534,0.25614 -5.38999,0.62441 -0.22376,0.0622 -0.52809,-0.0345 -0.79375,-0.2522 z m 28.06208,14.66601 c -0.83806,-0.33563 -1.21019,-1.87944 -0.55209,-2.29043 0.46319,-0.28926 1.78515,-0.33332 2.26576,-0.0755 0.30433,0.16325 0.39688,0.3688 0.39688,0.88149 0,0.46778 -0.11921,0.77808 -0.39688,1.03308 -0.42627,0.39148 -1.2931,0.6198 -1.71367,0.45137 z m -0.083,-6.84427 c -0.53667,-0.57907 -0.63002,-1.12837 -0.32271,-1.89886 0.20413,-0.51178 0.42798,-0.69641 1.24779,-1.02914 1.30337,-0.529 1.57905,-0.7714 2.08132,-1.83 0.92804,-1.95596 0.4026,-2.86878 -1.52271,-2.64533 -1.27077,0.14749 -1.86648,0.57845 -2.78556,2.01521 -0.56446,0.8824 -0.62029,1.08572 -0.62029,2.25912 0,1.20579 -0.0268,1.29619 -0.41387,1.39333 -0.75992,0.19072 -0.99509,-0.22294 -0.88349,-1.55408 0.0547,-0.65213 0.191,-1.36833 0.30296,-1.59155 0.5497,-1.096 1.69366,-2.57679 2.34935,-3.04108 0.64145,-0.45421 0.91835,-0.52738 2.23162,-0.58974 1.35273,-0.0642 1.55941,-0.0303 2.1141,0.34745 0.33814,0.23026 0.71879,0.6147 0.8459,0.85433 0.49705,0.93701 -0.1112,3.02043 -1.23638,4.23496 -0.31104,0.33574 -0.54905,0.69117 -0.52891,0.78986 0.0201,0.0987 -0.26561,0.18734 -0.63501,0.19703 -1.01482,0.0266 -1.44164,0.32433 -1.44164,1.00558 0,0.31674 0.0899,0.6658 0.19981,0.77569 0.25898,0.25899 0.0682,0.75269 -0.29089,0.75269 -0.1532,0 -0.46433,-0.20046 -0.69139,-0.44547 z M 81.702484,172.84354 c -0.56603,-0.44524 -0.690615,-0.90797 -0.444907,-1.65247 0.314549,-0.9531 1.381894,-1.32446 1.762527,-0.61324 0.10384,0.19403 0.302278,0.35278 0.440972,0.35278 0.292164,0 0.617361,0.53361 0.617361,1.01302 0,0.56429 -0.430851,0.95664 -1.206209,1.09843 -0.602311,0.11014 -0.825496,0.0723 -1.169744,-0.19852 z m -2.979569,-0.80086 c -0.125448,-0.12545 -1.984945,-0.63922 -3.111144,-0.85959 -0.242535,-0.0475 -0.560035,-0.12928 -0.705556,-0.18182 -0.14552,-0.0525 -0.93927,-0.24368 -1.763888,-0.42475 -1.347269,-0.29583 -4.007392,-0.93422 -5.909028,-1.41807 -1.252472,-0.31868 -1.398944,-0.35328 -2.204861,-0.5209 -0.900947,-0.18738 -0.70848,-0.14349 -3.880556,-0.88498 -1.309687,-0.30615 -2.8575,-0.66216 -3.439583,-0.79114 -0.582083,-0.12898 -1.415521,-0.32153 -1.852083,-0.4279 -1.596926,-0.38909 -6.650784,-1.57909 -7.9375,-1.86899 -0.727604,-0.16394 -2.275417,-0.52328 -3.439583,-0.79855 -1.164167,-0.27527 -2.473854,-0.5487 -2.910417,-0.60764 -1.363398,-0.18406 -5.024173,-1.03563 -5.085879,-1.18308 -0.03234,-0.0773 -0.247826,-0.1405 -0.478864,-0.1405 -0.231782,0 -0.500249,-0.14982 -0.598955,-0.33425 -0.238465,-0.44558 0.176788,-0.79147 0.927883,-0.7729 0.631977,0.0156 9.529671,1.98268 19.876093,4.39411 1.018645,0.23741 3.082395,0.708 4.586111,1.04575 4.372627,0.98213 5.029831,1.13374 8.378472,1.93285 1.74625,0.41672 4.762499,1.1323 6.702777,1.59017 1.940278,0.45787 3.742517,0.96306 4.004977,1.12265 0.432026,0.26269 0.456692,0.33152 0.260562,0.72707 -0.219225,0.44213 -1.122978,0.69846 -1.418978,0.40246 z m 26.647975,-7.71295 c -0.46439,-0.12488 -0.88157,-0.23767 -0.92706,-0.25065 -0.51944,-0.14816 -2.20866,-1.15732 -2.55011,-1.52346 l -0.44098,-0.47286 -0.13074,-6.90906 c -0.0719,-3.79999 -0.0829,-11.235 -0.0243,-16.52226 0.0585,-5.28726 0.0961,-9.73226 0.0836,-9.87778 -0.0771,-0.89315 -0.0212,-2.53793 0.11895,-3.49922 0.14999,-1.02858 0.23393,-1.18491 1.04972,-1.95487 1.59526,-1.50567 3.34974,-1.70369 11.77925,-1.32946 6.2062,0.27552 9.00509,0.70898 9.91193,1.53503 0.21282,0.19385 0.5142,0.62064 0.66974,0.94841 0.15554,0.32777 0.34522,0.59595 0.42151,0.59595 0.0763,0 0.14968,0.0992 0.16307,0.22048 0.0134,0.12127 0.14148,1.1333 0.28462,2.24896 0.17495,1.36355 0.23541,2.98249 0.18445,4.93889 -0.18136,6.96147 -0.2914,13.025 -0.33932,18.69722 -0.0511,6.05409 -0.10288,6.88817 -0.55248,8.90764 -0.60155,2.702 -0.6125,2.73083 -1.14043,3.00384 -0.28013,0.14486 -0.80041,0.46091 -1.15617,0.70234 -0.73003,0.49541 -1.65595,0.59291 -1.65595,0.17438 0,-0.14552 -0.0595,-0.26234 -0.13229,-0.25959 -0.0728,0.003 -1.56104,0.12419 -3.30729,0.26987 -7.47575,0.62365 -10.94211,0.72396 -12.30963,0.3562 z m 7.63532,-1.50598 c 6.97017,-0.46066 8.97208,-0.71398 9.22583,-1.16741 0.13975,-0.24973 0.18564,-0.24852 0.47402,0.0125 0.17562,0.15892 0.36232,0.21934 0.4149,0.13426 0.0526,-0.0851 0.27312,-0.98321 0.49009,-1.99586 0.35305,-1.6478 0.39899,-2.41549 0.43739,-7.30923 0.0236,-3.00744 0.0897,-7.61119 0.14695,-10.23056 0.29193,-13.364 0.14762,-16.08035 -0.92225,-17.3595 -0.42041,-0.50264 -0.67721,-0.61095 -2.15304,-0.90806 -0.92163,-0.18555 -2.39007,-0.37802 -3.26319,-0.42771 -0.87313,-0.0497 -2.26219,-0.12882 -3.08681,-0.17583 -0.82461,-0.047 -2.92805,-0.13634 -4.6743,-0.19851 -4.84543,-0.17251 -5.74742,0.13024 -5.98044,2.00731 -0.30729,2.47541 -0.30656,2.53611 0.0282,2.35694 0.34202,-0.18305 5.59893,-0.27357 12.46509,-0.21465 4.93108,0.0423 5.46137,0.14531 5.33663,1.03654 -0.0533,0.38066 -0.15303,0.47096 -0.49015,0.44375 -0.23279,-0.0188 -4.11419,-0.0875 -8.62534,-0.15257 -6.85162,-0.0989 -8.27172,-0.16212 -8.62506,-0.38388 -0.40723,-0.25559 -0.41882,-0.2499 -0.31109,0.15257 0.0615,0.22993 0.11298,0.71321 0.1143,1.07397 0.002,0.48889 0.0652,0.63181 0.24915,0.56124 0.35194,-0.13505 0.5299,0.24635 0.48331,1.03586 -0.0473,0.80141 0.11206,1.40839 0.33376,1.27137 0.0861,-0.0532 0.36665,-0.56504 0.62353,-1.13746 0.47455,-1.05743 0.68056,-1.24306 1.5142,-1.36435 0.52404,-0.0763 0.94459,0.38942 1.46597,1.62325 l 0.29815,0.70556 0.34081,-0.65601 c 0.18745,-0.36081 0.49622,-0.73918 0.68615,-0.84084 0.28835,-0.15431 0.39537,-0.10428 0.64851,0.30324 0.61769,0.99438 0.98369,1.28172 1.6358,1.28421 1.05165,0.004 1.44952,0.17404 1.38962,0.59385 -0.0488,0.34207 -0.16339,0.37388 -1.34678,0.37388 -1.22975,0 -1.318,-0.0275 -1.79258,-0.5588 l -0.49915,-0.5588 -0.20624,0.49791 c -0.43232,1.0437 -1.44993,0.73167 -2.12473,-0.65152 -0.24643,-0.50515 -0.48804,-0.95842 -0.5369,-1.00728 -0.0489,-0.0489 -0.24127,0.20569 -0.42757,0.56566 -0.72383,1.39856 -1.50567,2.50658 -1.76869,2.50658 -0.15136,0 -0.46022,-0.19964 -0.68636,-0.44364 l -0.41115,-0.44365 -0.0918,1.1051 c -0.10437,1.25583 -0.007,4.57269 0.20387,6.92594 0.13279,1.48382 0.14448,1.51838 0.17893,0.52917 0.0408,-1.1709 0.1489,-2.77324 0.30062,-4.45521 0.0739,-0.81881 0.18244,-1.14817 0.42053,-1.27559 0.22633,-0.12113 0.34251,-0.10772 0.3941,0.0455 0.14471,0.42985 -0.0156,12.57424 -0.17147,12.98941 -0.0877,0.23371 -0.12543,0.60337 -0.0837,0.82147 0.0632,0.33076 0.21129,0.40731 0.89255,0.4615 0.44922,0.0357 1.41372,0.007 2.14334,-0.0644 0.72961,-0.0712 3.87909,-0.15256 6.99884,-0.18087 l 5.67227,-0.0515 0.02,-4.58611 c 0.0189,-4.32628 0.26854,-9.13749 0.49306,-9.50077 0.0625,-0.10114 -1.24805,-0.11166 -3.40857,-0.0274 -1.93057,0.0753 -4.42294,0.16019 -5.5386,0.18858 -1.11566,0.0284 -2.94542,0.10869 -4.06613,0.17845 -1.44459,0.0899 -2.1505,0.0665 -2.42535,-0.0806 -0.5003,-0.26775 -0.49594,-0.68909 0.009,-0.8884 0.21828,-0.0861 3.25438,-0.29116 6.74688,-0.45562 9.05263,-0.4263 9.67708,-0.39961 9.52175,0.407 -0.0319,0.16554 -0.0668,0.30098 -0.0777,0.30098 -0.0549,0 -0.17364,7.23658 -0.18084,11.0243 -0.004,2.37684 -0.0811,4.43679 -0.17023,4.57766 -0.13658,0.2159 -1.30635,0.2634 -7.44973,0.30247 -9.42149,0.0599 -9.34666,0.0604 -9.73898,-0.0574 -0.31833,-0.0956 -0.33007,-0.005 -0.24129,1.86855 0.0513,1.08295 0.12546,2.00112 0.16473,2.04039 0.0393,0.0393 2.01317,0.15611 4.38643,0.25963 2.37326,0.10353 5.50565,0.2638 6.96086,0.35617 1.4552,0.0924 3.33945,0.17011 4.18722,0.17275 1.19861,0.004 1.62028,0.0724 1.89618,0.30858 0.45492,0.38953 0.45139,0.78576 -0.01,1.07364 -0.41269,0.25773 -0.92336,0.24133 -9.5134,-0.3055 -1.50372,-0.0957 -3.85796,-0.21811 -5.23166,-0.27197 l -2.49763,-0.0979 -0.0152,1.89794 c -0.0147,1.83424 0.1692,3.6419 0.3932,3.86591 0.0597,0.0597 0.52775,0.21269 1.04001,0.33988 0.96592,0.23984 2.1893,0.22311 7.0168,-0.0959 z m -1.14652,-0.69721 c -0.89541,-0.38105 -1.56512,-1.85191 -1.32599,-2.9122 0.17366,-0.76995 0.37962,-1.03703 1.18234,-1.53313 0.8683,-0.53664 1.11395,-0.22088 0.51448,0.66132 -0.25302,0.37237 -0.45903,0.92353 -0.45903,1.22815 0,0.64702 0.59211,1.48215 1.05085,1.48215 0.42236,0 0.88943,-0.736 0.88943,-1.40154 0,-0.42038 -0.0925,-0.55524 -0.44097,-0.64269 -0.57779,-0.14502 -0.55625,-0.28106 0.10649,-0.67255 0.53472,-0.31587 0.55833,-0.31518 1.01424,0.0296 0.41024,0.31027 0.4645,0.46986 0.44802,1.31768 -0.0209,1.07676 -0.43018,1.94166 -1.05303,2.22544 -0.61281,0.27922 -1.53697,0.38365 -1.92683,0.21774 z m -0.81272,-14.88348 c -2.98782,-1.26243 -4.10008,-3.26571 -3.23038,-5.81816 0.30279,-0.88864 1.4384,-2.0679 1.99135,-2.0679 0.18066,0 0.52157,-0.15189 0.75758,-0.33754 1.30824,-1.02905 4.03094,-1.16619 5.54439,-0.27925 1.08957,0.63853 1.7082,1.61984 1.687,2.67605 -0.0175,0.87197 -0.28228,2.4001 -0.58338,3.36697 -0.21267,0.68291 -1.54048,2.02463 -2.41374,2.43901 -1.04739,0.49702 -2.60534,0.50567 -3.75282,0.0208 z m 0.35004,-1.60146 c -0.1774,-0.38935 -0.32564,-0.46377 -0.92383,-0.46377 -0.42774,0 -0.64555,0.0633 -0.54495,0.15835 0.24838,0.2347 1.54797,0.90129 1.6189,0.83036 0.0337,-0.0336 -0.0339,-0.26987 -0.15012,-0.52494 z m 3.68362,-0.009 0.65811,-0.60312 -0.51176,-0.12844 c -0.39004,-0.0979 -0.56683,-0.0532 -0.74325,0.18813 -0.12732,0.17412 -0.19305,0.37878 -0.14607,0.45479 0.047,0.076 0.005,0.18808 -0.0938,0.24901 -0.0986,0.0609 -0.17927,0.18549 -0.17927,0.27677 0,0.31789 0.36227,0.16203 1.01608,-0.43714 z m -1.90423,-0.0908 c 0.28388,-0.53043 0.21932,-0.71715 -0.24797,-0.71715 -0.54147,0 -0.6987,0.24345 -0.45333,0.70191 0.23976,0.44801 0.46705,0.45295 0.7013,0.0152 z m -2.88979,-1.4227 h 0.60294 v -0.87859 c 0,-0.81745 -0.0337,-0.8853 -0.48507,-0.97516 -0.26679,-0.0531 -0.7191,-0.17274 -1.00513,-0.26583 -0.64213,-0.20898 -0.79642,-0.0153 -0.80016,1.00455 -0.003,0.79684 0.3949,1.37965 0.82822,1.21337 0.14095,-0.0541 0.52759,-0.0983 0.8592,-0.0983 z m 6.13969,-0.83622 c 0.3159,-1.94532 0.30937,-2.24159 -0.0625,-2.83411 -0.49082,-0.782 -1.59485,-1.26628 -2.82839,-1.24067 -0.53358,0.0111 -0.79984,0.0535 -0.59169,0.0942 0.49781,0.0974 0.85164,0.52147 1.11223,1.33314 0.23833,0.7423 0.42654,0.79291 1.33598,0.35923 0.55063,-0.26258 0.65518,-0.26836 0.79703,-0.0441 0.0898,0.14197 0.16448,0.31883 0.16597,0.39301 0.004,0.22288 -1.11538,0.83389 -1.52962,0.8346 -0.34619,5.3e-4 -0.37535,0.0686 -0.2842,0.66212 0.11458,0.74608 0.36901,1.15319 0.65415,1.04667 0.10573,-0.0395 0.35098,-0.0133 0.54501,0.0581 0.48325,0.17795 0.56197,0.10197 0.68606,-0.66217 z m -3.13345,0.48344 c 0.16275,0 0.24253,-0.21801 0.24253,-0.66273 v -0.66273 l -0.79375,0.0631 -0.79375,0.0631 v 0.70984 c 0,0.70095 0.007,0.70846 0.55122,0.5996 0.30317,-0.0606 0.66035,-0.11024 0.79375,-0.11024 z m -0.23282,-2.39247 c 0.20939,-0.0803 0.2239,-0.21398 0.0756,-0.69703 -0.2363,-0.76995 -0.61758,-0.92199 -0.84066,-0.33523 -0.3722,0.97895 -0.0896,1.36022 0.76502,1.03226 z m -1.93441,-0.72917 c 0.1189,-0.73274 -0.0161,-1.05198 -0.1799,-0.42549 -0.09,0.34405 -0.18724,0.39001 -0.63562,0.30034 -0.31489,-0.063 -0.63702,-0.0165 -0.79503,0.11458 -0.22576,0.18736 -0.16237,0.25164 0.42212,0.42806 1.02248,0.30862 1.0735,0.29069 1.18843,-0.41749 z m -8.0426,16.40224 c -0.034,-0.65888 -0.0621,-0.16609 -0.0624,1.09509 -3.6e-4,1.26118 0.0275,1.80026 0.0619,1.19796 0.0343,-0.6023 0.0346,-1.63417 5.3e-4,-2.29305 z m -0.18288,-8.73859 c -0.042,-0.21828 -0.0764,-0.0397 -0.0764,0.39688 0,0.43656 0.0344,0.61515 0.0764,0.39687 0.042,-0.21828 0.042,-0.57547 0,-0.79375 z m -0.18038,-21.33203 c -0.0563,-0.14071 -0.0981,-0.0989 -0.10656,0.10657 -0.008,0.18594 0.034,0.29012 0.0926,0.23151 0.0586,-0.0586 0.0649,-0.21075 0.0139,-0.33808 z m 0,-1.05833 c -0.0563,-0.14071 -0.0981,-0.0989 -0.10656,0.10657 -0.008,0.18594 0.034,0.29012 0.0926,0.23151 0.0586,-0.0586 0.0649,-0.21075 0.0139,-0.33808 z m -79.802621,26.10421 c -0.314444,-0.0832 -0.552569,-0.2481 -0.529167,-0.36646 0.05537,-0.28004 0.507225,-0.6447 0.807704,-0.65185 0.232069,-0.006 3.674236,-1.3314 5.055679,-1.94738 0.388056,-0.17304 1.618368,-0.69001 2.734028,-1.14883 1.11566,-0.45883 2.266597,-0.9345 2.557639,-1.05705 0.291042,-0.12256 0.72691,-0.28277 0.968596,-0.35604 0.241686,-0.0733 0.916373,-0.35015 1.499305,-0.61531 0.582932,-0.26516 1.615502,-0.69598 2.294599,-0.95738 0.679097,-0.2614 1.790347,-0.69948 2.469444,-0.97351 1.704823,-0.68794 22.591529,-7.61125 27.693055,-9.17941 2.529815,-0.77764 7.9954,-2.20591 9.084028,-2.37383 0.436562,-0.0674 1.031875,-0.19145 1.322916,-0.2758 0.971656,-0.2816 4.056375,-0.72322 4.326798,-0.61945 0.388008,0.14889 0.690554,0.70789 0.526657,0.97308 -0.08406,0.13602 -1.345124,0.42662 -3.114715,0.71774 -2.617294,0.43059 -4.051471,0.7453 -7.559573,1.6588 -1.450033,0.37759 -4.183951,1.16223 -4.938889,1.41748 -0.388055,0.1312 -1.777118,0.5722 -3.086805,0.97999 -1.309688,0.4078 -4.841875,1.55504 -7.849306,2.54943 -3.00743,0.99439 -6.698367,2.20694 -8.202083,2.69456 -3.013868,0.97734 -6.949611,2.36824 -8.995833,3.17916 -4.486045,1.77782 -9.695752,3.8886 -11.288888,4.57384 -3.105186,1.33561 -5.112284,1.95361 -5.775189,1.77822 z m 4.604253,-18.04544 c -0.215685,-0.56207 -0.0096,-0.73471 1.700102,-1.42456 0.436563,-0.17614 0.992188,-0.45395 1.234722,-0.61734 0.432638,-0.29148 5.173201,-2.68645 10.583334,-5.3468 1.503715,-0.73943 3.32934,-1.66787 4.056944,-2.0632 1.656477,-0.90003 6.46342,-3.3363 6.58275,-3.3363 0.04882,0 1.623771,-0.74375 3.499884,-1.65277 1.876114,-0.90902 4.323928,-2.05093 5.439588,-2.53758 2.485324,-1.08408 3.822299,-1.68348 5.203472,-2.33284 1.002568,-0.47137 5.9941,-2.72821 7.320139,-3.30969 0.339548,-0.1489 1.172986,-0.535 1.852083,-0.85801 2.841189,-1.3514 7.876227,-3.14305 8.437959,-3.00254 0.321243,0.0804 0.387302,0.0134 0.418327,-0.42375 0.05955,-0.83918 0.355973,-1.22865 0.935093,-1.22865 0.476879,0 0.510414,0.0407 0.417299,0.50625 -0.09357,0.46786 -0.05326,0.51527 0.531433,0.62496 0.716758,0.13446 1.073727,0.62685 0.91447,1.26137 -0.213903,0.85227 -1.624746,1.00599 -2.307607,0.25144 -0.26902,-0.29726 -0.342877,-0.31069 -0.509284,-0.0926 -0.107049,0.14032 -1.305885,0.64927 -2.664079,1.13099 -2.94967,1.04617 -5.339914,2.01668 -7.849306,3.18702 -1.018645,0.47508 -3.122083,1.43344 -4.674305,2.12969 -4.234019,1.89918 -4.2953,1.92696 -5.909028,2.67854 -0.824618,0.38407 -1.935868,0.88341 -2.469444,1.10966 -2.470725,1.04766 -7.779725,3.59423 -12.237258,5.86987 -1.952251,0.99665 -6.36736,3.22469 -9.811353,4.95119 -3.443993,1.7265 -6.65868,3.37752 -7.143749,3.66892 -1.625966,0.97679 -3.346838,1.39181 -3.552186,0.85669 z m 57.695151,-1.26048 c -0.538846,-0.58143 -0.546864,-1.0748 -0.02998,-1.84434 0.487103,-0.7252 1.146117,-0.86492 1.618344,-0.34312 0.179749,0.19862 0.428228,0.36113 0.552174,0.36113 0.295999,0 0.484939,0.62119 0.351118,1.15438 -0.285481,1.13745 -1.705372,1.52036 -2.491658,0.67195 z m 15.296397,-15.1748 c -0.0989,-0.18476 -0.17334,-0.4517 -0.16547,-0.59319 0.008,-0.14148 0.002,-0.48478 -0.0135,-0.76288 -0.0248,-0.45071 -0.0799,-0.49567 -0.507707,-0.41389 -0.707154,0.13518 -1.781231,-0.35923 -2.093888,-0.96384 -0.26831,-0.51885 -0.208722,-1.82128 0.111743,-2.44232 0.08314,-0.16111 0.0059,-0.54963 -0.19295,-0.97014 -0.405732,-0.85815 -0.431571,-1.69531 -0.07369,-2.38738 0.255023,-0.49316 0.245299,-0.55815 -0.176389,-1.17872 -0.245457,-0.36122 -0.446288,-0.80239 -0.446288,-0.98038 0,-0.17798 -0.19778,-0.5829 -0.439508,-0.89982 -0.241731,-0.31693 -0.488029,-0.81883 -0.547331,-1.11533 -0.137018,-0.6851 0.315215,-2.25909 0.894205,-3.11228 0.416943,-0.6144 0.42718,-0.68092 0.166123,-1.07934 -0.163432,-0.24943 -0.257905,-0.705739 -0.228999,-1.106077 0.03399,-0.470815 -0.0777,-0.886816 -0.361318,-1.345722 -0.350905,-0.567783 -0.393932,-0.805368 -0.296295,-1.636113 0.06282,-0.534528 0.235216,-1.205842 0.383092,-1.491803 0.259579,-0.501969 0.250322,-0.538478 -0.267908,-1.056711 -0.617676,-0.617673 -0.701084,-1.362454 -0.268524,-2.397715 0.215734,-0.516324 0.228792,-0.761595 0.06669,-1.252755 -0.116,-0.351481 -0.155458,-1.00298 -0.09296,-1.534773 0.09096,-0.773968 0.04858,-1.000352 -0.260992,-1.393905 -0.297991,-0.378836 -0.347668,-0.613836 -0.256416,-1.213024 0.182881,-1.20088 0.166691,-1.591473 -0.09135,-2.203846 -0.212499,-0.504289 -0.206641,-0.682274 0.04554,-1.383554 0.256205,-0.712478 0.260299,-0.874488 0.03567,-1.412085 -0.528441,-1.264741 0.508761,-2.887427 1.84561,-2.887427 0.72941,0 0.751141,0.486385 0.03383,0.757141 -0.562751,0.212415 -0.999273,0.992363 -0.818728,1.462853 0.07463,0.194488 0.2081,0.24336 0.416962,0.152678 0.168956,-0.07335 0.565162,-0.16965 0.880457,-0.213988 0.57307,-0.08059 0.573264,-0.08097 0.573264,-1.124058 0,-1.024731 0.0098,-1.045398 0.544327,-1.152311 0.29938,-0.05988 0.581883,-0.206733 0.627784,-0.32635 0.05536,-0.144265 0.748024,-0.256535 2.057404,-0.333474 1.08568,-0.06379 2.56927,-0.151791 3.29687,-0.195549 0.7276,-0.04376 3.02948,-0.123797 5.11528,-0.177864 3.82728,-0.09921 6.03324,-0.180402 9.26041,-0.340843 0.97014,-0.04823 3.19264,-0.132967 4.93889,-0.188302 3.90657,-0.123792 7.8504,-0.357597 11.90625,-0.705845 3.591,-0.308335 6.92515,-0.521432 12.70641,-0.812113 3.52861,-0.177417 4.22999,-0.17122 4.67431,0.0413 l 0.52275,0.250038 0.11258,2.46758 c 0.0619,1.35717 0.16229,3.181956 0.22305,4.055081 0.0608,0.873125 0.11629,2.341563 0.12339,3.263195 0.007,0.921631 0.092,2.231319 0.18861,2.910416 0.0966,0.679097 0.20544,2.028472 0.24181,2.998611 0.12825,3.421574 0.2819,11.849894 0.26313,14.433854 -0.0105,1.43869 0.0582,3.22462 0.15256,3.96875 0.0944,0.74412 0.2223,1.95946 0.28431,2.70075 0.10409,1.2442 0.0825,1.376 -0.28104,1.71467 -0.33593,0.31297 -0.35288,0.38258 -0.11534,0.47373 0.40303,0.15466 0.0626,1.03178 -0.50001,1.2881 -0.23976,0.10924 -1.20816,0.19363 -2.15199,0.18753 -0.94383,-0.006 -3.14481,0.0714 -4.89106,0.17228 -1.74625,0.10086 -4.32593,0.23365 -5.73264,0.29509 -1.4067,0.0614 -2.59732,0.13478 -2.64583,0.163 -0.0485,0.0282 -1.51694,0.10403 -3.26319,0.16849 -1.74625,0.0644 -3.57188,0.14984 -4.05695,0.18975 -0.83131,0.0684 -3.87553,0.13929 -14.90486,0.34715 -5.45796,0.10286 -11.53591,0.279 -12.18028,0.35299 -0.24773,0.0285 -1.29186,0.10907 -2.32028,0.17917 -1.73052,0.11795 -1.88327,0.10242 -2.04965,-0.20848 z m 5.7905,-1.45883 c 1.69774,-0.0924 6.10305,-0.21738 9.78958,-0.27776 3.68653,-0.0604 7.61559,-0.13835 8.73125,-0.17327 4.00915,-0.12548 8.05302,-0.27466 9.525,-0.35137 0.82462,-0.043 2.53118,-0.12179 3.79236,-0.17515 1.26118,-0.0534 2.93642,-0.13736 3.72275,-0.18668 3.30804,-0.20746 7.7163,-0.45541 9.81059,-0.55181 2.08374,-0.0959 2.25292,-0.13001 2.36276,-0.47606 0.12111,-0.38161 0.11593,-3.41485 -0.006,-3.61497 -0.0372,-0.061 -0.11655,-3.92093 -0.17627,-8.57759 -0.0992,-7.735811 -0.23281,-12.606436 -0.3651,-13.309424 -0.0282,-0.149888 -0.10832,-1.89971 -0.17804,-3.888495 -0.0697,-1.988785 -0.16183,-3.674117 -0.20471,-3.745184 -0.0429,-0.07107 -0.082,-1.083098 -0.087,-2.248958 l -0.009,-2.119747 -1.34948,-0.02089 c -0.74222,-0.01149 -1.38918,-0.02051 -1.43769,-0.02004 -0.16779,0.0016 -4.15713,0.225015 -7.14375,0.400052 -5.01607,0.293977 -7.7941,0.488068 -11.0243,0.770228 -1.69774,0.148299 -5.38868,0.355967 -8.20208,0.461484 -2.81341,0.105516 -5.63122,0.221585 -6.26181,0.25793 -0.63059,0.03634 -2.85309,0.11499 -4.93889,0.174768 -7.37078,0.211242 -8.81391,0.278002 -11.96661,0.553589 l -1.295075,0.113206 0.105931,2.378234 c 0.05826,1.308028 0.137853,2.429887 0.176872,2.493019 0.122054,0.197487 0.269117,3.287844 0.378832,7.960641 0.10031,4.272467 0.12448,4.518222 0.48228,4.903022 0.36866,0.396481 0.37029,0.423095 0.0765,1.250283 -0.25188,0.70918 -0.28321,1.254218 -0.1947,3.387252 0.0807,1.94397 0.17053,2.61593 0.38192,2.85593 0.23919,0.27158 0.24631,0.43137 0.0529,1.18616 -0.17266,0.67367 -0.17704,1.01327 -0.0193,1.49136 0.11237,0.34049 0.15408,0.77733 0.0927,0.97077 -0.0614,0.19344 -0.0229,1.28609 0.0855,2.42812 0.10843,1.14202 0.22873,2.43359 0.26732,2.87016 0.0386,0.43656 0.12461,1.33346 0.19114,1.9931 l 0.12098,1.19936 0.81299,-0.0966 c 0.44715,-0.0532 2.20206,-0.17223 3.89981,-0.26463 z m -2.28436,-1.57154 c -0.34665,-0.2762 -0.39076,-0.39447 -0.22268,-0.597 0.16248,-0.19577 0.15552,-0.4672 -0.031,-1.20726 -0.1323,-0.52508 -0.29363,-2.02626 -0.35851,-3.33595 -0.0649,-1.30968 -0.15613,-2.61937 -0.20277,-2.91041 -0.0466,-0.29104 -0.16811,-1.40229 -0.26993,-2.46945 -0.12501,-1.31026 -0.26854,-2.00519 -0.44202,-2.1402 -0.20629,-0.16053 -0.2169,-0.28772 -0.0539,-0.64554 0.15668,-0.34389 0.13953,-0.98279 -0.0752,-2.798689 -0.15299,-1.294188 -0.3254,-3.067443 -0.38312,-3.940568 -0.0577,-0.873125 -0.19311,-1.934281 -0.30085,-2.358124 -0.16911,-0.665263 -0.15578,-0.79307 0.0975,-0.934806 0.16136,-0.0903 0.29338,-0.277472 0.29338,-0.415935 0,-0.665992 0.7832,-0.81688 5.46805,-1.05346 4.6708,-0.235869 10.59996,-0.634061 11.64167,-0.781833 0.63059,-0.08945 1.66247,-0.211496 2.29306,-0.271209 0.63059,-0.05971 1.34496,-0.143439 1.5875,-0.186057 0.24253,-0.04262 1.47284,-0.160319 2.73403,-0.261557 1.26118,-0.101238 4.15836,-0.4187 6.43819,-0.705472 3.74185,-0.470676 6.53657,-0.737899 12.96458,-1.239636 1.16417,-0.09087 2.45416,-0.2151 2.86664,-0.27607 0.54064,-0.07991 0.87039,-0.03196 1.18138,0.171816 0.23728,0.155468 0.53479,0.244711 0.66114,0.198318 0.50887,-0.186848 0.71744,0.235944 0.85366,1.730483 0.0754,0.827659 0.18539,1.656798 0.24434,1.84253 0.24083,0.758789 0.58751,6.217632 0.64127,10.097259 0.0195,1.4067 0.0969,3.11327 0.17193,3.79236 0.0751,0.6791 0.18904,2.30629 0.25326,3.61598 0.12497,2.54847 0.21352,3.46986 0.35555,3.69968 0.049,0.0793 -0.0494,0.30397 -0.21866,0.49934 -0.26468,0.30552 -0.60383,0.37059 -2.4244,0.46516 -5.00824,0.26015 -9.11525,0.50707 -11.55347,0.69461 -0.7276,0.056 -2.08136,0.14281 -3.00834,0.19299 -0.92698,0.0502 -2.67323,0.16878 -3.88056,0.26354 -1.20732,0.0948 -4.1795,0.29289 -6.60485,0.44026 -2.42535,0.14737 -5.13989,0.31374 -6.03233,0.36969 -0.89243,0.0559 -3.39274,0.1317 -5.55625,0.16832 -2.1635,0.0366 -4.60833,0.15352 -5.43295,0.25978 -3.07861,0.3967 -3.23023,0.39781 -3.69547,0.0271 z m 4.66561,-1.60757 c 0.77611,-0.0816 2.7208,-0.15664 4.32152,-0.16673 1.60073,-0.0101 3.46605,-0.0556 4.14514,-0.1012 1.62489,-0.10902 3.7642,-0.23384 7.57373,-0.44189 1.71648,-0.0937 3.17522,-0.20259 3.24163,-0.2419 0.0664,-0.0393 1.15031,-0.12815 2.40866,-0.19744 1.25834,-0.0693 2.48866,-0.1495 2.73402,-0.17826 0.77491,-0.0908 3.19458,-0.25783 5.29682,-0.36557 1.11566,-0.0572 2.34598,-0.13394 2.73403,-0.17058 0.38806,-0.0366 2.29192,-0.15483 4.2308,-0.26265 1.93889,-0.10782 3.54526,-0.21604 3.56972,-0.2405 0.0245,-0.0245 -0.41097,-0.22942 -0.96761,-0.45548 -0.55664,-0.22606 -1.80583,-0.74458 -2.77596,-1.15226 -0.97014,-0.40768 -2.55764,-1.00198 -3.52778,-1.32067 -0.97014,-0.31869 -3.06811,-1.04825 -4.66216,-1.62125 -6.28152,-2.25797 -11.73166,-3.35788 -19.59131,-3.95379 -3.73732,-0.28336 -11.18934,-0.26099 -12.67481,0.038 l -0.59217,0.11921 0.10443,1.0766 c 0.0574,0.59213 0.18115,1.59254 0.27492,2.22313 0.0938,0.63059 0.21923,2.01965 0.27882,3.0868 0.0596,1.06716 0.1825,2.32122 0.27315,2.78681 0.0906,0.46559 0.16482,1.09168 0.16482,1.3913 v 0.54477 l 1.01424,-0.12405 c 0.55783,-0.0682 1.64924,-0.19082 2.42535,-0.27243 z m 41.81569,-2.43291 c 0.18127,-0.125 0.14485,-1.64792 -0.16973,-7.09695 -0.0588,-1.01865 -0.14794,-3.826539 -0.19807,-6.239762 -0.0501,-2.413224 -0.12108,-4.437287 -0.15766,-4.497917 -0.0366,-0.06063 -0.19816,-1.181798 -0.35905,-2.491486 -0.1609,-1.309687 -0.32031,-2.467034 -0.35425,-2.571882 -0.0422,-0.130267 -0.4441,-0.146365 -1.26932,-0.05084 -0.66419,0.07689 -2.71574,0.261734 -4.559,0.410772 -5.72219,0.462671 -8.89208,0.775122 -11.72986,1.156197 -1.50372,0.201928 -3.13091,0.403783 -3.61598,0.448566 -0.48506,0.04478 -2.23131,0.202886 -3.88055,0.351338 -1.64924,0.148452 -3.91142,0.381196 -5.02708,0.517209 -1.11566,0.136013 -3.13973,0.297725 -4.49792,0.35936 -1.3582,0.06163 -2.74726,0.141483 -3.08681,0.177439 -0.33954,0.03596 -1.72861,0.110367 -3.0868,0.165356 -1.3582,0.05499 -3.13419,0.146457 -3.94665,0.20326 l -1.47721,0.103278 0.10529,1.878514 c 0.0923,1.64596 0.54071,5.738798 0.75138,6.857508 0.0736,0.39105 0.0866,0.39243 2.76156,0.29457 5.55388,-0.20317 13.3165,0.10307 16.18132,0.63837 0.46963,0.0877 0.86218,0.0814 0.96132,-0.0155 0.10527,-0.10291 0.0889,-0.16381 -0.0441,-0.16381 -0.11642,0 -0.21167,-0.16312 -0.21167,-0.36248 0,-0.27237 0.25215,-0.47254 1.01424,-0.805166 0.55783,-0.243473 1.31654,-0.597441 1.68602,-0.786595 0.72464,-0.370975 3.45906,-1.453791 4.17891,-1.654823 0.24254,-0.06773 0.7113,-0.245491 1.0417,-0.395016 1.89992,-0.859834 10.18566,-3.608399 12.36386,-4.101371 2.4583,-0.556364 4.55115,-0.786195 4.85592,-0.533264 0.68518,0.568648 -0.0762,1.406772 -1.27805,1.406772 -2.09469,0 -8.20191,1.77931 -15.13135,4.40845 -4.31575,1.637464 -4.55082,1.73331 -6.52638,2.661013 l -1.23473,0.57981 0.79375,0.15111 c 0.43657,0.0831 1.42875,0.2637 2.20486,0.4013 2.85958,0.50701 5.9053,1.32852 9.17223,2.47398 1.84326,0.64629 4.2642,1.47369 5.37986,1.83868 1.97314,0.64551 4.44239,1.59118 5.06973,1.94159 0.17057,0.0953 0.707,0.30053 1.19207,0.45613 1.0188,0.3268 1.49931,0.70248 1.49931,1.1722 0,0.18203 -0.13891,0.38436 -0.30868,0.44961 -0.26122,0.10039 -0.24087,0.13752 0.13229,0.24146 0.60593,0.16878 0.59437,0.16845 0.80528,0.023 z M 103.10841,86.223108 c -0.80266,-0.960231 -0.83637,-1.080794 -1.07206,-3.834232 -0.0297,-0.347282 0.0819,-0.506099 0.41732,-0.593817 0.65874,-0.172265 0.87032,0.10356 0.9422,1.228267 0.0711,1.112886 0.32897,2.005892 0.57918,2.005892 0.0824,0 0.56125,-0.744883 1.06414,-1.655295 1.13675,-2.057908 1.22943,-2.141852 2.00634,-1.817239 0.59727,0.249554 1.85524,1.538082 2.39702,2.455259 0.15859,0.268459 0.33932,0.488108 0.40162,0.488108 0.0623,0 0.40192,-0.467622 0.7547,-1.039159 0.72667,-1.177307 1.66495,-2.075602 2.3467,-2.246711 0.56724,-0.142369 0.80789,0.142962 1.82545,2.164382 0.39762,0.789883 0.87426,1.573092 1.0592,1.740465 0.32516,0.294267 0.35945,0.256867 1.03849,-1.132677 0.6753,-1.381894 1.54816,-2.682976 2.11082,-3.146369 0.74924,-0.61705 1.43825,0.03198 2.2421,2.111987 0.45959,1.189245 1.13975,2.026643 1.47686,1.818296 0.10637,-0.06574 0.43899,-0.609835 0.73916,-1.209105 0.30018,-0.59927 0.82323,-1.431291 1.16235,-1.848936 0.51959,-0.639919 0.70244,-0.750893 1.16252,-0.705556 0.48953,0.04824 0.58797,0.163186 0.95239,1.112133 0.46006,1.197976 1.46743,2.506954 1.78044,2.313506 0.11227,-0.06939 0.52398,-0.657999 0.91491,-1.308027 1.31786,-2.191307 2.60752,-3.276891 3.13618,-2.639906 0.1097,0.132185 0.52093,0.89135 0.91385,1.687034 0.39292,0.795684 0.78733,1.446699 0.87648,1.446699 0.0891,0 0.38639,-0.444283 0.66055,-0.987296 0.63192,-1.251597 1.6867,-2.415082 2.11721,-2.335408 0.1887,0.03492 0.54017,0.500008 0.85071,1.125699 0.73141,1.473672 1.19823,2.020616 1.72461,2.020616 0.66614,0 0.78389,0.681489 0.20572,1.190625 -0.24789,0.218281 -0.55026,0.396875 -0.67196,0.396875 -0.32098,0 -1.2654,-0.971994 -1.90804,-1.963755 -0.30595,-0.472157 -0.57826,-0.858467 -0.60514,-0.858467 -0.0269,0 -0.33552,0.5455 -0.68588,1.212224 -0.71777,1.365923 -1.2076,1.962775 -1.61083,1.962775 -0.58077,0 -1.23173,-0.715177 -1.82834,-2.008689 -0.33955,-0.736181 -0.70553,-1.339454 -0.81329,-1.340605 -0.19277,-0.0021 -1.33948,1.668631 -1.89468,2.760456 -0.15598,0.306729 -0.4874,0.718001 -0.73649,0.913938 -0.37373,0.29398 -0.54297,0.324849 -0.96822,0.176606 -0.72133,-0.251457 -1.77381,-1.330619 -2.25837,-2.31563 -0.22509,-0.45755 -0.46724,-0.831909 -0.53812,-0.831909 -0.0709,0 -0.3101,0.377031 -0.53162,0.837847 -0.69054,1.436532 -1.45422,2.512539 -1.85454,2.613014 -0.95042,0.238541 -2.18878,-0.845815 -2.98412,-2.613014 -0.29471,-0.654843 -0.59361,-1.190625 -0.66422,-1.190625 -0.16205,0 -0.96605,1.353628 -1.62389,2.734028 -0.62582,1.313206 -0.94591,1.675694 -1.47969,1.675694 -0.6839,0 -1.97193,-1.343532 -2.66337,-2.778124 -0.33899,-0.703351 -0.6806,-1.27882 -0.75913,-1.27882 -0.0785,0 -0.4585,0.456406 -0.84439,1.014236 -1.96225,2.8366 -2.10152,2.841656 -4.3131,0.156564 -0.37057,-0.449912 -0.73866,-0.818022 -0.81797,-0.818022 -0.117,0 -0.85377,1.235493 -2.10373,3.527778 -0.3065,0.562074 -0.96157,0.403698 -1.62803,-0.39361 z m -2.98128,27.689792 c -0.003,-0.94553 -0.132286,-1.12691 -0.791054,-1.11334 -0.468545,0.01 -0.53564,0.0785 -0.585669,0.60067 -0.06728,0.70224 0.361233,1.26232 0.965785,1.26232 0.369458,0 0.413348,-0.0801 0.410938,-0.74965 z m -0.467947,-2.77776 c 0.31578,5.3e-4 0.159701,-2.28844 -0.164525,-2.41286 -0.313827,-0.12043 -0.763862,0.24109 -0.967773,0.77741 -0.20855,0.54853 0.304041,1.87384 0.670378,1.73327 0.140723,-0.054 0.348587,-0.098 0.46192,-0.0978 z m -0.328725,-4.22461 c 0.05755,-0.0931 -0.16939,-0.15052 -0.519282,-0.13134 -0.665665,0.0365 -0.738297,0.11141 -0.418216,0.43149 0.207931,0.20794 0.725995,0.0421 0.937498,-0.30015 z m 0.09381,-1.79449 c 0,-0.53144 -0.01386,-0.54149 -0.396875,-0.28761 -0.586008,0.38845 -0.616613,0.83829 -0.05703,0.83829 0.390688,0 0.453905,-0.0767 0.453905,-0.55068 z m -1.254047,-0.77412 c 0.328921,-0.33851 0.725796,-0.61537 0.881944,-0.61524 0.234224,1.7e-4 0.273237,-0.17127 0.222928,-0.97978 l -0.06098,-0.98002 -0.627052,0.0537 c -0.879297,0.0754 -1.323548,0.72534 -1.421524,2.07984 -0.09199,1.27177 0.111175,1.36104 1.004685,0.44146 z m 0.663153,-4.27825 c 0.111572,-0.07127 0.230634,-0.288342 0.264584,-0.48237 0.04824,-0.275667 -0.049,-0.36543 -0.44483,-0.410665 -0.632446,-0.07227 -0.823396,0.119874 -0.627225,0.631151 0.154709,0.403224 0.440921,0.496044 0.807471,0.261884 z m 0.238117,-2.246258 c 0,-0.145521 -0.06966,-0.264584 -0.154792,-0.264584 -0.08513,0 -0.253603,0.119063 -0.374375,0.264584 -0.183457,0.22105 -0.157988,0.264583 0.154792,0.264583 0.215185,0 0.374375,-0.112505 0.374375,-0.264583 z m -1.347223,-0.529428 c 0.05589,-0.145666 0.388025,-0.401419 0.738064,-0.568341 0.618449,-0.294917 0.633869,-0.326065 0.545611,-1.102168 -0.04995,-0.439272 -0.09578,-0.818518 -0.101833,-0.842772 -0.04157,-0.1665 -0.745465,0.01095 -1.062833,0.267942 -0.294855,0.238758 -0.408756,0.570147 -0.485011,1.411111 -0.06367,0.70216 -0.03393,1.099072 0.08235,1.099072 0.10011,0 0.22775,-0.11918 0.283648,-0.264844 z m 1.170834,-4.762562 v -0.759564 l -0.881147,-0.0068 c -0.669162,-0.0052 -0.921595,0.06875 -1.049278,0.307328 -0.434079,0.811083 0.500819,1.716987 1.435631,1.391108 0.438827,-0.152973 0.494794,-0.258399 0.494794,-0.932046 z m -0.107356,-3.07849 c 0.224346,-1.355858 0.209517,-1.378915 -0.759218,-1.180472 -0.781579,0.160105 -0.874662,0.230636 -0.94902,0.719095 -0.123202,0.80931 0.09391,1.069602 0.899781,1.078738 0.672366,0.0076 0.709771,-0.02094 0.808457,-0.617361 z m -0.349054,-2.231336 c 0.152898,-0.05867 0.236224,-0.174269 0.185166,-0.25688 -0.112765,-0.182458 -0.610699,-0.01446 -0.610699,0.20604 0,0.186065 0.05578,0.192729 0.425533,0.05084 z m -0.339141,-1.148933 c 0.195019,-0.01149 0.414112,-0.01149 0.486872,0 0.07276,0.01149 0.132292,-0.146354 0.132292,-0.350762 0,-0.266427 -0.07899,-0.341336 -0.27901,-0.264583 -0.153455,0.05889 -0.621101,0.107066 -1.039211,0.107066 -0.671247,0 -0.773649,0.05357 -0.875113,0.457845 -0.06431,0.256208 -0.02703,0.563729 0.08463,0.698272 0.164579,0.198307 0.281474,0.16445 0.667251,-0.193261 0.257242,-0.238529 0.627274,-0.443089 0.822293,-0.454577 z m 0.350509,-2.623336 c -0.06357,-0.340434 -0.128351,-0.627693 -0.143951,-0.638353 -0.01561,-0.01066 -0.445085,-0.06645 -0.954408,-0.123982 l -0.926042,-0.104598 v 0.573773 c 0,0.774264 0.182799,0.908636 1.238667,0.910521 l 0.90132,0.0016 -0.115586,-0.61897 z m -0.08412,-1.853693 c 0,-0.280321 -0.619534,-0.370081 -0.778545,-0.112797 -0.130258,0.210762 0.0707,0.377381 0.455166,0.377381 0.177858,0 0.323379,-0.119063 0.323379,-0.264584 z"
       id="path338" />
  </g>
</svg>
