<?xml version="1.0" encoding="UTF-8" standalone="no"?>
<!-- Created with Inkscape (http://www.inkscape.org/) -->

<svg
   width="156.75618mm"
   height="120.34204mm"
   viewBox="0 0 156.75618 120.34204"
   version="1.1"
   id="svg1184"
   sodipodi:docname="magic.svg"
   inkscape:version="1.2.1 (9c6d41e, 2022-07-14)"
   xml:space="preserve"
   xmlns:inkscape="http://www.inkscape.org/namespaces/inkscape"
   xmlns:sodipodi="http://sodipodi.sourceforge.net/DTD/sodipodi-0.dtd"
   xmlns="http://www.w3.org/2000/svg"
   xmlns:svg="http://www.w3.org/2000/svg"><sodipodi:namedview
     id="namedview1186"
     pagecolor="#505050"
     bordercolor="#ffffff"
     borderopacity="1"
     inkscape:showpageshadow="0"
     inkscape:pageopacity="0"
     inkscape:pagecheckerboard="1"
     inkscape:deskcolor="#505050"
     inkscape:document-units="mm"
     showgrid="false"
     inkscape:zoom="0.25944019"
     inkscape:cx="851.83409"
     inkscape:cy="516.49669"
     inkscape:window-width="1440"
     inkscape:window-height="872"
     inkscape:window-x="0"
     inkscape:window-y="0"
     inkscape:window-maximized="1"
     inkscape:current-layer="layer1" /><defs
     id="defs1181" /><g
     inkscape:label="Calque 1"
     inkscape:groupmode="layer"
     id="layer1"
     transform="translate(219.14751,-67.409196)"><path
       style="fill:#000000;stroke-width:1"
       d="m -131.70723,187.65474 -3.26319,0.0965 -0.58012,-0.14896 -0.58012,-0.14896 -0.78132,-0.41449 -0.78132,-0.41449 -0.17866,-0.79702 -0.17865,-0.79701 -0.2545,-2.11666 -0.25449,-2.11667 -0.20649,-2.55764 -0.20649,-2.55764 -0.1616,-1.76389 -0.1616,-1.76389 -0.17192,-2.11666 -0.17192,-2.11667 -0.0857,-1.05833 -0.0857,-1.05834 -0.0936,-2.23276 -0.0936,-2.23277 -0.17612,-2.15556 -0.17611,-2.15556 0.0939,-1.24191 0.0939,-1.24191 0.53047,-0.98435 0.53047,-0.98435 1.00735,-1.08411 1.00734,-1.08412 0.5645,-0.2829 0.56451,-0.28289 0.75841,-0.005 0.75841,-0.005 0.31391,-0.68153 0.3139,-0.68154 0.91031,-0.3916 0.91032,-0.39161 3.1855,-0.15147 3.18551,-0.15146 3.70416,-0.0793 3.70417,-0.0793 1.27524,0.15713 1.27525,0.15713 0.87458,0.44318 0.87458,0.44318 0.45829,0.60085 0.45829,0.60085 0.0621,1.73888 0.062,1.73887 0.18676,1.14653 0.18676,1.14653 0.0958,0.70555 0.0958,0.70556 0.18692,1.23472 0.18692,1.23472 0.16055,1.05834 0.16054,1.05833 0.18054,1.49931 0.18054,1.4993 0.0861,0.79375 0.0861,0.79375 0.1075,1.23473 0.1075,1.23472 0.25869,1.5875 0.25868,1.5875 0.10474,4.24113 0.10474,4.24112 -0.12413,0.99354 -0.12413,0.99354 -0.93126,0.71846 -0.93125,0.71846 h -0.28198 -0.28198 l -0.0874,0.14147 -0.0874,0.14146 -0.12039,1.31374 -0.12038,1.31375 -0.16622,0.20753 -0.16622,0.20752 -0.5018,-0.17493 -0.50181,-0.17493 -3.76478,0.28702 -3.76478,0.28701 -2.20486,0.16506 -2.20486,0.16507 -0.97014,0.0738 -0.97014,0.0738 z m -0.0882,-1.15032 1.94027,-0.11336 2.20486,-0.1173 2.20487,-0.11731 1.5875,-0.16582 1.5875,-0.16582 3.88055,-0.27411 3.88056,-0.27411 0.17638,-0.17572 0.17639,-0.17571 0.0125,-1.79952 0.0125,-1.79952 -0.12452,-5.29167 -0.12452,-5.29167 -0.11143,-2.82222 -0.11142,-2.82222 -0.0818,-0.79375 -0.0818,-0.79375 -0.0991,-1.5875 -0.0991,-1.5875 -0.15909,-0.97014 -0.15909,-0.97014 -0.10862,-1.41111 -0.10862,-1.41111 -0.079,-0.61737 -0.079,-0.61736 -0.19541,-0.97014 -0.19542,-0.97013 -0.33293,-0.65556 -0.33294,-0.65557 -0.32364,-0.1732 -0.32364,-0.17321 -1.48377,-0.19788 -1.48377,-0.19789 -0.84971,-0.0915 -0.8497,-0.0915 -2.76627,0.2071 -2.76627,0.2071 -0.87656,0.0659 -0.87656,0.0659 -2.2286,0.0253 -2.2286,0.0253 -0.0292,1.67172 -0.0292,1.67173 -0.25034,0.59915 -0.25034,0.59915 -0.31942,0.33278 -0.31941,0.33278 -0.52917,0.12599 -0.52916,0.12598 -1.65841,-0.0185 -1.65841,-0.0185 0.14485,1.98919 0.14484,1.98919 0.0356,0.61736 0.0356,0.61736 0.11746,2.11667 0.11745,2.11667 0.0865,1.14652 0.0865,1.14653 0.0851,0.97014 0.0851,0.97014 0.16771,1.76389 0.16772,1.76389 0.2752,3.43958 0.2752,3.43958 0.19166,1.76389 0.19165,1.76389 0.23362,1.03017 0.23362,1.03017 0.32061,0.24045 0.32061,0.24045 0.70555,0.094 0.70556,0.094 0.44097,0.0465 0.44097,0.0464 1.94028,-0.11336 z m 1.89639,-0.46047 -1.45499,0.0745 -0.0652,-0.0652 -0.0652,-0.0652 -1.31271,-0.007 -1.31272,-0.007 -0.23813,-0.14717 -0.23813,-0.14718 -0.3011,0.18804 -0.3011,0.18804 -0.26286,-0.10087 -0.26287,-0.10087 -0.11328,-0.56638 -0.11327,-0.56638 v -1.01612 -1.01612 l 0.26349,-0.50523 0.2635,-0.50523 0.001,-0.28709 0.001,-0.28708 0.22048,-0.18063 0.22049,-0.18064 1.23472,-0.14486 1.23472,-0.14486 -1.63188,-0.10796 -1.63187,-0.10796 -0.12598,-0.12598 -0.12598,-0.12597 -0.12742,-1.27015 -0.12742,-1.27016 -0.0109,-1.86884 -0.0109,-1.86884 0.30868,-0.2633 0.30868,-0.26329 2.14612,-0.30773 2.14612,-0.30774 0.99726,0.1246 0.99725,0.1246 0.4907,0.4129 0.4907,0.41289 0.22612,3.31139 0.22611,3.31139 0.22105,0.17849 0.22106,0.17848 0.19619,1.37422 0.19618,1.37422 v 1.13252 1.13253 l -0.66145,0.1677 -0.66146,0.16771 -1.455,0.0745 z m -4.55624,-0.97645 0.23935,-0.31555 0.76928,-0.0156 0.76927,-0.0156 1.78666,0.13517 1.78666,0.13517 0.4623,-0.11603 0.4623,-0.11603 -0.008,-0.83449 -0.008,-0.83448 -0.1463,-0.75665 -0.1463,-0.75664 -0.10589,-0.1059 -0.10589,-0.10589 -2.25367,0.21828 -2.25367,0.21828 -0.61736,0.0269 -0.61736,0.0269 -0.11471,0.35278 -0.11471,0.35278 -0.012,1.41111 -0.012,1.41111 0.23935,-0.31556 z m 2.13068,-4.53513 h 0.0882 v -0.0882 -0.0882 h -0.0882 -0.0882 v 0.0882 0.0882 z m 0.28545,-1.23473 h 2.97774 l -0.0117,-0.83784 -0.0117,-0.83785 -0.21124,-1.83517 -0.21125,-1.83516 -0.35033,-0.13681 -0.35033,-0.13681 -0.88194,-0.005 -0.88195,-0.005 -1.44787,0.2145 -1.44788,0.2145 -0.21753,0.21753 -0.21753,0.21753 0.0355,0.92751 0.0355,0.92751 0.1074,1.45521 0.1074,1.45521 h 2.97775 z m 7.91663,5.57533 -0.79375,0.0704 -0.25643,-0.16553 -0.25643,-0.16554 0.22907,-0.42802 0.22907,-0.42802 1.87944,-0.20339 1.87945,-0.20339 1.48824,-0.17857 1.48825,-0.17857 0.23879,0.2388 0.2388,0.23879 -0.16447,0.43259 -0.16447,0.43258 -2.6209,0.23378 -2.62091,0.23378 z m -1.30555,-3.10588 h -0.61391 l -0.10676,-0.17274 -0.10676,-0.17275 0.18964,-0.35434 0.18964,-0.35434 0.39178,-0.0785 0.39178,-0.0785 2.64584,-0.29298 2.64583,-0.29297 0.8122,-0.0764 0.8122,-0.0764 0.24041,0.28967 0.24041,0.28968 -0.38756,0.31383 -0.38757,0.31384 -1.45879,0.19374 -1.4588,0.19375 -1.71284,0.17776 -1.71284,0.17776 z m 1.81808,-3.73067 -2.22151,0.1147 -0.27702,-0.0541 -0.27702,-0.0541 -0.0913,-0.23797 -0.0913,-0.23797 0.33773,-0.30564 0.33773,-0.30564 2.3403,-0.1359 2.34031,-0.1359 2.11248,-0.0601 2.11249,-0.0601 0.0534,0.26799 0.0534,0.268 -0.22558,0.28951 -0.22559,0.28951 -2.02847,0.12155 -2.02847,0.12154 z m 0.94539,-2.97211 h -0.67387 l -0.43612,-0.29163 -0.43612,-0.29164 -0.46577,-0.42843 -0.46577,-0.42843 -0.53728,0.27784 -0.53728,0.27784 -0.10979,0.17764 -0.10979,0.17764 h -0.43057 -0.43056 v -0.22998 -0.22998 l 0.57327,-0.53081 0.57326,-0.53082 0.48437,-0.20524 0.48437,-0.20524 0.46961,0.17854 0.4696,0.17855 0.59557,0.52291 0.59556,0.52291 h 0.42895 0.42894 l 0.90203,-0.80113 0.90203,-0.80113 0.38268,0.11792 0.38268,0.11792 0.52917,0.27843 0.52916,0.27844 1.4314,-0.0491 1.4314,-0.0491 0.11779,0.30695 0.11778,0.30694 -0.17239,0.17239 -0.17239,0.17239 -1.72957,0.0646 -1.72957,0.0646 -0.52019,-0.34599 -0.52019,-0.34599 -0.83927,0.78503 -0.83927,0.78504 z m -9.21903,-3.46718 -1.4993,0.0446 -1.36137,-0.0967 -1.36136,-0.0967 -0.26647,-0.26712 -0.26648,-0.26713 -0.19029,-2.19147 -0.19028,-2.19147 -0.0659,-0.10667 -0.0659,-0.10667 -0.45311,-2.54292 -0.4531,-2.54291 v -1.00945 -1.00945 l 0.30868,-0.0918 0.30868,-0.0918 2.46945,0.13735 2.46944,0.13735 1.23472,-0.0593 1.23472,-0.0593 2.64584,-0.25387 2.64583,-0.25387 1.05833,-0.0358 1.05834,-0.0358 1.85401,0.027 1.85401,0.027 0.67241,0.58109 0.67241,0.58109 -0.0289,1.66787 -0.0289,1.66787 0.11279,2.19176 0.11278,2.19176 -0.21479,0.51855 -0.21479,0.51856 0.29442,0.16477 0.29443,0.16477 v 0.41819 0.41819 l -0.48507,0.0964 -0.48507,0.0964 -1.05833,0.17822 -1.05834,0.17823 -3.43958,0.43255 -3.43958,0.43255 -1.23473,0.12255 -1.23472,0.12256 -0.35278,0.0742 -0.35277,0.0742 z m -1.11519,-1.13011 1.97161,0.0112 1.33762,-0.18604 1.33762,-0.18605 0.74771,-0.068 0.74771,-0.068 2.46945,-0.34648 2.46944,-0.34647 0.44098,-0.096 0.44097,-0.096 0.98349,-0.091 0.9835,-0.091 0.30685,-0.11775 0.30686,-0.11775 -0.12196,-4.34233 -0.12197,-4.34233 -0.0834,-0.14362 -0.0834,-0.14363 -3.02529,0.0849 -3.0253,0.0849 -2.99861,0.27685 -2.99861,0.27684 -1.76389,-0.007 -1.76389,-0.007 -1.23472,-0.14222 -1.23472,-0.14221 -0.0554,0.045 -0.0554,0.045 -0.007,0.50318 -0.007,0.50319 0.11033,0.86136 0.11032,0.86136 0.15849,0.72614 0.15848,0.72614 0.17941,0.97014 0.17942,0.97014 0.18789,0.9395 0.18788,0.9395 v 0.96236 0.96237 l 0.39688,0.15953 0.39687,0.15952 1.97162,0.0112 z m 3.67998,-12.68882 h -0.0986 l -0.50654,-0.48507 -0.50654,-0.48507 -0.39323,-0.83785 -0.39322,-0.83785 h -0.23256 -0.23256 l -0.27718,0.27719 -0.27719,0.27718 v 0.16379 0.16379 h -0.35831 -0.35831 l -0.10557,-0.27512 -0.10557,-0.27511 0.48867,-0.51007 0.48867,-0.51006 0.50042,-0.10991 0.50041,-0.10991 0.35281,0.11198 0.35281,0.11197 0.54389,1.13963 0.54389,1.13963 0.16951,-0.10476 0.16951,-0.10476 0.67928,-0.91952 0.67929,-0.91951 h 0.41201 0.41202 l 0.66208,0.68224 0.6621,0.68224 0.22707,-0.13595 0.22707,-0.13594 0.57655,-0.54 0.57656,-0.53999 0.48178,-0.0977 0.48178,-0.0977 0.6032,0.39888 0.60321,0.39889 0.74558,-0.1022 0.74558,-0.10219 0.81198,0.40552 0.81198,0.40552 v 0.32151 0.32152 l -0.39688,-0.001 -0.39687,-0.001 -0.51702,-0.26962 -0.51703,-0.26961 -0.52353,0.1825 -0.52354,0.18251 h -0.31292 -0.31292 l -0.53963,-0.45406 -0.53962,-0.45407 -0.85228,0.71865 -0.85227,0.71865 h -0.57955 -0.57955 l -0.59568,-0.59568 -0.59567,-0.59567 -0.45188,0.77108 -0.45188,0.77108 -0.51355,0.26557 -0.51355,0.26556 h -0.0986 z m 16.4496,24.69445 h 0.10197 l 0.56964,-0.39033 0.56964,-0.39032 0.10274,-0.51367 0.10273,-0.51367 -0.005,-3.02066 -0.005,-3.02066 -0.25412,-2.55764 -0.25412,-2.55764 -0.4402,-4.05694 -0.44021,-4.05695 -0.27676,-1.5875 -0.27675,-1.5875 -0.26173,-1.94028 -0.26172,-1.94028 -0.0906,-0.2502 -0.0906,-0.25021 -0.0838,-1.5003 -0.0838,-1.50029 -0.18388,-0.68289 -0.18388,-0.68289 -0.54387,-0.33075 -0.54387,-0.33075 -1.13181,-0.19709 -1.13181,-0.1971 -3.9157,0.10792 -3.91571,0.10791 -3.175,0.14513 -3.175,0.14514 -0.47953,0.22044 -0.47954,0.22044 0.0931,0.15059 0.0931,0.1506 h 1.38187 1.38186 l 2.51179,-0.26508 2.5118,-0.26508 2.40183,-0.0227 2.40184,-0.0227 1.62023,0.27737 1.62023,0.27737 0.54129,0.27991 0.54128,0.27991 0.43384,0.65654 0.43383,0.65654 0.26124,1.24409 0.26123,1.24409 0.19564,2.27183 0.19564,2.27184 0.11244,0.18192 0.11243,0.18193 0.12233,1.9466 0.12233,1.94659 0.28555,6.17361 0.28555,6.17362 0.10693,3.66007 0.10694,3.66007 h 0.10197 z m -23.77689,-27.22625 0.97014,-0.15054 0.32265,-0.3093 0.32265,-0.3093 0.15018,-1.21092 0.15017,-1.21092 -0.0972,-0.48604 -0.0972,-0.48605 -0.24317,-0.20181 -0.24317,-0.20181 -0.53107,0.21998 -0.53108,0.21998 -0.90214,0.99211 -0.90215,0.99211 -0.4173,0.88195 -0.4173,0.88194 -0.002,0.21034 -0.002,0.21035 0.74965,0.0542 0.74965,0.0542 0.97014,-0.15055 z m 43.479862,31.18106 -10.759722,0.079 -0.35278,-0.21118 -0.35278,-0.21117 -0.30299,-0.17796 -0.303,-0.17796 -0.3619,-4.40589 -0.3619,-4.4059 -0.17067,-1.76388 -0.17067,-1.76389 -0.27656,-2.82223 -0.27657,-2.82222 -0.25488,-2.20378 -0.25488,-2.20378 v -3.76292 -3.76291 l 0.48635,-0.48636 0.48636,-0.48635 2.64455,-0.37536 2.64454,-0.37534 1.763892,-0.17434 1.76389,-0.17433 1.32292,-0.10548 1.32291,-0.10548 1.23472,-0.16399 1.23473,-0.16399 4.23333,-0.17382 4.23333,-0.17381 9.31139,-0.11039 9.31138,-0.11039 0.4341,0.28443 0.4341,0.28444 v 0.42542 0.42542 l 0.17748,0.46679 0.17747,0.46679 0.34075,1.97004 0.34076,1.97004 0.0988,1.32292 0.0988,1.32292 0.18267,4.49792 0.18267,4.49791 0.25618,3.3206 0.25617,3.32059 -0.002,4.06408 -0.002,4.06408 -0.17787,0.33234 -0.17786,0.33234 -3.21289,0.004 -3.21289,0.004 -6.61459,0.16982 -6.61458,0.16982 -10.75972,0.079 z m -1.36621,-1.22689 9.30371,-0.0632 4.14514,-0.1041 4.14514,-0.10411 6.34303,-0.16807 6.34303,-0.16808 0.17454,0.17454 0.17454,0.17454 h 0.13111 0.13112 l -0.0486,-4.63021 -0.0486,-4.63021 -0.2892,-4.49791 -0.28919,-4.49792 -0.1878,-3.95448 -0.1878,-3.95448 -0.41787,-1.95455 -0.41787,-1.95455 -0.1922,-0.49435 -0.1922,-0.49434 -7.54146,0.0963 -7.54147,0.0963 -3.88055,0.0963 -3.88056,0.0963 -2.64583,0.17331 -2.64583,0.17331 -0.61736,0.0838 -0.61737,0.0838 -2.99861,0.26755 -2.998612,0.26755 -0.79375,0.16282 -0.79375,0.16282 -1.71689,0.20981 -1.71689,0.20981 0.0879,3.54956 0.0879,3.54956 0.25936,2.38125 0.25936,2.38125 0.1695,1.32597 0.1695,1.32596 0.19602,2.73098 0.19602,2.73098 0.0784,0.44097 0.0784,0.44097 0.17861,2.20487 0.17862,2.20486 0.18573,1.84407 0.18574,1.84407 0.0771,0.12476 0.0771,0.12475 z m 13.13984,-1.23482 -3.04303,0.11564 -0.18411,-0.48424 -0.18411,-0.48425 -0.16761,-2.48089 -0.16761,-2.48089 -0.1683,-0.88195 -0.1683,-0.88194 -0.26617,-1.6757 -0.26617,-1.67569 -0.0932,-0.70556 -0.0932,-0.70555 -0.35695,-2.64584 -0.35694,-2.64583 -0.17324,-1.14653 -0.17324,-1.14653 -0.0754,-2.13042 -0.0754,-2.13042 0.49339,-0.46568 0.49339,-0.46568 0.77146,-0.17226 0.77147,-0.17226 3.61597,-0.14206 3.61597,-0.14205 h 5.7406 5.74059 l 0.52121,0.34669 0.52121,0.3467 -0.29368,0.0602 -0.29369,0.0602 0.0665,4.09099 0.0665,4.09101 0.1739,2.02847 0.17389,2.02847 0.10121,2.73403 0.10121,2.73403 0.0917,1.76388 0.0917,1.76389 0.0546,0.26459 0.0546,0.26458 0.17618,0.43411 0.17617,0.43411 -0.0315,0.75563 -0.0315,0.75562 -0.13331,0.13318 -0.1333,0.13318 -1.264,0.0175 -1.26399,0.0176 -3.43959,0.0471 -3.43958,0.0471 -2.11667,0.13897 -2.11666,0.13896 -3.04304,0.11565 z m 0.20092,-1.21211 2.31295,-0.12058 1.49931,-0.0701 1.4993,-0.0701 2.91042,-0.10425 2.91041,-0.10426 2.24917,-0.0198 2.24917,-0.0199 -0.1629,-0.19628 -0.1629,-0.19628 -0.11028,-2.29149 -0.11028,-2.29149 -0.16778,-3.26319 -0.16779,-3.2632 -0.16657,-3.06207 -0.16658,-3.06208 -0.0541,-0.0446 -0.0541,-0.0446 -1.2933,0.14299 -1.2933,0.14299 -1.7935,0.55599 -1.79351,0.55598 -1.05833,0.44133 -1.05833,0.44132 -1.70578,0.95423 -1.70579,0.95424 -0.0581,0.13022 -0.0581,0.13022 -0.91184,0.62655 -0.91184,0.62655 -0.98873,0.91189 -0.98873,0.91189 -1.05821,1.22647 -1.05821,1.22647 0.25835,1.29204 0.25836,1.29203 0.0944,1.14653 0.0944,1.14653 0.0975,1.14653 0.0975,1.14653 0.10733,0.59766 0.10732,0.59766 z m -3.67556,-9.98238 h 0.0479 l 1.47921,-1.45521 1.47921,-1.45521 0.83683,-0.68002 0.83682,-0.68002 0.8705,-0.5988 0.87051,-0.5988 h 0.0836 0.0836 l 0.75849,-0.49663 0.7585,-0.49663 1.41111,-0.61597 1.41111,-0.61597 1.4993,-0.46401 1.49931,-0.46401 0.97014,-0.27418 0.97014,-0.27417 0.89916,-0.0283 0.89916,-0.0283 0.20327,0.12562 0.20327,0.12563 v -2.21527 -2.21527 l -2.33715,-0.0347 -2.33716,-0.0347 -4.7625,0.0436 -4.7625,0.0436 -2.20486,0.18834 -2.20486,0.18834 -0.47665,0.005 -0.47664,0.005 0.095,1.60586 0.095,1.60585 0.33626,2.73404 0.33627,2.73402 0.18452,1.14653 0.18453,1.14653 0.10583,1.01424 0.10583,1.01423 h 0.0479 z m -15.00177,10.62981 -1.763892,0.0914 -0.22048,-0.0837 -0.22049,-0.0837 v -0.32767 -0.32767 l 0.13827,-0.0854 0.13827,-0.0855 1.14055,-0.0311 1.140552,-0.0311 0.69732,0.10967 0.69731,0.10967 0.13319,0.21551 0.13319,0.2155 -0.12495,0.11129 -0.12495,0.11129 z m -0.471392,-2.98404 -1.52974,0.0962 -0.21165,-0.25503 -0.21166,-0.25503 0.20598,-0.24819 0.20598,-0.24819 1.00624,-0.10573 1.006242,-0.10572 0.9407,-0.0965 0.94069,-0.0965 0.24993,0.20743 0.24993,0.20742 v 0.23619 0.23618 l -0.66146,0.1656 -0.66145,0.1656 z m -1.94048,-3.05966 h -0.63174 l -0.22693,-0.27344 -0.22693,-0.27344 0.24943,-0.23006 0.24943,-0.23007 2.02847,-0.20835 2.028482,-0.20836 0.88194,-0.0851 0.88195,-0.0851 0.3308,0.25936 0.3308,0.25936 -0.10104,0.26333 -0.10105,0.26333 -0.58254,0.0832 -0.58253,0.0832 -1.9484,0.19113 -1.948412,0.19113 z m 1.92082,-3.23424 -2.23334,0.11319 -0.11189,-0.29156 -0.11188,-0.29156 0.10153,-0.26458 0.10153,-0.26459 1.01978,-0.001 1.01977,-0.001 1.171712,-0.11068 1.17171,-0.11068 0.21165,0.39546 0.21164,0.39545 -0.15943,0.15943 -0.15944,0.15944 -2.233342,0.11319 z m -2.9681,-2.76299 h -0.34428 l -0.10239,-0.26682 -0.10239,-0.26683 0.19713,-0.23754 0.19714,-0.23754 1.4542,-0.11204 1.45419,-0.11205 1.251802,-0.11091 1.25181,-0.11091 0.47856,0.31357 0.47857,0.31357 -0.23107,0.22623 -0.23106,0.22624 -2.703962,0.18752 -2.70397,0.18751 z m 1.29285,-2.83752 -1.10796,0.0153 -0.10153,-0.26459 -0.10153,-0.26458 0.091,-0.23707 0.091,-0.23706 2.61783,-0.14484 2.617832,-0.14483 0.61736,-0.0372 0.61736,-0.0372 0.32926,0.3456 0.32925,0.34559 -0.20121,0.20121 -0.20122,0.20122 -2.2447,0.12155 -2.244712,0.12156 -1.10797,0.0153 z m 2.920242,-3.40949 -4.714122,0.12458 -0.11135,-0.29017 -0.11135,-0.29018 0.0959,-0.24988 0.0959,-0.24988 h 1.90699 1.90698 l 2.558012,-0.12314 2.55801,-0.12314 0.44097,0.3605 0.44098,0.3605 -0.17639,0.17811 -0.17639,0.17811 z m -2.116002,-2.2825 -2.59679,0.1175 -0.1218,-0.31742 -0.1218,-0.31742 0.33734,-0.25073 0.33734,-0.25072 0.70555,0.0672 0.70556,0.0672 2.293052,-0.23672 2.29306,-0.23671 1.5875,-0.16686 1.5875,-0.16686 1.01423,-0.005 1.01424,-0.005 v 0.25165 0.25165 l 0.25994,0.057 0.25994,0.057 -0.12765,0.19599 -0.12765,0.196 -2.20486,0.11804 -2.20486,0.11803 -1.14653,0.16907 -1.14652,0.16906 z m 2.462302,-2.58299 h -0.63046 l -0.929902,-0.79375 -0.9299,-0.79375 h -0.3131 -0.3131 l -0.83441,0.52917 -0.83441,0.52916 h -0.23558 -0.23559 l -0.10239,-0.26682 -0.10239,-0.26683 0.24022,-0.29247 0.24022,-0.29246 0.78418,-0.49904 0.78419,-0.49904 h 0.41347 0.41346 l 0.65443,0.33561 0.65443,0.33561 0.427632,0.45814 0.42762,0.45814 0.27793,-9e-5 0.27794,-9e-5 0.75943,-0.88185 0.75944,-0.88186 h 0.57734 0.57733 l 0.82768,0.54823 0.82768,0.54823 0.78612,-0.72462 0.78612,-0.72462 h 0.33211 0.3321 l 0.64981,0.44097 0.64981,0.44098 h 0.59911 0.59912 l 0.10902,-0.17639 0.10901,-0.17639 h 0.59253 0.59252 l 0.27901,0.10706 0.27901,0.10707 v 0.31118 0.31118 l -0.87469,0.11604 -0.8747,0.11603 -0.10585,0.17127 -0.10586,0.17128 h -0.57705 -0.57706 l -0.82623,-0.41829 -0.82624,-0.4183 -0.64924,0.59469 -0.64924,0.59468 h -0.65755 -0.65756 l -0.52406,-0.44098 -0.52407,-0.44097 h -0.23865 -0.23865 l -0.81081,0.88195 -0.81081,0.88194 z m -113.900932,13.20556 -0.79375,0.11181 -0.44941,-0.0524 -0.44942,-0.0524 -0.29121,-0.56499 -0.29122,-0.56499 -0.0935,-1.32291 -0.0935,-1.32292 -0.18746,-1.5875 -0.18746,-1.5875 -0.0829,-0.70556 -0.0829,-0.70555 -0.0567,-0.35278 -0.0567,-0.35278 -0.12401,-0.70556 -0.12401,-0.70555 -0.0826,-1.49931 -0.0826,-1.4993 -0.078,-0.70556 -0.078,-0.70555 -0.19222,-1.76389 -0.19223,-1.76389 -0.0611,-0.44097 -0.061,-0.44098 -0.10317,-0.26458 -0.10316,-0.26458 -0.0872,-2.07838 -0.0872,-2.07838 -0.0818,-0.13238 -0.0818,-0.13238 -0.1233,-1.84619 -0.1233,-1.84618 -0.0614,-0.44097 -0.0614,-0.44098 -0.0918,-1.23472 -0.0918,-1.23472 -0.17492,-1.23472 -0.17491,-1.23473 -0.0883,-3.14341 -0.0883,-3.14341 -0.10502,-0.16992 -0.10501,-0.16991 -0.089,-1.53737 -0.089,-1.53737 -0.13704,-0.94092 -0.13704,-0.94093 0.37251,-0.14187 0.37251,-0.14187 1.14652,-0.19054 1.14653,-0.19054 1.14653,-0.27289 1.14653,-0.27289 1.76388,-0.33701 1.76389,-0.337 0.97014,-0.19313 0.97014,-0.19314 1.85208,-0.4325 1.85209,-0.43251 1.41111,-0.27795 1.41111,-0.27795 1.05833,-0.16709 1.05834,-0.16708 1.76389,-0.33134 1.76388,-0.33135 2.46945,-0.47753 2.46944,-0.47753 0.52917,-0.17011 0.52917,-0.1701 1.57303,-0.10799 1.57303,-0.10799 -0.11229,0.29261 -0.11229,0.29262 h 0.2983 0.29829 l -0.34792,0.23697 -0.34793,0.23696 -2.55764,0.48259 -2.55764,0.48258 -2.91042,0.5914 -2.91041,0.59139 -1.05834,0.18858 -1.05833,0.18858 -2.91042,0.54217 -2.91041,0.54218 -2.73403,0.59067 -2.73403,0.59067 -2.38125,0.44978 -2.38125,0.44978 -0.68445,0.19568 -0.68446,0.19569 0.10886,1.76232 0.10886,1.76231 0.0862,0.13939 0.0861,0.13939 0.18136,2.89025 0.18136,2.89025 0.17113,2.20486 0.17113,2.20486 0.10494,1.37715 0.10494,1.37714 0.0615,0.31922 0.0615,0.31921 0.18705,1.65503 0.18705,1.65503 0.10096,1.32292 0.10096,1.32292 0.24892,1.67569 0.24892,1.67569 0.1065,1.41112 0.1065,1.41111 0.0754,0.23139 0.0754,0.23139 0.1789,2.35701 0.17891,2.35701 0.25383,1.38035 0.25384,1.38035 0.0792,1.17743 0.0792,1.17743 0.10781,0.17443 0.1078,0.17444 0.11483,1.20577 0.11482,1.20578 0.0101,0.30868 0.0101,0.30868 h 0.41413 0.41413 l 0.86939,-0.28436 0.86939,-0.28436 -0.0992,-0.4653 -0.0992,-0.46529 -0.17385,-0.88194 -0.17385,-0.88195 -0.14355,-0.66799 -0.14355,-0.668 0.068,-1.43765 0.068,-1.43765 0.27347,-0.30218 0.27346,-0.30218 1.81752,-0.81127 1.81753,-0.81127 0.33176,-0.003 0.33176,-0.003 0.26458,-0.17905 0.26459,-0.17904 -0.44097,0.0896 -0.44098,0.0896 -1.37977,0.18037 -1.37978,0.18036 h -1.02397 -1.02397 l -0.17811,-0.22048 -0.1781,-0.22049 -0.12667,-1.5875 -0.12667,-1.5875 -0.0902,-1.05833 -0.0902,-1.05834 -0.0235,-0.61736 -0.0235,-0.61736 1.46006,-0.75988 1.46005,-0.75988 1.18578,-0.25129 1.18578,-0.25129 1.24365,-0.003 1.24365,-0.003 0.4592,0.2167 0.45919,0.21671 0.10285,1.2385 0.10285,1.2385 0.018,0.88195 0.018,0.88194 -0.0157,1.20805 -0.0157,1.20805 -0.53559,0.50032 -0.53558,0.50031 -0.39046,0.084 -0.39045,0.084 0.9491,-0.0284 0.94909,-0.0284 0.2305,0.65627 0.2305,0.65627 0.27561,1.98248 0.27562,1.98248 v 0.76227 0.76228 l -0.2508,0.0962 -0.2508,0.0962 -0.37151,-0.19882 -0.3715,-0.19883 0.0808,-0.13068 0.0808,-0.13068 -0.34037,-2.45335 -0.34037,-2.45334 -0.14238,-0.14237 -0.14238,-0.14238 -1.84203,0.59192 -1.84204,0.59192 -0.93401,0.47465 -0.93401,0.47464 0.11244,1.09542 0.11243,1.09543 0.0727,0.44097 0.0727,0.44097 0.11386,1.5434 0.11387,1.54341 0.10588,-0.003 0.10588,-0.003 0.77287,-0.26914 0.77288,-0.26915 1.78476,-0.36318 1.78476,-0.36317 1.23472,-0.25608 1.23473,-0.25609 2.29305,-0.34698 2.29306,-0.34699 1.76245,-0.263 1.76244,-0.263 0.26603,-0.0805 0.26602,-0.0805 1.94028,-0.2689 1.94028,-0.26888 1.32291,-0.19192 1.32292,-0.19192 2.20486,-0.42491 2.20486,-0.42492 0.52917,-0.0464 0.52917,-0.0464 -0.0212,-0.70556 -0.0212,-0.70555 -0.22409,-0.76269 -0.22408,-0.76269 0.25803,-0.25803 0.25803,-0.25803 0.29742,0.11413 0.29742,0.11413 0.0779,0.37742 0.0779,0.37742 0.35506,1.57731 0.35506,1.57731 -0.19144,0.23067 -0.19145,0.23068 h -0.3441 -0.3441 l -2.94159,0.60133 -2.9416,0.60133 -0.88194,0.10936 -0.88195,0.10936 -1.85208,0.25856 -1.85208,0.25856 -1.05834,0.17677 -1.05833,0.17676 -3.80833,0.61257 -3.80832,0.61257 -2.69243,0.53216 -2.69244,0.53215 -2.23049,0.64017 -2.23048,0.64017 z m 2.81069,-11.97084 h 1.2232 l 1.25311,-0.2636 1.25311,-0.2636 0.52231,-0.27009 0.52231,-0.2701 0.0233,-0.39234 0.0233,-0.39235 -0.0289,-1.94028 -0.0289,-1.94028 -0.0966,-0.48507 -0.0966,-0.48506 -0.91203,10e-4 -0.91203,0.001 -1.41111,0.3404 -1.41111,0.3404 -0.79375,0.42223 -0.79375,0.42224 0.005,0.16217 0.005,0.16217 0.16323,2.02847 0.16323,2.02847 0.0321,0.17639 0.0321,0.17639 0.0204,0.22049 0.0203,0.22048 z m 9.84673,4.54378 -0.65994,0.0791 -0.11778,-0.30694 -0.11778,-0.30694 0.17701,-0.28471 0.17702,-0.2847 2.18821,-0.572 2.1882,-0.57199 0.97014,-0.17224 0.97014,-0.17224 1.21435,-0.26575 1.21434,-0.26576 0.15267,0.0944 0.15267,0.0943 v 0.59445 0.59445 l -1.01424,0.18725 -1.01423,0.18726 -2.91042,0.64647 -2.91042,0.64648 z m 14.04319,-0.60753 -1.43342,0.0709 -0.27622,-0.15457 -0.27621,-0.15458 0.61633,-1.36393 0.61632,-1.36394 0.36721,-0.70555 0.36721,-0.70556 0.41611,-0.75653 0.41612,-0.75654 0.0991,-0.56638 0.0991,-0.56638 0.2271,-0.35278 0.2271,-0.35278 0.12499,-0.52916 0.12499,-0.52917 0.62644,-1.32292 0.62644,-1.32291 0.13088,-0.26459 0.13087,-0.26458 0.19349,-0.35278 0.19349,-0.35278 0.30897,-0.74965 0.30897,-0.74965 h 0.13691 0.1369 l -0.0928,-0.24184 -0.0928,-0.24184 0.27473,-0.27473 0.27472,-0.27473 v -0.1624 -0.16241 l 0.6427,-1.21721 0.64269,-1.2172 0.15216,-0.0592 0.15215,-0.0592 -0.0997,-0.16133 -0.0997,-0.16132 h 0.18679 0.1868 v -0.25574 -0.25574 l 0.54058,-0.80098 0.54057,-0.80098 -0.0986,-0.15952 -0.0986,-0.15952 0.26521,-0.10177 0.26521,-0.10177 -0.0364,-0.1372 -0.0363,-0.1372 0.40817,-0.88194 0.40816,-0.88195 0.58949,-1.23472 0.5895,-1.23472 0.35338,-0.61736 0.35338,-0.61736 0.26762,-0.61737 0.26762,-0.61736 0.16052,-0.26458 0.16052,-0.26458 0.3281,-0.68083 0.32809,-0.68083 0.20935,-0.0834 0.20935,-0.0834 -0.0959,-0.24999 -0.0959,-0.24998 h 0.24039 0.24039 l 0.4046,-0.88195 0.4046,-0.88194 h 0.17804 0.17804 l -0.10457,-0.16921 -0.10458,-0.16922 0.22646,-0.40405 0.22646,-0.40405 0.22048,-0.14105 0.22049,-0.14106 v -0.25317 -0.25317 l 0.51324,-0.8405 0.51324,-0.84049 0.54508,-1.42194 0.54509,-1.42194 0.35966,-0.38605 0.35966,-0.38605 h -0.0922 -0.0922 l 0.39404,-0.71035 0.39404,-0.71035 0.36366,-0.65666 0.36367,-0.65666 0.38689,-0.0565 0.38688,-0.0565 0.97109,0.45939 0.97109,0.4594 -0.11267,0.47903 -0.11268,0.47903 -0.59133,1.55232 -0.59134,1.55231 -0.90803,2.15185 -0.90804,2.15185 -2.17551,4.40973 -2.17551,4.40972 -1.06939,1.94028 -1.06939,1.94028 -0.55885,1.14652 -0.55885,1.14653 -0.50092,0.85552 -0.50093,0.85553 -0.88463,1.9667 -0.88463,1.9667 -0.15709,0.35277 -0.15709,0.35278 -1.13111,2.38125 -1.13111,2.38125 -0.92065,1.5875 -0.92066,1.5875 -0.9025,1.82622 -0.9025,1.82622 -0.18741,0.0624 -0.1874,0.0623 z m 0.22984,-0.79568 0.8249,-0.0538 1.0416,-2.02847 1.04159,-2.02847 0.22177,-0.26459 0.22176,-0.26458 0.68453,-1.23472 0.68454,-1.23473 0.28528,-0.61736 0.28528,-0.61736 0.73429,-1.53954 0.73429,-1.53954 v -0.13325 -0.13325 l 0.56502,-1.14943 0.56503,-1.14943 0.11676,-0.0882 0.11675,-0.0882 0.14529,-0.44098 0.14529,-0.44097 0.0352,-0.19284 0.0352,-0.19284 0.43448,-0.6891 0.43448,-0.68911 0.59942,-1.19633 0.59942,-1.19634 0.17412,-0.34707 0.17412,-0.34706 h 0.13456 0.13456 v -0.33118 -0.33118 l 0.24728,-0.20523 0.24728,-0.20522 0.11468,-0.45694 0.11468,-0.45694 0.67024,-0.99103 0.67024,-0.99103 0.21154,-0.64735 0.21155,-0.64735 0.25556,-0.2121 0.25556,-0.21209 v -0.13701 -0.137 l 0.94771,-2.00216 0.94771,-2.00217 0.29173,-0.65396 0.29174,-0.65397 0.17454,-0.10787 0.17455,-0.10788 -0.0902,-0.14589 -0.0902,-0.14588 -0.75056,0.0406 -0.75056,0.0406 -0.30066,-0.18456 -0.30066,-0.18456 -0.0681,0.0815 -0.0681,0.0815 -1.24299,2.11666 -1.243,2.11667 -2.61669,5.11528 -2.6167,5.11528 -1.2887,2.60544 -1.2887,2.60545 -0.80338,1.89247 -0.80338,1.89247 -0.26784,0.4179 -0.26785,0.4179 0.1065,0.53249 0.1065,0.5325 -1.07175,1.86785 -1.07175,1.86785 -0.51621,1.21307 -0.51621,1.21308 v 0.16758 0.16758 z m 17.36398,-32.06835 h 0.17639 l -0.10901,-0.17639 -0.10902,-0.17638 h -0.17639 -0.17638 l 0.10901,0.17638 0.10901,0.17639 z m -33.09459,30.69167 h -0.25131 l -0.16655,-0.31118 -0.16654,-0.31119 0.2282,-0.31208 0.2282,-0.31208 2.06454,-0.34756 2.06455,-0.34755 0.16065,0.0993 0.16065,0.0993 v 0.40897 0.40896 l -0.22049,0.17808 -0.22049,0.17807 -1.81505,0.2845 -1.81505,0.28449 z m -0.38091,-5.36364 -0.38178,0.10522 -0.20555,-0.38407 -0.20555,-0.38408 0.28928,-0.31964 0.28927,-0.31965 0.47444,-0.0887 0.47444,-0.0887 2.11666,-0.45638 2.11667,-0.45638 2.29305,-0.60041 2.29306,-0.6004 1.92097,-0.45344 1.92097,-0.45343 0.32609,0.17452 0.32609,0.17451 -0.0568,0.37253 -0.0568,0.37251 -0.30768,0.22498 -0.30767,0.22497 -0.91239,0.12181 -0.9124,0.12181 -1.76389,0.4052 -1.76389,0.4052 -2.11667,0.54837 -2.11666,0.54837 -1.6757,0.35001 -1.67569,0.35001 z m -0.9141,-3.12349 -0.11524,-0.0205 -0.30868,-0.0807 -0.30868,-0.0807 v -0.21793 -0.21794 l 0.22048,-0.28659 0.22049,-0.28659 1.05833,-0.20659 1.05833,-0.20659 0.70556,-0.1386 0.70556,-0.13859 1.67569,-0.36931 1.67569,-0.36931 0.45567,-0.003 0.45568,-0.003 0.0923,0.0923 0.0923,0.0923 -0.0812,0.42497 -0.0812,0.42498 -0.29038,0.11424 -0.29039,0.11425 -1.67569,0.33188 -1.6757,0.33188 -1.73684,0.35948 -1.73685,0.35947 -0.11523,-0.0205 z m -8.55476,-1.62939 -1.26956,0.10731 -0.21622,-0.26053 -0.21622,-0.26053 -0.079,-0.78068 -0.079,-0.78068 -0.18649,-0.83216 -0.18649,-0.83215 -0.24881,-1.78015 -0.24881,-1.78015 0.23476,-0.56185 0.23476,-0.56186 1.64613,-0.67381 1.64612,-0.67381 1.65446,-0.158 1.65445,-0.15801 0.41811,0.10494 0.41812,0.10494 v 0.18461 0.1846 l 0.33628,-0.30433 0.33628,-0.30432 0.58976,0.0565 0.58977,0.0565 -0.0617,0.35277 -0.0617,0.35278 -0.20285,0.13869 -0.20286,0.13869 -0.57326,-0.0835 -0.57327,-0.0835 0.003,0.20939 0.003,0.2094 0.26838,1.76389 0.26839,1.76389 0.18803,1.45519 0.18804,1.45519 -0.098,0.25536 -0.098,0.25535 -0.75874,0.19749 -0.75873,0.19748 -1.6447,0.60887 -1.6447,0.60887 -1.26956,0.10731 z m 0.7666,-1.20404 0.61736,-0.13764 1.76389,-0.60048 1.76389,-0.60048 -0.0526,-1.29924 -0.0526,-1.29924 -0.1603,-0.61736 -0.16031,-0.61736 -0.10344,-0.97014 -0.10344,-0.97014 -0.0975,-0.32487 -0.0975,-0.32487 -1.2618,0.11538 -1.26179,0.11538 -1.41111,0.54519 -1.41111,0.5452 -0.15105,0.13285 -0.15106,0.13285 0.20206,1.55992 0.20205,1.55992 0.1579,0.52916 0.1579,0.52917 0.1982,1.00327 0.19821,1.00328 0.29845,0.0639 0.29845,0.064 z m 27.44736,-1.90861 h -0.41666 l -0.18865,-0.2273 -0.18865,-0.22731 -0.17634,-1.1397 -0.17634,-1.13971 -0.0994,-0.79375 -0.0994,-0.79375 -0.17458,-1.10243 -0.17458,-1.10243 -0.2031,-1.19063 -0.20311,-1.19062 -0.32606,-1.14597 -0.32607,-1.14597 v -0.39407 -0.39408 l 0.44919,-0.11274 0.44919,-0.11274 0.10055,0.10056 0.10055,0.10055 0.34293,1.37584 0.34292,1.37584 0.2377,0.97014 0.23769,0.97014 0.10406,0.97013 0.10406,0.97014 0.1646,1.05834 0.1646,1.05833 0.0917,0.52917 0.0917,0.52916 0.094,1.10243 0.094,1.10243 z m 41.13662,-0.88464 -0.47227,0.003 -0.36558,-0.46476 -0.36558,-0.46476 0.006,-0.46128 0.006,-0.46128 0.24244,-0.31978 0.24243,-0.31978 0.62762,0.11774 0.62761,0.11775 0.21886,0.26371 0.21886,0.2637 -0.0528,0.73197 -0.0529,0.73196 -0.20382,0.12971 -0.20382,0.1297 -0.47227,0.003 z m -58.62435,-0.17369 h -0.4265 l -0.25939,-0.39687 -0.2594,-0.39688 -0.46882,-1.05833 -0.46882,-1.05834 -0.0919,-1.32484 -0.0919,-1.32485 0.31095,-1.58557 0.31094,-1.58557 0.32522,-0.83545 0.32521,-0.83546 0.64729,-1.3694 0.64729,-1.36941 0.69962,-1.03472 0.69963,-1.03472 0.2882,-0.29006 0.2882,-0.29007 0.40766,-0.52071 0.40767,-0.5207 0.65066,-0.39848 0.65067,-0.39848 0.71663,-0.33734 0.71663,-0.33735 0.25351,-0.2476 0.25351,-0.2476 0.61736,-0.28116 0.61736,-0.28116 0.61736,-0.18699 0.61737,-0.18698 1.55504,-0.18165 1.55505,-0.18165 0.75858,0.10397 0.75858,0.10398 0.11539,-0.61505 0.11538,-0.61505 0.67242,-1.56647 0.67242,-1.56646 0.64851,-1.0084 0.64852,-1.00839 0.65977,-0.69126 0.65978,-0.69127 1.02275,-0.81522 1.02274,-0.81523 0.82934,-0.40782 0.82934,-0.40782 0.70555,-0.2099 0.70556,-0.2099 1.05833,-0.16104 1.05833,-0.16102 1.14653,0.0556 1.14653,0.0555 1.03076,0.39061 1.03076,0.39062 0.90721,0.73954 0.90721,0.73954 0.57557,0.75462 0.57557,0.75462 v 0.40839 0.40839 l -0.26319,0.101 -0.26319,0.10099 -0.2526,-0.479 -0.25259,-0.479 -1.02762,-0.99771 -1.02761,-0.99771 -0.69109,-0.36295 -0.69109,-0.36295 -0.98144,-0.20374 -0.98145,-0.20375 -1.50247,0.20789 -1.50246,0.20788 -0.70556,0.23805 -0.70555,0.23806 -0.75767,0.43158 -0.75767,0.43158 -1.1067,0.95147 -1.10671,0.95147 -0.54134,0.71619 -0.54134,0.71619 -0.5135,0.96229 -0.51351,0.96229 -0.45172,1.14374 -0.45171,1.14374 -0.11268,0.47142 -0.11268,0.47141 0.59026,0.1948 0.59027,0.19481 0.80491,0.51046 0.80491,0.51046 0.74599,1.00981 0.74599,1.00981 0.0866,0.76798 0.0866,0.76799 -0.22769,0.81323 -0.2277,0.81324 -0.70365,0.50972 -0.70365,0.50973 -0.72319,-7.1e-4 -0.72319,-7e-4 -0.58514,-0.35675 -0.58514,-0.35675 -0.42775,-0.93432 -0.42774,-0.93432 -0.18662,-0.95723 -0.18662,-0.95723 0.0526,-1.23472 0.0527,-1.23473 -1.25247,-0.0513 -1.25246,-0.0513 -1.65028,0.36018 -1.65028,0.36018 -1.59485,0.95178 -1.59485,0.95178 -0.99545,1.04371 -0.99546,1.04371 -0.61076,0.95882 -0.61076,0.95883 -0.56289,1.22096 -0.56289,1.22096 -0.36205,1.0721 -0.36204,1.07209 -0.24391,1.14653 -0.24391,1.14653 0.003,0.97014 0.003,0.97014 0.51317,1.30097 0.51316,1.30098 0.38119,0.40576 0.38119,0.40575 -0.11709,0.18945 -0.11708,0.18945 h -0.42649 z m 16.32969,-13.05278 h 0.50519 l 0.41911,-0.19095 0.4191,-0.19096 0.20656,-0.57122 0.20655,-0.57122 v -0.47957 -0.47958 l -0.33724,-0.65443 -0.33725,-0.65443 -0.5888,-0.64435 -0.58879,-0.64434 -0.70294,-0.36989 -0.70295,-0.36989 h -0.20422 -0.20423 l -0.0798,0.22049 -0.0798,0.22048 0.0306,1.23472 0.0306,1.23473 0.31092,0.93151 0.31092,0.93152 0.44066,0.52369 0.44066,0.52369 z m -14.69729,11.99441 -0.66699,4e-5 -0.10678,-0.27826 -0.10678,-0.27826 0.2561,-0.2561 0.2561,-0.2561 1.84059,-0.27865 1.84059,-0.27864 2.38092,-0.58089 2.38092,-0.58089 0.30711,0.16436 0.30711,0.16436 -0.0473,0.30349 -0.0473,0.30349 -0.1229,0.19672 -0.12291,0.19671 -0.57755,0.10276 -0.57754,0.10276 -1.23473,0.28168 -1.23472,0.28167 -2.02847,0.34485 -2.02847,0.34486 z m 55.29546,-1.97102 -0.40487,0.0574 -0.65346,-0.68717 -0.65347,-0.68716 -1.94028,-1.55117 -1.94027,-1.55116 -0.88195,-0.83165 -0.88194,-0.83164 -1.32292,-1.46145 -1.32292,-1.46145 -3.57187,-3.61933 -3.57188,-3.61934 v -0.13123 -0.13124 l 0.23623,-0.19605 0.23622,-0.19605 1.74815,1.68178 1.74815,1.68178 1.20206,1.1826 1.20205,1.1826 0.51907,0.64443 0.51906,0.64442 1.1893,1.24448 1.1893,1.24448 0.45825,0.49235 0.45825,0.49235 0.95551,0.8363 0.95552,0.83631 0.43831,0.3037 0.43832,0.30371 0.97014,0.77941 0.97014,0.77941 0.30548,0.28544 0.30548,0.28544 0.79064,0.61736 0.79064,0.61736 -0.0378,0.35278 -0.0378,0.35278 z m -55.13588,-1.39426 -0.19814,-0.0139 -0.22048,-0.089 -0.22049,-0.089 v -0.22254 -0.22254 l 0.30868,-0.25671 0.30868,-0.2567 1.85208,-0.56401 1.85209,-0.56401 2.13485,-0.61774 2.13485,-0.61773 h 0.36828 0.36828 l 0.11521,0.18641 0.11521,0.18642 -0.10463,0.41689 -0.10464,0.4169 -0.57343,0.11556 -0.57343,0.11557 -1.67569,0.45504 -1.6757,0.45505 -2.00672,0.58997 -2.00673,0.58997 z m -13.69189,-2.19808 -0.79375,0.10529 -0.25047,-0.16621 -0.25047,-0.1662 -0.0651,-0.76481 -0.0651,-0.76481 -0.2603,-0.91815 -0.2603,-0.91814 0.0355,-0.14019 0.0355,-0.14019 -0.14177,-0.97014 -0.14177,-0.97014 -0.24705,-0.48241 -0.24706,-0.48241 0.22197,-0.35543 0.22198,-0.35544 h 0.16416 0.16417 l 0.30057,-0.27201 0.30057,-0.27201 2.0573,-0.69296 2.0573,-0.69296 0.87183,-0.11565 0.87183,-0.11565 0.35176,0.82062 0.35176,0.82063 0.27274,1.00964 0.27274,1.00966 0.10955,1.78375 0.10954,1.78375 -0.11413,0.45476 -0.11414,0.45475 -1.45447,0.43936 -1.45447,0.43935 -1.05833,0.26453 -1.05834,0.26452 z m -0.0407,-1.14255 0.12893,-0.003 1.76389,-0.42596 1.76388,-0.42595 0.52917,-0.15621 0.52917,-0.15621 0.0889,-0.60529 0.0889,-0.60529 -0.12005,-1.29276 -0.12005,-1.29277 -0.3708,-1.22077 -0.3708,-1.22078 -0.2154,-1.5e-4 -0.21541,-1.6e-4 -1.98925,0.63729 -1.98925,0.63728 -0.35954,0.29114 -0.35954,0.29113 0.26148,1.2325 0.26149,1.2325 0.204,1.14653 0.204,1.14652 0.0787,0.39688 0.0787,0.39687 0.12894,-0.003 z m 101.99351,0.77186 -10.31875,0.0844 -1.30955,-0.14652 -1.30955,-0.14652 -0.78119,-0.11715 -0.7812,-0.11715 -0.73845,-0.73845 -0.73845,-0.73845 -0.38184,-1.056 -0.38184,-1.056 -0.0979,-2.38126 -0.0979,-2.38125 -0.0793,-2.55763 -0.0793,-2.55764 -0.0984,-3.43959 -0.0984,-3.43958 -0.0222,-3.79236 -0.0222,-3.79236 0.0326,-3.175 0.0326,-3.175 0.0992,-0.56631 0.0992,-0.56631 0.59557,-0.45426 0.59556,-0.45425 1.35021,-0.34533 1.35021,-0.34533 3.01889,-0.0965 3.01889,-0.0965 16.31597,-0.068 16.315972,-0.068 3.35139,0.15543 3.35139,0.15543 0.66181,0.2411 0.66181,0.24111 0.5867,0.46777 0.58669,0.46777 0.53756,1.10707 0.53756,1.10707 0.28075,1.94028 0.28074,1.94028 0.10372,1.5875 0.10372,1.5875 0.0634,0.88194 0.0634,0.88195 0.19537,3.26319 0.19536,3.2632 0.25013,3.52778 0.25013,3.52777 0.0201,0.97014 0.0201,0.97014 0.072,1.32292 0.0721,1.32291 0.0852,1.87485 0.0852,1.87484 -0.12825,0.50641 -0.12824,0.50641 -0.96464,0.48387 -0.96464,0.48386 -0.88194,0.11315 -0.88194,0.11315 -0.31855,0.2771 -0.31855,0.27709 -0.32326,-0.20187 -0.32325,-0.20188 -0.9457,0.25437 -0.94569,0.25437 -10.23056,0.077 -10.230552,0.077 z m -2.73403,-1.05723 8.81944,-0.0738 12.238362,-0.0788 12.23835,-0.0788 0.97911,-0.181 0.97911,-0.181 h 0.0739 0.0739 l -0.0622,-2.19614 -0.0622,-2.19614 -0.22975,-0.22921 -0.22975,-0.22921 -6.73761,-0.004 -6.73761,-0.004 -0.22014,-0.13839 -0.22015,-0.1384 0.0908,0.7228 0.0908,0.7228 0.0681,1.23015 0.0681,1.23015 -0.0956,0.71244 -0.0956,0.71244 -0.46059,-0.0534 -0.46059,-0.0535 -0.0285,-0.97014 -0.0285,-0.97014 -0.0376,-1.82129 -0.0376,-1.82129 0.17885,-0.17885 0.17885,-0.17884 2.53305,-0.15363 2.53306,-0.15363 3.79236,-0.0511 3.79236,-0.0511 1.36689,0.15817 1.36688,0.15816 0.20166,0.24297 0.20165,0.24298 -0.11372,0.11371 -0.11371,0.11372 0.29667,0.32782 0.29667,0.32781 0.0619,2.14667 0.0619,2.14666 0.076,0.076 0.076,0.076 0.8446,-0.20469 0.8446,-0.20469 0.48732,-0.19306 0.48731,-0.19306 0.0917,-0.37454 0.0917,-0.37455 0.0283,-0.52916 0.0283,-0.52917 -0.12467,-2.02847 -0.12468,-2.02848 -0.0908,-1.85208 -0.0908,-1.85208 -0.15514,-1.76389 -0.15515,-1.76389 0.0164,-0.44097 0.0164,-0.44098 -0.11333,-1.23472 -0.11333,-1.23472 -0.10133,-1.85208 -0.10133,-1.85209 -0.0851,-1.4993 -0.0851,-1.49931 -0.17736,-2.20486 -0.17736,-2.20486 -0.10198,-0.97014 -0.10198,-0.97014 -0.12504,-0.13357 -0.12503,-0.13358 -3.1649,-0.0923 -3.1649,-0.0923 -3.96875,-0.0764 -3.96875,-0.0764 -6.35,-0.0991 -6.350002,-0.0991 -1.23472,-0.0586 -1.23472,-0.0586 -2.11667,0.14717 -2.11667,0.14716 -6.43819,-0.17625 -6.4382,-0.17626 -2.35943,0.11905 -2.35944,0.11906 0.12902,7.86659 0.12903,7.86659 0.0546,1.32292 0.0546,1.32291 0.10958,4.20508 0.10957,4.20507 0.16846,1.32867 0.16846,1.32867 0.39347,0.78785 0.39347,0.78785 0.46961,0.24284 0.4696,0.24285 1.12289,0.16326 1.12289,0.16326 8.81945,-0.0738 z m -9.93959,-2.53628 -0.11458,-0.003 -0.43749,-0.22137 -0.4375,-0.22136 -0.22136,-0.43749 -0.22136,-0.4375 -0.003,-0.63986 -0.003,-0.63986 0.26234,-0.21772 0.26233,-0.21772 0.26683,0.10239 0.26683,0.10239 v 0.5463 0.5463 l 0.18299,0.34191 0.18299,0.34192 0.93547,-0.70629 0.93547,-0.70629 0.60133,0.007 0.60134,0.007 0.79001,0.69352 0.79002,0.69351 0.53775,-0.52121 0.53775,-0.5212 0.53297,-0.1066 0.53298,-0.10659 0.63488,0.37458 0.63487,0.37459 0.62637,-0.42506 0.62637,-0.42507 0.44539,0.0851 0.44539,0.0851 0.44547,0.41285 0.44547,0.41284 v 0.3612 0.3612 h -0.35992 -0.35992 l -0.5222,-0.38608 -0.52221,-0.38608 -0.54991,0.56247 -0.54992,0.56247 -0.11136,-0.002 -0.11137,-0.002 -0.76765,-0.43885 -0.76766,-0.43884 h -0.15685 -0.15685 l -0.4866,0.49896 -0.48661,0.49897 -0.31021,0.11345 -0.31021,0.11344 -0.39534,-0.15425 -0.39535,-0.15424 -0.60503,-0.54636 -0.60504,-0.54636 h -0.28165 -0.28166 l -0.93901,0.70555 -0.939,0.70556 -0.11458,-0.003 z m 16.79793,-10e-4 -0.15556,-0.004 -0.52917,-0.26362 -0.52917,-0.26361 -0.39687,-0.61184 -0.39688,-0.61184 v -0.15727 -0.15726 l 0.28791,-0.23894 0.28791,-0.23895 0.65529,0.76085 0.65529,0.76085 0.29153,-0.29152 0.29152,-0.29152 v -0.16815 -0.16816 l 0.46557,-0.17701 0.46557,-0.17701 0.68639,0.35777 0.68639,0.35776 h 0.24655 0.24655 l 0.23309,-0.23223 0.23308,-0.23224 0.46126,-0.30161 0.46126,-0.30163 0.42069,0.18066 0.42068,0.18065 0.28724,0.20648 0.28724,0.20648 0.486202,-0.38245 0.4862,-0.38244 h 0.34907 0.34907 l 0.72958,0.39153 0.72957,0.39153 0.22883,0.16616 0.22884,0.16617 -0.22884,0.14516 -0.22883,0.14516 0.22048,0.003 0.22049,0.003 v 0.26458 0.26458 h -0.32651 -0.3265 l -0.83953,-0.44638 -0.83953,-0.44638 -0.28848,0.22589 -0.28848,0.2259 -0.23378,0.22049 -0.233782,0.22048 h -0.21286 -0.21287 l -0.61238,-0.42002 -0.61238,-0.42003 -0.57941,0.50822 -0.5794,0.50822 h -0.48168 -0.48168 l -0.6077,-0.32591 -0.6077,-0.32591 -0.5569,0.59049 -0.55691,0.5905 -0.15556,-0.004 z m -11.09167,-4.97214 -2.29306,-0.0283 -1.05833,-0.12445 -1.05834,-0.12444 -1.23472,-0.0217 -1.23472,-0.0217 -0.41819,-0.21789 -0.41818,-0.21788 -0.0613,-1.14653 -0.0613,-1.14653 -0.0968,-2.64583 -0.0968,-2.64584 -0.0838,-4.95687 -0.0839,-4.95687 0.32851,-0.29729 0.3285,-0.29729 2.62466,-0.0769 2.62466,-0.0769 11.90625,-0.0938 11.906252,-0.0939 9.07318,-0.005 9.07319,-0.005 0.32766,0.32766 0.32766,0.32766 0.0803,4.92585 0.0803,4.92585 0.087,0.97014 0.087,0.97014 0.0295,2.24105 0.0295,2.24104 0.22759,0.0873 0.22758,0.0873 -0.0697,0.36222 -0.0698,0.36221 -0.1086,0.17573 -0.10861,0.17572 -4.26702,0.009 -4.26702,0.009 -4.58611,0.16256 -4.58611,0.16256 -8.025702,0.17919 -8.02569,0.17919 -2.38125,0.17399 -2.38125,0.174 -2.29305,-0.0283 z m 0.88194,-1.15198 1.94028,-0.049 4.14514,-0.18088 4.14513,-0.18088 4.64912,-0.0775 4.649122,-0.0775 0.55435,-0.0857 0.55436,-0.0857 2.91042,-0.093 2.91041,-0.093 4.40972,-0.11011 4.40973,-0.11011 1.67569,-0.0244 1.67569,-0.0244 -0.0183,-2.46944 -0.0183,-2.46945 -0.0875,-5.25056 -0.0875,-5.25056 -0.085,-0.085 -0.085,-0.085 -14.18479,0.0279 -14.184792,0.0279 -7.76111,0.0442 -7.76111,0.0442 -1.19903,0.0159 -1.19903,0.0159 0.0383,4.10104 0.0383,4.10105 0.14225,2.55763 0.14225,2.55764 0.0483,1.49931 0.0483,1.4993 1.05833,0.0535 1.05833,0.0535 1.76389,0.12605 1.76389,0.12604 z m 13.31736,-1.64794 -0.97014,-0.009 -0.44097,-0.18122 -0.44097,-0.18122 -0.94321,-0.44631 -0.94322,-0.4463 -1.12821,-1.05539 -1.12821,-1.05538 -0.26573,-0.89481 -0.26573,-0.89481 0.001,-1.24681 0.001,-1.2468 0.18506,-1.1406 0.18505,-1.14059 0.54346,-1.01964 0.54346,-1.01964 0.77523,-0.51349 0.77523,-0.51349 0.83208,-0.19296 0.83207,-0.19296 1.41505,-0.15195 1.41504,-0.15195 0.9933,0.13479 0.9933,0.13479 1.056412,0.47409 1.0564,0.47409 0.99894,1.03273 0.99894,1.03273 -0.12146,0.64746 -0.12146,0.64745 -0.64051,-0.0859 -0.6405,-0.0859 -1.23228,0.20452 -1.232282,0.20451 1.852092,0.58256 1.85208,0.58256 1.41111,0.48789 1.41111,0.48788 0.062,0.31607 0.062,0.31608 -0.39544,0.72375 -0.39545,0.72375 -0.35589,0.28636 -0.3559,0.28635 0.51293,0.33024 0.51293,0.33024 0.57327,0.51417 0.57326,0.51418 v 0.41263 0.41263 h -0.33767 -0.33767 l -0.76476,-0.69641 -0.76476,-0.69641 -0.35667,-0.19382 -0.35667,-0.19382 -0.83705,0.80204 -0.83705,0.80203 h -0.34092 -0.34092 l -0.16028,-0.28641 -0.16029,-0.28642 -0.18753,0.53794 -0.18752,0.53794 -0.44793,0.29349 -0.44792,0.29349 -1.285602,0.33391 -1.28559,0.33391 -0.97014,-0.009 z m 0.35278,-1.05887 0.79375,0.007 0.79375,-0.17629 0.79375,-0.17629 0.4792,-0.19114 0.479202,-0.19115 0.10595,-0.33381 0.10595,-0.33381 h 0.34089 0.34089 v -0.15944 -0.15945 l -0.71542,-1.56035 -0.715422,-1.56034 -0.51551,-1.05833 -0.51551,-1.05834 0.10998,-0.51128 0.10997,-0.51129 -0.1718,0.10618 -0.1718,0.10618 -1.7222,-0.17619 -1.7222,-0.17619 -0.24472,0.2031 -0.24471,0.20309 0.002,0.3782 0.002,0.3782 -0.10865,0.53822 -0.10866,0.53821 1.91106,0.22341 1.91105,0.22341 0.55767,0.17295 0.55766,0.17295 0.10684,0.27841 0.10684,0.27841 -0.19218,0.23156 -0.19218,0.23156 0.0568,0.48554 0.0568,0.48554 0.579552,0.14916 0.57955,0.14916 -0.10489,0.16971 -0.10489,0.16972 h 0.18679 0.1868 v 0.28388 0.28388 l -0.57326,-0.0806 -0.573272,-0.0806 -0.28193,-0.12368 -0.28193,-0.12368 -0.59747,0.98581 -0.59747,0.98582 -0.41233,0.10349 -0.41233,0.10349 -0.16854,-0.16854 -0.16853,-0.16853 0.3329,-0.42709 0.33289,-0.4271 0.28953,-0.5645 0.28952,-0.5645 v -0.097 -0.0969 h -1.69877 -1.69878 l 0.10046,0.61903 0.10045,0.61904 0.3854,0.54124 0.3854,0.54124 0.37507,0.15146 0.37508,0.15146 0.79375,0.007 z m -3.05922,-0.88169 0.0276,0.0152 -0.19535,-0.63651 -0.19535,-0.63651 -0.23885,-0.0917 -0.23886,-0.0917 -0.37369,0.16675 -0.3737,0.16675 0.78031,0.54617 0.78031,0.54618 0.0276,0.0152 z m 8.702522,-1.39587 h 0.13468 l 0.85927,-1.01424 0.85928,-1.01423 0.35277,-0.2935 0.35278,-0.2935 -0.0882,-0.0854 -0.0882,-0.0854 -2.04117,-0.63538 -2.04117,-0.63537 h -0.13871 -0.13872 l 0.11021,0.43911 0.11021,0.4391 0.56106,1.19249 0.56106,1.19249 0.25008,0.39688 0.25009,0.39687 z m -10.603142,-0.62542 0.28553,-0.11622 0.48507,-0.1756 0.48507,-0.17561 v -0.95288 -0.95288 l -0.66146,-0.002 -0.66146,-0.002 -0.39687,-0.10636 -0.39688,-0.10636 v 0.63436 0.63437 l 0.28774,0.71911 0.28773,0.71912 0.28553,-0.11623 z m 6.23866,-0.47062 0.13229,0.0377 v -0.52118 -0.52117 l -0.57327,-0.0867 -0.57326,-0.0867 -0.70555,-0.1232 -0.70556,-0.12321 -0.77373,-0.0186 -0.77373,-0.0186 -0.0685,0.65565 -0.0685,0.65564 1.98871,0.0563 1.98873,0.0563 z m -5.56993,-2.80498 0.73597,0.0205 0.17746,-0.57326 0.17746,-0.57327 0.10617,-0.53388 0.10617,-0.53389 -0.97941,-0.48035 -0.97942,-0.48035 h -0.0706 -0.0706 l -0.18343,0.57326 -0.18343,0.57327 -0.11532,0.90916 -0.11532,0.90916 0.32917,0.0846 0.32916,0.0846 z m 5.2944,-2.64983 1.973432,0.0465 1.06928,-0.21037 1.06928,-0.21037 -0.007,-0.10934 -0.007,-0.10934 -0.4779,-0.54857 -0.4779,-0.54856 -0.735,-0.45863 -0.734992,-0.45864 -0.43924,-0.11024 -0.43923,-0.11024 0.42458,0.83865 0.42458,0.83865 v 0.21582 0.21582 l -0.28983,0.11122 -0.28983,0.11121 -0.0413,-0.0482 -0.0413,-0.0483 -0.35569,-0.70555 -0.35569,-0.70556 -0.38187,-0.34536 -0.38187,-0.34536 -0.29836,0.21819 -0.29835,0.21819 -0.30868,0.10365 -0.30868,0.10364 v 0.15735 0.15734 l -0.5416,0.74765 -0.54159,0.74765 0.4093,0.0973 0.4093,0.0973 1.97343,0.0465 z m -3.7958,-0.50638 0.1179,0.002 0.35616,-0.57627 0.35615,-0.57627 0.45198,-0.42462 0.45198,-0.42461 v -0.14564 -0.14564 h -0.64213 -0.64214 l -0.77072,0.38491 -0.77072,0.38492 -0.27472,0.30356 -0.27471,0.30355 0.76153,0.45639 0.76153,0.45639 0.11791,0.002 z m -17.27639,-6.8775 h -0.31372 l -0.37755,-0.26445 -0.37756,-0.26445 -0.38163,-0.61749 -0.38164,-0.61749 h -0.12656 -0.12657 l -0.22324,0.61736 -0.22324,0.61736 h -0.42956 -0.42955 v -0.16177 -0.16176 l 0.34958,-0.81555 0.34958,-0.81554 0.57646,-0.2424 0.57646,-0.24239 0.2125,0.17634 0.21249,0.17634 0.4564,0.77878 0.4564,0.77878 h 0.14801 0.14802 l 0.49694,-0.66146 0.49693,-0.66146 0.3542,-0.31688 0.35419,-0.31688 0.44824,0.0523 0.44823,0.0523 0.43698,0.67715 0.43697,0.67715 0.40802,-0.47435 0.40802,-0.47436 0.67306,-0.0903 0.67305,-0.0903 0.11153,0.41665 0.11153,0.41665 0.002,0.11342 0.002,0.11342 -0.29458,0.11304 -0.29458,0.11304 -0.12859,-0.20807 -0.12859,-0.20806 -0.29076,0.11157 -0.29074,0.11157 -0.18528,0.53149 -0.18528,0.5315 h -0.48721 -0.4872 l -0.33339,-0.46067 -0.33339,-0.46066 -0.26912,-0.34758 -0.26912,-0.34758 -0.83313,1.07283 -0.83312,1.07282 h -0.31371 z m 46.158912,-4.90969 1.04342,-0.059 -0.25953,-0.62114 -0.25953,-0.62115 -0.20652,-0.33069 -0.20652,-0.33069 -0.20554,-0.0789 -0.20554,-0.0789 0.0552,0.59424 0.0552,0.59423 -0.42674,0.46046 -0.42674,0.46046 -3.5e-4,0.035 -3.6e-4,0.035 1.04343,-0.059 z m -48.610592,-0.21721 1.44211,-0.10716 17.28611,0.0331 17.286112,0.0331 5.29166,0.13952 5.29167,0.13952 -0.28782,-0.3337 -0.28781,-0.3337 -0.11708,-0.38469 -0.11708,-0.38469 0.89206,-0.584 0.89205,-0.58399 -0.48716,-0.13423 -0.48716,-0.13423 -6.79097,-0.18685 -6.79097,-0.18685 -14.199312,0.10698 -14.1993,0.10698 -1.5875,0.0807 -1.5875,0.0807 -0.97767,0.19176 -0.97767,0.19175 -0.36729,0.29292 -0.3673,0.29293 -0.0971,0.88561 -0.0971,0.88562 z m 43.890282,0.0116 h -0.30093 l -0.43612,-0.29429 -0.43613,-0.29429 -0.0658,-0.0508 -0.0658,-0.0508 0.23664,-0.80142 0.23662,-0.80141 h 0.45142 0.45141 l 0.39202,0.27458 0.39203,0.27459 v 0.59476 0.59476 l -0.27719,0.27718 -0.27718,0.27719 z m -0.10864,-0.88195 h 0.082 v -0.35278 -0.35277 h -0.27079 -0.27079 l 0.1888,0.35277 0.18881,0.35278 z m 3.55976,0.1447 0.2264,-0.18789 v -0.33118 -0.33118 h -0.17639 -0.17639 v 0.1868 0.18679 l -0.15791,-0.0976 -0.1579,-0.0976 -0.11265,0.29357 -0.11265,0.29356 0.22054,0.13631 0.22054,0.1363 z m -125.983282,29.38466 -0.5326,0.11415 -0.34934,-0.25889 -0.34935,-0.25889 0.29551,-0.29999 0.29551,-0.29999 0.89512,-0.086 0.89511,-0.086 v 0.19883 0.19883 l -0.22048,0.003 -0.22049,0.003 0.24432,0.15473 0.24431,0.15473 -0.33251,0.17448 -0.33251,0.17448 -0.5326,0.11414 z m 6.76072,-0.42728 -0.65105,0.002 -0.12001,-0.19418 -0.12001,-0.19418 0.33009,-0.30567 0.33008,-0.30567 1.94028,-0.45986 1.94028,-0.45987 1.46135,-0.28162 1.46135,-0.28162 0.17025,0.10521 0.17024,0.10522 v 0.42436 0.42436 l -0.30868,0.1627 -0.30868,0.16271 -1.85208,0.28861 -1.85208,0.28862 -0.97014,0.25835 -0.97014,0.25834 -0.65105,0.002 z m -8.61819,-1.76436 -0.097,0.003 -0.21167,-0.21167 -0.21167,-0.21167 v -0.20771 -0.2077 l 0.26049,-0.21619 0.26049,-0.21618 2.34667,-0.58603 2.34667,-0.58603 1.07412,-0.12152 1.07412,-0.12152 0.13368,0.2163 0.13368,0.2163 -0.24308,0.15397 -0.24309,0.15397 0.21496,0.003 0.21494,0.003 -0.0949,0.24722 -0.0949,0.24722 -0.64925,0.0829 -0.64925,0.0829 -2.02847,0.39176 -2.02847,0.39176 -0.70556,0.24567 -0.70555,0.24568 -0.097,0.003 z m -8.80563,-1.93771 h -0.33695 l -0.11021,-0.17832 -0.1102,-0.17832 0.63254,-1.04127 0.63255,-1.04128 0.60613,-0.53219 0.60612,-0.53219 0.64218,0.17731 0.64217,0.17732 0.5561,0.33908 0.5561,0.33909 0.44098,-0.006 0.44097,-0.006 0.48507,-0.70121 0.48507,-0.70122 v -0.14086 -0.14087 l 0.52202,-0.38595 0.52203,-0.38595 h 0.5219 0.52191 l 0.9299,0.79375 0.9299,0.79375 h 0.38604 0.38603 l 0.94743,-0.90694 0.94742,-0.90695 0.51993,-0.22066 0.51993,-0.22067 0.27382,0.099 0.27382,0.099 0.73734,0.49947 0.73733,0.49947 h 0.1941 0.19409 l 0.54996,-0.62637 0.54997,-0.62638 0.51222,-0.26488 0.51223,-0.26488 1.35777,0.52869 1.35777,0.52868 0.30868,0.0924 0.30868,0.0924 v 0.169 0.16899 l -0.30868,0.0807 -0.30868,0.0807 0.31909,0.0205 0.31909,0.0205 -0.10901,0.17639 -0.10902,0.17638 h -0.3223 -0.3223 l -1.37748,-0.46265 -1.37749,-0.46265 -0.45057,0.52421 -0.45057,0.52421 -0.32451,0.39992 -0.32452,0.39993 -0.61675,-0.10009 -0.61674,-0.10008 -0.86789,-0.55692 -0.86789,-0.55692 -1.14275,1.06898 -1.14274,1.06899 -0.59855,0.11229 -0.59855,0.11228 -0.59469,-0.29963 -0.59469,-0.29963 -0.6536,-0.62604 -0.6536,-0.62605 -0.29643,0.24602 -0.29644,0.24602 -0.42298,0.67005 -0.42298,0.67004 -0.34678,0.34678 -0.34678,0.34677 h -0.6853 -0.68531 l -0.50532,-0.22112 -0.50532,-0.22111 -0.48042,-0.3253 -0.48043,-0.32529 -0.25294,0.25294 -0.25294,0.25294 -0.63907,0.99903 -0.63907,0.99903 z m 34.44336,-3.71535 -0.14072,-0.0112 -0.37357,-0.15091 -0.37358,-0.1509 -0.0858,-0.44869 -0.0858,-0.44869 0.38253,-0.35937 0.38252,-0.35936 h 0.37551 0.3755 l 0.27459,0.39203 0.27458,0.39202 v 0.11138 0.11139 l -0.43255,0.46673 -0.43255,0.46673 -0.14071,-0.0112 z m 1.81458,-1.46948 -0.22308,0.0856 -0.24209,-0.2917 -0.24209,-0.2917 0.33562,-0.2454 0.33561,-0.24541 1.81453,-0.70088 1.81453,-0.70088 1.40037,-0.35754 1.40036,-0.35755 h 0.35708 0.35707 l 0.11379,0.18412 0.11379,0.18411 -0.1949,0.23485 -0.19491,0.23484 -0.73612,0.11771 -0.73613,0.11772 -0.89214,0.27287 -0.89214,0.27287 -0.35278,0.14535 -0.35278,0.14534 -1.38025,0.55503 -1.38026,0.55504 z m -8.58593,-1.16517 h -0.34429 l -0.15193,-0.39688 -0.15193,-0.39687 -0.19275,-1.03807 -0.19275,-1.03806 0.0943,-0.15256 0.0943,-0.15257 h 0.43056 0.43056 v 0.26459 0.26458 l 0.0149,0.0843 0.0149,0.0842 0.21137,0.84179 0.21136,0.84178 -0.0622,0.39688 -0.0622,0.39687 h -0.34429 z m 27.7973,-4.49965 -1.41111,0.10639 -0.26458,-0.17824 -0.26459,-0.17825 0.2932,-0.29328 0.2932,-0.29328 1.91166,-0.1463 1.91166,-0.14631 1.23473,-0.17502 1.23472,-0.17503 3.52778,-0.70352 3.52777,-0.70351 3.08681,-0.63062 3.08681,-0.63063 2.02847,-0.33628 2.02847,-0.33628 1.19062,-0.11664 1.19063,-0.11663 v 0.36061 0.36061 l -0.30868,0.15845 -0.30868,0.15846 -1.49931,0.11374 -1.4993,0.11374 -1.13333,0.26834 -1.13333,0.26834 -0.76285,0.0332 -0.76285,0.0332 v 0.11105 0.11105 l -1.36702,0.20684 -1.36701,0.20683 -0.44097,0.0731 -0.44098,0.0731 -1.02062,0.26826 -1.02063,0.26825 -0.25819,-0.0991 -0.25819,-0.0991 v 0.19526 0.19526 h -0.67616 -0.67616 l -0.11731,0.11732 -0.11731,0.1173 -0.39716,0.0463 -0.39715,0.0463 -1.49931,0.35227 -1.49931,0.35227 -2.11666,0.26792 -2.11667,0.26793 z m 26.43099,-3.43786 h -0.41363 l -0.35278,-0.35277 -0.35278,-0.35278 v -0.1526 -0.1526 l 0.3908,-0.50886 0.39079,-0.50886 0.18247,-0.12959 0.18247,-0.12959 0.40124,-0.003 0.40124,-0.003 0.16999,0.44709 0.16998,0.44709 -0.0517,0.3388 -0.0517,0.33881 -0.32637,0.36063 -0.32637,0.36064 h -0.41364 z m -25.23701,-1.23472 h -0.18064 l -0.22313,-0.26884 -0.22312,-0.26885 0.1029,-0.1029 0.1029,-0.1029 2.43578,-0.83748 2.43577,-0.83748 1.32292,-0.57159 1.32292,-0.57159 1.85208,-0.84624 1.85208,-0.84625 1.49704,-0.68023 1.49703,-0.68023 2.03075,-1.0428 2.03074,-1.04279 0.61736,-0.38501 0.61736,-0.38501 1.41111,-0.66852 1.41111,-0.66851 2.206,-1.01092 2.20599,-1.01092 3.08567,-1.50717 3.08568,-1.50718 1.4993,-0.70029 1.49931,-0.700284 0.61736,-0.278375 0.61736,-0.278375 0.85977,-0.315953 0.85978,-0.315951 0.19856,-0.607228 0.19856,-0.607228 0.57472,-0.147847 0.57473,-0.147847 0.36127,0.193341 0.36126,0.193342 0.14559,0.385344 0.1456,0.385345 -0.1689,0.322031 -0.16889,0.322033 -0.35471,0.354711 -0.35472,0.354713 -0.41399,-0.103907 -0.41399,-0.103905 -1.22084,0.44038 -1.22083,0.44038 -1.79572,0.88296 -1.79572,0.88296 h -0.0826 -0.0826 l -4.1004,2.0015 -4.10041,2.00149 -0.97014,0.41626 -0.97014,0.41626 -2.38125,1.2211 -2.38125,1.2211 -2.13463,1.07955 -2.13462,1.07955 -1.56954,0.6834 -1.56954,0.6834 -0.97014,0.48813 -0.97014,0.48813 -2.55764,1.06449 -2.55764,1.0645 -1.69394,0.5421 -1.69393,0.5421 z m -5.10822,-1.23742 -0.21008,0.003 -0.0832,-0.13456 -0.0832,-0.13456 0.58124,-1.76162 0.58124,-1.76162 0.22737,-1.02425 0.22738,-1.02426 0.28788,-0.15406 0.28787,-0.15407 0.2496,0.15427 0.2496,0.15426 -0.57511,1.906 -0.57511,1.906 -0.0464,0.17639 -0.0464,0.17638 -0.23642,0.70556 -0.23643,0.70556 -0.19492,0.12959 -0.19493,0.12959 -0.21007,0.003 z m 34.6941,0.003 h -0.23518 l 0.11759,-0.11759 0.11759,-0.11759 0.11759,0.11759 0.11759,0.11759 z m -41.01041,-0.35278 h -0.22139 l -0.17692,-0.22048 -0.17693,-0.22049 -2.67403,-5.425 -2.67403,-5.42499 -0.7811,-2.02099 -0.78109,-2.02099 -0.22601,-0.364607 -0.226,-0.364606 0.26458,-0.168305 0.26458,-0.168305 0.22271,-0.0027 0.22271,-0.0027 0.45019,1.014233 0.4502,1.01424 0.33018,0.97014 0.33019,0.97014 0.89075,1.85208 0.89076,1.85208 0.93987,1.76395 0.93986,1.76395 0.2039,0.52911 0.2039,0.52911 0.58589,1.05833 0.58589,1.05833 0.41744,0.74184 0.41743,0.74183 -0.22607,0.2724 -0.22608,0.2724 z m 8.54606,-5.99722 h -0.49477 l -0.34944,-0.44425 -0.34945,-0.44425 0.11656,-0.3936 0.11656,-0.3936 0.26252,-0.39687 0.26251,-0.39688 h 0.39854 0.39854 l 0.34324,0.34324 0.34324,0.34324 -0.10313,0.671 -0.10313,0.671 -0.17351,0.22048 -0.17351,0.22049 z m -44.00023,-7.53972 -1.94028,0.0561 -0.58338,-0.0625 -0.58337,-0.0625 -0.091,-0.29675 -0.091,-0.29675 -0.17936,-0.33166 -0.17936,-0.33167 -0.0686,-0.37389 -0.0686,-0.37389 -0.18368,-0.881945 -0.18367,-0.881944 -0.42079,-2.38125 -0.4208,-2.38125 -0.21038,-1.852084 -0.21038,-1.852083 -0.0598,-0.954248 -0.0598,-0.954249 -0.26683,-1.691585 -0.26683,-1.691585 -0.10758,-0.997213 -0.10759,-0.997213 -0.4745,-0.185161 -0.4745,-0.185162 -0.75437,-0.192707 -0.75437,-0.192708 -0.99227,0.183432 -0.99228,0.183432 -0.75421,0.441997 -0.75421,0.441997 h -0.36547 -0.36546 l -0.0221,-0.176389 -0.022,-0.176389 -0.0221,-0.16169 -0.022,-0.161689 -0.13229,-0.132292 -0.13229,-0.132291 v -0.227602 -0.226931 l 0.81103,-0.358756 0.81102,-0.358756 1.08516,-0.652674 1.08515,-0.652675 1.27711,-0.937101 1.27712,-0.937102 h 0.33288 0.33289 l 0.20103,0.242226 0.20103,0.242227 -0.0951,0.242843 -0.0951,0.242843 -0.61102,0.396875 -0.61101,0.396875 h -0.10508 -0.10508 l -0.73524,0.594616 -0.73524,0.594615 -0.5161,0.264418 -0.5161,0.264418 0.87496,-0.08407 0.87496,-0.08407 1.28788,0.383545 1.28787,0.383545 0.54035,-0.188366 0.54035,-0.188367 0.54694,-0.0124 0.54694,-0.0124 0.30399,-0.120555 0.30398,-0.120555 -1.57829,-2.116001 -1.57828,-2.116006 -0.001,-0.264584 -0.001,-0.264583 0.48195,-0.415535 0.48195,-0.415535 1.5875,-1.01595 1.5875,-1.01595 1.23472,-0.674073 1.23472,-0.674073 1.14653,-0.738422 1.14653,-0.738422 1.2906,-0.647849 1.29059,-0.64785 0.341,0.10823 0.341,0.108229 v 0.135595 0.135595 l 0.90399,1.126387 0.90399,1.126388 0.76459,1.151479 0.7646,1.151478 0.61805,0.686277 0.61804,0.686276 0.0585,0.175602 0.0585,0.175602 0.34477,-0.196617 0.34476,-0.196617 1.74225,-0.803128 1.74224,-0.803127 0.40595,0.265989 0.40596,0.265989 0.89451,0.894513 0.89451,0.894513 v 0.413701 0.413701 l -0.26458,0.10153 -0.26459,0.10153 -0.24382,-0.09356 -0.24383,-0.09356 -0.55823,-0.694649 -0.55825,-0.694649 h -0.15538 -0.15539 l -0.12591,1.007763 -0.12591,1.007763 -0.22645,0.226453 -0.22645,0.226452 -0.27098,-0.103983 -0.27097,-0.103982 -0.10405,-0.327811 -0.10404,-0.32781 0.19712,-0.732033 0.19711,-0.732033 -0.0693,-0.06925 -0.0693,-0.06925 -1.08973,0.427065 -1.08974,0.427064 -1.63073,1.013373 -1.63073,1.013374 -0.84456,0.521392 -0.84455,0.521392 0.0677,0.06773 0.0677,0.06773 1.39419,-0.274988 1.39418,-0.274988 2.87993,-0.432797 2.87993,-0.432797 h 1.29044 1.29044 l 0.0216,-1.537752 0.0216,-1.537753 0.17631,-1.103631 0.17631,-1.103632 0.16697,-0.439177 0.16698,-0.439177 -0.13915,-0.086 -0.13915,-0.086 -1.6621,0.261961 -1.6621,0.261961 -1.4993,0.169241 -1.49931,0.16924 -0.79375,0.170036 -0.79375,0.170035 -0.72805,0.0077 -0.72806,0.0077 -0.23542,-0.28367 -0.23543,-0.283671 0.33574,-0.245496 0.33573,-0.245496 h 0.21899 0.21898 l 0.1091,-0.343755 0.10911,-0.343755 0.34217,-0.108602 0.34218,-0.108603 0.20469,0.126505 0.20469,0.126504 -0.3354,0.258206 -0.33541,0.258206 0.79375,-0.115559 0.79375,-0.115558 1.32292,-0.163839 1.32292,-0.163838 1.90364,-0.302171 1.90365,-0.302171 0.86035,0.363487 0.86034,0.363486 0.17018,-0.170177 0.17018,-0.170178 0.38396,0.05903 0.38396,0.05903 0.7664,1.499306 0.76639,1.499305 0.90847,1.910258 0.90846,1.910258 -0.0689,0.206409 -0.069,0.206409 -1.57265,0.0019 -1.57265,0.0019 -0.82246,0.378213 -0.82246,0.378214 0.33885,1.471933 0.33886,1.471931 0.24851,1.322917 0.24851,1.322917 -0.002,1.022569 -0.002,1.022569 0.2038,1.53507 0.2038,1.53507 0.17761,0.970139 0.17762,0.970139 0.0325,2.557639 0.0325,2.557639 -0.31181,1.008031 -0.3118,1.008033 -0.40468,0.470468 -0.40468,0.470467 -1.84116,0.15108 -1.84115,0.15108 -2.55764,0.26697 -2.55764,0.26697 -1.4993,0.16839 -1.49931,0.16839 -1.5875,0.10315 -1.5875,0.10315 -1.67569,0.16352 -1.6757,0.16352 -1.94028,0.0561 z m 0.39734,-1.15071 2.60127,-0.0728 2.11667,-0.21457 2.11666,-0.21458 5.02709,-0.511846 5.02708,-0.511851 1.26423,-0.111885 1.26423,-0.111887 0.23507,-0.556826 0.23508,-0.556828 -0.0221,-2.734028 -0.0221,-2.734028 -0.29894,-2.557639 -0.29896,-2.557639 -0.0874,-1.411111 -0.0874,-1.411112 -0.45283,-2.293055 -0.45283,-2.293056 -0.28524,-0.238049 -0.28523,-0.238048 -1.76389,0.09724 -1.76389,0.09724 -2.11667,0.363504 -2.11666,0.363503 -1.76389,0.351626 -1.76389,0.351625 -1.41111,0.173592 -1.41111,0.173589 -0.88195,0.167614 -0.88194,0.167613 -0.91126,0.01051 -0.91126,0.01051 -0.23151,0.523023 -0.23151,0.523021 -0.37098,-0.243076 -0.37099,-0.243078 -0.25013,0.158327 -0.25014,0.158325 -0.11969,0.0027 -0.1197,0.0027 -0.29364,-0.293649 -0.29365,-0.293646 -1.33849,0.208089 -1.33848,0.20809 -0.0894,0.08936 -0.0894,0.08936 0.21845,1.627796 0.21844,1.627796 0.15589,0.881944 0.15588,0.881945 0.10176,1.322917 0.10175,1.322916 0.25697,1.852084 0.25698,1.852083 0.1674,1.093366 0.16741,1.093366 0.19923,1.023301 0.19924,1.023301 0.1927,0.881944 0.19271,0.881947 0.15237,0.40957 0.15237,0.40958 2.60127,-0.0728 z m 8.02835,-1.302004 -1.45208,0.103131 -0.18073,-0.337686 -0.18072,-0.337686 1.21492,-0.785932 1.21493,-0.785931 0.1269,-0.205333 0.12691,-0.20533 -1.06448,0.05275 -1.06447,0.05275 -0.12154,-0.121548 -0.12155,-0.121546 0.0945,-0.246189 0.0945,-0.24619 1.02975,-0.194645 1.02975,-0.194643 0.89129,-0.03964 0.89129,-0.03963 0.21114,0.130492 0.21114,0.130493 v 0.342369 0.342367 h -0.22785 -0.22786 l -0.78638,0.816727 -0.78638,0.816726 0.61736,-0.1202 0.61736,-0.1202 0.84056,-0.104056 0.84055,-0.104053 0.3089,0.279551 0.3089,0.279552 -0.0663,-1.312995 -0.0663,-1.312996 h 0.37759 0.37759 l 0.062,0.220486 0.062,0.220486 0.16377,1.112576 0.16377,1.112579 -0.17526,0.108317 -0.17526,0.108315 -0.45293,0.04549 -0.45294,0.04548 -1.41111,0.256325 -1.41111,0.256325 z m 6.8565,-1.120068 h -0.33959 l -0.12541,-0.30868 -0.12541,-0.308681 -0.0771,-0.881944 -0.0772,-0.881945 -0.0368,-0.348273 -0.0368,-0.348274 0.61736,-0.215034 0.61736,-0.215036 0.56343,-0.0099 0.56343,-0.0099 0.48351,0.415902 0.48352,0.415903 -0.16798,0.585685 -0.16797,0.585685 -0.78991,0.417715 -0.78992,0.417717 -0.12746,0.344585 -0.12748,0.344586 h -0.33959 z m 0.59487,-1.763889 h 0.20785 l 0.30341,-0.335266 0.30341,-0.335267 -0.1979,-0.122312 -0.19791,-0.122312 -0.43095,0.108162 -0.43094,0.10816 v 0.231826 0.231825 l 0.11759,0.117591 0.11759,0.117593 z m 3.93515,-0.895359 -0.23304,-0.01342 -0.65488,-0.471653 -0.65488,-0.471655 -0.007,-0.132292 -0.007,-0.132285 h 0.23991 0.23991 l 0.65459,0.617362 0.6546,0.617361 -0.23305,-0.01342 z m -20.98337,-14.907704 0.4656,-0.101403 0.2243,-0.06939 0.2243,-0.06939 0.52425,-1.132658 0.52426,-1.132658 0.0452,-0.386575 0.0452,-0.386575 -2.51848,-0.06551 -2.51849,-0.06551 0.13724,0.225212 0.13723,0.225212 1.1219,1.530324 1.12189,1.530324 z m 3.37203,-0.300341 1.27184,-0.106627 1.08587,-0.53375 1.08586,-0.53375 0.85711,-0.621652 0.85711,-0.621651 -0.63662,-0.02205 -0.63662,-0.02205 -0.1323,-0.03288 -0.13229,-0.03288 -1.32291,-0.130711 -1.32292,-0.13071 -0.4482,-0.08486 -0.44819,-0.08486 -0.54553,1.108347 -0.54552,1.108347 -0.12926,0.424181 -0.12927,0.424181 z m 17.65997,-2.308592 0.42388,-0.12282 1.23074,-0.26831 1.23074,-0.26831 0.0511,-0.05112 0.0511,-0.05112 -0.89486,-2.010735 -0.89486,-2.010735 -0.25878,-0.396875 -0.25877,-0.396875 h -0.32306 -0.32306 l -0.11063,1.719791 -0.11063,1.719792 -0.11841,1.130065 -0.11842,1.130065 z m -12.09973,-0.302322 0.17639,-0.07446 0.83785,-0.5262 0.83784,-0.5262 v -0.10345 -0.10345 l -0.66145,-0.90495 -0.66146,-0.904949 -1.32292,-1.856573 -1.32292,-1.856573 -0.0965,-0.0026 -0.0965,-0.0026 -1.27049,2.643861 -1.27049,2.643861 v 0.06466 0.06466 l 1.10243,0.117416 1.10243,0.117416 1.17225,0.13583 1.17226,0.135831 0.28513,0.236636 0.28512,0.236635 -0.22266,0.269865 -0.22266,0.269865 z m -9.1185,-1.615765 3.05234,-0.04284 0.33572,-0.617361 0.33572,-0.617361 0.80904,-1.741332 0.80904,-1.741331 -0.0856,-0.08559 -0.0856,-0.08559 -0.93651,0.557685 -0.9365,0.557685 -0.82025,0.504085 -0.82024,0.504086 -0.85545,0.475046 -0.85545,0.475045 -1.05833,0.598213 -1.05834,0.598213 -0.44097,0.352086 -0.44097,0.352086 z m 16.17406,-0.660196 h 0.0882 v -0.08819 -0.0882 h -0.0882 -0.0882 v 0.0882 0.08819 z m 82.46677,24.85312 -0.97511,-0.0177 -0.6581,-0.15522 -0.6581,-0.15522 -0.88906,-0.464876 -0.88907,-0.464881 -0.63422,-0.729199 -0.63421,-0.729199 -0.26104,-0.608473 -0.26105,-0.608471 0.0675,-1.331807 0.0675,-1.331805 0.31938,-0.654974 0.31938,-0.654974 0.35352,-0.112201 0.35351,-0.1122 0.18313,0.183127 0.18312,0.183127 -0.37727,0.802612 -0.37727,0.80261 v 0.889533 0.889533 l 0.25989,0.622005 0.25989,0.622004 0.36628,0.465649 0.36628,0.465649 0.74084,0.427119 0.74085,0.427117 0.94596,0.224925 0.94595,0.224925 0.55335,-0.08249 0.55335,-0.08249 0.88194,-0.403259 0.88195,-0.403256 1.87923,-1.78878 1.87922,-1.788779 h 0.41868 0.41868 l 0.34792,0.234001 0.347932,0.234001 1.05834,0.3735 1.05833,0.3735 1.4993,0.438268 1.49931,0.438267 1.04663,0.188955 1.04663,0.188953 h 0.77012 0.77011 l 0.49421,-0.255568 0.49422,-0.255569 0.26228,-0.40589 0.26229,-0.40589 0.31271,-0.826511 0.31271,-0.826509 0.27626,-0.106013 0.27627,-0.106013 0.26586,0.265858 0.26586,0.265861 -0.1979,0.40208 -0.19789,0.40208 -0.12284,0.440973 -0.12283,0.440972 -0.52572,0.668131 -0.52572,0.668131 -0.72439,0.369556 -0.72439,0.369556 -1.41627,-0.101597 -1.41627,-0.101598 -2.11666,-0.541265 -2.11667,-0.541265 -1.33793,-0.527116 -1.337932,-0.527117 h -0.20249 -0.20249 l -1.63458,1.516164 -1.63458,1.516161 -1.22975,0.600502 -1.22974,0.60051 z m -21.58774,-1.393396 h -0.2189 l -0.21166,-0.211667 -0.21167,-0.211667 v -0.190681 -0.19001 l -7.71701,-0.04415 -7.71702,-0.04415 -6.35,-0.168237 -6.35,-0.168236 -3.61597,-0.09596 -3.61597,-0.09596 -2.38125,-0.175816 -2.38125,-0.175814 -0.30868,-0.09619 -0.30868,-0.09619 -0.003,-1.090544 -0.003,-1.090543 -0.0783,-1.852084 -0.0783,-1.852083 -0.0508,-7.231945 -0.0508,-7.231945 0.13936,-4.497917 0.13935,-4.497917 0.24867,-0.249431 0.24866,-0.249431 0.22934,0.178724 0.22934,0.178725 1.94354,0.02887 1.94353,0.02887 0.43772,0.0931 0.43771,0.0931 15.875,0.08464 15.875,0.08464 2.68756,-0.0036 2.68756,-0.0036 0.30374,0.661459 0.30373,0.661458 -0.008,2.469445 -0.008,2.469444 -0.13385,2.469445 -0.13386,2.469444 -0.0632,0.617362 -0.0632,0.617361 -0.28022,2.822222 -0.28021,2.822223 -0.25803,2.044881 -0.25803,2.04488 -0.0136,1.696779 -0.0136,1.69678 0.10556,0.170804 0.10556,0.170805 -0.19127,0.118214 -0.19127,0.118214 0.0395,2.247549 0.0395,2.247547 -0.12612,0.204067 -0.12612,0.204064 z m -17.0023,-1.972072 1.19063,0.03179 0.0294,-1.146528 0.0294,-1.146528 0.0147,-0.30868 0.0147,-0.308681 -2.07257,-0.01535 -2.07257,-0.01535 v 1.372687 1.372688 l 0.83785,0.06607 0.83784,0.06606 1.19063,0.03179 z m 4.21863,0.03179 h 1.73449 l 0.0307,-0.926042 0.0307,-0.926042 0.0192,-0.565363 0.0192,-0.565363 -1.90202,-0.0018 -1.90202,-0.0018 v 1.375544 1.375544 l 0.11759,0.117591 0.11759,0.117594 h 1.73449 z m 7.44826,0 h 4.69318 v -0.680937 -0.680937 l 0.11217,-0.818369 0.11217,-0.818368 h -4.69828 -4.69828 v 1.220295 1.220297 l -0.10707,0.279009 -0.10707,0.27901 z m -17.85937,-0.212559 2.0537,0.03617 0.0742,-0.220486 0.0742,-0.220486 0.0417,-1.146528 0.0417,-1.146528 -6.3588,-0.06749 -6.3588,-0.06748 v 1.159504 1.159505 l 0.22048,0.142701 0.22049,0.142702 3.96875,0.09612 3.96875,0.09612 z m -12.43507,-0.349236 0.90751,0.03263 0.0626,-0.661458 0.0626,-0.661459 -0.0538,-0.645724 -0.0538,-0.645726 -1.71008,-0.108213 -1.71008,-0.108215 -1.10243,-0.09795 -1.10243,-0.09795 v 1.324264 1.324264 l 0.92604,0.10283 0.92604,0.102827 0.97014,0.05362 0.97014,0.05362 z m 11.4838,-3.527085 3.2191,0.05626 0.0127,-0.232648 0.0128,-0.232648 0.0313,-0.617361 0.0313,-0.617361 -3.43958,0.04167 -3.43959,0.04167 -3.05335,0.0024 -3.05336,0.0024 0.0548,0.661458 0.0547,0.661459 3.175,0.08819 3.175,0.0882 3.2191,0.05626 z m 5.22349,0.03068 0.90602,-0.0012 1.17924,-0.111382 1.17923,-0.111384 -0.009,-0.681112 -0.009,-0.681114 h -2.08294 -2.08294 l -0.0618,0.308681 -0.0618,0.308681 0.0689,0.485069 0.0689,0.48507 0.90602,-0.0012 z m 5.96027,-0.140379 1.64853,-0.05344 0.22081,-0.07344 0.2208,-0.07344 -0.0444,-0.622422 -0.0444,-0.62242 -0.26458,-0.02223 -0.26459,-0.02223 -1.4973,0.03457 -1.4973,0.03457 -0.0744,0.07439 -0.0744,0.07439 -0.0379,0.57437 -0.0379,0.574372 0.0493,0.08819 0.0493,0.08819 z m 12.36416,0.100647 0.13229,0.04099 v -0.684843 -0.684832 l -1.27882,-0.105918 -1.27882,-0.105916 -2.20486,-0.02126 -2.20486,-0.02126 -1.19063,0.01825 -1.19062,0.01825 v 0.702578 0.702578 l 4.54201,0.05019 4.54201,0.05019 z m -34.90444,-0.346976 0.85841,0.03518 -0.0843,-0.440972 -0.0843,-0.440972 0.28422,-0.008 0.28422,-0.008 -0.52917,-0.227235 -0.52917,-0.227235 -2.4614,-0.04127 -2.4614,-0.04126 -0.15203,-0.09396 -0.15204,-0.09396 0.0558,0.679099 0.0558,0.679099 2.02847,0.09711 2.02847,0.09711 0.85841,0.03518 z m 3.43345,-2.378089 0.23491,-0.05617 h 5.54182 5.54183 v -0.711422 -0.710754 l -4.36563,0.04311 -4.36562,0.04311 -2.16077,0.06065 -2.16076,0.06065 v 0.596847 0.596847 l 0.74965,0.06631 0.74965,0.06631 z m 31.28661,0.07935 0.30068,0.04087 0.11736,-0.625586 0.11736,-0.625587 -0.0653,-0.06136 -0.0653,-0.06136 -2.55764,-0.04248 -2.55764,-0.04248 -2.16076,0.02387 -2.16076,0.02387 v 0.61428 0.61428 l 4.36562,0.05041 4.36563,0.0504 z m -36.81176,-0.194972 2.90898,0.02874 v -0.587618 -0.587619 l -2.24895,-0.05848 -2.24896,-0.05848 -0.64412,0.06097 -0.64412,0.06097 -0.0739,0.386659 -0.0739,0.386658 0.058,0.169732 0.058,0.169732 z m 19.82512,0.05945 h 2.108 l 0.0638,-0.308681 0.0638,-0.30868 -0.0676,-0.376663 -0.0676,-0.376663 -2.05587,-0.02095 -2.05587,-0.02095 -0.0484,0.706296 -0.0484,0.706297 z m 5.01428,-0.03808 1.79389,-0.05011 0.0559,-0.486073 0.0559,-0.486071 -0.2323,-0.07785 -0.2323,-0.07785 -1.61957,-0.05344 -1.61958,-0.05344 -0.0629,0.352778 -0.0629,0.352778 0.065,0.314695 0.065,0.314695 z m -22.48925,-2.383776 0.23491,-0.04759 h 0.17314 0.17314 l -0.0553,-0.573264 -0.0553,-0.573264 -0.35278,-0.02036 -0.35278,-0.02036 -1.14652,-0.05498 -1.14653,-0.05498 -1.36701,0.03125 -1.36702,0.03125 v 0.612517 0.61252 l 2.51354,0.05243 2.51354,0.05243 z m 7.83488,-0.160812 6.39409,-0.112169 0.0494,-0.03963 0.0494,-0.03963 0.0732,-0.578201 0.0732,-0.578201 -4.09136,0.134514 -4.09136,0.134513 -1.14652,0.03088 -1.14653,0.03088 -1.27882,0.03596 -1.27882,0.03596 v 0.528639 0.528638 z m 10.61143,-0.007 1.21873,-0.03205 0.0424,-0.634692 0.0424,-0.634693 -2.14307,0.04939 -2.14307,0.04938 -0.0546,0.563683 -0.0546,0.563684 0.9365,0.05368 0.9365,0.05368 1.21873,-0.03205 z m 4.16773,0.120246 h 1.74966 l -0.0345,-0.79375 -0.0346,-0.79375 -1.41685,0.0024 -1.41684,0.0024 -0.37042,0.09944 -0.37042,0.09944 -0.0156,0.549865 -0.0156,0.549864 0.0878,0.142037 0.0878,0.142037 h 1.74966 z m 7.71008,-0.05213 4.89446,-0.03606 0.0537,-0.854005 0.0537,-0.854003 -0.22978,0.148344 -0.22979,0.148344 -4.7184,-0.0643 -4.7184,-0.0643 v 0.80602 0.806019 z m -32.76864,-2.329118 h 2.85116 l -0.0562,-1.322917 -0.0562,-1.322917 -1.94028,0.02769 -1.94027,0.02769 -0.90359,0.0164 -0.90359,0.0164 -0.006,1.18995 -0.006,1.189949 0.0549,0.08887 0.0549,0.08887 h 2.85115 z m 8.27724,-0.0069 4.33931,-0.129233 2.11667,-0.108305 2.11666,-0.108304 -0.0105,-1.143448 -0.0105,-1.143449 -0.7042,-0.120214 -0.70419,-0.120214 -0.87275,0.0526 -0.87275,0.0526 -4.05695,0.03136 -4.05694,0.03136 -0.92604,0.101554 -0.92604,0.101554 v 0.480263 0.480263 l 0.1145,0.835418 0.11451,0.83542 4.33931,-0.129231 z m 29.49816,-0.06449 0.11164,-0.10496 0.12319,-1.480616 0.12319,-1.480614 -5.0762,0.124686 -5.0762,0.124686 -0.12447,0.07693 -0.12447,0.07692 0.0874,1.102614 0.0874,1.102614 0.0374,0.03909 0.0374,0.03909 4.41012,0.01589 4.41011,0.01588 0.43089,0.226374 0.43088,0.226376 z m -17.76265,-0.219088 2.01284,-0.0639 0.0795,-0.08738 0.0795,-0.08738 0.10061,-1.189839 0.1006,-1.18984 -2.23879,0.06349 -2.23878,0.06349 -0.0536,1.018404 -0.0536,1.018404 0.0995,0.259218 0.0995,0.259218 z m 5.02859,-0.150459 h 1.76938 l -0.0415,-1.239318 -0.0415,-1.239317 -1.67569,0.04869 -1.6757,0.04869 -0.0522,1.190625 -0.0522,1.190625 z m -25.25708,-3.323414 2.77812,-0.06034 0.10374,-0.11611 0.10374,-0.116112 -0.0789,-1.367014 -0.0789,-1.367014 h -2.80294 -2.80295 v 1.543462 1.543462 z m 10.40694,-0.145863 6.48229,-0.09925 0.13984,-0.200111 0.13984,-0.200112 -0.10937,-1.05726 -0.10937,-1.057261 -0.0412,-0.04123 -0.0412,-0.04123 -6.51563,-0.04804 -6.51563,-0.04804 0.0177,0.79375 0.0178,0.79375 0.0263,0.65214 0.0263,0.652139 z m 9.92188,-0.0585 h 2.29305 v -1.234723 -1.234722 h -0.67846 -0.67845 l -1.6146,-0.114607 -1.6146,-0.114608 v 1.34933 1.34933 z m 4.12068,-0.08916 0.73001,-0.03599 0.90828,-0.02562 0.90828,-0.02562 0.0619,-0.749653 0.0619,-0.749653 -0.0564,-0.396875 -0.0564,-0.396875 h -1.64456 -1.64455 l -0.0828,0.220486 -0.0828,0.220486 0.0835,0.987649 0.0835,0.98765 z m 8.83419,-0.125984 5.19376,-0.04943 0.0955,-0.352777 0.0955,-0.352778 0.002,-0.48507 0.002,-0.485069 -1.27882,-0.02049 -1.27882,-0.02049 -0.88194,-0.04156 -0.88195,-0.04156 -2.97601,-0.134058 -2.97601,-0.134058 -0.15219,0.240212 -0.15219,0.240211 -0.003,0.843186 -0.003,0.843186 5.19376,-0.04944 z m 3.08636,-2.970541 2.2605,0.02571 0.12508,-1.167909 0.12507,-1.167908 -0.0665,-0.06654 -0.0665,-0.06654 -3.34447,-0.140075 -3.34447,-0.140074 h -1.85209 -1.85208 l -0.089,1.118781 -0.089,1.118782 0.12467,0.07705 0.12467,0.07705 2.78654,0.106023 2.78654,0.106023 0.0553,0.04696 0.0553,0.04696 z m -9.82353,-0.402972 0.66146,0.0031 v -1.206477 -1.205806 h -1.8605 -1.8605 l 0.0525,1.102431 0.0525,1.10243 1.14653,0.100325 1.14653,0.100324 0.66145,0.0031 z m -28.59532,-0.204938 0.76998,-0.141336 2.09095,0.01882 2.09096,0.01882 -0.10417,-0.388506 -0.10417,-0.388505 -0.002,-0.749653 -0.002,-0.749653 h -2.54723 -2.54723 l -0.0785,0.132292 -0.0785,0.132292 -0.12859,1.128382 -0.1286,1.128383 z m 22.45626,0.05049 2.12622,-0.04925 0.0106,-1.10243 0.0106,-1.102431 h -2.1557 -2.15569 l -0.0598,1.0736 -0.0598,1.073599 0.0787,0.07808 0.0786,0.07808 2.12621,-0.04925 z m -9.98567,-0.137443 h 6.65192 l 0.0503,-1.121218 0.0504,-1.121217 -6.75454,0.01879 -6.75454,0.01879 -0.0637,0.329391 -0.0636,0.329391 0.11592,0.77304 0.11593,0.773039 z m 28.4565,-3.519159 0.11684,-0.802369 0.0155,-0.506668 0.0155,-0.506667 -0.2471,0.205074 -0.2471,0.205074 -4.29492,-0.128249 -4.29491,-0.12825 -0.79375,2.83e-4 -0.79375,2.82e-4 -0.0521,0.974525 -0.0521,0.974525 4.63816,0.124162 4.63817,0.124162 0.61736,0.133243 0.61736,0.133244 z m -40.45832,0.247069 1.00676,-0.06741 1.64655,-0.0059 1.64655,-0.0059 -0.0669,-1.102431 -0.0669,-1.10243 -1.64831,-0.127307 -1.64832,-0.127306 -0.89238,0.128425 -0.89238,0.128426 -0.0457,1.174665 -0.0457,1.174664 z m 6.03385,-0.0065 0.26458,-0.05863 2.64583,-0.01938 2.64584,-0.01938 3.56406,0.0564 3.56407,0.0564 0.0519,-0.529167 0.0519,-0.529166 -0.0611,-0.553345 -0.0611,-0.553344 -5.58337,-0.110804 -5.58338,-0.110803 -1.19062,-0.04717 -1.19063,-0.04717 v 1.183457 1.183458 l 0.30868,0.07864 0.30868,0.07864 z m 16.71785,0.05076 1.63661,0.03536 -0.12653,-0.204742 -0.12654,-0.204742 -0.0488,-0.786601 -0.0488,-0.786601 -0.21169,-0.130833 -0.21169,-0.130833 -1.91104,-0.01814 -1.91104,-0.01814 v 1.050205 1.050204 l 0.66146,0.05474 0.66146,0.05475 z m 4.25284,-0.06129 1.69528,-0.104355 0.0727,-0.06638 0.0727,-0.06638 -0.0313,-0.826555 -0.0313,-0.826554 -0.0446,-0.04464 -0.0446,-0.04464 -1.58432,-0.02317 -1.58431,-0.02317 -0.22049,0.01165 -0.22048,0.01165 v 0.94074 0.940741 l 0.1127,0.112707 0.11271,0.112706 z m 13.49294,-2.362027 0.15599,0.0067 -0.0866,-1.210675 -0.0866,-1.210674 -0.12387,-0.200437 -0.12388,-0.200436 h -5.086 -5.08599 l -0.10707,0.27901 -0.10706,0.27901 v 0.779323 0.779324 l 1.27882,0.01726 1.27881,0.01726 1.05834,0.02971 1.05833,0.0297 2.68298,0.04123 2.68297,0.04123 0.22744,0.257874 0.22744,0.257874 0.156,0.0067 z m -18.42455,-0.818978 1.33522,-0.03194 0.18737,-0.01216 0.18738,-0.01216 -0.0312,-0.749653 -0.0312,-0.749653 -0.0239,-0.213324 -0.0239,-0.213324 -1.96557,0.03693 -1.96558,0.03693 -1.5e-4,0.881944 -1.6e-4,0.881945 0.49821,0.08819 0.49822,0.08819 z m 4.76785,0.08534 1.94723,0.05341 v -1.073492 -1.073419 l -1.98437,0.04987 -1.98438,0.04987 -0.0571,0.597671 -0.0571,0.597671 0.0942,0.372468 0.0942,0.372468 z m -12.82534,-0.196459 4.71841,0.03334 v -0.860846 -0.860774 l -0.1323,-0.07623 -0.13229,-0.07623 -6.63423,-0.125096 -6.63423,-0.125096 -0.0834,0.235016 -0.0834,0.235017 0.077,0.744211 0.077,0.74421 2.05456,0.04954 2.05456,0.04954 z m -12.38236,-0.131832 2.65478,-0.01447 -0.11776,-0.825459 -0.11775,-0.825459 -0.15818,-0.169973 -0.15818,-0.169973 -2.26484,-0.07057 -2.26484,-0.07057 -0.1116,0.416928 -0.1116,0.416927 -0.002,0.663545 -0.002,0.663545 2.65479,-0.01447 z m -10.60396,27.587613 -0.45264,0.106191 -0.38521,-0.269808 -0.3852,-0.269808 v -0.583572 -0.58357 l 0.36558,-0.46476 0.36558,-0.46476 h 0.31264 0.31263 l 0.33202,0.366866 0.33201,0.366867 v 0.686656 0.686655 l -0.17239,0.158428 -0.17238,0.158425 z m 96.496392,-3.425307 -0.0882,-0.0091 -0.39688,-0.159524 -0.39687,-0.159525 v -0.23499 -0.234989 l 0.21166,-0.211667 0.21167,-0.211666 h 0.58775 0.58775 l 0.5676,-0.247128 0.56759,-0.247126 0.47795,-0.458963 0.47795,-0.458962 0.48064,-0.820148 0.48063,-0.820149 0.0116,-1.560588 0.0115,-1.560589 -0.498,2.2e-5 -0.49801,1.9e-5 0.0579,-0.30062 0.0579,-0.300619 0.88108,-0.310378 0.88109,-0.310377 0.58486,-0.666531 0.58486,-0.666533 -0.11491,-0.612557 -0.11492,-0.612556 -0.24221,-0.46839 -0.24222,-0.46839 -0.84509,-0.983305 -0.8451,-0.983306 -0.85063,-0.644815 -0.85064,-0.644814 -0.96622,-0.339598 -0.96621,-0.339598 -1.35815,-0.262446 -1.35815,-0.262447 -1.71575,0.115661 -1.71576,0.115661 -0.11565,-0.301378 -0.11565,-0.301377 0.20832,-0.20863 0.20832,-0.20863 1.4467,-0.108626 1.4467,-0.108627 1.76388,0.25059 1.76389,0.250589 1.09344,0.426958 1.09344,0.426958 0.76524,0.577607 0.76523,0.577607 0.96355,1.110902 0.96355,1.110905 0.48507,0.897879 0.48507,0.89788 v 0.64688 0.646878 l -0.41223,0.558745 -0.41223,0.558747 -0.42562,0.419677 -0.42562,0.419677 -0.40181,0.211224 -0.40182,0.211224 0.13368,0.211635 0.13367,0.211636 0.19304,1.146528 0.19305,1.146528 -0.50028,1.123569 -0.50027,1.123569 -0.46396,0.552126 -0.46396,0.552125 -0.61538,0.418936 -0.61537,0.418936 -0.90293,0.240429 -0.90294,0.240428 -0.0882,-0.0091 z m -24.790742,-2.140049 -0.35919,0.05154 -0.12504,-0.125033 -0.12503,-0.125033 v -0.28063 -0.280627 l 0.60562,-1.850738 0.60562,-1.850738 0.80533,-1.524469 0.80533,-1.524468 0.27741,-0.106454 0.27741,-0.106454 0.69094,0.57259 0.69094,0.572588 0.10203,0.308681 0.10203,0.308681 h 0.16451 0.1645 v 0.217076 0.217078 l 0.38523,0.92945 0.38524,0.929451 h 0.49671 0.496712 v 0.187985 0.187985 l -0.18188,0.339832 -0.18187,0.339833 0.37391,0.869183 0.37392,0.869184 -0.0622,0.32279 -0.0622,0.322792 h -0.43856 -0.438552 l -0.53311,-1.058333 -0.53311,-1.058334 -0.61342,-0.04792 -0.61342,-0.04792 -1.32167,0.136111 -1.32167,0.13611 -0.26667,1.058333 -0.26668,1.058334 z m 2.73266,-3.520544 1.22526,-0.06923 0.11097,-0.110975 0.11098,-0.110977 -0.48469,-0.989855 -0.48468,-0.989856 -0.22495,-0.18669 -0.22495,-0.186692 -0.6266,1.244253 -0.62659,1.244252 v 0.112503 0.112502 z m 7.418972,3.557201 h -0.36268 l -0.16871,-0.443754 -0.16872,-0.443755 -0.17955,-1.893398 -0.17955,-1.893399 -1.4e-4,-1.521805 -1.5e-4,-1.521804 0.26538,-0.220245 0.26537,-0.220243 1.4268,-0.143836 1.42679,-0.143835 0.7548,0.366711 0.7548,0.366711 0.37525,0.859397 0.37525,0.859398 -0.006,0.659776 -0.006,0.659775 -0.22235,0.292298 -0.22234,0.292298 -1.11905,0.542074 -1.11905,0.542077 -0.60193,0.112922 -0.60193,0.112923 -0.23266,0.232659 -0.23266,0.232658 0.17497,0.884873 0.17496,0.884872 -0.1045,0.272327 -0.10451,0.272325 h -0.36268 z m 0.77123,-3.826339 0.55052,-0.104255 1.10243,-0.493084 1.10243,-0.493086 -0.004,-0.319742 -0.004,-0.319744 -0.33054,-0.727892 -0.33054,-0.727892 -0.21812,-0.134808 -0.21813,-0.134809 -1.02533,0.0085 -1.02532,0.0085 -0.18603,0.114968 -0.18602,0.114969 v 0.846917 0.846915 l 0.11094,0.80941 0.11094,0.80941 0.55052,-0.104255 z m 7.22321,3.75185 -2.26297,0.116345 -0.13229,-0.13852 -0.13229,-0.13852 v -0.305186 -0.304508 l 0.27901,-0.107066 0.27901,-0.107066 h 0.58088 0.58089 l 0.55122,-0.110243 0.55121,-0.110243 v -2.853091 -2.85309 l 0.22049,-0.233061 0.22048,-0.233061 -0.61736,0.10486 -0.61736,0.104859 -0.70556,0.105252 -0.70555,0.105251 -0.35278,-0.26613 -0.35278,-0.266131 0.26459,-0.251174 0.26458,-0.251172 1.23472,-0.207857 1.23472,-0.207859 1.65662,-0.261253 1.65661,-0.261253 0.33804,0.107292 0.33805,0.107292 -0.0544,0.381725 -0.0544,0.381725 -0.31931,-0.05427 -0.3193,-0.05427 -0.56264,0.17664 -0.56264,0.176639 -0.76269,0.196621 -0.7627,0.19662 0.18603,0.224152 0.18603,0.22415 0.0475,2.785933 0.0475,2.785934 1.52971,-0.115282 1.52972,-0.115281 0.12329,0.199484 0.12328,0.199485 -0.33144,0.331447 -0.33145,0.331447 -0.91068,0.172706 -0.91067,0.172708 z M -112.8336,92.162275 h -0.33196 l -0.0792,-0.132292 -0.0793,-0.132292 -0.37247,-0.667416 -0.37247,-0.667415 -0.35946,-1.38674 -0.35946,-1.386738 -0.0194,-1.561818 -0.0194,-1.561818 0.32267,-1.012438 0.32267,-1.012441 0.53032,-0.64337 0.53032,-0.643369 0.98144,-0.44828 0.98143,-0.44828 1.56381,-0.206479 1.56381,-0.206479 0.79589,0.148688 0.79588,0.148688 0.80622,0.397991 0.80622,0.397991 0.67913,0.64231 0.67912,0.642311 0.67144,-0.906894 0.67143,-0.906893 0.78632,-0.722897 0.78633,-0.722897 0.788562,-0.462127 0.78856,-0.462128 1.31697,-0.281594 1.31698,-0.281594 1.14653,0.108822 1.14653,0.108822 1.10176,0.530673 1.10176,0.530672 0.11192,0.445934 0.11192,0.445933 -0.0998,0.966637 -0.0998,0.966636 -0.21654,0.260913 -0.21654,0.260913 -0.36821,-0.05261 -0.36821,-0.05261 0.0414,-0.440972 0.0414,-0.440973 0.10702,-0.724187 0.10702,-0.724187 -0.4615,-0.363016 -0.4615,-0.363016 -1.24857,-0.223132 -1.24857,-0.223132 -1.08416,0.21916 -1.08415,0.219161 -0.7528,0.358781 -0.7528,0.35878 -1.011092,1.01504 -1.01108,1.015041 -0.61737,1.171074 -0.61736,1.171075 -0.39234,0.0014 -0.39235,0.0014 -0.28549,-0.573264 -0.2855,-0.573264 -0.64415,-0.574134 -0.64416,-0.574135 -0.78976,-0.371232 -0.78977,-0.371233 -1.61035,0.07043 -1.61035,0.07043 -1.17542,0.578657 -1.17543,0.578658 -0.33601,0.658647 -0.33602,0.658647 -0.19719,1.087467 -0.1972,1.08747 0.10611,0.931412 0.1061,0.931413 0.18077,0.881945 0.18077,0.881944 0.25868,0.617361 0.25868,0.617362 0.26517,0.485431 0.26517,0.485431 -0.10879,0.176027 -0.10879,0.176181 z m 7.01927,-13.405557 h -0.32756 l -0.0927,-0.241698 -0.0927,-0.241699 0.84359,-1.21351 0.84358,-1.21351 1.32854,-1.334877 1.32854,-1.334878 1.14525,-0.561475 1.145262,-0.561476 1.02284,-0.264411 1.02285,-0.264411 h 0.68541 0.68542 l 1.25012,0.262971 1.25012,0.262971 0.65759,0.336398 0.6576,0.336397 0.7616,0.814136 0.76161,0.814136 -0.056,0.39268 -0.056,0.39268 -0.30454,0.05803 -0.30453,0.05803 -0.93589,-0.958596 -0.93589,-0.958595 -1.05263,-0.314044 -1.05263,-0.314044 -0.88195,-0.07966 -0.88194,-0.07966 -1.14653,0.296318 -1.14653,0.296318 -0.885452,0.504403 -0.88545,0.504402 -1.33468,1.377293 -1.33468,1.377292 -0.32597,0.529167 -0.32598,0.529166 -0.35096,0.396875 -0.35096,0.396875 z"
       id="path1388" /></g></svg>
