<?xml version="1.0" encoding="UTF-8" standalone="no"?>
<!-- Created with Inkscape (http://www.inkscape.org/) -->

<svg
   width="51.13245mm"
   height="75.202812mm"
   viewBox="0 0 51.132451 75.202814"
   version="1.1"
   id="svg1184"
   sodipodi:docname="marteau.svg"
   inkscape:version="1.2.1 (9c6d41e, 2022-07-14)"
   xml:space="preserve"
   xmlns:inkscape="http://www.inkscape.org/namespaces/inkscape"
   xmlns:sodipodi="http://sodipodi.sourceforge.net/DTD/sodipodi-0.dtd"
   xmlns="http://www.w3.org/2000/svg"
   xmlns:svg="http://www.w3.org/2000/svg"><sodipodi:namedview
     id="namedview1186"
     pagecolor="#505050"
     bordercolor="#ffffff"
     borderopacity="1"
     inkscape:showpageshadow="0"
     inkscape:pageopacity="0"
     inkscape:pagecheckerboard="1"
     inkscape:deskcolor="#505050"
     inkscape:document-units="mm"
     showgrid="false"
     inkscape:zoom="0.75491073"
     inkscape:cx="349.71022"
     inkscape:cy="411.96924"
     inkscape:window-width="1440"
     inkscape:window-height="872"
     inkscape:window-x="0"
     inkscape:window-y="0"
     inkscape:window-maximized="1"
     inkscape:current-layer="layer1" /><defs
     id="defs1181" /><g
     inkscape:label="Calque 1"
     inkscape:groupmode="layer"
     id="layer1"
     transform="translate(-234.28834,203.26017)"><path
       style="fill:#000000;stroke-width:1"
       d="m 238.97383,-128.07768 -0.20773,-0.0205 -0.35278,-0.0859 -0.35277,-0.0859 -0.30868,-0.27371 -0.30868,-0.27372 v -0.22535 -0.22536 l 0.30868,-0.0854 0.30868,-0.0854 1.67569,-0.10781 1.6757,-0.1078 1.14652,-0.27158 1.14653,-0.27157 0.70556,-0.17575 0.70555,-0.17576 1.23472,-0.46178 1.23473,-0.46179 1.67569,-1.03771 1.67569,-1.03771 1.32292,-0.95547 1.32292,-0.95546 1.27882,-0.81522 1.27882,-0.81522 0.0109,-0.99598 0.0109,-0.99598 -0.0218,-1.76389 -0.0218,-1.76389 -0.084,-0.88194 -0.084,-0.88195 -0.33941,-1.70552 -0.3394,-1.70552 -0.36914,-1.09576 -0.36913,-1.09577 -0.71326,-1.4186 -0.71325,-1.41859 -0.36208,-0.48974 -0.36208,-0.48974 -0.63478,0.27244 -0.63478,0.27244 -1.6757,0.60777 -1.67569,0.60778 -0.52917,0.23982 -0.52916,0.23982 -1.6757,0.70615 -1.67569,0.70615 -1.37985,0.46115 -1.37986,0.46116 -2.58889,0.32647 -2.5889,0.32647 -0.36003,-0.13477 -0.36003,-0.13477 -0.20314,-0.24478 -0.20315,-0.24478 0.13265,-0.21463 0.13265,-0.21463 1.40066,-0.18083 1.40067,-0.18082 0.97013,-0.0982 0.97014,-0.0982 1.49931,-0.44456 1.4993,-0.44456 2.91042,-1.19045 2.91042,-1.19045 1.05833,-0.40454 1.05833,-0.40454 0.70556,-0.29602 0.70556,-0.29601 0.79374,-0.33339 0.79376,-0.33338 1.12503,-0.56681 1.12503,-0.5668 0.37619,0.14302 0.37618,0.14303 0.51559,1.07873 0.51559,1.07874 h 0.19627 0.19626 l 1.4029,-0.58182 1.4029,-0.58182 0.57326,-0.30465 0.57327,-0.30466 v -0.17425 -0.17425 l -0.15687,-0.30629 -0.15687,-0.30629 -0.4591,-1.00029 -0.4591,-1.00029 -0.26598,-1.02114 -0.26597,-1.02114 v -0.49562 -0.49561 l 0.4353,-1.07128 0.4353,-1.07128 1.01991,-1.41786 1.01991,-1.41787 0.64221,-0.5505 0.64221,-0.5505 -0.70076,-2.73359 -0.70076,-2.73358 -0.24139,-1.05833 -0.2414,-1.05834 -0.47029,-1.76389 -0.47028,-1.76388 -0.33306,-1.32292 -0.33305,-1.32292 -0.20669,-0.6703 -0.20668,-0.6703 -0.12688,-0.0784 -0.12688,-0.0784 -0.50343,0.26256 -0.50343,0.26256 -0.40563,0.001 -0.40563,10e-4 -0.47631,0.24391 -0.47631,0.24392 -1.23473,0.368 -1.23472,0.368 -1.41111,0.50565 -1.41111,0.50564 -0.49655,0.20536 -0.49655,0.20535 h -0.4295 -0.42948 l -0.0145,-0.13229 -0.0145,-0.13229 -0.0821,-0.50243 -0.0821,-0.50242 -0.45447,-1.43785 -0.45447,-1.43786 -0.0364,-0.17639 -0.0364,-0.17639 -0.47091,-1.00293 -0.47092,-1.00293 v -0.16317 -0.16316 l -0.44536,-1.39154 -0.44535,-1.39154 -0.2817,-1.23473 -0.28169,-1.23472 -0.23655,-0.46365 -0.23654,-0.46366 0.30474,-0.27579 0.30475,-0.27579 1.76128,-0.46743 1.76128,-0.46742 1.05833,-0.25119 1.05833,-0.25119 0.44098,-0.1584 0.44097,-0.1584 1.76389,-0.47703 1.76389,-0.47703 0.12598,-0.11388 0.12599,-0.11389 -0.27063,-0.79123 -0.27064,-0.79118 -0.16404,-0.16757 -0.16404,-0.16757 v -0.4057 -0.40569 h 0.17044 0.17044 l 1.07286,-0.69343 1.07286,-0.69342 0.53247,-0.11695 0.53247,-0.11695 0.45104,-0.234 0.45104,-0.234 0.24264,0.0931 0.24263,0.0931 v -0.18846 -0.18846 l 0.74392,-0.20032 0.74392,-0.20031 0.71129,-0.32031 0.71129,-0.3203 0.91523,-0.22231 0.91522,-0.22231 0.2754,0.22856 0.2754,0.22857 v 0.24298 0.24299 h 0.16271 0.16271 l 0.17521,0.57326 0.17522,0.57326 0.10754,0.64281 0.10754,0.6428 0.83335,-0.31915 0.83336,-0.31915 0.97014,-0.45422 0.97013,-0.45422 0.40125,-0.002 0.40124,-0.002 0.17827,0.46891 0.17828,0.46891 0.52905,0.63352 0.52905,0.63352 0.1274,0.17639 0.1274,0.17639 0.2138,0.48143 0.2138,0.48143 1.07525,0.79155 1.07524,0.79155 0.56179,0.101 0.5618,0.101 1.5107,0.0506 1.5107,0.0506 0.18847,0.11649 0.18848,0.11648 0.12658,1.01657 0.12657,1.01657 0.29708,1.41111 0.29708,1.41111 -0.0631,0.40122 -0.0631,0.40122 -0.39998,0.26208 -0.39998,0.26207 -2.71157,0.87562 -2.71157,0.87562 -1.8145,0.47207 -1.8145,0.47207 v 0.33648 0.33647 l 0.19397,1.25015 0.19396,1.25016 0.66705,2.57599 0.66705,2.576 0.35497,1.41111 0.35497,1.41111 0.21713,1.05834 0.21713,1.05833 0.33077,0.98188 0.33078,0.98188 v 0.3188 0.3188 l 0.81789,0.71994 0.81789,0.71993 0.24045,0.57546 0.24043,0.57545 v 0.53483 0.53483 h 0.76233 0.76233 l 0.78107,0.27179 0.78108,0.27179 0.37098,0.30878 0.37097,0.30878 0.20229,0.37797 0.20229,0.37798 v 0.63516 0.63517 l -0.28487,0.43476 -0.28487,0.43477 h 0.33098 0.33098 l 0.87051,0.57326 0.87051,0.57327 0.15135,0.59102 0.15136,0.59103 -0.35605,0.71964 -0.35605,0.71965 0.5626,0.57539 0.56259,0.5754 0.21137,0.58338 0.21136,0.58338 0.0134,0.48506 0.0134,0.48507 h -0.17639 -0.17639 v 0.2443 0.2443 l 0.42055,0.27556 0.42056,0.27555 0.46139,0.92589 0.46139,0.92589 v 0.43885 0.43884 l -0.36166,0.74709 -0.36166,0.74708 -0.54661,0.19055 -0.5466,0.19055 h -0.39578 -0.39578 l -0.10707,0.27901 -0.10706,0.27901 v 0.34275 0.34275 l -1.09006,1.06661 -1.09005,1.06662 0.58655,1.97169 0.58656,1.9717 0.31208,1.05833 0.31207,1.05833 0.70137,2.02848 0.70138,2.02847 0.2197,0.99726 0.21971,0.99726 -0.33278,0.5028 -0.33278,0.5028 -0.19371,0.35202 -0.1937,0.35202 -0.33546,0.17639 -0.33547,0.17639 -0.7987,0.55481 -0.7987,0.5548 -0.95311,0.28305 -0.95311,0.28305 h -0.75313 -0.75313 l -1.01339,-0.26396 -1.0134,-0.26396 -0.11334,-0.13291 -0.11334,-0.13292 -0.22325,-1.05834 -0.22325,-1.05833 -0.15298,-0.35278 -0.15298,-0.35277 -0.27209,-1.23473 -0.27209,-1.23472 -0.15183,-0.44097 -0.15182,-0.44097 -0.48195,-1.5875 -0.48195,-1.5875 -0.15005,-0.35278 -0.15005,-0.35278 -0.18014,-0.711 -0.18015,-0.71101 -0.23117,-0.31615 -0.23117,-0.31614 -2.72695,1.09285 -2.72695,1.09286 -0.79375,0.24679 -0.79375,0.24679 -1.73276,0.34896 -1.73275,0.34897 h -0.33982 -0.33981 v 0.17018 0.17018 l 0.33959,0.18174 0.33958,0.18174 -0.0765,0.66232 -0.0765,0.66231 -0.74814,0.67269 -0.74813,0.67269 -0.26458,0.21574 -0.26459,0.21574 -0.64666,0.42776 -0.64665,0.42775 -0.15411,0.5359 -0.15411,0.5359 -0.63248,0.006 -0.63248,0.006 -0.68342,0.47593 -0.68342,0.47594 -1.85208,1.31732 -1.85209,1.31733 -0.2898,0.009 -0.28981,0.009 -0.0865,0.22531 -0.0865,0.22532 -1.47581,0.73329 -1.47582,0.73329 -1.06867,0.34366 -1.06867,0.34367 -1.48896,0.28245 -1.48897,0.28247 -1.37978,0.17915 -1.37978,0.17916 -0.20772,-0.0205 z m 39.74435,-4.68648 0.79375,-0.0863 1.09154,-0.5195 1.09154,-0.51949 0.472,-0.56094 0.47199,-0.56093 -0.0951,-0.80039 -0.0951,-0.80038 -0.29983,-0.88195 -0.29983,-0.88194 -0.035,-0.17639 -0.035,-0.17639 -0.30664,-0.70556 -0.30663,-0.70555 -0.61242,-2.20486 -0.61242,-2.20486 -0.16916,-0.35278 -0.16917,-0.35278 -0.45659,-1.73895 -0.45659,-1.73894 0.10587,-0.42182 0.10587,-0.42182 h -0.59425 -0.59426 l -0.71704,-0.51942 -0.71704,-0.51942 -0.1142,-0.35979 -0.11419,-0.35978 -0.01,-0.72473 -0.01,-0.72473 0.38933,-0.5266 0.38933,-0.52659 -0.0596,-0.0519 -0.0596,-0.0519 -0.58716,-0.29873 -0.58716,-0.29873 -0.26069,-0.62392 -0.26069,-0.62391 0.10569,-0.4812 0.10569,-0.48119 -0.71184,-0.27962 -0.71183,-0.27962 -0.1776,-0.46712 -0.1776,-0.46712 v -0.65482 -0.65483 l 0.27417,-0.39144 0.27417,-0.39143 -0.40646,-0.18904 -0.40647,-0.18904 -0.35277,-0.47301 -0.35278,-0.47301 0.0232,-0.93447 0.0232,-0.93447 -0.30168,0.27301 -0.30168,0.27302 h -0.45393 -0.45392 l -0.19364,0.55548 -0.19365,0.55549 v 0.60576 0.60575 l 0.52527,1.31179 0.52527,1.3118 0.26848,1.03611 0.26848,1.0361 v 0.55483 0.55483 l -0.35927,0.70424 -0.35928,0.70423 -0.52127,0.10426 -0.52127,0.10425 0.11003,0.72789 0.11004,0.72788 0.59583,2.02847 0.59583,2.02848 0.36895,1.23472 0.36895,1.23472 0.58284,1.76389 0.58284,1.76389 0.88151,2.73403 0.88151,2.73402 0.20345,1.05834 0.20344,1.05833 0.18823,0.4861 0.18823,0.48609 0.81603,0.2463 0.81602,0.24629 z m -20.80392,-5.70534 0.36274,-0.19413 0.0811,-0.2114 0.0811,-0.21139 0.28358,-1.67325 0.28357,-1.67325 0.0485,-1.41111 0.0486,-1.41111 -0.32139,-1.76389 -0.32139,-1.76389 -0.29654,-0.88194 -0.29655,-0.88195 -0.56879,-1.14652 -0.5688,-1.14653 -0.40443,-0.70498 -0.40444,-0.70498 -0.2939,-0.37363 -0.2939,-0.37364 -0.77897,0.30457 -0.77896,0.30456 -0.0564,0.16905 -0.0563,0.16904 0.33064,0.38124 0.33065,0.38124 0.36575,0.75293 0.36576,0.75293 0.52368,1.14653 0.52368,1.14653 0.54341,2.11666 0.5434,2.11667 0.1794,2.02847 0.1794,2.02847 0.002,1.46142 0.002,1.46141 0.36274,-0.19413 z m 2.74874,-3.69909 0.0247,1.8e-4 1.72623,-0.35519 1.72623,-0.35518 0.81627,-0.24241 0.81627,-0.2424 0.8724,-0.35692 0.87241,-0.35692 1.67569,-0.66362 1.6757,-0.66361 0.1476,-0.1258 0.1476,-0.12579 -0.3059,-1.03421 -0.3059,-1.0342 -0.48786,-1.5875 -0.48787,-1.5875 -0.19518,-1.0789 -0.19518,-1.0789 0.11057,-0.28811 0.11056,-0.28812 h 0.22172 0.22172 l 0.48594,-0.70121 0.48593,-0.7012 -0.10297,-0.94431 -0.10297,-0.94432 -0.72037,-1.74996 -0.72038,-1.74997 0.0764,-0.97014 0.0765,-0.97014 0.15798,-0.61736 0.15799,-0.61736 0.87662,-0.42097 0.87662,-0.42096 0.52916,-0.23155 0.52917,-0.23154 0.81426,-0.28849 0.81426,-0.28849 0.64442,-1.08747 0.64443,-1.08748 -0.1113,-0.52916 -0.1113,-0.52917 -0.27229,-0.30868 -0.2723,-0.30868 h -0.48956 -0.48956 l -0.0564,-0.39688 -0.0564,-0.39687 -1.41111,0.0161 -1.41111,0.0161 -1.66383,0.5695 -1.66383,0.56949 -1.15839,0.7716 -1.15839,0.77161 -0.27251,0.23032 -0.2725,0.23033 -0.96673,1.14653 -0.96673,1.14653 -0.57821,1.19911 -0.5782,1.19912 -0.0576,0.47658 -0.0576,0.47658 0.23757,0.91721 0.23758,0.91721 0.70687,1.49491 0.70688,1.49492 0.18094,0.11182 0.18094,0.11183 v 0.24158 0.24157 l -0.26222,0.26222 -0.26222,0.26223 -0.9244,0.30703 -0.92439,0.30704 -0.19865,0.19864 -0.19864,0.19864 -1.30467,0.51379 -1.30467,0.51379 -0.0374,0.0177 -0.0374,0.0178 0.87391,2.02045 0.8739,2.02046 0.0984,0.61736 0.0984,0.61736 0.27573,1.48581 0.27573,1.48581 0.0241,1.38026 0.0241,1.38025 0.0247,1.8e-4 z m 19.53622,-6.52613 h 0.24631 l 0.55831,-0.63589 0.55831,-0.63588 -0.0728,-0.0728 -0.0728,-0.0728 -0.51131,0.26665 -0.51131,0.26665 -0.32755,0.001 -0.32756,0.001 0.10707,0.27901 0.10707,0.279 v 0.16197 0.16196 h 0.24631 z m -0.86368,-2.07609 0.70556,-0.0822 1.14653,-0.30978 1.14652,-0.30978 0.66107,-0.2776 0.66106,-0.2776 0.20486,-0.44962 0.20486,-0.44962 -0.20021,-0.66825 -0.20021,-0.66825 -0.3639,-0.3906 -0.36391,-0.3906 h -0.41523 -0.41522 l -0.10154,0.26458 -0.10152,0.26458 -0.57881,9e-5 -0.57879,9e-5 -0.89492,0.34014 -0.89492,0.34015 -0.64511,0.40942 -0.64512,0.40942 -0.20528,0.65346 -0.20529,0.65347 0.28577,0.43613 0.28576,0.43612 0.40122,0.0742 0.40122,0.0742 z m -0.44097,-4.23828 0.97014,-0.42932 0.70556,-0.18499 0.70555,-0.18499 0.0882,-0.12272 0.0882,-0.12272 0.57327,-0.29373 0.57326,-0.29372 v -0.35985 -0.35984 l -0.2052,-0.38528 -0.2052,-0.38528 -0.27987,-0.21488 -0.27987,-0.21487 -0.13229,-0.006 -0.13229,-0.006 v 0.24558 0.24558 l -1.27882,0.30431 -1.27882,0.30431 -1.09468,0.60093 -1.09467,0.60094 -0.10734,0.17367 -0.10733,0.17367 0.11303,0.35615 0.11304,0.35615 0.648,0.31572 0.648,0.31572 z m -3.06955,-2.50508 h 0.40355 l 0.59018,-0.34821 0.59018,-0.34821 1.11858,-0.35735 1.11857,-0.35734 0.63848,-0.005 0.63848,-0.005 -0.30868,-0.17979 -0.30868,-0.17979 v -0.25582 -0.25582 h 0.15774 0.15773 l 0.54782,-0.51174 0.54782,-0.51174 v -0.26247 -0.26247 l -0.30868,-0.37341 -0.30868,-0.37342 -1.03909,0.17229 -1.03909,0.17228 -1.80764,0.87853 -1.80765,0.87853 -0.37039,0.47086 -0.37037,0.47086 0.1099,0.4638 0.10991,0.4638 0.26823,0.30868 0.26823,0.30868 h 0.40355 z m 5.27441,-1.23472 h 0.0882 v -0.0882 -0.0882 h -0.0882 -0.0882 v 0.0882 0.0882 z m -6.42503,-2.34002 0.10135,-0.0412 1.79483,-0.78929 1.79483,-0.78929 v -0.21214 -0.21215 l 0.48507,-0.38039 0.48506,-0.3804 0.1939,-0.35907 0.19389,-0.35907 -0.11021,-0.55216 -0.11021,-0.55215 -0.61285,-0.30841 -0.61285,-0.3084 -0.57566,-3.6e-4 -0.57565,-3.5e-4 -0.34237,-0.21381 -0.34236,-0.21381 -0.0585,0.0815 -0.0585,0.0815 -0.65505,1.01152 -0.65505,1.01152 v 0.35097 0.35096 l -0.51004,0.26375 -0.51005,0.26375 -0.17983,0.51589 -0.17984,0.51589 0.25924,0.49968 0.25923,0.49968 0.21016,0.13345 0.21016,0.13345 0.10135,-0.0412 z m -9.54214,-8.06692 h 0.17242 l 1.01197,-0.5475 1.01197,-0.5475 1.68194,-0.52344 1.68193,-0.52343 1.27864,-0.0315 1.27863,-0.0315 1.8e-4,-0.19831 1.7e-4,-0.19831 -0.26411,-0.74858 -0.26411,-0.74857 -0.35708,-1.78715 -0.35708,-1.78714 -0.43631,-1.5875 -0.43631,-1.5875 -0.60234,-2.55764 -0.60234,-2.55764 -0.11204,-0.66146 -0.11204,-0.66145 h -0.13415 -0.13414 l -1.04849,0.33694 -1.04848,0.33695 -2.38126,0.73553 -2.38124,0.73554 -0.57327,0.25871 -0.57326,0.25871 1.7e-4,0.0358 1.8e-4,0.0358 0.24422,1.23473 0.24422,1.23472 0.21738,0.88194 0.21738,0.88195 0.12826,0.26458 0.12825,0.26458 0.40009,1.6757 0.40009,1.67569 0.31507,1.14653 0.31506,1.14653 0.45867,1.68466 0.45867,1.68465 v 0.38792 0.38791 h 0.17241 z m -12.74012,-13.05847 1.36702,-0.50988 2.29305,-0.73436 2.29306,-0.73436 2.55764,-0.8759 2.55764,-0.8759 2.73402,-0.88401 2.73403,-0.88402 1.14653,-0.33546 1.14653,-0.33547 1.5875,-0.42633 1.5875,-0.42633 2.20486,-0.70488 2.20486,-0.70488 0.46052,-0.17729 0.46052,-0.17729 -0.37233,-1.86543 -0.37232,-1.86542 -1.36941,-3.5e-4 -1.36941,-3.6e-4 -0.30628,-0.16075 -0.30629,-0.16075 -0.79375,-0.27975 -0.79375,-0.27975 -0.63278,-0.58256 -0.63277,-0.58256 -1.02421,-1.46166 -1.02421,-1.46166 -0.2221,-0.0852 -0.22209,-0.0852 -0.74987,0.38255 -0.74986,0.38255 -1.69258,0.61433 -1.69259,0.61433 -1.23472,0.40655 -1.23472,0.40654 -1.5875,0.47561 -1.5875,0.47561 -0.88195,0.24996 -0.88194,0.24997 -1.85208,0.51782 -1.85209,0.51783 -2.46944,0.63704 -2.46944,0.63703 -0.93185,0.29027 -0.93185,0.29027 0.10619,0.27463 0.1062,0.27464 0.1663,0.88195 0.1663,0.88194 0.39273,1.14653 0.39272,1.14653 0.0186,0.17639 0.0186,0.17638 0.21814,0.52917 0.21815,0.52917 0.26075,0.70555 0.26075,0.70556 0.60445,1.76389 0.60446,1.76389 0.002,0.0316 0.002,0.0316 1.36702,-0.50988 z m 5.79571,-14.81098 h 0.2504 l 0.30629,-0.16869 0.30628,-0.1687 1.62069,-0.44866 1.6207,-0.44867 h 0.27928 0.27929 l 1.6278,-0.63461 1.6278,-0.63461 0.0435,-0.0409 0.0435,-0.041 -0.28116,-0.95604 -0.28116,-0.95603 -0.27216,-0.30583 -0.27217,-0.30583 -0.46031,0.10617 -0.46031,0.10616 -2.02848,0.78401 -2.02847,0.78401 -0.70555,0.29044 -0.70556,0.29044 -0.66146,0.40624 -0.66146,0.40625 v 0.14276 0.14275 l 0.28117,0.82517 0.28116,0.82517 z"
       id="path1456" /></g></svg>
