<?xml version="1.0" encoding="UTF-8" standalone="no"?>
<!-- Created with Inkscape (http://www.inkscape.org/) -->

<svg
   width="146.13161mm"
   height="136.16502mm"
   viewBox="0 0 146.13161 136.16502"
   version="1.1"
   id="svg692"
   inkscape:version="1.2.1 (9c6d41e, 2022-07-14)"
   sodipodi:docname="mem_left.svg"
   xmlns:inkscape="http://www.inkscape.org/namespaces/inkscape"
   xmlns:sodipodi="http://sodipodi.sourceforge.net/DTD/sodipodi-0.dtd"
   xmlns="http://www.w3.org/2000/svg"
   xmlns:svg="http://www.w3.org/2000/svg">
  <sodipodi:namedview
     id="namedview694"
     pagecolor="#505050"
     bordercolor="#ffffff"
     borderopacity="1"
     inkscape:showpageshadow="0"
     inkscape:pageopacity="0"
     inkscape:pagecheckerboard="1"
     inkscape:deskcolor="#505050"
     inkscape:document-units="mm"
     showgrid="false"
     inkscape:zoom="0.2102413"
     inkscape:cx="-404.29734"
     inkscape:cy="256.84772"
     inkscape:window-width="1440"
     inkscape:window-height="456"
     inkscape:window-x="0"
     inkscape:window-y="0"
     inkscape:window-maximized="0"
     inkscape:current-layer="layer1" />
  <defs
     id="defs689" />
  <g
     inkscape:label="Calque 1"
     inkscape:groupmode="layer"
     id="layer1"
     transform="translate(-31.38759,-80.417717)">
    <path
       style="fill:#000000;stroke-width:1"
       d="m 39.30599,216.44968 c -0.23523,-0.16107 -0.46276,-0.74683 -0.29028,-0.7473 0.0697,-1.8e-4 0.15169,-0.25816 0.18216,-0.57327 0.0305,-0.3151 0.0736,-0.73166 0.0959,-0.92569 0.0223,-0.19403 -0.009,-0.55121 -0.0696,-0.79375 -0.0605,-0.24253 -0.0485,-0.71678 0.0267,-1.05388 0.0926,-0.41502 0.0692,-0.65468 -0.0726,-0.7423 -0.16036,-0.0991 -0.1581,-0.18068 0.01,-0.34842 0.28308,-0.28307 0.29663,-1.09919 0.0154,-0.92536 -0.12767,0.0789 -0.15569,0.0483 -0.0751,-0.0821 0.101,-0.16343 0.13812,-2.15656 0.0801,-4.30039 -0.0279,-1.03028 0.23995,-9.93413 0.30185,-10.03429 0.18472,-0.29888 0.0853,-4.24666 -0.113,-4.48555 -0.16013,-0.19294 -0.15023,-0.27006 0.0442,-0.34468 0.21209,-0.0814 0.25387,-1.66932 0.27245,-10.35487 0.013,-6.06975 -0.0454,-10.38451 -0.14292,-10.56678 -0.10808,-0.20193 -0.0986,-0.34897 0.0274,-0.42685 0.10572,-0.0654 0.1414,-0.28844 0.0793,-0.49578 -0.0621,-0.20733 -0.14887,-2.08353 -0.19277,-4.16933 -0.1212,-5.75901 -0.20095,-8.13488 -0.36708,-10.93611 -0.0834,-1.4067 -0.13678,-3.90701 -0.11857,-5.55625 0.0907,-8.21682 0.0785,-13.36399 -0.039,-16.40417 -0.0712,-1.84326 -0.1223,-3.54982 -0.11349,-3.79236 0.009,-0.24253 -0.0233,-0.55455 -0.0713,-0.69337 -0.14834,-0.42876 -0.2047,-3.43629 -0.0696,-3.71635 0.0702,-0.14552 0.17387,-1.45521 0.23042,-2.91042 0.0989,-2.54508 0.16308,-3.52495 0.38131,-5.82083 0.0553,-0.58208 0.12023,-1.65365 0.14423,-2.38125 0.024,-0.72761 0.0897,-1.40229 0.14588,-1.49931 0.0562,-0.097 0.0789,-0.4542 0.0503,-0.79375 -0.0285,-0.33955 -0.0937,-2.70438 -0.14483,-5.25519 -0.11064,-5.521705 -0.24917,-6.808637 -0.7137,-6.63038 -0.49877,0.191396 -0.63635,1.44624 -0.90667,8.2696 -0.13225,3.33818 -0.10589,15.06203 0.0344,15.28898 0.13133,0.2125 0.12828,16.52552 -0.004,21.04714 -0.0539,1.84326 -0.14299,4.74045 -0.19798,6.43819 -0.19874,6.13643 -0.30244,15.17084 -0.33304,29.01597 -0.0171,7.76111 -0.0795,18.39737 -0.13867,23.63612 -0.0591,5.23875 -0.0551,10.19722 0.009,11.01882 0.10976,1.4074 0.0919,1.52303 -0.3084,1.99879 -0.37106,0.44097 -0.50479,0.48998 -1.05531,0.3867 -0.89957,-0.16876 -1.31309,-0.41889 -1.11185,-0.67252 0.0973,-0.1226 0.1562,-3.10871 0.14333,-7.26374 -0.012,-3.88055 0.0333,-7.75674 0.10079,-8.61374 0.13108,-1.66506 -0.0374,-2.5146 -0.46603,-2.35011 -0.59872,0.22975 -2.58174,-0.88587 -3.03308,-1.70636 -0.69036,-1.25501 1.22199,-3.52488 2.9496,-3.50104 l 0.69215,0.01 0.0411,-2.14971 c 0.0226,-1.18234 0.0645,-2.86409 0.0931,-3.73721 0.0286,-0.87313 0.0426,-2.81781 0.0311,-4.32153 -0.07,-9.15472 -0.0646,-18.12956 0.0112,-18.43264 0.0786,-0.31427 0.0135,-0.34617 -0.59626,-0.29226 -1.17437,0.10383 -2.71943,-0.79011 -3.02396,-1.7496 -0.0659,-0.20765 -0.0665,-0.80432 -0.001,-1.32595 0.10012,-0.80138 0.21529,-1.02819 0.74284,-1.46305 0.66992,-0.55221 1.33645,-0.75525 2.40001,-0.73109 l 0.66783,0.0152 -0.0453,-2.34188 c -0.0427,-2.20848 0.0851,-6.37869 0.32307,-10.54397 0.0582,-1.01864 0.11585,-4.63021 0.12811,-8.02569 l 0.0223,-6.17362 h -1.4993 c -1.65068,0 -2.49567,-0.27177 -2.83888,-0.91306 -0.24818,-0.46373 -0.11583,-1.94933 0.22724,-2.55061 0.50514,-0.88535 1.8518,-1.60424 3.4557,-1.84476 l 0.78971,-0.11842 -0.13803,-1.6963 c -0.21028,-2.58424 -0.0905,-13.84275 0.18787,-17.65949 0.0389,-0.53357 0.11642,-1.64482 0.17223,-2.46944 0.10796,-1.59515 0.18832,-2.28872 0.34741,-2.99861 0.0544,-0.242537 0.10442,-0.818239 0.11125,-1.279341 0.0148,-0.999504 0.31655,-1.300691 1.81247,-1.809169 0.97541,-0.331553 1.00942,-0.331732 1.60975,-0.0084 0.3373,0.181651 0.61328,0.465621 0.61328,0.631044 0,0.165423 0.1609,0.947259 0.35756,1.737416 0.28154,1.13122 0.35701,2.00824 0.35499,4.12527 -10e-4,1.47875 0.0608,3.67343 0.13832,4.87708 0.0775,1.20365 0.0794,2.6324 0.004,3.175 -0.11319,0.81691 -0.33539,3.77832 -0.35858,4.77891 -0.003,0.14552 -0.12793,1.89177 -0.2768,3.88056 -0.28363,3.78912 -0.30671,4.38151 -0.17578,4.51243 0.12926,0.12926 9.83386,0.26803 9.83386,0.14062 0,-0.0639 -0.12342,-0.20649 -0.27428,-0.3168 -0.38016,-0.27798 -0.63808,-1.46461 -0.34296,-1.57786 0.17584,-0.0675 0.20946,-1.65585 0.15981,-7.55143 -0.0458,-5.4437 7.1e-4,-8.0115 0.17178,-9.47993 0.35499,-3.04681 0.59615,-2.73304 -2.18379,-2.84123 -1.30969,-0.051 -2.52016,-0.15867 -2.68993,-0.23935 -0.44883,-0.21329 -0.37855,-0.91033 0.13229,-1.31216 0.24253,-0.19078 0.44097,-0.3983 0.44097,-0.46115 0,-0.0628 0.16564,-0.28956 0.36809,-0.50378 0.20245,-0.21423 0.61917,-0.696058 0.92605,-1.07074 1.73693,-2.120739 4.95896,-5.418878 8.12274,-8.314595 2.1214,-1.941657 5.18648,-5.048283 5.91962,-5.999843 1.0887,-1.413062 1.78135,-2.294508 1.93846,-2.466824 0.44572,-0.48886 1.4308,-1.322916 1.56246,-1.322916 0.0824,0 0.46153,-0.235917 0.84262,-0.52426 0.38108,-0.288343 0.82805,-0.526468 0.99326,-0.529167 0.50811,-0.0083 1.19892,0.38905 1.19892,0.689612 0,0.156813 0.32032,0.71954 0.71182,1.250506 0.86748,1.176503 5.8072,6.344082 6.0683,6.348222 0.10298,0.0016 0.49675,0.317024 0.87504,0.700869 0.37829,0.383845 0.93392,0.870844 1.23473,1.082222 0.4635,0.325707 5.00856,5.313239 6.08793,6.680607 0.46108,0.584109 1.87234,2.247193 2.46971,2.910417 0.26215,0.29104 0.76959,0.97387 1.12764,1.5174 0.59734,0.90678 0.63458,1.03533 0.45177,1.55974 -0.19068,0.54698 -0.23042,0.56709 -0.92593,0.46856 -0.63207,-0.0896 -1.24469,-0.10076 -2.4339,-0.0445 -0.16284,0.008 -0.28409,0.0565 -0.26945,0.10849 0.0146,0.052 -0.11191,0.30162 -0.28122,0.55477 -0.31421,0.46978 -0.32685,1.69667 -0.0525,5.09597 0.23075,2.85922 0.43874,6.8927 0.4093,7.93751 -0.0178,0.63059 0.027,1.78152 0.0995,2.55763 0.0725,0.77612 0.17792,2.24455 0.23434,3.2632 0.0564,1.01864 0.1348,1.88548 0.17419,1.9263 0.0637,0.066 4.90946,0.31989 11.67949,0.61193 l 2.3489,0.10133 -0.11077,-1.98124 c -0.0609,-1.08969 -0.18138,-2.73531 -0.26768,-3.65694 -0.0863,-0.92163 -0.20414,-2.5885 -0.26184,-3.70416 -0.0577,-1.11566 -0.13933,-2.66348 -0.18139,-3.43959 -0.0421,-0.77611 -0.12077,-2.76048 -0.17491,-4.40972 -0.0541,-1.64924 -0.18669,-3.29369 -0.29456,-3.65435 -0.13747,-0.45959 -0.14067,-0.7234 -0.0107,-0.88194 0.10783,-0.13155 0.19331,-1.25821 0.20425,-2.69227 0.016,-2.102423 0.0646,-2.511832 0.32919,-2.776445 0.27833,-0.278329 2.29792,-0.722674 4.00811,-0.881855 0.49264,-0.04585 0.53724,-0.110137 0.64601,-0.931197 0.0643,-0.48507 0.12379,-1.467792 0.13229,-2.183829 l 0.0155,-1.301886 0.92604,-0.909261 c 1.09214,-1.072351 1.61243,-1.275684 3.84139,-1.501237 1.8873,-0.190982 6.66317,-0.08433 7.31461,0.163346 0.5127,0.194926 1.32352,1.697288 1.32352,2.452326 0,0.287952 0.0861,0.746997 0.19142,1.0201 0.10529,0.273104 0.21055,1.012489 0.23391,1.64308 l 0.0425,1.146528 5.27825,-0.03219 c 2.90303,-0.0177 5.96166,-0.03755 6.79694,-0.0441 l 1.51869,-0.01191 0.11803,-2.866319 c 0.13602,-3.303558 0.31679,-5.162453 0.52203,-5.36819 0.6338,-0.635342 12.72348,-0.380095 22.16352,0.467937 1.11566,0.100222 3.2191,0.230673 4.67431,0.28989 1.92317,0.07826 2.71781,0.17599 2.90935,0.357819 0.17992,0.170806 0.28348,0.710089 0.32647,1.700135 0.0406,0.934651 0.15336,1.55191 0.3173,1.736781 0.40747,0.459509 0.51949,1.536498 0.17362,1.669221 -0.32741,0.125639 -0.37087,0.753036 -0.11416,1.648127 0.0952,0.331765 0.21485,1.62355 0.266,2.870632 0.0512,1.247087 0.16915,2.804387 0.26223,3.460687 0.0931,0.65629 0.21238,3.79136 0.26512,6.96682 0.0527,3.17546 0.16571,6.46587 0.25104,7.31203 0.0853,0.84615 0.1702,3.0069 0.18859,4.80165 0.0184,1.79476 0.0878,3.5807 0.15422,3.96875 l 0.12079,0.70556 1.84944,0.04 c 1.01719,0.022 3.42865,0.12185 5.3588,0.2219 2.99684,0.15534 3.54212,0.2267 3.73368,0.48867 0.14722,0.20134 0.16576,0.37731 0.0539,0.51205 -0.11061,0.13328 -0.10549,0.24538 0.0146,0.31959 0.71397,0.44126 -0.55152,0.8681 -2.14967,0.72508 -2.29234,-0.20515 -9.4814,-0.29748 -9.78834,-0.12571 -0.17079,0.0956 -0.46127,0.10083 -0.69352,0.0125 -0.41635,-0.1583 -4.20511,-0.35863 -7.9974,-0.42287 -1.21268,-0.0205 -5.14174,-0.093 -8.73125,-0.16094 -3.58952,-0.068 -10.85233,-0.16287 -16.13959,-0.21088 -5.28725,-0.048 -10.2085,-0.12449 -10.93611,-0.16997 -6.64538,-0.41534 -17.17861,-0.57594 -17.37088,-0.26484 -0.16667,0.26968 -0.9271,0.2205 -1.40202,-0.0907 -0.28896,-0.18933 -0.78549,-0.26258 -1.6254,-0.23977 -0.66513,0.0181 -2.16184,-0.0144 -3.326,-0.0722 -1.16417,-0.0578 -3.50573,-0.15328 -5.20347,-0.2122 -1.69775,-0.0589 -3.23561,-0.15037 -3.41748,-0.2032 -0.39814,-0.11566 -13.55111,-0.21417 -23.9228,-0.17917 -4.12309,0.0139 -10.15559,0.0269 -13.40556,0.029 l -5.90902,0.004 -0.0515,0.88194 -0.0515,0.88194 1.10987,0.0494 c 0.61042,0.0272 4.00705,0.0839 7.54806,0.12606 3.541,0.0421 8.81944,0.13163 11.72986,0.19889 6.66638,0.15405 5.64241,0.16111 12.87639,-0.0887 8.52442,-0.29442 20.31757,-0.25431 22.42244,0.0763 0.73424,0.11531 4.26914,0.21413 12.14978,0.33964 3.58951,0.0572 7.1217,0.13902 7.8493,0.18189 0.72761,0.0429 3.14854,0.12036 5.37986,0.17218 2.23132,0.0518 5.04914,0.13404 6.26181,0.18272 1.21267,0.0487 4.14955,0.1667 6.52639,0.26229 2.37684,0.0956 4.83746,0.21251 5.46805,0.25983 1.1374,0.0854 3.12243,0.17051 8.55486,0.36697 1.55223,0.0561 7.42598,0.10746 13.05278,0.11405 5.66674,0.007 10.36826,0.0826 10.53924,0.17029 0.31416,0.1611 0.4335,0.67505 0.15675,0.67505 -0.0836,0 -0.11577,0.18913 -0.0716,0.42029 0.0442,0.23116 -0.008,0.47479 -0.11559,0.54139 -0.10776,0.0666 -4.06414,0.10639 -8.79195,0.0884 -13.71743,-0.0521 -17.29207,-0.13806 -25.83009,-0.62079 -4.5081,-0.25488 -6.27938,-0.32397 -13.19302,-0.51459 -1.98878,-0.0548 -4.56847,-0.13926 -5.73264,-0.18761 -2.3874,-0.0992 -7.28721,-0.21402 -14.81666,-0.34733 -2.81341,-0.0498 -5.78997,-0.13307 -6.61459,-0.185 -4.78507,-0.30138 -8.06683,-0.37447 -14.46388,-0.32212 -3.92907,0.0322 -7.36042,0.0934 -7.62524,0.136 -1.09147,0.17579 -10.44041,0.24366 -15.04074,0.1092 -2.71638,-0.0794 -7.7567,-0.19011 -11.20069,-0.24605 -3.44399,-0.0559 -6.66789,-0.1261 -7.16422,-0.15594 l -0.90241,-0.0542 0.0836,0.80148 c 0.10655,1.0214 0.14505,9.62924 0.0667,14.91259 -0.05,3.36908 0.10669,11.73017 0.22208,11.85331 0.10416,0.11116 10.40393,0.25981 11.07099,0.15978 l 0.80378,-0.12053 -0.0177,-6.06487 -0.0177,-6.06486 -0.44097,-0.0789 c -1.46463,-0.26209 -3.49387,-0.9369 -3.86171,-1.28419 -0.42102,-0.3975 -0.42161,-0.40361 -0.22256,-2.30956 0.10977,-1.05106 0.23833,-3.02227 0.28569,-4.38046 0.0876,-2.5115 0.28856,-3.66216 0.72575,-4.15511 0.13393,-0.15099 0.21174,-0.43945 0.17293,-0.64101 -0.0549,-0.28477 0.0817,-0.43514 0.61262,-0.67454 0.62032,-0.27973 1.2282,-0.29977 6.60437,-0.21773 l 5.92117,0.0904 0.69702,0.46127 c 1.02647,0.67929 1.46968,1.76459 1.44943,3.54927 -0.009,0.77611 0.0572,1.74104 0.14669,2.14429 0.10356,0.46664 0.0969,1.08916 -0.0183,1.71237 -0.0996,0.53855 -0.20018,1.75643 -0.22361,2.7064 -0.0234,0.94997 -0.10399,1.82628 -0.17902,1.94736 -0.44327,0.71531 -3.45738,1.54652 -5.86257,1.61675 -0.76092,0.0222 -1.43877,0.0746 -1.50633,0.11632 -0.0676,0.0418 -0.13303,0.84968 -0.14548,1.79538 -0.0717,5.44667 -0.16307,8.49691 -0.27138,9.06233 l -0.12262,0.64009 4.82222,-0.0504 c 2.65222,-0.0277 5.67035,-0.0578 6.70696,-0.0668 l 1.88475,-0.0164 -0.0756,-1.10243 c -0.0416,-0.60634 -0.0712,-2.92806 -0.0658,-5.15938 0.005,-2.23132 0.004,-6.47788 -0.003,-9.4368 l -0.0126,-5.37986 -1.27718,-0.55844 c -2.01857,-0.88259 -2.33186,-1.40935 -1.33126,-2.2383 0.88049,-0.72943 2.35929,-1.22349 3.67005,-1.22612 0.63059,-0.001 3.01184,0.0994 5.29167,0.22363 2.51914,0.13731 5.52896,0.18195 7.67291,0.11379 1.94028,-0.0617 5.86934,-0.14822 8.73125,-0.19232 5.54764,-0.0855 10.03783,-0.23629 10.75973,-0.3614 0.24253,-0.042 1.27441,-0.12865 2.29305,-0.19249 1.01865,-0.0638 2.05052,-0.12853 2.29306,-0.14375 0.60168,-0.0378 1.39858,0.24133 1.781,0.62375 0.35757,0.35757 0.86483,1.27772 0.86483,1.56878 0,0.25604 -0.7149,1.26393 -1.10243,1.55426 -0.16977,0.12719 -0.30868,0.33258 -0.30868,0.45643 0,0.12385 -0.0992,0.22927 -0.22049,0.23426 -0.12126,0.005 -0.5734,0.0926 -1.00474,0.19481 -0.43134,0.10216 -0.84573,0.14774 -0.92087,0.10131 -0.28406,-0.17556 -0.36606,0.9307 -0.26077,3.51782 0.12088,2.97009 0.24325,4.69988 0.38882,5.4962 0.0532,0.29104 0.1318,2.19604 0.17468,4.23333 0.0429,2.03729 0.12633,4.60548 0.18547,5.70708 l 0.10752,2.0029 6.28734,-0.11556 c 3.45804,-0.0636 6.5887,-0.14372 6.95702,-0.17813 0.36832,-0.0344 4.49582,-0.11207 9.17222,-0.17258 4.6764,-0.0605 10.36786,-0.14859 12.64769,-0.19575 7.19767,-0.14888 24.80213,-0.0964 28.81957,0.0859 4.33606,0.19678 4.63475,0.28614 4.4187,1.32209 -0.20659,0.99057 -0.25127,1.0009 -3.34645,0.77395 -4.23522,-0.31053 -40.72871,-0.22364 -49.03002,0.11674 -2.10862,0.0865 -7.84125,0.22774 -14.72847,0.363 -2.76489,0.0543 -11.81364,0.0878 -20.10833,0.0744 -18.07225,-0.0291 -16.33399,-0.0486 -17.22151,0.19361 -0.56622,0.15456 -0.8224,0.14853 -1.14652,-0.027 -0.69669,-0.37722 -14.99631,-0.18925 -16.10511,0.2117 -0.47763,0.17272 -0.71178,0.17488 -1.07384,0.01 -0.3013,-0.13728 -1.98317,-0.23973 -4.81531,-0.29331 -2.39376,-0.0453 -5.00255,-0.10947 -5.79731,-0.14263 l -1.44502,-0.0603 -0.0978,0.63 c -0.21408,1.37887 -0.31026,1.33262 2.82828,1.36013 2.14128,0.0188 12.68479,0.0397 17.79846,0.0354 0.29105,-1.7e-4 1.83886,0.0566 3.43959,0.12623 5.68553,0.24745 22.1198,0.1352 27.95764,-0.19097 1.63543,-0.0914 17.7933,-0.0937 18.69722,-0.003 0.38805,0.0391 3.46042,0.12182 6.82747,0.18389 3.36706,0.0621 6.81987,0.14535 7.67292,0.18506 1.99956,0.0931 10.00012,0.22559 21.20629,0.35128 4.89257,0.0549 8.94792,0.13211 9.01188,0.17165 0.064,0.0395 1.61721,0.0875 3.45165,0.10653 5.76012,0.0598 15.10037,0.72804 15.70384,1.12345 0.33095,0.21685 0.37336,0.36501 0.28913,1.01014 -0.0543,0.41582 -0.18602,0.81936 -0.29275,0.89676 -0.10672,0.0774 -0.59092,0.0936 -1.07599,0.0361 -0.48507,-0.0576 -1.31851,-0.14417 -1.85208,-0.19247 -0.53358,-0.0483 -1.4067,-0.1611 -1.94028,-0.25066 -0.53358,-0.0896 -2.00201,-0.20713 -3.26319,-0.26126 -2.92292,-0.12545 -4.99484,-0.25679 -5.55625,-0.35222 -0.51776,-0.088 -11.96861,-0.24951 -25.66459,-0.36198 -5.33576,-0.0438 -10.37607,-0.1163 -11.20069,-0.16108 -1.84169,-0.1 -6.96513,-0.24795 -12.66794,-0.36582 -3.05463,-0.0631 -4.25547,-0.0337 -4.17139,0.10239 0.0649,0.10507 0.22671,0.14935 0.35951,0.0984 0.21458,-0.0823 1.26868,0.26248 2.5451,0.83257 0.24253,0.10833 0.7077,0.43715 1.0337,0.73073 1.38465,1.24689 1.31205,1.11603 1.19092,2.14661 -0.10538,0.89662 -0.0866,0.96166 0.32313,1.11742 0.23926,0.091 0.68237,0.13409 0.98468,0.0958 0.30232,-0.0383 1.31792,0.0417 2.25688,0.17767 2.39306,0.34656 3.25374,0.4559 3.5593,0.45217 0.48542,-0.006 2.19809,0.37584 2.73403,0.60944 0.29104,0.12685 1.06494,0.32391 1.71979,0.4379 0.65484,0.11398 1.19062,0.27847 1.19062,0.36553 0,0.0871 0.1786,0.16109 0.39688,0.16453 0.21828,0.003 0.59531,0.11969 0.83784,0.25833 0.24254,0.13865 0.65552,0.2549 0.91775,0.25833 0.45262,0.006 0.95204,0.16435 1.87373,0.59433 0.22562,0.10526 0.73031,0.17862 1.12154,0.16301 0.65333,-0.026 2.86737,-0.57241 3.7969,-0.93696 0.21437,-0.0841 0.80968,-0.19947 1.32291,-0.25643 1.06953,-0.11871 2.24118,-0.42537 2.56805,-0.67214 0.15128,-0.11421 0.32725,-0.0753 0.54306,0.11996 0.17559,0.15891 0.52058,0.28893 0.76665,0.28893 0.41241,0 1.29075,0.53175 1.59245,0.96406 0.49044,0.70279 1.09915,3.73543 1.2758,6.35608 0.0458,0.6791 0.12999,1.47285 0.18715,1.76389 0.0572,0.29104 0.13322,1.0451 0.16902,1.67569 0.26662,4.69586 0.35077,5.73077 0.6239,7.67292 0.0955,0.6791 0.21342,1.67128 0.26204,2.20486 0.21896,2.40312 0.28388,2.74225 0.56533,2.95305 0.20898,0.15652 1.30261,0.22215 3.83259,0.22997 1.94709,0.006 3.69891,0.005 3.89294,-0.002 1.3738,-0.052 10.40842,0.029 10.51395,0.0942 0.0726,0.0449 1.6658,0.0732 3.54032,0.063 5.41449,-0.0297 7.79141,0.0342 8.13609,0.21866 0.39688,0.2124 0.32769,0.66269 -0.14175,0.92257 -0.19403,0.10742 -0.41719,0.29619 -0.49591,0.41949 -0.0787,0.12331 -0.22046,0.17641 -0.31496,0.118 -0.24823,-0.15341 -13.2783,-0.31763 -24.85371,-0.31323 -11.9276,0.005 -14.08013,0.0428 -14.20973,0.25249 -0.13013,0.21055 -1.26297,0.20597 -1.39375,-0.006 -0.0561,-0.0908 -0.23942,-0.16843 -0.40729,-0.17243 -0.16786,-0.004 -1.49583,-0.0469 -2.95104,-0.0954 -3.63171,-0.12097 -5.80203,-0.11648 -12.25903,0.0254 -7.27292,0.15975 -12.85891,0.15782 -17.14026,-0.006 -3.06845,-0.11736 -3.48817,-0.10046 -3.62607,0.14594 -0.26723,0.47752 -1.09349,0.5123 -1.48363,0.0625 -0.46056,-0.53102 -1.97255,-0.63465 -11.08753,-0.75992 -15.70618,-0.21586 -17.68526,-0.26492 -21.16667,-0.52465 -5.765,-0.43011 -9.13985,-0.63759 -11.55347,-0.7103 -0.87313,-0.0263 -1.94469,-0.0975 -2.38125,-0.15818 -0.43657,-0.0607 -1.30969,-0.1497 -1.94028,-0.19778 -0.63059,-0.0481 -1.62278,-0.14934 -2.20486,-0.22501 -0.58208,-0.0757 -1.77058,-0.13573 -2.6411,-0.13348 l -1.58277,0.004 0.0554,0.79375 c 0.0305,0.43656 0.0812,0.82019 0.11282,0.85251 0.26475,0.2708 4.22254,0.40948 13.31609,0.46659 10.23948,0.0643 12.4666,0.12132 14.99305,0.38377 0.63059,0.0655 1.32836,0.0999 1.5506,0.0765 0.22224,-0.0234 1.25411,0.0402 2.29305,0.1413 1.03895,0.10116 2.64305,0.22978 3.56468,0.28583 0.92164,0.0561 2.18683,0.13397 2.81155,0.17315 1.80609,0.11326 9.06116,0.27697 16.23845,0.36642 3.63802,0.0453 7.28927,0.11787 8.11389,0.16118 0.82462,0.0433 2.92806,0.12594 4.67431,0.18362 1.74625,0.0577 3.53218,0.13582 3.96875,0.17362 0.43656,0.0378 1.905,0.10892 3.26319,0.15803 1.3582,0.0491 2.46945,0.10031 2.46945,0.11377 0,0.24953 16.53514,0.45815 18.49406,0.23333 0.71957,-0.0826 1.07076,-0.055 1.16116,0.0913 0.0937,0.15155 0.25938,0.16035 0.59763,0.0317 0.25741,-0.0979 0.72708,-0.18311 1.0437,-0.18943 0.31662,-0.006 1.05192,-0.0304 1.634,-0.0535 0.58208,-0.0231 1.13771,0.0114 1.23472,0.0767 0.097,0.0653 0.59286,0.0521 1.10188,-0.0293 0.50901,-0.0814 3.64432,-0.13895 6.96736,-0.12795 3.32303,0.011 9.01844,-7e-4 12.65646,-0.0262 3.63802,-0.0254 7.01145,-0.001 7.49652,0.0541 2.17734,0.24759 2.73403,0.27581 2.73403,0.13861 0,-0.0808 0.2389,-0.11178 0.5309,-0.0689 0.76364,0.11208 0.90349,0.78202 0.28323,1.35686 -0.25374,0.23516 -0.46135,0.51466 -0.46135,0.62113 0,0.1882 -1.43193,0.12252 -2.73403,-0.12541 -0.29104,-0.0554 -4.28879,-0.12132 -8.88389,-0.14645 -4.5951,-0.0251 -8.78075,-0.0989 -9.30144,-0.16398 -0.5207,-0.0651 -1.04579,-0.0571 -1.16688,0.0178 -0.20121,0.12435 -4.36516,0.21889 -9.22279,0.20938 -2.63168,-0.005 -3.01818,0.002 -5.55625,0.10943 -3.31825,0.13985 -11.59136,0.15616 -14.2875,0.0282 -1.30968,-0.0622 -3.45281,-0.15023 -4.7625,-0.19568 -3.04814,-0.10577 -8.66879,-0.43608 -8.93774,-0.52525 -0.11357,-0.0377 -4.4792,-0.11475 -9.70139,-0.17132 -5.2222,-0.0566 -10.84428,-0.14659 -12.49351,-0.20006 -1.64924,-0.0535 -4.25159,-0.12808 -5.783,-0.16581 -3.29908,-0.0813 -10.29924,-0.55514 -10.55736,-0.71467 -0.062,-0.0383 -1.7289,-0.10926 -3.70424,-0.15765 -1.97533,-0.0484 -4.06776,-0.13245 -4.64985,-0.18678 -0.58208,-0.0543 -4.59052,-0.13396 -8.90763,-0.17695 -4.31712,-0.043 -8.12712,-0.10955 -8.46667,-0.14791 -0.33955,-0.0384 -1.35158,-0.12431 -2.24896,-0.191 l -1.6316,-0.12126 -0.027,1.73303 c -0.0149,0.95317 -0.0503,5.10647 -0.0787,9.22956 -0.0284,4.12309 -0.0559,7.55402 -0.0612,7.62429 -0.014,0.18834 -0.99984,0.66642 -1.36775,0.66329 -0.17459,-0.001 -0.4026,-0.061 -0.50669,-0.13229 z M 35.1503,194.36947 c -0.006,-1.23249 -0.36144,-1.74535 -0.79702,-1.14967 -0.1392,0.19037 -0.32508,0.34612 -0.41306,0.34612 -0.088,0 -0.25478,0.0948 -0.37065,0.21067 -0.28925,0.28925 0.0865,1.18231 0.60246,1.43174 0.84524,0.40864 0.98367,0.28994 0.97827,-0.83886 z m 79.48661,0.44882 c 0.97013,-0.0501 2.44846,-0.0944 3.28516,-0.0984 l 1.52127,-0.007 -0.31891,-0.66146 c -0.19431,-0.40304 -0.34446,-1.19353 -0.38432,-2.02335 -0.036,-0.74904 -0.12064,-1.41712 -0.18813,-1.48461 -0.0675,-0.0675 -0.12299,-0.68495 -0.12332,-1.37213 -3.6e-4,-0.68718 -0.10945,-2.47974 -0.24248,-3.98345 -0.13303,-1.50372 -0.22038,-3.1309 -0.19413,-3.61597 0.0263,-0.48507 0.056,-1.20937 0.0661,-1.60955 0.0169,-0.6693 0.0628,-0.73649 0.57277,-0.83849 0.83904,-0.16781 1.01259,0.0921 0.96458,1.44436 -0.0472,1.33064 0.14219,4.99024 0.43544,8.41201 0.35792,4.1765 0.36174,5.05948 0.0229,5.30722 -0.16562,0.1211 -0.26065,0.26067 -0.21118,0.31014 0.0495,0.0495 1.43627,0.11006 3.08176,0.13463 l 2.99181,0.0447 0.0302,-0.60128 c 0.0166,-0.3307 -0.12057,-1.43652 -0.3049,-2.45736 -0.34548,-1.91335 -0.42813,-2.52379 -1.05132,-7.76511 -0.58457,-4.91659 -0.63037,-6.10829 -0.25084,-6.52766 0.17496,-0.19333 0.4192,-0.35151 0.54276,-0.35151 0.54407,0 0.73063,0.52566 0.8564,2.41305 0.07,1.04966 0.24265,2.86098 0.38378,4.02514 0.14113,1.16417 0.33061,2.79136 0.42107,3.61598 0.34282,3.1251 0.71356,5.41947 1.10444,6.83507 0.15515,0.56185 0.29678,0.75198 0.56537,0.75894 0.1971,0.005 1.50011,0.048 2.89559,0.0954 l 2.53721,0.0861 -0.1042,-0.84502 c -0.0573,-0.46477 -0.15383,-1.79753 -0.21449,-2.96169 -0.0607,-1.16417 -0.18293,-2.35526 -0.27172,-2.64688 -0.16154,-0.53055 -0.79379,-6.6897 -0.95956,-9.34757 -0.30646,-4.91386 -0.27821,-4.69264 -0.5869,-4.59572 -0.48518,0.15234 -3.08567,0.80683 -3.51905,0.88567 -0.35368,0.0644 -2.14828,0.68672 -4.09282,1.4194 -0.33955,0.12794 -1.05392,0.36286 -1.5875,0.52205 -0.53357,0.15918 -1.30662,0.44364 -1.71787,0.63214 -0.41125,0.18849 -0.80812,0.34311 -0.88194,0.3436 -0.0738,5.3e-4 -1.60265,0.60005 -3.39741,1.33236 -1.79476,0.73231 -3.79898,1.50512 -4.45382,1.71735 -0.65484,0.21223 -1.19062,0.42871 -1.19062,0.48105 0,0.0523 0.22628,0.18059 0.50286,0.28499 0.48668,0.1837 0.50671,0.24025 0.62263,1.75846 0.18906,2.47602 0.78598,6.54806 1.33029,9.07489 0.18495,0.85859 -0.0418,1.4014 -0.58542,1.4014 -0.67562,0 -0.91536,-0.38898 -1.15948,-1.88128 -0.12434,-0.76005 -0.32926,-1.89785 -0.45539,-2.52844 -0.12612,-0.63059 -0.31814,-1.97997 -0.4267,-2.99861 -0.10857,-1.01865 -0.27411,-2.44015 -0.36788,-3.1589 -0.14725,-1.12873 -0.13043,-1.35106 0.12344,-1.63159 0.34024,-0.37596 0.27276,-0.39756 -0.41072,-0.13148 -0.49579,0.19301 -1.95073,0.59932 -2.73024,0.76245 -0.22668,0.0474 -0.80179,0.20898 -1.27803,0.35899 -0.47623,0.15001 -1.09246,0.27275 -1.3694,0.27275 -0.27694,0 -0.64136,0.0714 -0.80982,0.15869 -0.47605,0.24665 -3.03924,0.62384 -3.92226,0.57719 -0.43656,-0.0231 -1.07156,0.0793 -1.41111,0.22735 -1.03214,0.45019 -7.39539,0.69919 -9.33223,0.36518 l -0.77737,-0.13406 0.10891,1.82817 c 0.0599,1.0055 0.3096,2.85991 0.55487,4.12093 0.24528,1.26102 0.40455,2.42323 0.35394,2.58269 -0.0994,0.31319 -0.68175,0.53331 -1.0436,0.39445 -0.12302,-0.0472 -0.31008,-0.27547 -0.41569,-0.50726 -0.21221,-0.46574 -0.88909,-3.82752 -0.99433,-4.9384 -0.0368,-0.3884 -0.12145,-1.31021 -0.18813,-2.04847 -0.0667,-0.73826 -0.17248,-1.42022 -0.23512,-1.51547 -0.0626,-0.0952 -0.78857,-0.3496 -1.61319,-0.56524 -0.82462,-0.21563 -1.74943,-0.50601 -2.05513,-0.64529 -0.3057,-0.13928 -0.60336,-0.25324 -0.66146,-0.25324 -0.21657,0 -0.0993,5.45847 0.14819,6.90016 0.13961,0.81307 0.27851,2.04773 0.30868,2.74367 0.0646,1.49035 0.064,1.48998 2.34791,1.35947 0.77611,-0.0444 2.95893,0.009 4.8507,0.11869 1.89177,0.10964 3.95552,0.21188 4.58611,0.22722 l 1.14653,0.0279 -0.0367,-0.52917 c -0.0202,-0.29104 -0.11646,-1.52136 -0.21393,-2.73403 -0.0975,-1.21267 -0.18017,-2.96905 -0.18377,-3.90306 -0.007,-1.87716 0.1305,-2.16217 0.99701,-2.06281 l 0.49574,0.0568 0.2018,3.96875 c 0.23238,4.57005 0.37887,5.2859 1.08531,5.30365 0.26223,0.007 0.79428,0.0359 1.18233,0.0651 0.38806,0.0292 3.00744,0.11303 5.82084,0.18619 2.8134,0.0732 5.12829,0.14307 5.14419,0.15534 0.0516,0.0398 2.92284,-0.043 4.73359,-0.13642 z m -10.61107,-0.7602 c -0.62492,-1.5068 -1.06651,-3.58893 -1.40697,-6.63389 -0.33592,-3.00445 -0.2879,-3.3458 0.48235,-3.42897 0.71038,-0.0767 0.86553,0.17351 0.96573,1.55747 0.14359,1.98326 0.57745,4.84509 0.9781,6.45172 0.47363,1.89934 0.41316,2.42701 -0.28592,2.49465 -0.43582,0.0422 -0.56518,-0.0356 -0.73329,-0.44098 z m 37.40996,0.64854 c 0.0903,-0.0901 0.14848,-0.74077 0.12931,-1.44599 -0.16967,-6.24132 -0.40738,-10.92115 -0.62956,-12.39472 -0.28363,-1.8811 -0.39738,-2.93157 -0.56842,-5.24928 -0.059,-0.79942 -0.16025,-1.771 -0.225,-2.15905 l -0.11774,-0.70556 -1.05208,0.0503 c -1.43305,0.0686 -2.35895,0.22198 -2.47523,0.41012 -0.0533,0.0863 -0.44947,0.1569 -0.88031,0.1569 -0.43083,0 -0.78334,0.065 -0.78334,0.14451 0,0.0795 -0.39632,0.25242 -0.88072,0.38433 -0.80207,0.21841 -0.85721,0.26582 -0.61736,0.53084 0.19936,0.2203 0.26394,0.75912 0.26573,2.21741 0.003,2.58239 0.62222,9.91924 1.04806,12.42152 0.24249,1.42491 0.4718,3.68042 0.51432,5.05892 0.0192,0.62208 0.0848,0.7462 0.41963,0.79375 0.83908,0.11917 5.69677,-0.0585 5.85271,-0.21404 z m 1.94637,-1.89036 c -0.14733,-2.17786 -0.40447,-3.16189 -0.42637,-1.6316 -0.008,0.53358 -0.0806,1.07546 -0.16226,1.20419 -0.2721,0.42919 0.24424,2.32359 0.63332,2.32359 0.046,0 0.0258,-0.85328 -0.0447,-1.89618 z m -67.27609,0.8568 c -0.10259,-0.1917 -0.18653,-0.82153 -0.18653,-1.39963 0,-0.5781 -0.12194,-2.19066 -0.27097,-3.58347 -0.14903,-1.39281 -0.3105,-3.72301 -0.35881,-5.17822 -0.0483,-1.4552 -0.13122,-2.84427 -0.18423,-3.0868 -0.21132,-0.96679 -0.21993,-8.02178 -0.0101,-8.29028 0.39686,-0.50786 1.89889,-1.44255 2.15821,-1.34303 0.14378,0.0552 0.40096,-0.0368 0.57153,-0.20437 0.39678,-0.38982 1.5342,-0.92204 1.97051,-0.92204 0.18501,0 0.38231,-0.0743 0.43846,-0.16517 0.0561,-0.0908 0.23942,-0.16156 0.40728,-0.15716 0.16787,0.004 0.71001,-0.0757 1.20477,-0.17802 0.49476,-0.10232 1.07023,-0.1414 1.27882,-0.0869 0.33958,0.0888 0.37946,0.0278 0.3812,-0.58285 0.001,-0.37511 0.0517,-0.98332 0.11258,-1.35157 0.16237,-0.98255 0.36472,-1.05819 4.82437,-1.80344 2.11103,-0.35277 4.25242,-0.78119 4.41888,-0.88407 0.0701,-0.0433 0.67221,-0.12696 1.33798,-0.18584 4.58868,-0.40579 0.53376,-0.46358 -8.84367,-0.12603 -4.85822,0.17487 -13.27454,0.16573 -18.25625,-0.0198 -5.49715,-0.20476 -8.12631,-0.22559 -8.22568,-0.0652 -0.0431,0.0697 0.15515,0.37108 0.44065,0.66983 0.2855,0.29874 0.70533,0.81668 0.93296,1.15096 0.22763,0.33428 0.47341,0.60833 0.54617,0.60899 0.0728,7.1e-4 0.13229,0.0859 0.13229,0.18936 0,0.16308 0.59765,1.04719 1.14653,1.69606 1.93083,2.2826 2.91229,3.26169 4.83024,4.81856 0.0598,0.0485 0.21529,0.2776 0.34563,0.5091 0.20751,0.36855 0.19419,0.47826 -0.10711,0.88194 -0.31201,0.41805 -1.01123,0.65289 -2.27996,0.76576 -0.38717,0.0344 0.21422,0.88258 1.51543,2.13719 0.68861,0.66395 1.25202,1.23795 1.25202,1.27555 0,0.0376 0.50824,0.57661 1.12941,1.19779 1.19945,1.19945 1.51807,1.6568 1.51372,2.17281 -0.005,0.63426 -0.31188,0.84842 -1.26969,0.88709 -1.26073,0.0509 -1.55191,0.0911 -1.53812,0.21224 0.0192,0.16886 1.02489,1.44104 2.9428,3.72268 1.36931,1.62898 1.80799,2.27314 1.80799,2.65482 0,0.55807 -0.40428,0.86915 -1.12957,0.86915 -0.24596,0 -0.71982,0.15312 -1.05303,0.34027 -0.33321,0.18715 -0.64211,0.30399 -0.68646,0.25965 -0.0443,-0.0443 -0.29177,-3.5e-4 -0.54982,0.0978 -0.34352,0.1306 -0.64539,0.11162 -1.1269,-0.0708 -0.36173,-0.13708 -1.36028,-0.28071 -2.219,-0.31916 l -1.5613,-0.0699 0.0992,1.24813 c 0.0545,0.68648 0.10227,1.29918 0.10609,1.36156 0.0158,0.25838 0.76871,0.3558 3.44653,0.44599 1.55223,0.0523 2.84468,0.11578 2.87213,0.14111 0.0275,0.0253 1.36155,0.06 2.96466,0.077 2.85286,0.0303 2.91079,0.0236 2.72822,-0.31759 z m 4.80098,-1.29777 c -0.0526,-0.89738 -0.1746,-1.68227 -0.27113,-1.74419 -0.14161,-0.0908 -0.54466,-6.54006 -0.50147,-8.02401 0.007,-0.24963 -0.23709,-0.54523 -0.72905,-0.88194 -0.40698,-0.27855 -0.86381,-0.62552 -1.01517,-0.77105 -0.15135,-0.14552 -0.51818,-0.4669 -0.81517,-0.71419 -0.29698,-0.24728 -0.63171,-0.60447 -0.74382,-0.79375 -0.25177,-0.42502 -0.13063,2.64603 0.27168,6.88781 0.14722,1.55222 0.33014,3.53659 0.40649,4.40972 0.0763,0.87312 0.18626,1.85738 0.24425,2.18722 0.0603,0.34296 0.0208,0.70168 -0.0922,0.83785 -0.16367,0.19721 0.10637,0.23812 1.57179,0.23812 h 1.76942 z m -18.51676,0.52728 c -0.0508,-0.31426 -0.11702,-0.69044 -0.14721,-0.83596 -0.0302,-0.14553 -0.061,-0.39783 -0.0684,-0.56067 -0.0349,-0.76573 -0.40429,-0.85045 -3.70822,-0.85045 h -3.14035 l -0.10544,0.52724 c -0.058,0.28998 -0.0745,0.62733 -0.0368,0.74965 0.0378,0.12233 0.11731,0.44395 0.17677,0.7147 0.0594,0.27076 0.1653,0.45878 0.23522,0.41782 0.0699,-0.041 1.35743,0.0187 2.86115,0.13252 4.46175,0.3378 4.04057,0.36937 3.93325,-0.29485 z m -9.08246,-0.10571 c 0.15558,-0.0987 0.21299,-0.45613 0.17639,-1.0983 l -0.0543,-0.95202 -0.88194,-0.12622 c -0.48507,-0.0694 -2.20488,-0.15584 -3.82181,-0.19203 -2.38645,-0.0534 -3.02562,-0.12199 -3.39548,-0.36434 -0.2506,-0.16419 -0.45563,-0.38175 -0.45563,-0.48345 0,-0.10171 -0.11906,-0.30399 -0.26458,-0.44951 -0.14552,-0.14552 -0.26459,-0.38932 -0.26459,-0.54177 0,-0.35161 1.88844,-2.18015 4.12743,-3.99652 l 0.84183,-0.68292 -0.74755,-0.33469 c -0.41115,-0.18408 -0.88755,-0.29025 -1.05867,-0.23594 -0.17112,0.0543 -0.36218,0.0161 -0.42457,-0.0848 -0.0624,-0.10097 -0.25521,-0.18357 -0.42848,-0.18357 -0.46759,0 -0.95177,-0.61379 -0.81762,-1.03648 0.0622,-0.19592 1.40128,-1.38567 2.97578,-2.64389 1.57449,-1.25823 3.11698,-2.5919 3.42775,-2.96373 l 0.56504,-0.67604 -0.5704,-0.15025 c -0.31372,-0.0826 -0.96727,-0.25425 -1.45234,-0.38134 -0.48507,-0.1271 -1.21015,-0.3179 -1.61129,-0.42401 -0.97311,-0.2574 -1.1243,-0.77604 -0.44055,-1.51128 0.27197,-0.29245 0.72584,-0.90862 1.00858,-1.36926 0.28275,-0.46064 0.57362,-0.83767 0.64638,-0.83785 0.0728,-1.7e-4 0.1323,-0.11938 0.1323,-0.2649 0,-0.14552 0.0698,-0.26458 0.15519,-0.26458 0.0854,0 0.49848,-0.45641 0.91804,-1.01424 0.75953,-1.00982 1.91003,-2.40267 3.5588,-4.30843 0.47638,-0.55062 0.83952,-1.04719 0.80698,-1.10348 -0.0538,-0.0931 -2.735,-0.17617 -11.41231,-0.35356 l -3.06287,-0.0626 0.13879,5.31734 c 0.0763,2.92454 0.13555,5.55547 0.13159,5.84651 -0.0139,1.01757 -0.0157,4.2387 -0.003,4.85069 0.007,0.33955 -0.0413,3.28277 -0.10768,6.54049 l -0.12074,5.92314 1.89675,0.0498 c 2.02534,0.0532 2.69379,0.0901 4.58022,0.25262 0.65839,0.0567 1.95114,0.15283 2.87277,0.21355 0.92163,0.0607 1.70877,0.14172 1.74919,0.17998 0.11943,0.11306 0.43886,0.0748 0.68633,-0.0821 z m 16.01251,-3.95004 c 0.0969,-0.0969 -0.67023,-1.01871 -1.95567,-2.35014 -0.29104,-0.30145 -0.65598,-0.69951 -0.81098,-0.88457 -0.155,-0.18506 -0.76882,-0.7936 -1.36405,-1.3523 -1.7118,-1.60676 -1.67831,-2.49019 0.10184,-2.68656 2.25539,-0.24881 2.34212,0.048 -0.92205,-3.15522 -2.30652,-2.26343 -2.91378,-2.9562 -2.91378,-3.32404 0,-0.79922 0.85149,-1.37183 2.03995,-1.37183 0.73683,0 0.76404,-0.15795 0.10344,-0.60049 -0.27579,-0.18476 -0.64025,-0.54194 -0.80992,-0.79375 -0.16967,-0.25182 -0.55896,-0.64832 -0.86508,-0.88113 -0.30612,-0.23281 -0.99315,-1.01222 -1.52673,-1.73201 -0.53357,-0.71979 -1.04951,-1.40457 -1.14652,-1.52174 -0.36431,-0.43999 -0.97014,-1.33966 -0.97014,-1.44067 0,-0.0577 -0.22673,-0.3475 -0.50384,-0.64401 l -0.50384,-0.5391 -1.26005,1.2726 c -0.69303,0.69994 -1.26266,1.36356 -1.26585,1.47472 -0.003,0.11116 -0.32069,0.51748 -0.70556,0.90293 -0.38486,0.38545 -0.69975,0.75765 -0.69975,0.82712 0,0.11446 -0.68151,0.9706 -1.8553,2.33069 -0.24077,0.27898 -0.43776,0.60152 -0.43776,0.71675 0,0.11524 0.65485,0.3923 1.45521,0.61571 0.80037,0.2234 1.75814,0.49047 2.12839,0.59349 0.45202,0.12577 0.75785,0.35103 0.93088,0.68564 0.23739,0.45905 0.22689,0.54 -0.13309,1.0269 -0.21493,0.29072 -0.49026,0.52857 -0.61185,0.52857 -0.12158,0 -0.95994,0.73422 -1.86301,1.6316 -0.90307,0.89738 -2.13804,2.00855 -2.74437,2.46926 -0.60634,0.46071 -1.10244,0.91056 -1.10244,0.99965 0,0.0891 0.35719,0.29839 0.79375,0.46512 0.43657,0.16672 0.79375,0.37172 0.79375,0.45556 0,0.0838 0.18614,0.15242 0.41364,0.15242 0.2275,0 0.55668,0.15807 0.73151,0.35125 0.52443,0.57949 0.17379,1.39929 -0.83018,1.94098 -0.45036,0.24299 -1.03223,0.65853 -1.29305,0.92341 -0.26082,0.26489 -0.71759,0.66176 -1.01505,0.88195 -0.77684,0.57503 -1.77165,1.54503 -1.67928,1.63741 0.062,0.062 10.08444,0.21874 18.54732,0.29013 0.66262,0.006 1.39492,0.0611 1.62733,0.12342 0.51594,0.13829 1.97776,0.1247 2.12218,-0.0197 z m 26.35475,-5.87526 c 0.63059,-0.0537 2.33715,-0.28762 3.79236,-0.51982 1.45521,-0.2322 3.04271,-0.4755 3.52778,-0.54065 1.40282,-0.18844 7.72433,-1.87935 8.81944,-2.35907 0.19403,-0.085 1.42434,-0.57135 2.73403,-1.08078 1.30969,-0.50944 2.77813,-1.10195 3.2632,-1.31669 0.48506,-0.21475 1.3185,-0.52884 1.85208,-0.698 0.53357,-0.16915 1.101,-0.37298 1.26094,-0.45296 0.22404,-0.11203 5.75598,-1.95729 7.20572,-2.40357 0.34111,-0.10501 -0.38732,-0.50487 -1.34522,-0.73846 -0.37578,-0.0916 -0.92137,-0.24755 -1.21241,-0.34647 -1.82086,-0.61891 -5.18678,-1.32829 -7.76111,-1.63568 -1.35416,-0.1617 -3.81819,-0.18883 -3.96338,-0.0437 -0.0504,0.0504 -0.10684,0.56432 -0.1255,1.14211 l -0.0339,1.05053 0.60812,-0.11409 c 0.37388,-0.0701 0.70565,-0.0331 0.86134,0.0961 0.21924,0.18195 0.21471,0.29093 -0.0337,0.81195 -0.15784,0.33099 -0.42934,0.64699 -0.60335,0.70221 -0.17401,0.0552 -0.4826,0.33385 -0.68575,0.61915 -0.21744,0.30537 -0.52768,0.51766 -0.75424,0.51613 -0.21167,-0.001 -1.05955,0.26953 -1.88417,0.60214 -1.7636,0.71136 -4.0383,1.42132 -5.64444,1.7617 -0.63059,0.13363 -1.34497,0.32156 -1.5875,0.41761 -0.99519,0.39415 -1.77454,0.56835 -3.70417,0.82798 -1.11566,0.15011 -2.38566,0.34845 -2.82222,0.44076 -0.43656,0.0923 -1.32953,0.17541 -1.98438,0.18467 -0.65484,0.009 -1.32953,0.0219 -1.4993,0.0282 -0.16978,0.006 -1.45962,-0.0437 -2.86632,-0.11096 -4.20226,-0.20097 -7.39138,-0.75562 -7.41358,-1.28937 -0.003,-0.0693 -0.0398,-1.47546 -0.082,-3.1247 -0.0422,-1.64923 -0.10903,-3.23673 -0.1484,-3.52777 -0.0394,-0.29105 -0.0818,-0.67959 -0.0943,-0.86343 -0.0207,-0.30381 -0.13218,-0.32509 -1.22379,-0.23358 -1.2722,0.10666 -4.07971,1.12756 -4.6715,1.69871 -0.4715,0.45507 -0.60239,2.49421 -0.2401,3.74047 0.64619,2.22278 4.0615,4.90054 7.34737,5.76066 4.33384,1.13444 6.85637,1.36113 11.1125,0.99865 z m -2.24338,-6.04105 c -0.12271,-1.71607 -0.27765,-2.2094 -0.7663,-2.43989 -1.20814,-0.56986 -1.93271,-0.68064 -4.52046,-0.69113 l -2.67945,-0.0109 -0.12023,1.12268 c -0.19397,1.81127 0.10624,2.8466 0.7564,2.60855 0.11889,-0.0435 0.47608,0.0248 0.79375,0.15192 0.31767,0.12708 1.29196,0.25125 2.16509,0.27593 0.87312,0.0247 2.14312,0.0991 2.82222,0.16546 0.6791,0.0663 1.32441,0.0928 1.43403,0.0589 0.13348,-0.0413 0.17145,-0.45139 0.11495,-1.24156 z m 2.33338,0.23123 c 0.003,-1.28901 -0.51315,-4.32369 -0.84161,-4.95173 -0.45263,-0.86548 -0.6623,-0.95737 -1.99632,-0.87494 -0.67145,0.0415 -2.68926,0.1234 -4.48401,0.18203 -1.79476,0.0586 -3.34191,0.18519 -3.43811,0.28123 -0.37085,0.37024 0.37163,0.50698 2.11519,0.38954 2.49259,-0.16789 3.65974,-0.10033 4.81493,0.27872 0.55325,0.18153 1.20955,0.37738 1.45844,0.43523 1.19782,0.27839 1.6054,1.16458 1.61854,3.51911 0.009,1.65323 0.0258,1.72633 0.3804,1.6757 0.31995,-0.0457 0.37099,-0.17377 0.37255,-0.93489 z m 3.70236,0.42838 c 0.6791,-0.0988 1.67129,-0.24432 2.20486,-0.32347 0.89558,-0.13284 1.95122,-0.40753 5.46806,-1.42284 0.7276,-0.21005 2.17808,-0.7092 3.22328,-1.10921 l 1.90037,-0.7273 -0.11129,-3.27347 c -0.12932,-3.80363 -0.1159,-3.77245 -1.99485,-4.63455 -0.8416,-0.38614 -1.53511,-0.55171 -2.73403,-0.65274 -2.56542,-0.21617 -7.38088,-0.0708 -11.30779,0.34138 -2.6976,0.28314 -2.9695,0.32475 -3.96875,0.60728 -0.53357,0.15087 -1.44639,0.35006 -2.02847,0.44265 -0.58208,0.0926 -1.78458,0.28332 -2.67222,0.42384 -2.17085,0.34366 -2.38815,0.47308 -2.32035,1.382 0.0525,0.70379 0.0751,0.72667 1.02382,1.03533 1.22771,0.39944 2.42219,0.39919 5.73264,-0.001 1.94764,-0.23555 2.69238,-0.2678 2.82222,-0.1222 0.097,0.10878 0.39734,0.31184 0.66738,0.45125 1.13401,0.5854 1.82276,2.75328 1.96494,6.18473 0.0382,0.92163 0.0767,1.69705 0.0856,1.72315 0.009,0.0261 0.19473,0.004 0.41301,-0.0488 0.21829,-0.0529 0.9525,-0.17707 1.6316,-0.27583 z M 35.36867,161.15446 c 0.019,-0.22576 0.0134,-1.87837 -0.007,-2.11667 -0.0169,-0.19619 -1.04064,-0.16028 -1.43413,0.0503 -0.48857,0.26147 -0.45665,1.23836 0.0557,1.70448 0.62259,0.56644 1.3523,0.75702 1.38558,0.36188 z m 58.71893,-3.17539 4.32153,-0.0568 -0.0457,-0.69901 c -0.0252,-0.38446 -0.11966,-1.01652 -0.21002,-1.40457 -0.54611,-2.34546 -1.45356,-6.07588 -1.58758,-6.52639 -0.0866,-0.29104 -0.24894,-1.00542 -0.36079,-1.5875 -0.11185,-0.58209 -0.3546,-1.61396 -0.53943,-2.29306 -0.18484,-0.6791 -0.37384,-1.6316 -0.41999,-2.11666 -0.0461,-0.48507 -0.20319,-1.53897 -0.34898,-2.342 -0.29621,-1.63165 -0.26482,-1.83356 0.33497,-2.15456 0.94515,-0.50583 1.20661,-0.0177 1.51086,2.82086 0.11959,1.11566 0.28798,2.21865 0.37422,2.45109 0.14166,0.38186 0.63574,2.43652 1.56231,6.49703 0.18218,0.79838 0.40644,1.59213 0.49836,1.76389 0.0919,0.17176 0.22353,0.68852 0.29248,1.14834 0.069,0.45983 0.18228,0.80087 0.25185,0.75788 0.0696,-0.043 0.22386,-0.53828 0.34286,-1.10063 0.11901,-0.56235 0.44775,-1.8559 0.73054,-2.87454 0.28278,-1.01865 0.67126,-2.64584 0.86328,-3.61598 0.19202,-0.97013 0.48377,-2.39888 0.64834,-3.175 0.16456,-0.77611 0.38685,-1.88736 0.49398,-2.46944 0.10712,-0.58208 0.2455,-1.13771 0.3075,-1.23472 0.16899,-0.26444 0.69809,-2.42279 0.61443,-2.50645 -0.15371,-0.1537 -5.40306,-0.26561 -11.48707,-0.24488 -8.53296,0.0291 -9.81095,0.0267 -14.05219,-0.0258 -2.00489,-0.0248 -3.69023,-1.8e-4 -3.7452,0.0547 -0.055,0.0549 -0.0209,0.33272 0.0757,0.61736 0.25496,0.75131 1.53744,4.93835 1.8604,6.07379 0.15176,0.53357 0.38525,1.32732 0.51886,1.76389 0.57408,1.87576 1.76189,6.13786 1.9909,7.14375 0.20005,0.87865 0.25469,0.72498 0.72136,-2.02848 0.20554,-1.21267 0.48955,-2.87954 0.63114,-3.70416 0.14159,-0.82462 0.38287,-2.37243 0.53617,-3.43959 0.48812,-3.39795 0.80389,-4.64194 1.25298,-4.93619 0.22101,-0.14482 0.52506,-0.21601 0.67566,-0.15822 0.3471,0.13319 0.34276,0.71198 -0.017,2.27219 -0.1566,0.6791 -0.31356,1.67129 -0.3488,2.20486 -0.0353,0.53358 -0.14017,1.16858 -0.23317,1.41111 -0.093,0.24254 -0.21466,1.14663 -0.27036,2.00909 -0.0557,0.86246 -0.14851,1.64456 -0.20626,1.73799 -0.0577,0.0934 -0.13325,0.52858 -0.1678,0.96697 -0.0345,0.43839 -0.14014,0.89026 -0.23466,1.00416 -0.0945,0.11389 -0.16399,0.36217 -0.15435,0.55173 0.01,0.18956 -0.0858,0.8209 -0.21201,1.40298 -0.12624,0.58208 -0.24903,1.3973 -0.27287,1.81159 -0.0238,0.4143 -0.0896,0.87384 -0.14616,1.02121 -0.0565,0.14738 -0.012,0.41332 0.0989,0.591 0.16374,0.26218 0.12186,0.43524 -0.22227,0.91853 -0.23321,0.32751 -0.40138,0.69404 -0.37372,0.81451 0.0277,0.12047 -0.0332,0.37503 -0.13523,0.5657 -0.17489,0.32677 -0.11709,0.34967 1.00696,0.39887 1.18238,0.0518 4.94797,0.0289 13.27513,-0.0805 z m -6.09488,-2.32187 c -0.33646,-0.24602 -0.33591,-0.25945 0.0374,-0.91258 0.34737,-0.60784 1.11863,-1.02186 1.11863,-0.60051 0,0.0964 0.11751,0.17528 0.26114,0.17528 0.18602,0 0.24349,0.15161 0.19978,0.52701 -0.11572,0.99388 -0.85771,1.36594 -1.61691,0.8108 z m 0.28039,-5.03583 c -0.40041,-0.30328 -0.41542,-0.36511 -0.19068,-0.78504 0.40345,-0.75385 1.41906,-0.56162 1.41906,0.2686 0,0.38531 -0.0828,0.51029 -0.33808,0.51029 -0.18594,0 -0.36454,0.0755 -0.39688,0.16768 -0.0323,0.0922 -0.25438,0.0195 -0.49342,-0.16153 z m -0.25487,-5.80099 c -0.18942,-0.30649 0.37939,-0.79034 0.92911,-0.79034 0.76101,0 0.89623,0.20272 0.40231,0.60315 -0.42967,0.34834 -1.16769,0.4521 -1.33142,0.18719 z m 0.1552,-3.86068 c 0.19469,-0.77573 0.87464,-1.00325 1.40707,-0.47082 0.25654,0.25655 0.24389,0.30948 -0.14752,0.61736 -0.23546,0.18522 -0.64248,0.33676 -0.90449,0.33676 -0.43117,0 -0.46486,-0.0459 -0.35506,-0.4833 z m -10.16545,16.24111 c 0.009,-0.44273 -0.10404,-1.09263 -0.25094,-1.44422 -0.14691,-0.35159 -0.33591,-0.91801 -0.42001,-1.25871 -0.2836,-1.14887 -1.24328,-4.6634 -1.78268,-6.52849 -0.2946,-1.01864 -0.68681,-2.38969 -0.87159,-3.04676 -0.18478,-0.65707 -0.69299,-2.32394 -1.12935,-3.70416 -0.43637,-1.38022 -0.88298,-2.86048 -0.99248,-3.28945 -0.11661,-0.45685 -0.25228,-0.69389 -0.3275,-0.57219 -0.0706,0.11427 -0.14078,4.1165 -0.1559,8.89384 -0.0259,8.19477 0.10801,11.36234 0.49034,11.59488 0.0812,0.0494 1.33483,0.10566 2.7858,0.12502 l 2.63815,0.0352 z m 28.13196,0.5555 c -0.0166,-0.0985 -0.0788,-2.20192 -0.13812,-4.67431 -0.0593,-2.47238 -0.14143,-4.73337 -0.18248,-5.02441 -0.0411,-0.29105 -0.12655,-1.44198 -0.18998,-2.55764 -0.0634,-1.11566 -0.14411,-2.0769 -0.17927,-2.13609 -0.0351,-0.0592 -0.0734,-1.16738 -0.085,-2.46266 -0.0116,-1.29529 -0.0845,-2.23905 -0.16211,-2.09726 -0.1784,0.32604 -1.41284,5.93047 -1.59143,7.22517 -0.0736,0.53358 -0.42675,2.0417 -0.78479,3.35139 -0.68421,2.50284 -0.83446,3.12774 -1.16624,4.8507 -0.11209,0.58208 -0.27436,1.13374 -0.3606,1.2259 -0.0862,0.0922 -0.1568,0.43206 -0.1568,0.75532 0,0.32326 -0.11585,0.86501 -0.25744,1.20389 l -0.25744,0.61613 2.77098,-0.0485 c 1.75099,-0.0307 2.75983,-0.11445 2.74069,-0.22759 z m -50.68152,-2.41386 c 0,-0.28495 -0.0522,-0.3359 -0.19629,-0.19176 -0.10797,0.10796 -0.14297,0.28259 -0.0778,0.38805 0.18246,0.29522 0.27408,0.2296 0.27408,-0.19629 z m 0.009,-2.30188 c 0.0128,-2.52262 0.15171,-5.96425 0.2598,-6.43819 0.11515,-0.50495 -0.37272,-0.55089 -0.53168,-0.0501 -0.15837,0.49896 -0.0419,8.29625 0.12394,8.29625 0.0763,0 0.14289,-0.8136 0.14794,-1.80799 z m 7.26514,-8.92357 c 0.239,-0.239 0.34707,-2.05491 0.32708,-5.49622 -0.0253,-4.36073 -0.0672,-4.44574 -2.27288,-4.61435 -0.84489,-0.0646 -3.37072,-0.12435 -5.61296,-0.1328 l -4.07678,-0.0154 0.0486,0.44308 c 0.0267,0.24369 -0.0279,1.85103 -0.1214,3.57188 -0.30147,5.547 -0.30709,5.39196 0.20064,5.53725 0.24254,0.0694 0.87754,0.26054 1.41111,0.42476 1.37459,0.42306 2.96863,0.54504 6.66892,0.51035 2.1172,-0.0199 3.29762,-0.0986 3.42764,-0.22859 z m -8.09305,-0.86871 c -0.2094,-0.13477 -0.5057,-3.00338 -0.46888,-4.53932 0.0116,-0.48507 0.0802,-1.46602 0.15239,-2.17989 0.11895,-1.17635 0.17881,-1.32686 0.63891,-1.60667 0.46468,-0.28259 0.60051,-0.2873 1.60441,-0.0557 1.28031,0.29535 2.01026,0.70809 2.75756,1.55923 0.65466,0.74561 0.79642,1.24977 0.64163,2.28195 -0.0971,0.6474 -0.2542,0.89958 -0.87995,1.41233 -0.46378,0.38003 -1.1221,0.7091 -1.68291,0.84121 l -0.92114,0.21701 0.10637,0.77912 c 0.13524,0.99047 -0.20608,1.4269 -1.11291,1.42304 -0.34877,-10e-4 -0.72473,-0.061 -0.83548,-0.13229 z m 2.93539,-4.09834 c 0.4422,-0.44221 0.44436,-0.81779 0.009,-1.53215 -0.307,-0.50347 -1.01144,-1.05872 -1.15135,-0.90749 -0.0987,0.10667 -0.2115,2.61428 -0.12165,2.70413 0.21165,0.21165 0.94058,0.0591 1.26422,-0.26449 z m 15.8417,-3.35139 c 0.18253,0 0.56713,-0.11736 0.85466,-0.2608 0.41394,-0.2065 1.27334,-0.25719 4.12814,-0.24347 1.98295,0.01 4.79599,0.008 6.25119,-0.004 5.82043,-0.0464 14.75905,-0.0201 16.75695,0.0492 6.42442,0.22291 6.66093,0.21792 7.00157,-0.14772 0.38959,-0.41818 0.40295,-0.69136 0.0482,-0.98578 -0.2577,-0.21388 -3.03728,-0.13346 -9.6074,0.27796 -0.7276,0.0456 -4.33917,0.12969 -8.02569,0.18695 -3.68653,0.0572 -7.81403,0.12135 -9.17223,0.14244 -1.35819,0.0211 -4.45382,-0.0655 -6.87916,-0.19244 -2.42535,-0.12694 -4.60816,-0.18168 -4.8507,-0.12165 -0.43746,0.10828 -0.4363,0.11112 0.14647,0.35761 0.48313,0.20434 0.69627,0.20911 1.20026,0.0269 0.72784,-0.26319 0.93929,-0.0636 0.94363,0.89076 0.003,0.59019 0.005,0.59194 0.43747,0.30868 0.23912,-0.15667 0.58411,-0.28486 0.76665,-0.28486 z m -37.33632,-7.3564 c 0.0349,-0.36812 0.0387,-0.96696 0.009,-1.33076 -0.0518,-0.62608 -0.0873,-0.66146 -0.66385,-0.66146 -1.1439,0 -2.03836,0.79754 -1.97045,1.75693 0.0482,0.68038 0.27144,0.79102 1.74373,0.864 l 0.81857,0.0406 0.0634,-0.66929 z m 123.8107,-2.03166 c 0.04,-2.19614 -0.0438,-7.80915 -0.11834,-7.92981 -0.0502,-0.0811 -0.12129,-1.59547 -0.1581,-3.36518 -0.0368,-1.76971 -0.0913,-3.95235 -0.12099,-4.85031 l -0.0541,-1.63267 -5.82083,-0.0223 c -3.20146,-0.0123 -6.17802,-0.0259 -6.61458,-0.0303 -1.1743,-0.0118 -9.39665,0.24867 -10.64922,0.33734 -0.59436,0.0421 -2.39033,0.11472 -3.99106,0.16143 -3.76838,0.10996 -6.61659,0.22524 -8.37847,0.3391 -1.38928,0.0898 -3.33003,0.17566 -8.0257,0.35511 -1.30969,0.05 -3.53219,0.15177 -4.93889,0.22604 -1.4067,0.0743 -4.7627,0.12806 -7.45777,0.11954 l -4.90013,-0.0155 0.0954,1.69119 c 0.0525,0.93015 0.17935,2.9215 0.28197,4.42521 0.10262,1.50372 0.22483,3.40872 0.27158,4.23334 0.14351,2.53136 0.36096,5.11517 0.4365,5.18646 0.0395,0.0373 2.81021,0.11508 6.15719,0.17297 3.34697,0.0579 7.3951,0.18319 8.99583,0.27846 2.81526,0.16756 15.31545,0.34933 26.19375,0.38091 l 5.29166,0.0154 0.0949,-1.03271 c 0.11958,-1.30176 0.0971,-1.90593 -0.17536,-4.71261 -0.12114,-1.24784 -0.17441,-2.49799 -0.11839,-2.77812 0.11196,-0.55976 0.2704,-0.50611 -1.80238,-0.61029 l -0.76653,-0.0385 0.0967,4.31183 c 0.10435,4.65346 0.10539,4.64783 -0.81296,4.4031 -0.90023,-0.23991 -0.88333,-0.15579 -0.93909,-4.6752 -0.0289,-2.33785 -0.0962,-4.32142 -0.14968,-4.40795 -0.17267,-0.27938 0.26545,-1.22487 0.69928,-1.50913 0.52597,-0.34463 0.8644,-0.34977 1.196,-0.0182 0.32585,0.32585 3.30833,0.4446 6.55812,0.26111 1.89577,-0.10704 2.36561,-0.0836 2.71184,0.13508 l 0.41879,0.26455 -0.12956,5.27325 c -0.0712,2.90028 -0.10096,5.28458 -0.066,5.29844 0.035,0.0139 1.09543,0.0734 2.35661,0.13229 1.26118,0.0589 2.74946,0.12903 3.30729,0.15584 l 1.01423,0.0487 0.0105,-0.57792 z m -8.71592,-0.31334 c 0.30165,-5.14371 0.32372,-5.81192 0.26159,-7.91931 l -0.0229,-0.77557 -1.69193,0.10094 c -0.93056,0.0555 -1.73708,0.14611 -1.79229,0.20131 -0.0552,0.0552 0.004,1.39066 0.13098,2.96768 0.12725,1.57702 0.21559,3.48389 0.19633,4.23747 -0.0193,0.75359 0.0152,1.45134 0.0765,1.55056 0.065,0.10518 0.67529,0.15903 1.46367,0.12915 1.30306,-0.0494 1.35312,-0.0673 1.37804,-0.49223 z m -90.40019,-2.07837 c 0.0137,-0.45763 0.046,-1.5861 0.0716,-2.50774 0.10319,-3.70511 0.73376,-5.50814 2.63742,-7.54131 1.26344,-1.3494 1.89073,-1.64947 3.52778,-1.68753 1.80615,-0.042 2.97759,0.55458 3.95082,2.01201 1.1867,1.7771 1.418,2.82728 1.41977,6.44615 8.8e-4,1.70919 0.0481,3.35572 0.10509,3.65895 l 0.10357,0.55132 h 4.61871 c 2.54029,0 4.64769,-0.0605 4.68312,-0.13447 0.0354,-0.074 0.0172,-0.62958 -0.0404,-1.23472 -0.0576,-0.60514 -0.15286,-2.84651 -0.21158,-4.98081 -0.0587,-2.13431 -0.21181,-5.47891 -0.34021,-7.43244 -0.12839,-1.95354 -0.22826,-3.6601 -0.22192,-3.79236 0.0365,-0.76245 0.02,-0.76938 -1.85235,-0.7772 -2.14525,-0.009 -13.85911,-0.206 -21.58428,-0.36307 l -5.48911,-0.11161 -0.0964,0.59389 c -0.053,0.32665 -0.0579,2.77671 -0.0107,5.44459 0.13076,7.39958 0.0863,12.21614 -0.11458,12.41704 -0.0974,0.0974 -0.1772,0.22079 -0.17726,0.27414 -7e-5,0.0534 2.02399,0.0746 4.49791,0.0471 l 4.49805,-0.0499 z m 9.58427,-2.68412 c -0.004,-3.85842 -0.18405,-4.81697 -1.14789,-6.12617 -0.62338,-0.84674 -1.52034,-1.19514 -2.6648,-1.03506 -0.85308,0.11933 -1.15607,0.28794 -1.83869,1.02324 -1.16017,1.24969 -1.83016,3.06196 -1.85537,5.01864 -0.007,0.56713 -0.084,1.69579 -0.17049,2.50814 -0.2433,2.28577 -0.48941,2.15473 3.941,2.09837 l 3.7402,-0.0476 z m 37.27743,-14.87516 c -0.16906,-0.98648 -0.31023,-1.81344 -0.3137,-1.83769 -0.003,-0.0242 -0.75136,-0.0441 -1.66198,-0.0441 h -1.65567 l -0.0905,0.57326 c -0.0498,0.3153 0.0149,0.93045 0.14385,1.36701 0.12888,0.43657 0.28013,1.0079 0.3361,1.26964 0.0929,0.43425 0.18271,0.48055 1.02676,0.52917 0.50874,0.0293 1.28443,0.027 1.72375,-0.005 l 0.79877,-0.0585 -0.30739,-1.7936 z m -5.10199,1.33015 c -0.0975,-0.25652 -0.16153,-0.70711 -0.14223,-1.00132 0.0193,-0.29421 -0.0555,-0.75837 -0.16618,-1.03148 -0.1107,-0.2731 -0.20127,-0.62175 -0.20127,-0.77478 0,-0.23549 -0.16653,-0.26082 -1.08421,-0.16491 -0.59631,0.0623 -1.39006,0.11333 -1.76389,0.11333 h -0.67968 v 1.5581 c 0,0.85696 0.0527,1.61082 0.11716,1.67526 0.0644,0.0644 1.01276,0.11153 2.10739,0.10468 l 1.99023,-0.0125 -0.17732,-0.4664 z m 11.06412,0.0897 c 0.0302,-0.0302 -0.0545,-0.41869 -0.18836,-0.8633 -0.1338,-0.4446 -0.27169,-1.14741 -0.3064,-1.56178 l -0.0631,-0.7534 -1.23052,-0.0346 c -0.67679,-0.019 -1.52451,0.002 -1.88383,0.0478 -0.63863,0.0806 -0.65131,0.0968 -0.56485,0.72268 0.18172,1.31525 0.22402,1.71167 0.23586,2.21058 l 0.0121,0.51202 1.96708,-0.11255 c 1.0819,-0.0619 1.9918,-0.13727 2.022,-0.16748 z m 5.99398,-0.34953 c 0.0698,-0.0698 -0.0155,-0.80549 -0.18959,-1.63491 l -0.31647,-1.50802 -0.72565,0.099 c -0.39911,0.0544 -1.34066,0.1172 -2.09234,0.1395 -1.21953,0.0362 -1.36672,0.0773 -1.36701,0.38175 -5.3e-4,0.57084 0.56496,2.4695 0.7915,2.65741 0.23513,0.19502 3.68914,0.0757 3.89956,-0.13468 z m 5.24936,-0.12865 c 0.74403,-10e-4 0.84085,-0.0418 0.73608,-0.30993 -0.0663,-0.16978 -0.15637,-0.77614 -0.20003,-1.34748 -0.0437,-0.57134 -0.12162,-1.10712 -0.17323,-1.19063 -0.14735,-0.23841 -4.12996,-0.19181 -4.12996,0.0483 0,0.25394 0.36738,2.45248 0.46446,2.77949 0.0574,0.19319 0.32615,0.22169 1.25944,0.13355 0.65258,-0.0616 1.57204,-0.11263 2.04324,-0.11332 z m 6.53718,-0.28471 c 0.31495,-0.12086 0.3583,-0.56378 0.11385,-1.16345 -0.0908,-0.22285 -0.20993,-0.68299 -0.26466,-1.02254 l -0.0995,-0.61736 -1.9672,-0.0574 -1.96721,-0.0574 0.11424,1.3515 c 0.0628,0.74333 0.15905,1.424 0.21381,1.5126 0.11002,0.17802 3.41298,0.22429 3.85667,0.054 z m 5.69111,-0.30734 c 0.12842,-0.12843 -0.13082,-2.31569 -0.30847,-2.60259 -0.11601,-0.18734 -0.5201,-0.23336 -1.69026,-0.19251 -0.84579,0.0295 -1.60737,0.0967 -1.69241,0.14923 -0.16347,0.10103 -0.004,1.83855 0.22545,2.45248 0.12462,0.33382 0.2629,0.35911 1.75697,0.32137 0.89194,-0.0225 1.66086,-0.0801 1.70872,-0.12798 z m 4.67613,-0.11476 h 1.76909 l -0.12832,-0.66146 c -0.0706,-0.3638 -0.17863,-1.05833 -0.24012,-1.5434 l -0.11179,-0.88195 -0.79375,-0.0201 c -0.77507,-0.0196 -3.37455,0.24904 -3.48576,0.36025 -0.11874,0.11874 0.33969,2.48079 0.52475,2.70377 0.10741,0.12943 0.30814,0.19203 0.44605,0.13911 0.13792,-0.0529 1.04684,-0.0962 2.01985,-0.0962 z m 6.65748,-1.23249 c -0.18785,-0.67787 -0.34154,-1.38563 -0.34154,-1.5728 0,-0.44489 -0.1005,-0.46854 -1.69559,-0.39904 l -1.35093,0.0589 0.11494,1.23676 c 0.17578,1.89129 0.19442,1.90869 2.0446,1.90869 h 1.57006 z m 6.03741,0.30048 c -0.0326,-0.4641 -0.15165,-1.21816 -0.26459,-1.6757 l -0.20533,-0.83187 -1.5875,-0.0519 c -0.87313,-0.0285 -1.77633,-0.005 -2.00711,0.0532 -0.38224,0.0957 -0.41041,0.17217 -0.31629,0.8588 0.0568,0.41457 0.28533,1.16665 0.5078,1.67128 l 0.40449,0.9175 1.76388,-0.0487 1.76389,-0.0487 z m 5.01793,-0.26528 0.0403,-1.10909 -0.71835,-0.45347 c -0.47342,-0.29886 -1.07002,-0.48536 -1.74983,-0.54701 -1.00656,-0.0913 -1.03148,-0.0829 -1.03148,0.34562 0,0.24153 0.0733,0.66928 0.16278,0.95054 0.0895,0.28127 0.21132,0.80442 0.27065,1.16256 0.1177,0.7106 0.2607,0.75994 2.20216,0.75994 h 0.7835 z m -78.42466,-0.73963 c 0,-0.22054 -0.14637,-0.37956 -0.39687,-0.43116 -0.21828,-0.045 -2.89719,-0.1271 -5.95313,-0.18253 -6.38228,-0.11577 -9.20847,-0.2182 -13.05277,-0.4731 -1.50372,-0.0997 -3.56747,-0.21264 -4.58612,-0.25098 -1.01864,-0.0383 -2.50692,-0.11142 -3.30729,-0.16242 -1.30181,-0.0829 -1.45672,-0.0601 -1.46954,0.21698 -0.008,0.17034 -0.0303,0.52799 -0.0499,0.79478 l -0.0356,0.48507 10.14819,0.002 c 9.46205,0.002 17.81275,0.1346 17.98279,0.28538 0.24037,0.21316 0.72025,0.0238 0.72025,-0.28424 z m 19.81608,-1.6848 1.03065,-0.11194 -0.11672,-1.26407 c -0.15477,-1.67619 -0.39311,-2.410604 -0.78232,-2.410604 -0.58877,0 -2.39737,0.412452 -2.50308,0.570826 -0.0772,0.11572 -0.0685,2.669678 0.0118,3.457528 0.003,0.0328 0.30373,0.017 0.66753,-0.0351 0.3638,-0.0521 1.12526,-0.14507 1.69212,-0.20664 z m 5.68616,-0.23843 0.71959,-0.0204 -0.0784,-1.89618 c -0.0431,-1.0429 -0.0988,-1.919142 -0.12385,-1.947204 -0.025,-0.02806 -0.86922,0.01162 -1.87597,0.08819 -1.68571,0.128208 -1.8274,0.167114 -1.79167,0.491994 0.0213,0.194028 0.0829,0.9084 0.13678,1.5875 0.14846,1.87069 0.1224,1.83483 1.28741,1.77135 0.55355,-0.0302 1.33028,-0.064 1.72606,-0.0752 z m 6.41096,-1.9689 -0.0212,-1.926345 -1.96719,0.04124 -1.9672,0.04124 -0.0142,1.322915 c -0.008,0.7276 0.0182,1.60073 0.0579,1.94028 l 0.0721,0.61736 1.93049,-0.0552 1.93048,-0.0552 -0.0212,-1.92634 z m 5.82466,1.65446 c 0.079,-0.0695 0.0304,-2.696098 -0.0617,-3.335104 -0.064,-0.444439 -1.16622,-0.541209 -2.77276,-0.243442 l -1.16813,0.216509 -0.0124,1.519357 c -0.0187,2.29975 -0.15381,2.16627 2.05334,2.02911 1.03554,-0.0644 1.91827,-0.14824 1.96163,-0.18643 z m 5.48595,-0.052 0.80228,-0.007 -0.14595,-1.52048 c -0.0803,-0.83626 -0.22581,-1.669703 -0.32342,-1.852082 -0.19816,-0.370279 -0.55443,-0.39856 -2.7175,-0.215713 l -1.37094,0.115887 0.10804,1.251128 c 0.21162,2.4503 0.20802,2.44563 1.78688,2.31943 0.58208,-0.0465 1.41936,-0.0876 1.86061,-0.0914 z m 6.6028,-1.57709 c -0.0746,-0.83407 -0.14121,-1.648307 -0.14807,-1.809403 -0.0109,-0.255039 -0.25886,-0.291037 -1.91843,-0.278465 -1.13163,0.0086 -1.96935,0.09174 -2.06199,0.204708 -0.0908,0.110698 -0.0813,0.855699 0.0227,1.78143 l 0.17877,1.59115 2.03129,0.0135 2.0313,0.0135 -0.1356,-1.5165 z m -50.98352,1.12372 c 0.24934,-0.18859 0.83375,-0.25897 2.15035,-0.25897 1.01504,0 1.85578,-0.0774 1.91698,-0.17639 0.06,-0.097 0.0433,-0.17639 -0.0369,-0.17639 -0.0803,0 -0.26355,-0.18819 -0.40728,-0.41821 -0.14374,-0.23001 -0.54967,-0.76579 -0.90207,-1.190621 -0.3524,-0.424829 -1.42891,-1.724918 -2.39224,-2.889084 -1.82509,-2.205576 -4.3884,-4.845057 -6.05106,-6.230874 -1.62569,-1.354995 -7.58473,-7.510101 -7.58473,-7.834282 0,-0.447841 -0.59846,-0.01725 -2.32638,1.673836 -0.47085,0.460816 -0.93379,0.837847 -1.02874,0.837847 -0.095,0 -0.17265,0.106761 -0.17265,0.237245 0,0.130485 -0.15875,0.380912 -0.35278,0.556505 -0.19403,0.175593 -0.35278,0.398591 -0.35278,0.495554 0,0.321584 -3.89574,4.267322 -7.03752,7.127845 -3.08656,2.810244 -6.8972,6.837739 -6.8972,7.289709 0,0.0638 1.40025,0.13054 3.11167,0.14832 2.99428,0.0311 4.10673,0.0792 6.58972,0.28459 1.13213,0.0937 1.70287,0.12662 6.31941,0.36487 2.07831,0.10726 9.78643,0.32893 13.70073,0.39402 0.99775,0.0166 1.51141,-0.0524 1.7535,-0.23552 z m 55.69177,0.0938 h 1.03979 l -0.1019,-0.92604 c -0.056,-0.50932 -0.14172,-1.254756 -0.19039,-1.656519 l -0.0885,-0.730481 h -1.76523 -1.76523 l 0.0407,1.61243 c 0.0224,0.88683 0.0767,1.68131 0.12073,1.7655 0.044,0.0842 0.43785,0.10404 0.87516,0.0441 0.43731,-0.0599 1.26302,-0.10898 1.8349,-0.10898 z m 7.25948,-0.52688 c 0.0805,-0.075 0.0611,-0.44355 -0.0431,-0.81898 -0.10425,-0.37544 -0.18998,-0.970069 -0.19052,-1.321409 l -9.9e-4,-0.638802 -1.98437,-0.08227 c -2.57534,-0.106764 -2.59671,-0.100432 -2.40763,0.71325 0.0826,0.355641 0.15215,1.010421 0.15446,1.455071 0.002,0.44465 0.0637,0.86796 0.13645,0.94069 0.16526,0.16526 4.1359,-0.0615 4.33571,-0.24755 z m 4.5075,-0.10559 c 0.39605,-0.0864 0.41483,-0.14752 0.3219,-1.048 -0.12034,-1.165924 -0.20608,-1.318137 -0.74249,-1.318137 -0.23108,0 -0.46921,-0.07937 -0.52917,-0.176389 -0.06,-0.09701 -0.51266,-0.176389 -1.006,-0.176389 h -0.897 l 0.0996,1.317035 c 0.0548,0.72436 0.13792,1.37921 0.18475,1.4552 0.0884,0.14341 1.83219,0.1072 2.5684,-0.0533 z m 11.57386,-1.23431 v -1.39641 l -1.619,-0.05055 -1.619,-0.05055 v 1.011729 c 0,1.505271 0.12649,1.647011 1.4699,1.647011 0.62145,0 1.18156,0.0836 1.24468,0.1857 0.0631,0.10213 0.20672,0.15505 0.31909,0.11759 0.1319,-0.044 0.20433,-0.5631 0.20433,-1.46452 z m -6.63598,1.04622 1.6203,-0.11502 -0.0307,-1.216475 -0.0307,-1.216477 -1.43021,0.02734 c -1.88897,0.03611 -3.1612,0.296843 -3.03633,0.62226 0.0517,0.134856 0.14686,0.643032 0.21137,1.129282 0.13465,1.01505 -0.0454,0.96369 2.69627,0.76908 z m -47.33902,-3.941857 c 0.097,-0.01235 -0.002,-0.09423 -0.22049,-0.181964 -0.21828,-0.08774 -0.39687,-0.288772 -0.39687,-0.446742 0,-0.529345 0.55125,-2.190486 0.81417,-2.4534 0.44651,-0.446518 1.5866,-0.638323 3.83668,-0.645473 2.49686,-0.0079 3.72089,0.1374 4.00112,0.475058 0.19345,0.233082 0.35576,0.92207 0.36201,1.536628 0.004,0.381118 0.47363,1.539425 0.62433,1.539425 0.19755,0 -0.14054,-3.2359 -0.4079,-3.904098 -0.31941,-0.798289 -0.51031,-0.838036 -4.02694,-0.838454 -3.51949,-3.53e-4 -4.43089,0.168423 -5.12586,0.949591 -0.3435,0.386103 -0.55313,0.808741 -0.54879,1.106424 0.004,0.264922 -0.0567,1.048657 -0.13461,1.741634 l -0.14164,1.259957 0.5942,-0.05807 c 0.32681,-0.03194 0.67357,-0.06817 0.77059,-0.08051 z m 6.71741,-0.07867 c 0.1872,-0.06283 0.0738,-1.743804 -0.13142,-1.949078 -0.0509,-0.05087 -1.17239,-0.111552 -2.49225,-0.134844 -2.68413,-0.04737 -2.81379,5.29e-4 -2.85028,1.051334 -0.0174,0.499724 -0.12166,0.716081 -0.41595,0.862801 -0.21603,0.107705 -0.42462,0.227494 -0.46352,0.266197 -0.087,0.0866 6.08733,-0.0071 6.35342,-0.09641 z m 39.15151,-0.781308 c -0.0626,-0.448689 -0.15833,-1.073767 -0.21274,-1.389062 l -0.0989,-0.573264 h -1.62936 -1.62936 l 0.15774,1.005861 c 0.20919,1.334024 0.38761,1.526173 1.30091,1.40099 0.47625,-0.06528 0.84466,-0.01794 1.05447,0.135472 0.17736,0.129692 0.51341,0.235802 0.74678,0.235802 0.40339,0 0.41869,-0.04021 0.31048,-0.815799 z m -15.97101,0.399861 c 0,-0.140135 -0.0975,-0.768642 -0.21661,-1.396684 L 134.40001,94.3471 h -1.52815 c -1.49245,0 -1.5308,0.01055 -1.64148,0.451534 -0.12229,0.487255 0.024,1.564425 0.27978,2.059923 0.13327,0.25818 0.40814,0.304646 1.74067,0.294253 1.25627,-0.0098 1.58241,-0.06485 1.58241,-0.267134 z m 5.08061,0.01702 c 0.0294,-0.02542 -0.0557,-0.586828 -0.18927,-1.247569 -0.20889,-1.033603 -0.30384,-1.217672 -0.67998,-1.318269 -0.43278,-0.115742 -2.7614,-0.08741 -2.8839,0.03509 -0.035,0.03496 0.0239,0.670477 0.13075,1.412274 l 0.1943,1.348722 1.68729,-0.09201 c 0.92801,-0.05061 1.71137,-0.112815 1.74081,-0.138236 z m 5.8838,-0.06078 c 0.15433,-0.150456 -0.14601,-1.977536 -0.3603,-2.191826 -0.0922,-0.09219 -1.05685,-0.209769 -2.14368,-0.261281 l -1.97605,-0.09366 0.0918,0.687434 c 0.0505,0.378087 0.13323,0.846183 0.18389,1.040211 0.0507,0.194028 0.0982,0.454554 0.10561,0.578947 0.007,0.124395 0.17907,0.28742 0.38144,0.36228 0.41718,0.154324 3.53894,0.05179 3.7173,-0.122102 z m 9.20249,-0.334052 c -0.24787,-1.71414 -0.24546,-1.710932 -1.35972,-1.811054 -0.55862,-0.05019 -1.10215,-0.03781 -1.20785,0.02752 -0.24827,0.153439 0.12186,2.099805 0.43741,2.300195 0.12073,0.07667 0.67093,0.140612 1.22266,0.142098 l 1.00314,0.0027 -0.0956,-0.661458 z m 3.72117,-0.264584 c -0.16772,-1.197617 -0.16057,-1.190625 -1.21656,-1.190625 h -0.97567 l 0.002,0.573264 c 0.005,1.251449 0.11136,1.367014 1.25498,1.367014 h 1.03984 l -0.10498,-0.749653 z m -0.19399,-3.333519 c 0.0545,-0.208451 0.0539,-0.6051 -0.001,-0.881438 -0.0782,-0.39083 -0.24427,-0.545513 -0.74775,-0.69636 -0.356,-0.106659 -0.84221,-0.166418 -1.08049,-0.132796 -0.37402,0.05278 -0.44076,0.166317 -0.48844,0.830959 -0.0843,1.175251 -0.006,1.25864 1.17564,1.25864 0.91902,0 1.05511,-0.04515 1.14241,-0.379005 z m -23.95847,-1.404489 v -1.303307 l -0.79375,0.01775 c -1.92645,0.04309 -1.93951,0.04648 -2.14128,0.555511 -0.29749,0.750538 -0.35543,1.857634 -0.10567,2.018968 0.12016,0.07762 0.85348,0.112609 1.62959,0.07775 l 1.41111,-0.06337 z m 10.81542,0.549215 c 0.10837,-1.49005 0.0995,-1.497529 -2.035,-1.709757 -1.04569,-0.10397 -1.96908,-0.12667 -2.05199,-0.05044 -0.13419,0.123384 -0.20227,2.092803 -0.0761,2.202457 0.0278,0.02413 0.84178,0.09732 1.80894,0.162639 0.96715,0.06532 1.79562,0.15593 1.84106,0.201359 0.23458,0.234586 0.46359,-0.125254 0.51312,-0.806255 z m 9.20472,0.116493 c 0,-0.413562 -0.0952,-0.847182 -0.21167,-0.963599 -0.11642,-0.116416 -0.67204,-0.211666 -1.23472,-0.211666 h -1.02306 v 0.852545 c 0,0.468902 0.0461,0.89861 0.10237,0.95491 0.0563,0.0563 0.61192,0.106273 1.23472,0.111053 l 1.13236,0.0087 v -0.751934 z m -15.16945,-0.719242 v -1.307867 l -1.19062,-0.06138 c -2.00041,-0.103131 -1.97665,-0.118381 -1.93342,1.241159 l 0.0372,1.171372 1.14653,0.101847 c 0.63059,0.05602 1.32512,0.115547 1.5434,0.132292 0.37863,0.02904 0.39687,-0.02969 0.39687,-1.277421 z m 10.93611,0.351159 v -0.956709 l -1.4552,-0.06129 c -0.80037,-0.03371 -1.53975,-0.0369 -1.64307,-0.0071 -0.20434,0.05897 -0.33655,1.527703 -0.16281,1.808807 0.0588,0.09514 0.8166,0.172981 1.68399,0.172981 h 1.57709 v -0.956707 z m 12.11209,62.046113 c -0.0435,-0.0435 -7.52924,-0.11141 -16.63487,-0.1508 -13.92478,-0.0602 -17.57561,-0.14243 -18.32249,-0.41249 -0.0455,-0.0165 -0.66529,-0.30642 -1.37721,-0.64434 -2.2014,-1.04492 -3.29789,-2.45695 -3.3196,-4.27492 -0.007,-0.55091 -0.0799,-1.18033 -0.16292,-1.39871 -0.083,-0.21837 -0.0856,-0.43744 -0.006,-0.48681 0.0799,-0.0494 0.18702,-1.02452 0.23807,-2.16701 0.051,-1.14248 0.22732,-2.65346 0.3917,-3.35773 0.255,-1.09252 0.42776,-1.42151 1.17687,-2.24115 1.14547,-1.25333 2.3682,-1.85405 3.96165,-1.94633 1.20574,-0.0698 1.21685,-0.0752 1.96988,-0.94923 0.84449,-0.9802 2.05984,-1.7391 3.02102,-1.8864 0.44595,-0.0683 1.00392,0.0419 1.87028,0.36939 0.6791,0.25674 1.39348,0.5109 1.5875,0.56479 0.19403,0.0539 0.51153,0.23984 0.70556,0.41323 0.19403,0.17339 0.69871,0.4204 1.12152,0.54892 1.37316,0.41737 1.52885,0.76651 1.80794,4.05441 0.23962,2.82284 0.30566,5.26761 0.18508,6.85078 -0.0332,0.43656 -0.0531,1.77129 -0.0441,2.96606 l 0.0163,2.17231 4.01284,-0.0376 c 2.20707,-0.0207 8.69598,-0.0209 14.4198,-5.3e-4 10.8265,0.0386 14.95558,-0.0518 16.33691,-0.35776 1.14845,-0.25436 2.09572,0.13403 2.09572,0.85926 0,0.89971 -0.28988,1.0674 -2.02847,1.17339 -0.87312,0.0532 -4.00844,0.14128 -6.96736,0.19566 -2.95892,0.0544 -5.51417,0.12676 -5.67833,0.16084 -0.16415,0.0341 -0.33409,0.0263 -0.37764,-0.0172 z m -24.85618,-1.97684 1.27882,-0.0223 v -2.49002 -2.49002 l -0.39688,0.12311 c -0.21828,0.0677 -0.80717,0.22707 -1.30865,0.35413 -1.28504,0.32559 -1.34787,0.38522 -1.22372,1.16162 0.0591,0.3693 0.0309,0.87246 -0.0625,1.11813 -0.10584,0.27838 -0.10727,0.48533 -0.004,0.54929 0.31168,0.19263 -0.22115,0.73931 -0.73482,0.75392 -0.4675,0.0133 -0.60471,-0.14449 -0.50395,-0.57947 0.0225,-0.097 0.0633,-0.69233 0.0908,-1.32292 l 0.0499,-1.14652 -0.90775,-0.006 c -0.49926,-0.003 -1.43397,-0.0572 -2.07713,-0.11981 l -1.16939,-0.11387 -0.50631,0.88725 c -1.2871,2.2555 -1.61355,2.97185 -1.41353,3.10186 0.20975,0.13632 4.46638,0.32468 6.46347,0.28602 0.6306,-0.0122 1.722,-0.0322 2.42535,-0.0445 z m -10.47647,-1.97593 c 0.27706,-0.52622 0.69378,-1.20944 0.92605,-1.51827 0.23226,-0.30882 0.42229,-0.62007 0.42229,-0.69166 0,-0.0716 0.13049,-0.27436 0.28997,-0.45058 0.27317,-0.30186 0.25558,-0.33488 -0.30383,-0.57009 l -0.5938,-0.24967 -0.84269,1.31529 c -0.46349,0.72341 -0.8427,1.38192 -0.8427,1.46336 0,0.18276 -0.4441,0.36221 -0.89637,0.36221 -0.56856,0 -0.40821,0.37261 0.44113,1.02507 0.2832,0.21756 0.6007,0.36755 0.70556,0.33333 0.10486,-0.0342 0.41733,-0.49277 0.69439,-1.01899 z m -1.10589,-3.23859 c 0.33668,-0.69302 0.3366,-0.69509 -0.0432,-1.09933 l -0.38049,-0.40501 -0.53775,0.73122 c -0.44337,0.60289 -0.5443,0.91966 -0.57513,1.80489 l -0.0374,1.07366 0.6183,-0.70555 c 0.34007,-0.38806 0.7701,-1.01801 0.95562,-1.39988 z m 8.97562,-0.70365 c 0.0813,-0.21388 0.20423,-0.84011 0.27314,-1.39163 l 0.12529,-1.00276 h -1.05132 c -1.05295,0 -1.51505,0.2375 -1.66537,0.85594 -0.0319,0.13121 -0.27627,0.46245 -0.54306,0.73608 -0.55597,0.57023 -0.62307,0.9919 -0.17639,1.10857 0.16978,0.0443 0.88945,0.0811 1.59927,0.0816 1.1687,8.8e-4 1.30456,-0.0357 1.43844,-0.38785 z m 2.63981,-0.28778 c 0.43049,-0.1953 0.87908,-0.31811 0.99685,-0.27291 0.25851,0.0992 0.42057,-0.43798 0.42018,-1.39273 -5.3e-4,-1.12685 -0.12368,-1.19904 -1.34342,-0.78713 -1.05671,0.35686 -1.06459,0.36461 -1.26851,1.24803 -0.39395,1.70672 -0.24428,1.85763 1.1949,1.20474 z m -7.08405,-1.33466 c 0.41482,-0.62899 0.70779,-1.21874 0.65105,-1.31056 -0.0567,-0.0918 -0.31678,-0.16687 -0.57784,-0.16677 -0.38405,1.5e-4 -0.56656,0.16381 -0.95605,0.85729 -0.26476,0.47141 -0.60747,0.96176 -0.76159,1.08966 -0.25147,0.2087 -0.23828,0.25581 0.12861,0.45938 0.22485,0.12475 0.48819,0.22408 0.5852,0.22072 0.097,-0.003 0.51579,-0.52074 0.93062,-1.14972 z m -2.55849,-0.6461 c 0.26884,-0.40877 0.61574,-0.92162 0.77089,-1.13967 0.27204,-0.38233 0.26127,-0.40522 -0.30221,-0.64214 -0.64648,-0.27183 -0.49484,-0.37803 -1.62823,1.14025 l -0.4709,0.63081 0.35721,0.38342 c 0.50171,0.53852 0.71503,0.47608 1.27324,-0.37267 z m -2.76199,-1.05189 c 0.97281,-1.07761 1.34234,-1.71566 1.23691,-2.13571 -0.0812,-0.32369 0.0286,-0.48285 0.56883,-0.82422 0.64884,-0.41 1.36654,-1.18277 1.22755,-1.32176 -0.11048,-0.11047 -1.59303,0.44235 -2.2153,0.82606 -0.3153,0.19443 -0.57327,0.46609 -0.57327,0.60369 0,0.13761 -0.0634,0.2502 -0.14095,0.2502 -0.0775,0 -0.24415,0.28538 -0.37028,0.63417 -0.27698,0.76597 -0.53511,2.54083 -0.36953,2.54083 0.0652,0 0.3514,-0.25797 0.63604,-0.57326 z m 10.51684,-1.14653 c 0.13131,-1.08352 -0.46555,-1.15869 -1.09633,-0.13807 -0.19599,0.31712 -0.35634,0.62675 -0.35634,0.68806 0,0.0613 0.30881,0.11147 0.68625,0.11147 0.66117,0 0.68919,-0.0242 0.76642,-0.66146 z m 1.84632,0.27457 c 0.7575,-0.32319 1.11073,-0.68564 1.11073,-1.13976 0,-0.41836 -0.40842,-0.57532 -0.61736,-0.23724 -0.06,0.097 -0.26505,0.17639 -0.45575,0.17639 -0.33557,0 -0.69078,0.59547 -0.69078,1.15801 0,0.30664 0.0297,0.30858 0.65316,0.0426 z m -4.7678,-0.78393 0.42513,-0.55345 -0.50771,-0.17699 c -0.46084,-0.16065 -0.55192,-0.12158 -0.98662,0.4232 -0.2634,0.33011 -0.4276,0.6832 -0.3649,0.78465 0.2129,0.34448 1.00544,0.0806 1.4341,-0.47741 z m -2.3773,-0.71427 c 0.62297,-0.59685 0.62056,-0.78674 -0.0148,-1.16204 -0.50843,-0.30033 -0.51045,-0.2997 -0.97014,0.30298 -0.54227,0.71096 -0.56748,0.9005 -0.15196,1.14252 0.46104,0.26853 0.59579,0.23493 1.13687,-0.28346 z m 4.14727,-1.74915 c 0.27092,-0.34959 0.82993,-0.95781 1.24224,-1.35161 0.41231,-0.39379 0.74965,-0.76307 0.74965,-0.82062 0,-0.21599 -1.70905,-0.86545 -2.55764,-0.97193 -1.0011,-0.12562 -1.41295,0.0769 -2.35296,1.15724 -0.61572,0.70761 -0.66764,0.96291 -0.29574,1.45405 0.33178,0.43813 0.68252,0.27907 1.27857,-0.57985 1.0434,-1.50353 1.82227,-0.86447 0.84097,0.69001 -0.52495,0.83157 -0.5253,0.83405 -0.1323,0.93675 0.61972,0.16195 0.74353,0.11009 1.22721,-0.51404 z m 3.364,0.41743 c 0.57159,-0.20669 0.59861,-0.25396 0.51242,-0.89651 -0.1146,-0.85443 -0.23001,-0.96819 -0.6034,-0.5948 -0.29794,0.29794 -0.80458,1.70951 -0.61358,1.70951 0.0556,0 0.37269,-0.0982 0.70456,-0.2182 z m 13.72174,12.11185 c -0.15245,-0.15245 -0.27718,-0.42055 -0.27718,-0.59576 0,-0.4448 -0.31525,-0.64718 -1.22469,-0.78621 -2.20827,-0.33757 -3.98472,-2.39981 -3.64181,-4.22767 0.12833,-0.68406 0.87562,-1.6979 1.25151,-1.6979 0.12881,0 0.26066,-0.0629 0.293,-0.13981 0.12723,-0.30254 1.34946,-0.9092 2.06094,-1.02297 0.50217,-0.0803 0.72266,-0.19434 0.66521,-0.34404 -0.13128,-0.34212 0.47168,-0.78624 1.06746,-0.78624 0.60552,0 1.17623,0.51943 1.01949,0.92788 -0.11295,0.29436 0.1525,0.38271 1.76542,0.58759 2.31419,0.29396 3.21992,2.34144 2.03987,4.61134 -0.59884,1.15192 -1.29267,1.73609 -2.47075,2.08023 -0.46285,0.13521 -0.6361,0.29228 -0.68097,0.61736 -0.13095,0.94878 -1.23573,1.40796 -1.8675,0.7762 z m -0.52787,-3.484 c -0.0629,-0.41941 -0.11753,-1.37191 -0.12142,-2.11667 -0.004,-0.74475 -0.0607,-1.36017 -0.12616,-1.36759 -0.0655,-0.007 -0.27115,-0.042 -0.45699,-0.0769 -0.55342,-0.1038 -1.61847,0.54878 -1.86432,1.14233 -0.2447,0.59075 -0.14605,1.64952 0.1916,2.05636 0.24553,0.29586 1.89744,1.11988 2.25113,1.12294 0.18378,0.002 0.21354,-0.1778 0.12616,-0.76049 z m 2.92078,0.48544 c 0.66974,-0.34633 1.41007,-1.86744 1.26444,-2.59794 -0.1696,-0.85073 -1.7691,-1.68926 -2.2689,-1.18945 -0.212,0.212 0.0805,4.06452 0.30861,4.06452 0.088,0 0.4011,-0.12471 0.69585,-0.27713 z m 15.38386,1.42652 c -0.35012,-0.25601 -0.51432,-2.49295 -0.20992,-2.85973 0.28011,-0.33752 0.9294,-0.28022 1.28567,0.11345 0.26269,0.29027 0.29171,0.53316 0.18758,1.57003 -0.11163,1.11156 -0.16302,1.23424 -0.5478,1.3078 -0.23355,0.0446 -0.55553,-0.0145 -0.71553,-0.13155 z m -0.40606,-5.71869 c -0.30746,-0.57449 -0.4426,-2.7937 -0.18875,-3.09958 0.12262,-0.14774 0.19338,-0.27263 0.15725,-0.27753 -0.0361,-0.005 -4.35195,-0.0421 -9.5907,-0.0826 -5.23875,-0.0405 -10.63625,-0.12701 -11.99444,-0.19218 -1.3582,-0.0652 -3.0479,-0.10687 -3.7549,-0.0927 -1.5348,0.0308 -2.38419,-0.305 -2.29736,-0.90822 0.12749,-0.88559 0.89037,-0.93273 9.02007,-0.55733 2.71383,0.12532 24.34464,0.11966 25.00678,-0.007 0.80596,-0.15361 1.30131,0.25686 1.13064,0.93688 -0.19342,0.77065 -0.56961,0.91779 -2.29412,0.89731 -3.40868,-0.0405 -4.02495,-10e-4 -3.82251,0.24253 0.10911,0.13147 0.16076,0.71112 0.1218,1.36701 -0.0372,0.62632 -0.073,1.2699 -0.0797,1.43018 -0.007,0.1625 -0.25775,0.37709 -0.56749,0.48507 -0.69703,0.24299 -0.63482,0.25345 -0.84662,-0.14232 z M 81.60953,94.661965 c -0.56259,-0.94872 -0.71621,-1.527343 -1.0201,-3.842505 -0.15918,-1.212633 -0.30898,-2.224352 -0.33289,-2.248265 -0.17368,-0.173683 -3.03634,-0.219597 -3.88503,-0.06231 -1.2185,0.22582 -1.95951,0.0072 -2.11815,-0.624814 -0.26601,-1.059864 0.53302,-1.298016 4.35498,-1.298016 2.11547,0 2.96217,0.06034 3.09414,0.220486 0.21765,0.26412 0.60019,2.229052 0.47378,2.433583 -0.0489,0.07908 -0.008,0.193635 0.0904,0.25457 0.0986,0.06094 0.17926,0.368097 0.17926,0.682581 0,0.314486 0.15704,1.282144 0.34896,2.150355 0.19193,0.868211 0.35068,1.7023 0.35278,1.853532 0.005,0.383141 -0.36628,0.814954 -0.81586,0.948064 -0.29957,0.0887 -0.4505,-0.0089 -0.72228,-0.467258 z"
       id="path342" />
  </g>
</svg>
