<?xml version="1.0" encoding="UTF-8" standalone="no"?>
<!-- Created with Inkscape (http://www.inkscape.org/) -->

<svg
   width="115.06781mm"
   height="100.49169mm"
   viewBox="0 0 115.06781 100.49169"
   version="1.1"
   id="svg859"
   inkscape:version="1.2.1 (9c6d41e, 2022-07-14)"
   sodipodi:docname="mem_right.svg"
   xmlns:inkscape="http://www.inkscape.org/namespaces/inkscape"
   xmlns:sodipodi="http://sodipodi.sourceforge.net/DTD/sodipodi-0.dtd"
   xmlns="http://www.w3.org/2000/svg"
   xmlns:svg="http://www.w3.org/2000/svg">
  <sodipodi:namedview
     id="namedview861"
     pagecolor="#505050"
     bordercolor="#ffffff"
     borderopacity="1"
     inkscape:showpageshadow="0"
     inkscape:pageopacity="0"
     inkscape:pagecheckerboard="1"
     inkscape:deskcolor="#505050"
     inkscape:document-units="mm"
     showgrid="false"
     inkscape:zoom="0.2102413"
     inkscape:cx="-461.37462"
     inkscape:cy="190.25757"
     inkscape:window-width="1440"
     inkscape:window-height="456"
     inkscape:window-x="0"
     inkscape:window-y="0"
     inkscape:window-maximized="0"
     inkscape:current-layer="layer1" />
  <defs
     id="defs856" />
  <g
     inkscape:label="Calque 1"
     inkscape:groupmode="layer"
     id="layer1"
     transform="translate(-46.919484,-98.254152)">
    <path
       style="fill:#000000;stroke-width:1"
       d="m 160.76876,198.50254 c -0.14807,-0.14807 -0.30199,-0.81976 -0.37388,-1.6316 -0.0672,-0.75895 -0.1976,-1.89585 -0.28975,-2.52644 -0.0922,-0.63059 -0.28439,-1.94028 -0.4272,-2.91042 -0.14281,-0.97014 -0.30572,-2.24014 -0.36203,-2.82222 -0.0563,-0.58208 -0.18259,-1.5222 -0.28062,-2.08915 -0.098,-0.56695 -0.16778,-1.63852 -0.15501,-2.38125 0.0313,-1.82104 0.036,-1.7914 -0.28031,-1.7914 -0.23462,0 -0.26318,0.17413 -0.18085,1.10243 0.0538,0.60633 0.14807,2.41189 0.20954,4.01235 0.0615,1.60045 0.22926,3.70389 0.37286,4.6743 0.14361,0.97042 0.28674,2.23786 0.31808,2.81655 0.0313,0.57869 0.10813,1.46154 0.17065,1.96189 0.12831,1.02699 -0.1417,1.48386 -0.87696,1.48386 -0.50872,0 -0.56367,-0.17227 -0.70334,-2.20486 -0.06,-0.87312 -0.18104,-2.14312 -0.26899,-2.82222 -0.2533,-1.95582 -0.33959,-3.1608 -0.4358,-6.08542 -0.0495,-1.50371 -0.13899,-3.23012 -0.19894,-3.83645 l -0.109,-1.10243 h -7.75814 c -7.56466,0 -12.45126,0.17346 -15.13132,0.53713 -0.72761,0.0987 -1.75948,0.21147 -2.29306,0.25053 -0.53358,0.0391 -1.60514,0.15158 -2.38125,0.25005 -2.0103,0.25505 -4.03456,0.41522 -9.26042,0.73274 -3.56951,0.21688 -11.34521,0.26485 -11.65739,0.0719 -0.11662,-0.0721 -3.87157,-0.10779 -8.34434,-0.0794 -4.47276,0.0284 -8.96573,0.0568 -9.98438,0.063 -1.01864,0.006 -3.91583,-0.0589 -6.43819,-0.14467 -5.73241,-0.19496 -6.89904,-0.20075 -20.10834,-0.0997 -9.24117,0.0707 -10.8341,0.0456 -11.28673,-0.17773 -0.56503,-0.2788 -0.77539,-0.7894 -0.45657,-1.10822 0.13817,-0.13817 3.53982,-0.21735 11.52592,-0.26827 15.24253,-0.0972 14.68261,-0.0995 17.67988,0.0714 1.45521,0.0829 8.51959,0.1755 15.69862,0.2057 7.17902,0.0302 14.75934,0.0666 16.84513,0.0809 2.0858,0.0143 4.70518,-0.0294 5.82084,-0.0971 1.11566,-0.0677 2.62378,-0.15635 3.35139,-0.19706 2.87682,-0.16099 8.70186,-0.67979 10.05416,-0.89547 0.33955,-0.0541 1.05393,-0.12372 1.5875,-0.15459 0.53358,-0.0309 1.24796,-0.10423 1.5875,-0.16301 1.73439,-0.30023 7.5632,-0.47838 15.56632,-0.47578 5.57898,0.002 5.36793,0.037 5.12913,-0.85548 l -0.11363,-0.42469 -8.57112,0.12544 c -4.71411,0.069 -8.80924,0.155 -9.10028,0.19114 -0.29104,0.0361 -3.17731,0.11211 -6.41393,0.16881 -3.23662,0.0567 -5.93537,0.1331 -5.99722,0.16978 -0.0618,0.0367 -1.5627,0.12079 -3.33522,0.18689 -1.77252,0.0661 -3.3997,0.15044 -3.61597,0.18739 -0.79649,0.13611 -6.13264,0.43458 -9.30085,0.52023 -1.79476,0.0485 -4.57289,0.13296 -6.17362,0.18764 -1.60073,0.0547 -4.37885,0.13069 -6.17361,0.1689 -1.79475,0.0382 -4.83881,0.12213 -6.76457,0.18651 -3.24812,0.10858 -7.34721,0.12235 -25.95557,0.0872 -3.88055,-0.007 -7.29368,0.0216 -7.58472,0.0644 -0.29104,0.0427 -1.56238,0.13398 -2.8252,0.20277 -1.98208,0.10798 -2.32777,0.0868 -2.52811,-0.15456 -0.63316,-0.7629 0.32881,-1.33327 2.2665,-1.34384 0.6306,-0.003 2.25778,-0.0758 3.61598,-0.16085 1.35819,-0.085 5.24757,-0.11342 8.64305,-0.0631 10.4746,0.15518 10.23056,0.15852 10.23056,-0.13987 0,-0.15469 -0.58864,-0.55763 -1.41723,-0.97014 -0.77947,-0.38805 -2.00979,-1.06711 -2.73403,-1.50902 -2.82565,-1.72412 -3.1988,-1.92578 -4.00814,-2.16613 -0.69063,-0.20509 -0.89798,-0.20835 -1.18923,-0.0187 -0.25734,0.16758 -1.69283,0.25928 -5.30683,0.33901 -4.3583,0.0961 -4.98149,0.0762 -5.18214,-0.16553 -0.19054,-0.22959 -0.12489,-0.54312 0.39887,-1.90501 0.34481,-0.8966 0.89926,-2.2255 1.23211,-2.9531 0.60383,-1.32001 1.66962,-4.3586 1.76325,-5.02708 0.0272,-0.19403 0.10131,-0.43579 0.16475,-0.53725 0.0634,-0.10146 0.2418,-0.69677 0.39637,-1.32292 0.15457,-0.62614 0.30528,-1.21782 0.33491,-1.31483 0.0296,-0.097 0.15129,-0.53358 0.27033,-0.97014 0.11905,-0.43657 0.34248,-1.06838 0.49652,-1.40403 0.15405,-0.33565 0.31916,-0.95696 0.36692,-1.38069 0.069,-0.61239 0.17492,-0.8039 0.51627,-0.93368 0.23619,-0.0898 2.68587,-0.14934 5.44374,-0.13232 5.55274,0.0343 5.25278,-0.0305 5.78116,1.24898 0.15023,0.3638 0.35657,0.66146 0.45854,0.66146 0.10196,0 0.18539,0.10014 0.18539,0.22253 0,0.30235 2.57551,3.08277 2.9722,3.20867 0.30553,0.097 4.36967,-1.97551 5.62026,-2.86601 0.7761,-0.55263 2.36134,-1.26698 2.81612,-1.26902 0.21135,-8.8e-4 0.49948,0.11348 0.64029,0.25429 0.22284,0.22284 0.22349,0.38856 0.005,1.27882 -0.52019,2.11958 -1.9275,11.20347 -2.09674,13.53405 -0.14161,1.95015 -0.0847,1.86637 -1.96871,2.89914 -2.42271,1.32809 -3.49098,2.06699 -4.09991,2.83583 l -0.52644,0.66467 3.83112,-0.06 c 11.47966,-0.17979 18.43201,-0.40232 18.6292,-0.59628 0.0918,-0.0903 -0.0189,-0.18975 -0.26458,-0.23777 -1.86899,-0.36527 -2.55002,-0.48177 -3.86197,-0.66067 -0.82462,-0.11245 -1.76735,-0.22551 -2.09495,-0.25125 -0.67627,-0.0531 -0.94286,-0.34409 -0.8441,-0.92124 0.0374,-0.21828 -5.3e-4,-0.39687 -0.084,-0.39687 -0.0836,0 -0.15258,-1.4486 -0.15338,-3.2191 -8.8e-4,-1.7705 -0.0809,-3.91225 -0.17794,-4.75945 -0.0971,-0.84719 -0.2174,-2.26182 -0.2674,-3.14361 -0.0598,-1.05545 -0.18934,-1.7535 -0.379,-2.04295 -0.27013,-0.41228 -0.26712,-0.45946 0.0484,-0.75692 0.32612,-0.30749 2.21031,-1.10769 4.74618,-2.01567 0.67909,-0.24316 1.90941,-0.69333 2.73402,-1.00038 1.81272,-0.67497 2.44618,-0.88682 2.91042,-0.97333 0.77123,-0.14371 2.69838,-0.60421 3.61597,-0.86406 0.53358,-0.15109 1.38726,-0.35815 1.89706,-0.46012 0.89335,-0.17868 0.97003,-0.16195 2.11667,0.46178 0.65436,0.35595 1.42787,0.8231 1.71891,1.03812 0.29104,0.21502 0.92604,0.61753 1.41111,0.89447 2.05235,1.17175 3.79237,2.42855 3.79237,2.7392 0,0.19668 0.15229,0.34078 0.39687,0.37551 0.365,0.0518 0.40396,0.16971 0.48507,1.46748 0.096,1.53533 -0.13193,7.01009 -0.32766,7.87168 -0.0138,0.0608 -0.44184,0.28769 -0.95116,0.50416 -1.02433,0.43536 -3.38469,1.81872 -3.78326,2.2173 -0.14013,0.14013 -0.34112,0.25478 -0.44664,0.25478 -0.10553,0 -0.6333,0.33329 -1.17284,0.74064 -0.53953,0.40735 -1.49925,0.95391 -2.13269,1.21456 -0.63345,0.26066 -1.6805,0.72112 -2.32678,1.02325 -0.64628,0.30213 -1.29644,0.54932 -1.4448,0.54932 -0.56202,0 -0.47078,0.35332 0.0959,0.37139 1.82521,0.0582 10.58373,-0.29297 11.34339,-0.45479 0.19403,-0.0413 1.42434,-0.12147 2.73403,-0.1781 3.59386,-0.15538 5.3046,-0.26448 5.71489,-0.36445 0.32222,-0.0785 2.85506,-0.17668 6.12763,-0.2375 0.9856,-0.0183 0.99562,-0.0239 1.10652,-0.61503 0.0616,-0.32809 0.34547,-0.91895 0.63093,-1.31301 l 0.51901,-0.71649 -0.83178,-0.10593 c -1.5251,-0.19423 -2.7342,-0.60164 -3.24885,-1.0947 -0.3777,-0.36187 -0.65193,-0.47235 -1.08074,-0.43541 -0.71997,0.062 -2.9207,-0.43596 -3.35035,-0.75814 -0.29047,-0.21782 -0.32011,-0.53115 -0.30477,-3.22265 0.009,-1.63975 0.0456,-3.13482 0.0805,-3.32237 0.0349,-0.18756 0.11928,-0.67697 0.18747,-1.08759 0.14919,-0.89843 0.85318,-1.56846 1.81899,-1.73125 1.37544,-0.23183 1.29865,-0.11165 1.24397,-1.94692 -0.0488,-1.63891 -0.0553,-1.66094 -0.49498,-1.68155 -0.24502,-0.0115 -0.50743,-0.0107 -0.58312,0.002 -0.0757,0.0125 -0.3796,-0.10247 -0.67535,-0.25541 -0.89257,-0.46157 -1.39231,-2.13559 -0.69218,-2.31868 0.19082,-0.0499 0.39057,-0.22819 0.44389,-0.39621 0.0533,-0.16802 0.29708,-0.41259 0.54166,-0.54349 0.38296,-0.20495 0.40513,-0.26014 0.15969,-0.3975 -0.16893,-0.0945 -3.38665,-0.0998 -7.90006,-0.013 -11.5702,0.22261 -17.80684,0.18167 -24.1074,-0.15823 -3.15295,-0.1701 -8.11388,-0.35342 -11.0243,-0.40737 -2.91042,-0.0539 -6.32354,-0.12805 -7.58472,-0.16466 -3.18478,-0.0924 -11.26228,-0.24126 -18.07987,-0.3331 -3.24179,-0.0437 -5.93292,-0.15479 -6.19359,-0.25573 -0.58708,-0.22735 -0.74873,-0.79929 -0.33239,-1.17608 0.27954,-0.25298 0.85706,-0.27408 5.14025,-0.18784 5.71305,0.11502 13.23909,0.26196 19.11282,0.37314 2.32833,0.0441 6.81302,0.11289 9.96597,0.15292 3.15295,0.04 6.05014,0.11831 6.4382,0.17396 0.38805,0.0556 1.85649,0.14765 3.26319,0.20446 1.4067,0.0568 3.47045,0.16787 4.58611,0.24679 1.11566,0.0789 4.84629,0.11371 8.29028,0.0773 3.44399,-0.0364 10.90524,-0.10084 16.58056,-0.14321 5.67531,-0.0424 12.46187,-0.16112 15.08125,-0.26387 2.61937,-0.10275 6.79568,-0.23639 9.28068,-0.29699 l 4.51818,-0.11017 -0.0878,-0.81862 c -0.0483,-0.45024 -0.12352,-0.85831 -0.16714,-0.90682 -0.25104,-0.27916 -19.91335,-0.0637 -25.09736,0.27499 -4.94508,0.3231 -34.61527,0.44506 -44.62639,0.18343 -1.30969,-0.0342 -5.59594,-0.14816 -9.525,-0.25319 -3.92907,-0.10502 -7.65969,-0.18636 -8.29028,-0.18075 -5.68747,0.0506 -13.49106,-0.0726 -13.913,-0.21972 -0.71417,-0.24896 -0.54879,-0.80256 0.30873,-1.03347 0.61134,-0.16462 18.97058,-0.10638 22.6883,0.072 0.87312,0.0419 3.77031,0.12965 6.43819,0.19503 2.66788,0.0654 5.52538,0.15027 6.35,0.18863 4.27924,0.19908 7.05556,0.22419 7.05556,0.0638 0,-0.095 0.15875,-0.17265 0.35278,-0.17265 0.19402,0 0.35277,0.0675 0.35277,0.15 0,0.0825 1.98422,0.14204 4.40937,0.13229 2.42515,-0.01 4.40953,-0.0819 4.40972,-0.16041 1.8e-4,-0.0785 0.0908,-0.0868 0.20142,-0.0184 0.11059,0.0683 0.68606,0.10292 1.27882,0.0768 0.59277,-0.0261 2.18901,-0.0699 3.5472,-0.0973 1.3582,-0.0274 2.6282,-0.058 2.82222,-0.0681 0.19403,-0.01 2.21809,-0.0109 4.49792,-0.002 4.34365,0.0171 9.34377,-0.11956 11.28889,-0.30852 1.77936,-0.17285 2.63875,-0.19393 12.52361,-0.30723 5.09323,-0.0584 10.05417,-0.15136 11.02431,-0.20663 l 1.76389,-0.10049 -0.0242,-3.82251 c -0.0509,-8.04091 -0.27256,-17.23459 -0.41917,-17.38511 -0.13312,-0.13668 -14.08839,0.0131 -31.13025,0.33408 -6.01258,0.11325 -24.39392,0.13059 -24.56772,0.0232 -0.42621,-0.26341 -7.2765,-0.3708 -20.94061,-0.32829 -8.53722,0.0266 -15.95879,0.0774 -16.49236,0.11307 -1.83526,0.12254 -6.76794,-0.2429 -7.04926,-0.52225 -0.22678,-0.2252 -0.22658,-0.28818 0.002,-0.51641 0.21877,-0.21877 1.6565,-0.27865 9.07773,-0.37809 4.84978,-0.065 9.88935,-0.1113 11.19904,-0.10293 1.30969,0.008 3.61156,-9e-5 5.11528,-0.0188 6.89739,-0.0858 14.11216,0.005 16.93333,0.21271 3.11023,0.22916 17.0566,0.28754 26.10556,0.10927 2.37684,-0.0468 7.97278,-0.12694 12.43542,-0.17804 7.30275,-0.0836 11.56309,-0.18959 14.37569,-0.35758 0.53358,-0.0319 1.89486,-0.064 3.02507,-0.0714 l 2.05492,-0.0135 v -0.6053 -0.60529 l -1.61395,-0.0577 c -5.10297,-0.18241 -17.9907,0.015 -24.10355,0.36928 -3.14297,0.18214 -8.88032,0.27796 -26.81111,0.44778 -8.26307,0.0783 -16.66571,-0.0628 -24.25347,-0.40716 -2.13431,-0.0969 -7.37306,-0.22251 -11.64167,-0.27923 -9.10802,-0.12103 -11.29474,-0.22633 -11.56927,-0.55712 -0.31153,-0.37537 0.21647,-0.7537 1.09715,-0.78617 2.71659,-0.10015 22.31566,0.24397 25.72976,0.45176 2.27983,0.13876 5.57389,0.24696 7.32014,0.24044 l 3.175,-0.0118 -1.32292,-0.22879 c -0.7276,-0.12583 -2.03729,-0.43068 -2.91041,-0.67744 -1.25351,-0.35427 -1.69441,-0.56808 -2.09565,-1.01623 -0.49433,-0.55213 -0.50564,-0.60769 -0.41607,-2.04342 0.14731,-2.36127 0.63125,-2.85743 4.15631,-4.26127 1.18649,-0.47252 2.19771,-0.89957 2.24714,-0.949 0.0494,-0.0494 0.17992,-0.57404 0.28997,-1.16578 0.27053,-1.4547 0.91669,-2.09077 2.46023,-2.42179 0.61555,-0.13201 1.49399,-0.24281 1.9521,-0.24621 l 0.83292,-0.006 0.29208,-1.01423 c 0.4154,-1.44243 1.05432,-2.63295 1.60758,-2.99544 0.42935,-0.2813 1.08148,-0.31545 6.65732,-0.3486 3.39974,-0.0202 7.84822,-0.14813 9.88551,-0.28426 6.75822,-0.45159 17.41687,-0.31462 19.96943,0.25662 0.50843,0.11378 1.08502,0.3565 1.28131,0.53938 0.39867,0.37141 0.42785,0.64768 0.36906,3.49376 -0.013,0.63059 -0.0244,2.01965 -0.0253,3.0868 -0.004,4.67743 -0.27377,5.20959 -2.69363,5.31138 -0.56709,0.0238 -1.06005,0.0723 -1.09547,0.10776 -0.0354,0.0354 -0.079,0.59729 -0.097,1.2486 -0.0182,0.66001 -0.13588,1.32027 -0.26594,1.49157 -0.12834,0.16905 -0.23587,0.48127 -0.23896,0.69382 -0.003,0.21256 -0.085,0.43553 -0.182,0.49548 -0.36687,0.22674 -0.15088,0.35209 0.5732,0.33264 0.41235,-0.0111 2.89284,-0.0794 5.51222,-0.15176 2.61937,-0.0724 5.27844,-0.12494 5.90903,-0.11677 4.09126,0.053 9.90467,0.0283 10.0194,-0.0426 0.0751,-0.0464 0.0347,-1.49899 -0.0898,-3.22794 -0.12448,-1.72895 -0.29488,-4.1426 -0.37865,-5.36367 -0.0868,-1.26546 -0.0851,-3.27544 0.004,-4.67431 0.0859,-1.3498 0.19093,-3.48605 0.23333,-4.74723 0.10482,-3.11732 0.18775,-3.51883 0.84023,-4.06785 0.45111,-0.37959 0.6522,-0.43778 1.17429,-0.33984 0.79669,0.14946 0.8498,0.18492 1.13649,0.7588 0.42412,0.84901 0.6755,2.5427 0.56774,3.82528 -0.4116,4.89878 -0.45666,12.89044 -0.0955,16.93333 0.23125,2.58854 0.30638,3.86505 0.43083,7.32014 0.0577,1.60073 0.17988,3.86291 0.27159,5.02708 0.0917,1.16417 0.2102,3.70417 0.2633,5.64445 0.18956,6.92578 0.25117,8.65848 0.34807,9.78958 0.28734,3.35369 0.46185,5.66938 0.62474,8.29028 0.0995,1.60072 0.25447,3.66447 0.34439,4.58611 0.0899,0.92163 0.20963,2.906 0.266,4.40972 0.0564,1.50371 0.13869,3.05153 0.18294,3.43958 0.0442,0.38806 0.1236,1.93587 0.17634,3.43959 0.20381,5.81011 0.44481,10.33796 0.60492,11.3646 0.21051,1.34988 0.51325,3.6315 0.63065,4.75291 0.0495,0.47293 0.126,0.91809 0.16997,0.98924 0.044,0.0712 0.12221,0.63671 0.17386,1.25679 0.0516,0.62009 0.17715,1.58756 0.27889,2.14993 0.10173,0.56238 0.13042,1.19738 0.0637,1.41112 -0.20711,0.66392 -0.73903,0.84458 -1.18211,0.4015 z m -2.06657,-18.28208 c 0,-0.4126 -0.0707,-0.52848 -0.29614,-0.48507 -0.16287,0.0314 -0.28193,0.11656 -0.26458,0.18932 0.0174,0.0728 0.0316,0.29104 0.0316,0.48507 0,0.19599 0.1176,0.35278 0.26459,0.35278 0.17779,0 0.26458,-0.17783 0.26458,-0.5421 z m -80.25076,-1.8466 c 0.3091,-0.37245 2.4621,-1.82653 3.57746,-2.41613 1.21998,-0.64491 1.53163,-1.05508 1.53163,-2.01581 0,-0.78595 0.20707,-2.45434 0.53571,-4.31627 0.0965,-0.547 0.29513,-1.93607 0.44129,-3.08681 0.14616,-1.15074 0.37985,-2.68757 0.51931,-3.41517 0.13947,-0.72761 0.25673,-1.54703 0.26058,-1.82093 l 0.007,-0.49802 -0.92604,0.5254 c -0.50932,0.28897 -1.81744,0.98906 -2.90694,1.55575 l -1.9809,1.03033 -0.19898,0.97075 c -0.10944,0.53391 -0.26893,1.05726 -0.35441,1.16299 -0.20036,0.24781 1.17585,0.0501 1.72547,-0.24793 0.4331,-0.23483 1.27099,-0.27193 1.58806,-0.0703 0.62006,0.39427 0.71471,1.9912 0.18853,3.18072 -0.65314,1.47652 -1.79118,2.01253 -3.07304,1.44738 -1.10596,-0.48761 -1.36476,-1.00154 -1.24195,-2.46632 0.0768,-0.91624 0.0447,-1.23496 -0.13124,-1.30248 -0.16373,-0.0628 -0.20696,-0.31983 -0.14552,-0.86498 0.0832,-0.73848 0.0591,-0.78958 -0.50524,-1.0676 -0.32596,-0.16059 -0.54629,-0.2938 -0.48962,-0.296 0.0567,-0.002 -0.52724,-0.65146 -1.29756,-1.44276 -0.77033,-0.79132 -1.79222,-1.93708 -2.27087,-2.54615 -0.47865,-0.60907 -1.006,-1.10862 -1.17188,-1.1101 -0.16589,-0.001 -0.73818,-0.0448 -1.27176,-0.0963 -0.53357,-0.0515 -1.96232,-0.0868 -3.175,-0.0785 -1.21267,0.008 -2.53582,0.004 -2.94032,-0.009 -0.431,-0.0144 -0.79518,0.0692 -0.8797,0.20198 -0.17769,0.27918 -0.8446,2.47518 -1.22052,4.01896 -0.51047,2.0963 -2.19555,6.94545 -2.97283,8.55486 -0.42168,0.87313 -0.81955,1.83635 -0.88414,2.14049 l -0.11744,0.55298 2.96407,-0.0735 c 4.52515,-0.11228 4.75614,-0.15067 5.22033,-0.86746 0.45592,-0.70402 0.76585,-0.76454 1.02317,-0.1998 0.12302,0.27 0.46172,0.48605 1.01045,0.64455 0.75232,0.2173 3.00087,1.39115 4.0886,2.13445 0.83458,0.5703 3.71262,2.10653 3.94647,2.10653 0.0608,0 0.11048,-0.27599 0.11048,-0.6133 0,-0.46155 0.11046,-0.68567 0.44647,-0.90584 0.67574,-0.44275 0.89634,-0.0131 0.62153,1.21046 -0.15667,0.69756 -0.0267,0.84246 0.34929,0.38942 z m -5.22846,-4.40621 -0.29151,-0.44491 -0.60458,0.35672 c -0.73318,0.43258 -0.86705,0.44115 -1.0115,0.0647 -0.0679,-0.17704 0.0361,-0.44967 0.26419,-0.69249 0.45686,-0.48631 0.38539,-0.62548 -0.53414,-1.04013 -0.82709,-0.37297 -0.93081,-0.82384 -0.28661,-1.24594 0.40393,-0.26466 0.4695,-0.25274 1.19063,0.21642 0.41974,0.27308 0.78966,0.55619 0.82206,0.62913 0.0324,0.0729 0.40287,-0.1144 0.82326,-0.4163 1.15918,-0.83246 1.44876,-0.36997 0.49371,0.78848 -0.43307,0.52531 -0.41851,0.60022 0.25572,1.31509 0.12127,0.12858 0.22049,0.38686 0.22049,0.57396 0,0.53743 -0.9706,0.46167 -1.34172,-0.10473 z m 3.94177,-0.31621 c -0.16687,-1.13698 0.56347,-2.13726 0.94657,-1.29644 0.25721,0.5645 -0.0238,1.54537 -0.49233,1.7187 -0.32148,0.11892 -0.38323,0.0615 -0.45424,-0.42226 z m -9.13418,-3.1339 c -0.15965,-0.29831 -0.13599,-0.41312 0.12609,-0.61175 0.6114,-0.46338 0.85115,-0.23113 0.48745,0.47218 -0.3128,0.60488 -0.3589,0.61537 -0.61354,0.13957 z m 3.35497,-0.45221 c -0.19682,-0.0535 -0.25146,-0.2543 -0.20414,-0.75044 0.0388,-0.40733 -0.0539,-0.90669 -0.23267,-1.25233 -0.28452,-0.5502 -0.28221,-0.58994 0.0539,-0.92602 0.35061,-0.35061 0.35163,-0.35042 0.66198,0.12322 0.43028,0.6567 0.65005,2.14986 0.38006,2.58218 -0.11585,0.1855 -0.25107,0.32808 -0.3005,0.31682 -0.0494,-0.0112 -0.21079,-0.0533 -0.3586,-0.0934 z m 2.78228,-0.54896 c -0.50991,-0.11327 -0.34912,-0.64626 0.30052,-0.99611 0.33505,-0.18044 0.75177,-0.45703 0.92604,-0.61464 0.39925,-0.36109 1.30205,-0.76874 1.42663,-0.64416 0.19771,0.19771 -0.31769,0.95472 -1.05107,1.54377 -0.84673,0.6801 -1.1453,0.81263 -1.60212,0.71114 z m -5.11527,-4.79645 c -0.46082,-0.45978 -0.83785,-0.92562 -0.83785,-1.03519 0,-0.10957 0.23054,-0.31844 0.51232,-0.46416 0.49348,-0.25519 0.53209,-0.24471 1.04975,0.28475 0.61891,0.63305 0.86391,1.4505 0.5486,1.83043 -0.29035,0.34985 -0.31874,0.33611 -1.27282,-0.61583 z m -2.46783,0.0816 c -0.44067,-0.68029 -0.67843,-0.75539 -1.08965,-0.34417 -0.52559,0.52559 -2.27908,0.5133 -1.90258,-0.0133 0.16863,-0.23588 1.10863,-0.87568 1.50152,-1.022 0.29262,-0.10898 0.27899,-0.17106 -0.16542,-0.75371 -0.37478,-0.49138 -0.44282,-0.70115 -0.30087,-0.92766 0.31581,-0.50397 0.97373,-0.47016 1.40625,0.0723 0.37603,0.47159 0.40243,0.47778 0.79973,0.18779 1.67885,-1.2254 1.618,-1.19435 1.77854,-0.90748 0.11176,0.19971 -0.0639,0.52728 -0.65143,1.21503 -0.44245,0.51789 -0.80444,0.99429 -0.80444,1.05867 0,0.0644 0.20768,0.43089 0.46151,0.81446 0.52566,0.79432 0.45791,1.23531 -0.18977,1.23531 -0.31438,0 -0.56179,-0.18047 -0.84339,-0.61518 z m 4.05826,-2.48698 c -0.0536,-0.0886 0.0329,-0.50994 0.1923,-0.93638 0.4297,-1.14948 1.28293,-1.54224 1.01287,-0.46624 -0.13667,0.54453 -1.06825,1.62873 -1.20517,1.40262 z m 34.12138,13.81778 c 0.0425,-1.38245 0.0636,-2.53443 0.0471,-2.55996 -0.0165,-0.0255 -0.31755,0.0737 -0.66887,0.22049 -0.35133,0.14679 -0.84529,0.2669 -1.09769,0.2669 -0.37281,0 -0.44833,-0.0731 -0.40254,-0.38969 0.0428,-0.29605 0.22592,-0.42544 0.76192,-0.53845 0.38806,-0.0818 0.88415,-0.1159 1.10243,-0.0757 0.3713,0.0683 0.39818,0.009 0.41699,-0.91676 0.0111,-0.54438 0.0508,-1.2279 0.0884,-1.51894 0.0882,-0.68314 -0.0619,-1.32292 -0.31032,-1.32292 -0.10729,0 -0.68125,-0.2073 -1.27546,-0.46067 -0.59421,-0.25336 -1.23914,-0.52733 -1.43317,-0.60881 -0.19403,-0.0815 -1.38465,-0.63794 -2.64583,-1.23656 -3.47524,-1.64955 -4.5069,-2.10368 -4.77894,-2.10368 -0.3174,0 -0.31479,0.39882 0.0233,3.55303 0.14927,1.39281 0.31444,3.68332 0.36705,5.09002 0.0526,1.4067 0.11592,2.79363 0.14068,3.08207 0.0505,0.58831 0.0143,0.57586 2.83684,0.97629 0.87312,0.12387 2.46062,0.4064 3.52778,0.62784 1.06715,0.22144 2.22892,0.40857 2.58171,0.41585 l 0.64145,0.0132 z m -9.32285,0.48282 c -0.13599,-0.35439 0.17513,-0.70393 0.86897,-0.97627 0.31208,-0.12249 1.30447,-0.53084 2.20532,-0.90743 1.5258,-0.63785 1.97807,-0.70996 1.97807,-0.31538 0,0.32661 -0.83957,0.93404 -2.33363,1.68841 -1.59074,0.80318 -2.53819,0.98114 -2.71873,0.51067 z m 47.12111,1.5876 c 0.97014,-0.0392 2.69654,-0.0821 3.83646,-0.0952 2.36756,-0.0273 2.34069,-0.003 1.64916,-1.47252 -0.23288,-0.49476 -0.51063,-1.12146 -0.61723,-1.39265 -0.17009,-0.43271 -0.26404,-0.48159 -0.76722,-0.39919 -0.85568,0.14013 -2.24382,0.24468 -4.89492,0.36867 -3.26347,0.15263 -4.43647,0.23174 -4.8507,0.32716 -0.19402,0.0447 -0.53137,0.0873 -0.74965,0.0948 -0.22919,0.008 -0.39687,0.12529 -0.39687,0.27808 0,0.14552 -0.15546,0.42004 -0.34546,0.61004 -0.3321,0.3321 -1.06566,1.62617 -1.06566,1.87992 0,0.10865 1.47973,0.0727 8.20209,-0.19905 z m 13.16666,-0.24952 0.81943,-0.0129 -0.0504,-1.89618 c -0.0706,-2.65353 -0.3997,-7.77061 -0.51141,-7.95136 -0.0511,-0.0827 -0.1412,-0.85762 -0.20013,-1.72194 -0.0589,-0.86432 -0.14477,-1.70405 -0.19075,-1.86608 -0.17671,-0.62267 -0.26108,-1.17477 -0.44017,-2.88041 -0.10187,-0.97014 -0.2113,-2.00201 -0.24318,-2.29305 -0.0319,-0.29105 -0.11611,-1.13694 -0.18717,-1.87976 -0.12815,-1.33967 -0.13363,-1.35131 -0.67796,-1.44029 -0.54669,-0.0894 -6.63971,-0.007 -10.16197,0.13738 -1.01864,0.0418 -4.07458,0.12869 -6.79097,0.1932 -2.71639,0.0645 -5.29607,0.14136 -5.73264,0.17078 -0.43656,0.0294 -1.07156,0.0647 -1.41111,0.0784 l -0.61736,0.0249 0.85615,0.42464 c 0.83015,0.41175 0.91562,0.4191 2.81463,0.24179 2.11497,-0.19747 4.8518,-0.10355 5.39098,0.18502 0.18396,0.0985 0.38724,0.38927 0.45175,0.64627 0.10784,0.42968 0.16979,0.45794 0.76994,0.35116 1.3971,-0.24857 5.30154,-0.6259 6.51098,-0.62923 1.42741,-0.004 2.90091,0.45152 3.73711,1.15513 0.27824,0.23413 0.71731,0.92249 0.97572,1.5297 l 0.46982,1.10402 h 0.91771 c 1.28454,0 2.41168,0.40397 2.61433,0.93699 0.0895,0.23548 0.20326,1.86724 0.25272,3.62614 0.0495,1.75889 0.1287,3.37658 0.17609,3.59486 0.24797,1.14227 -0.54903,1.86702 -2.09684,1.90675 l -1.04438,0.0268 -0.23611,0.6868 c -0.28808,0.83798 -1.11434,1.5529 -2.23178,1.93105 -0.46082,0.15595 -0.83785,0.30725 -0.83785,0.33624 0,0.029 0.19299,0.47901 0.42886,1.00006 0.23588,0.52105 0.482,1.24054 0.54694,1.59888 0.14555,0.80313 0.22704,0.82361 2.99295,0.75201 1.16417,-0.0301 2.48542,-0.0606 2.93611,-0.0677 z m 2.73013,-2.87924 c -0.22851,-5.52794 -0.30834,-6.95135 -0.58112,-10.36284 -0.15127,-1.89177 -0.3019,-3.7174 -0.33474,-4.05695 -0.0328,-0.33955 -0.14048,-1.64923 -0.2392,-2.91041 -0.0987,-1.26118 -0.25875,-2.96775 -0.35564,-3.79236 -0.0969,-0.82462 -0.21992,-3.16619 -0.27342,-5.20348 -0.12088,-4.60349 -0.43032,-11.72831 -0.52477,-12.08264 -0.0388,-0.14552 -0.12173,-1.77047 -0.18431,-3.61101 -0.0626,-1.84053 -0.14388,-3.39511 -0.18065,-3.45462 -0.0368,-0.0595 -0.0794,-0.89518 -0.0947,-1.85704 -0.0244,-1.53096 -0.25779,-3.62066 -0.32345,-2.89538 -0.15484,1.71038 0.0779,24.21681 0.25724,24.87083 0.0399,0.14552 0.15472,1.53459 0.25516,3.08681 0.10045,1.55222 0.216,3.13972 0.25679,3.52778 0.0408,0.38805 0.12196,1.22149 0.18038,1.85208 0.0584,0.63059 0.2233,2.1784 0.36639,3.43958 0.1431,1.26118 0.34035,3.12649 0.43834,4.14514 0.098,1.01865 0.21208,2.16958 0.25352,2.55764 0.12951,1.21254 0.25863,2.92497 0.37242,4.93889 0.0603,1.06715 0.13698,2.25778 0.17043,2.64583 0.0335,0.38806 0.0648,1.00321 0.0697,1.36702 0.007,0.49312 0.0828,0.66145 0.29949,0.66145 0.26284,0 0.2793,-0.27398 0.17214,-2.86632 z m -50.05646,1.82153 c 1.64466,-0.78365 2.7201,-1.42956 7.21798,-4.33507 l 1.3653,-0.88194 0.0919,-3.35139 c 0.0505,-1.84326 0.0709,-3.38398 0.0452,-3.4238 -0.0257,-0.0398 -0.18612,0.0395 -0.35649,0.17638 -0.17037,0.13685 -0.66695,0.41942 -1.10351,0.62796 -0.43656,0.20853 -2.26219,1.09144 -4.05694,1.96203 -1.79476,0.87058 -3.5518,1.68498 -3.90453,1.80977 -1.41354,0.50008 -1.36559,0.35469 -1.49602,4.5362 -0.098,3.14257 -0.0772,3.74826 0.12884,3.74826 0.13517,0 1.0659,-0.39078 2.06829,-0.8684 z m -1.28208,-4.40317 c -0.20212,-0.32703 0.0593,-0.85641 0.47849,-0.96878 0.50606,-0.13567 1.86673,-0.13479 2.37541,0.002 0.46024,0.12334 0.51389,0.45407 0.1259,0.77607 -0.36258,0.30091 -2.81475,0.45824 -2.9798,0.19118 z m 5.41154,-0.30341 c -0.12127,-0.0544 -0.22049,-0.199 -0.22049,-0.3214 0,-0.67656 1.61212,-1.04723 2.51572,-0.57844 0.45661,0.23689 0.4647,0.263 0.16539,0.53388 -0.3191,0.28878 -2.05645,0.54717 -2.46062,0.36596 z m 23.70773,2.06782 c 1.14903,-0.0988 3.55758,-0.26653 5.35234,-0.37281 4.44026,-0.26295 6.63839,-0.56338 7.98991,-1.09201 0.77853,-0.30451 1.01304,-0.98926 1.12439,-3.28312 0.10934,-2.25218 -0.28095,-5.15111 -1.01693,-7.55357 -0.42365,-1.38289 -0.64367,-1.68499 -1.73781,-2.38607 -0.65886,-0.42217 -0.96895,-0.50223 -1.94028,-0.50094 -1.03386,0.001 -4.52818,0.35217 -6.04716,0.60708 -1.89372,0.3178 -4.98861,0.91103 -6.30962,1.20944 -0.63059,0.14245 -1.5434,0.31543 -2.02847,0.38441 -1.65312,0.23507 -1.5661,-0.01 -1.43452,4.03503 0.13146,4.04113 0.18719,4.75473 0.4772,6.10973 0.54669,2.55436 0.65318,2.70181 2.10384,2.91298 0.43657,0.0635 0.82929,0.15097 0.87274,0.19427 0.0434,0.0433 0.17488,0.0419 0.2921,-0.003 0.11722,-0.045 1.15324,-0.16259 2.30227,-0.26135 z m -2.14419,-0.47101 c -0.097,-0.0264 -0.39182,-0.0953 -0.65514,-0.15331 -1.08446,-0.23875 -0.96593,-2.61898 0.1685,-3.38347 0.41371,-0.27881 0.98044,-0.41126 2.19775,-0.51365 0.90215,-0.0759 1.75934,-0.15261 1.90486,-0.17052 0.14552,-0.0179 0.74084,-0.0899 1.32292,-0.15997 0.58208,-0.0701 1.29646,-0.19335 1.5875,-0.27394 0.29104,-0.0806 1.32292,-0.23938 2.29306,-0.35286 0.97013,-0.11349 2.29909,-0.28828 2.95323,-0.38844 0.65414,-0.10016 1.515,-0.12709 1.91302,-0.0598 0.62941,0.10634 0.76515,0.2149 1.04208,0.83344 0.25588,0.57152 0.28145,0.81906 0.13023,1.26047 -0.28914,0.84399 -0.9729,1.64695 -1.59534,1.87344 -0.89148,0.32438 -4.27963,0.81636 -6.64809,0.96533 -0.82461,0.0519 -2.1343,0.17146 -2.91041,0.26576 -1.65048,0.20055 -3.45274,0.32586 -3.70417,0.25756 z m 1.57579,-1.64275 c -0.067,-0.15846 -0.16146,-0.4713 -0.20988,-0.69521 -0.0576,-0.26628 -0.17675,-0.37306 -0.34452,-0.30868 -0.14107,0.0541 -0.37076,0.0984 -0.51043,0.0984 -0.13967,0 -0.34831,0.20713 -0.46366,0.46029 -0.27506,0.60368 0.11122,0.91295 1.00931,0.80811 0.5116,-0.0597 0.61643,-0.13301 0.51918,-0.36294 z m 2.51942,-0.1013 c 0.0211,-0.0155 -0.0239,-0.26228 -0.0998,-0.54845 -0.11293,-0.42551 -0.24475,-0.53069 -0.72357,-0.57735 -0.50797,-0.0495 -0.56764,-0.0145 -0.45076,0.26458 0.0741,0.1769 0.17331,0.49946 0.22047,0.7168 0.0708,0.3262 0.16686,0.37573 0.55058,0.28386 0.25566,-0.0612 0.48205,-0.12395 0.5031,-0.13944 z m 2.73844,-0.20008 c 0.0558,-0.0558 0.0387,-0.32045 -0.0381,-0.58809 -0.081,-0.28249 -0.0639,-0.62177 0.0407,-0.80879 0.15411,-0.27538 0.13189,-0.30134 -0.153,-0.17878 -0.18331,0.0789 -0.58349,0.17876 -0.88928,0.22199 -0.51904,0.0734 -0.54635,0.11224 -0.41084,0.58473 0.0798,0.27838 0.19581,0.5881 0.25772,0.68828 0.11889,0.19235 1.02012,0.2533 1.19276,0.0807 z m 2.72455,-0.18324 0.38597,-0.10351 -0.37702,-0.77603 c -0.36824,-0.75793 -0.64476,-0.90599 -1.25484,-0.67188 -0.1991,0.0764 -0.24333,0.25263 -0.166,0.66146 0.17997,0.95149 0.47918,1.14009 1.41189,0.88996 z m 3.07482,-0.62098 c 0.25421,-0.0971 0.55773,-0.38618 0.67451,-0.64246 0.30628,-0.67223 -0.10928,-0.93023 -1.28822,-0.79977 -1.03049,0.11403 -1.34594,0.30365 -1.03028,0.61931 0.11642,0.11642 0.21167,0.381 0.21167,0.58796 0,0.66405 0.21585,0.69946 1.43232,0.23496 z m -9.11786,-2.32678 c -0.10923,-0.28466 0.24284,-1.59342 0.75408,-2.80316 0.32993,-0.78073 1.19098,-1.17813 1.82149,-0.84069 1.09534,0.5862 1.93497,1.49149 1.93497,2.08626 0,1.10472 -0.6158,1.41832 -3.39176,1.7273 -0.83238,0.0926 -1.02958,0.0627 -1.11878,-0.16971 z m 3.08656,-1.28198 c 0.13205,-0.13205 -0.21938,-0.62452 -0.64943,-0.91006 -0.35595,-0.23634 -0.39439,-0.21256 -0.65173,0.40336 -0.15041,0.35998 -0.27348,0.69465 -0.27348,0.74371 0,0.10729 1.44834,-0.11071 1.57464,-0.23701 z m -7.23678,-1.47173 c -1.10745,-0.60191 -1.63226,-1.77559 -1.13399,-2.53605 0.48843,-0.74544 2.11554,-1.41868 3.46119,-1.43213 1.4666,-0.0146 1.74844,0.19357 1.74454,1.28881 -0.008,2.11918 -2.31216,3.63572 -4.07174,2.67937 z m 2.29874,-1.40528 c 0.20064,-0.28177 0.36479,-0.75802 0.36479,-1.05834 0,-0.46549 -0.0653,-0.54603 -0.44294,-0.54603 -0.66033,0 -2.01596,0.73924 -2.02166,1.10243 -0.007,0.47375 0.64157,1.01424 1.21787,1.01424 0.36951,0 0.6213,-0.14627 0.88194,-0.5123 z m 7.58292,1.16956 c -1.36374,-0.91903 -1.73522,-2.25499 -0.99203,-3.56768 0.5579,-0.98542 1.15521,-1.23725 2.84407,-1.19906 1.30631,0.0295 1.43259,0.067 1.94027,0.57524 0.47823,0.47877 0.54043,0.65519 0.52117,1.47819 -0.031,1.32362 -0.56914,2.44881 -1.348,2.8184 -0.91221,0.43287 -2.23685,0.38593 -2.96548,-0.10509 z m 2.45239,-1.06104 c 0.1038,-0.12507 0.28778,-0.59777 0.40885,-1.05045 0.19228,-0.71889 0.18319,-0.86389 -0.0718,-1.14565 -0.16057,-0.17742 -0.47374,-0.3362 -0.69594,-0.35282 -0.22219,-0.0166 -0.57822,-0.0739 -0.79118,-0.1272 -0.29371,-0.0736 -0.49598,0.0457 -0.83784,0.49388 -0.6065,0.79516 -0.56782,1.21188 0.17284,1.86219 0.65997,0.57946 1.4798,0.72402 1.81507,0.32005 z m -16.4636,7.99516 c 0.0604,-0.19036 0.0282,-0.49866 -0.0716,-0.68511 -0.0998,-0.18645 -0.27965,-1.77694 -0.39971,-3.53444 l -0.21829,-3.19545 H 128.148 c -0.54363,0 -1.06861,0.49431 -1.17649,1.10777 -0.0379,0.21535 -0.10098,1.71569 -0.14023,3.3341 l -0.0714,2.94256 0.75759,0.16945 c 1.25254,0.28016 1.69149,0.24655 1.81382,-0.13888 z m 24.05203,-2.23893 0.4138,-0.11079 -0.11359,-3.1941 c -0.12539,-3.52601 -0.2022,-4.15812 -0.50755,-4.17699 -1.69981,-0.10504 -1.69201,-0.11097 -1.36305,1.03603 0.20836,0.72651 0.34368,2.05277 0.37253,3.65103 0.0522,2.89254 0.13256,3.08002 1.19786,2.79482 z m -71.95893,-1.73456 c 0.20471,-0.43551 0.3722,-1.12058 0.3722,-1.52238 v -0.73056 l -0.62459,0.10136 c -0.34353,0.0557 -0.89915,0.27104 -1.23472,0.47843 -0.51784,0.32005 -0.61013,0.47569 -0.61013,1.029 0,0.91882 0.40952,1.43598 1.1371,1.43598 0.52373,0 0.62858,-0.0865 0.96014,-0.79183 z m 27.38283,-1.12963 c 0.71489,-0.36677 1.77604,-0.91179 2.35812,-1.21116 0.58209,-0.29937 1.8124,-0.91298 2.73403,-1.36358 2.44634,-1.19604 2.42415,-1.12296 0.68371,-2.25194 -2.271,-1.47314 -4.57327,-2.82665 -4.66019,-2.73974 -0.043,0.043 -0.11198,0.60344 -0.15321,1.24532 -0.0914,1.42248 -0.26018,1.76786 -0.82514,1.68803 -0.38459,-0.0543 -0.42494,-0.14397 -0.42407,-0.942 5.3e-4,-0.48507 0.0622,-1.22662 0.13698,-1.64789 l 0.13602,-0.76595 -0.75434,0.12271 c -1.70496,0.27736 -6.88953,1.72088 -7.8099,2.17449 -0.29104,0.14344 -0.76729,0.32141 -1.05833,0.3955 -0.44894,0.11428 -1.81167,0.63424 -3.175,1.21145 -0.30342,0.12846 -0.21703,0.21055 0.61736,0.58667 0.53358,0.24052 2.0417,0.95373 3.35139,1.58491 2.20603,1.06314 3.3528,1.54721 5.51033,2.32594 0.45981,0.16597 0.87828,0.37014 0.92994,0.45372 0.12285,0.19878 0.8067,-0.0479 2.4023,-0.86648 z m -0.45862,-0.71552 c -0.0649,-0.10505 -0.18796,-0.14779 -0.2734,-0.095 -0.13521,0.0836 -0.52583,-0.42897 -0.52583,-0.68994 0,-0.12891 1.02192,-1.1642 1.14917,-1.1642 0.11712,0 -0.023,1.93121 -0.14926,2.0575 -0.0455,0.0454 -0.13576,-0.003 -0.20068,-0.10837 z m 24.42438,-7.17882 c 0.63059,-0.13673 1.70216,-0.32487 2.38125,-0.4181 1.7094,-0.23466 2.20487,-0.35312 2.20487,-0.52715 0,-0.24289 -1.88524,-0.40693 -3.33252,-0.28997 -2.30265,0.18608 -2.72065,0.29355 -3.2589,0.8379 -0.2783,0.28145 -0.57596,0.51173 -0.66146,0.51173 -0.0855,0 -0.15546,0.0779 -0.15546,0.17301 0,0.19799 1.10041,0.0859 2.82222,-0.28742 z m -3.64738,-0.54705 c 0.0427,-0.0728 0.0387,-0.38765 -0.009,-0.69975 -0.1077,-0.70766 -0.58766,-0.8929 -1.1856,-0.45758 -0.7785,0.56676 -0.47297,1.28962 0.54508,1.28962 0.31442,0 0.6066,-0.0595 0.64928,-0.13229 z m -10.06685,-34.10415 c 2.24088,-0.0573 2.79223,-0.1946 1.64507,-0.40981 -0.38366,-0.072 -0.80963,-0.34761 -1.16804,-0.75583 -0.52738,-0.60064 -0.55761,-0.70598 -0.46372,-1.61575 0.12413,-1.20266 0.55531,-1.80799 1.47816,-2.07518 0.57383,-0.16614 0.82138,-0.15594 1.30602,0.0538 1.42969,0.61873 1.47994,0.66218 1.47994,1.27972 0,0.79917 -0.59808,1.22507 -1.80794,1.28744 -0.5093,0.0263 -0.92602,0.10844 -0.92604,0.18263 -10e-5,0.29243 1.17271,0.82417 2.06322,0.93543 0.517,0.0646 0.98118,0.18408 1.03152,0.26552 0.0503,0.0814 0.20803,0.10335 0.35044,0.0487 0.16146,-0.0619 0.25894,0.007 0.25894,0.1841 0,0.1559 -0.0992,0.29338 -0.22049,0.30553 -0.12127,0.0121 0.1367,0.082 0.57326,0.1552 1.0684,0.17918 2.424,0.0521 3.17,-0.29706 0.49438,-0.23143 0.7776,-0.2528 1.47011,-0.11094 0.66216,0.13564 0.91078,0.12269 1.09026,-0.0568 0.53794,-0.53795 0.66209,-4.63091 0.17714,-5.84017 -0.24761,-0.61744 -0.41201,-0.77709 -0.94294,-0.91574 -1.86668,-0.48745 -28.00723,-0.7807 -31.95207,-0.35844 -1.01864,0.10904 -2.76489,0.3202 -3.88055,0.46926 -1.11566,0.14905 -2.22691,0.29634 -2.46945,0.3273 -0.66063,0.0843 -4.20276,1.58492 -4.6228,1.9584 -0.52134,0.46357 -1.01324,1.62376 -1.01777,2.40052 -0.006,1.02337 0.57256,1.27595 4.58224,2.00057 1.44046,0.26031 5.16058,0.41183 12.7,0.51727 4.41413,0.0617 8.0389,0.12512 8.05504,0.14087 0.0427,0.0417 5.41595,-0.01 8.04045,-0.0766 z m -3.66007,-0.63903 c -0.79832,-0.19449 -1.49309,-1.2245 -1.60422,-2.37827 -0.0734,-0.76238 0.15635,-0.96013 0.89906,-0.77372 0.27984,0.0702 0.44057,0.23502 0.44057,0.45169 0,0.47108 0.35276,1.20191 0.63182,1.309 0.22031,0.0845 0.29847,-0.22145 0.46826,-1.83323 0.0381,-0.36205 0.14116,-0.44097 0.57562,-0.44097 0.45583,0 0.53742,0.0726 0.58873,0.52394 0.12062,1.06096 -0.16323,2.41799 -0.59636,2.85112 -0.40754,0.40753 -0.68616,0.46519 -1.40348,0.29044 z m -3.62172,-0.71272 c -0.58302,-0.49905 -0.92501,-0.65217 -1.5359,-0.68766 -0.87687,-0.051 -1.23727,-0.27615 -1.48511,-0.92803 -0.4232,-1.11311 1.0425,-2.8364 2.41242,-2.8364 1.03337,0 1.73899,1.28868 1.32798,2.4253 -0.20854,0.57672 -0.19134,0.63764 0.33282,1.17843 0.57954,0.59793 0.58684,0.93515 0.0278,1.28426 -0.27947,0.17453 -0.44487,0.10777 -1.08004,-0.4359 z m -1.22898,-1.98701 c 0,-0.0994 0.19844,-0.2562 0.44098,-0.34841 0.24253,-0.0922 0.44097,-0.27351 0.44097,-0.40289 0,-0.41953 -0.43568,-0.85663 -0.73816,-0.74056 -0.35591,0.13657 -0.74947,1.04241 -0.61038,1.40487 0.11535,0.3006 0.46659,0.36609 0.46659,0.087 z m -21.1368,2.10947 c -0.32312,-0.0693 -0.82643,-0.35308 -1.11847,-0.63052 -0.47869,-0.45476 -0.52315,-0.58826 -0.45138,-1.35543 0.11552,-1.23475 0.59189,-1.78945 1.55991,-1.81636 1.90221,-0.0529 2.91419,0.66924 2.74242,1.95693 -0.15418,1.15584 -1.55074,2.099 -2.73248,1.84538 z m 1.30986,-1.66517 c 0.33507,-0.50745 0.0519,-0.83337 -0.7465,-0.85901 -0.59588,-0.0191 -0.68906,0.0322 -0.74227,0.4092 -0.1178,0.8346 1.00975,1.17528 1.48877,0.44981 z m 14.81927,1.37802 c -0.0557,-0.27227 -0.11777,-0.87787 -0.13803,-1.34579 -0.0407,-0.94089 0.17671,-1.21145 0.91237,-1.13522 0.42982,0.0445 0.44097,0.0814 0.44097,1.45681 v 1.41111 l -0.55706,0.0541 c -0.48671,0.0472 -0.56984,-0.008 -0.65825,-0.44098 z m -9.41081,-0.6422 c -0.0976,-0.2143 -0.16764,-1.26103 -0.15556,-2.32609 0.0217,-1.91247 0.0273,-1.93722 0.45305,-1.99732 0.52483,-0.0741 0.87274,0.34574 0.76286,0.92054 -0.0724,0.37852 -0.003,0.42985 0.73006,0.53977 0.44551,0.0668 0.81002,0.17716 0.81002,0.24522 0,0.0681 0.17418,0.20211 0.38708,0.29787 0.44061,0.1982 0.74901,1.10262 0.48461,1.42119 -0.45964,0.55384 -1.55847,1.10097 -2.39182,1.19096 -0.8089,0.0873 -0.92123,0.057 -1.0803,-0.29214 z m 1.97462,-1.06556 c 0.20399,-0.32736 -0.0998,-0.63169 -0.63555,-0.63666 -0.21735,-0.002 -0.28692,0.14924 -0.27425,0.59624 0.0148,0.52278 0.062,0.58229 0.37097,0.46799 0.19469,-0.072 0.43716,-0.26443 0.53883,-0.42757 z m 3.14835,0.98899 c -0.24519,-0.16085 -0.44612,-2.68895 -0.24019,-3.02214 0.0754,-0.12207 0.36669,-0.19576 0.6472,-0.16374 0.40758,0.0465 0.52124,0.15566 0.56584,0.5433 0.0504,0.43824 0.12335,0.48507 0.75532,0.48507 0.38473,0 0.97477,0.11501 1.3112,0.25558 0.5085,0.21246 0.6117,0.34638 0.6117,0.79375 0,0.62137 -0.15469,0.65464 -1.24879,0.26862 -0.93175,-0.32874 -1.17829,-0.25167 -1.25203,0.39142 -0.0436,0.38026 -0.15937,0.50611 -0.49779,0.54118 -0.24254,0.0251 -0.53615,-0.0167 -0.65246,-0.093 z m 4.35662,-2.94506 c 0,-0.52944 0.4726,-0.81293 1.01424,-0.60841 0.48122,0.18172 0.49949,0.36647 0.0743,0.75126 -0.5054,0.45738 -1.08855,0.38085 -1.08855,-0.14285 z m 49.65978,-2.60794 c -0.006,-4.57028 0.16962,-9.27771 0.37851,-10.14635 0.053,-0.22047 0.0413,-0.915 -0.026,-1.5434 -0.0898,-0.83873 -0.19211,-1.14254 -0.38466,-1.14254 -0.21107,0 -0.2528,0.23281 -0.21364,1.19186 0.0268,0.65552 -0.006,1.28063 -0.0733,1.38913 -0.21416,0.3465 -0.33322,9.76582 -0.14129,11.17734 0.15018,1.10444 0.30294,2.68288 0.35422,3.66007 0.006,0.12127 0.0343,0.22049 0.062,0.22049 0.0277,0 0.0476,-2.16297 0.0441,-4.8066 z m -33.34427,4.27818 c 0.0597,-0.0966 -0.10052,-0.2709 -0.35606,-0.38733 -0.48312,-0.22013 -0.9626,-0.0657 -1.10288,0.35508 -0.0863,0.25888 1.29994,0.28952 1.45894,0.0323 z m 12.57173,-1.55946 c 0.27965,-0.17749 0.48646,-1.93989 0.45875,-3.90935 -0.0577,-4.10127 -0.13352,-5.49246 -0.3118,-5.72226 -0.20292,-0.26154 -0.58239,-0.32048 -4.07516,-0.63288 -2.49813,-0.22344 -13.96041,-0.10954 -17.10972,0.17002 -2.65074,0.2353 -8.95188,0.31538 -12.04835,0.15311 -1.29083,-0.0677 -2.46734,-0.0768 -2.61447,-0.0203 -0.33287,0.12773 -1.07505,1.77337 -1.15367,2.55804 l -0.0585,0.5839 5.90903,-0.0237 c 3.24996,-0.013 10.03653,-0.0422 15.08125,-0.0648 5.04472,-0.0226 9.38192,0.0143 9.63822,0.0821 0.76655,0.20278 2.11316,0.94242 1.92619,1.05798 -0.11275,0.0697 -0.11423,0.26425 -0.004,0.55366 0.0933,0.24541 0.16965,0.67916 0.16965,0.96389 0,0.38362 0.0834,0.51768 0.32203,0.51768 0.6368,0 1.52718,1.32644 1.72669,2.5723 0.12725,0.79467 0.15765,0.9615 0.22229,1.22006 0.0363,0.14509 1.67964,0.0943 1.92178,-0.0594 z m -40.35251,-3.71999 c 2.98358,-0.46471 5.47498,-0.5931 11.72986,-0.6045 7.55635,-0.0138 22.66414,0.2168 22.8783,0.34916 0.2217,0.13702 0.16423,-0.25833 -0.11647,-0.80114 -0.17136,-0.33137 -0.44648,-0.53474 -0.82616,-0.61067 -0.55604,-0.11121 -14.51775,-0.14203 -27.94991,-0.0617 -7.16746,0.0429 -7.14776,0.0405 -7.47434,0.91488 -0.41611,1.11418 -0.41175,1.15441 0.11592,1.07099 0.27295,-0.0431 1.01221,-0.1588 1.6428,-0.25702 z M 47.0331,182.73069 c 0.26114,-0.48796 0.81407,-0.61707 1.74595,-0.40769 0.41216,0.0926 1.08425,0.12654 1.49355,0.0754 0.61003,-0.0762 0.70482,-0.0512 0.52586,0.13881 -0.13681,0.14525 -0.76238,0.25154 -1.67569,0.28472 -0.80156,0.0291 -1.64499,0.10522 -1.87428,0.1691 -0.38123,0.10621 -0.39966,0.0839 -0.21539,-0.26036 z m 63.20144,-32.17151 c -0.15498,-0.18674 -0.22426,-1.85972 -0.25463,-6.14916 -0.0524,-7.39622 8.8e-4,-8.90461 0.32359,-9.17248 0.17131,-0.14217 0.67951,-0.16734 1.65692,-0.0821 1.10845,0.0967 1.41297,0.0733 1.42452,-0.10963 0.0463,-0.73211 0.12383,-1.05905 0.29087,-1.22609 0.25844,-0.25844 2.09982,-0.4544 3.72255,-0.39617 2.16107,0.0776 11.00162,0.0655 11.5823,-0.0158 0.5385,-0.0754 5.1265,-0.12193 10.23662,-0.10383 l 2.82829,0.01 0.28282,0.48507 c 0.27411,0.47014 0.38456,1.08968 0.58962,3.30729 0.0538,0.58208 0.1676,1.33614 0.25284,1.67569 0.0852,0.33955 0.2101,1.21268 0.27748,1.94028 0.0674,0.7276 0.15771,1.48167 0.20074,1.6757 0.043,0.19402 0.15916,0.94809 0.25809,1.67569 0.15579,1.1459 0.35287,2.00673 0.6308,2.75538 0.12698,0.34205 -0.47716,0.7724 -1.08434,0.7724 h -0.5831 l 0.0896,0.83784 c 0.0493,0.46082 0.14945,0.91723 0.22261,1.01424 0.2112,0.2801 -0.11962,0.92747 -0.54256,1.06171 -0.21244,0.0674 -3.05523,0.10043 -6.31732,0.0733 -3.26209,-0.0271 -10.41855,0.0129 -15.90324,0.089 -8.62699,0.11957 -10.00088,0.10361 -10.18507,-0.11832 z m 14.9988,-1.269 c 2.74012,-0.0549 7.50749,-0.1005 10.59415,-0.10136 l 5.6121,-0.002 -0.0996,-1.10161 c -0.0548,-0.60588 -0.1755,-2.155 -0.26824,-3.44249 -0.0927,-1.28749 -0.21692,-2.41904 -0.27594,-2.51455 -0.059,-0.0955 -0.13667,-1.22493 -0.17253,-2.50981 -0.0359,-1.28488 -0.0706,-2.51709 -0.0772,-2.73825 l -0.012,-0.40208 -14.06702,0.044 c -7.73686,0.0242 -14.40064,-0.0195 -14.8084,-0.0971 l -0.74138,-0.14109 0.15021,0.52377 c 0.0826,0.28808 0.16502,2.4574 0.1831,4.82071 0.0181,2.36331 0.0527,4.65412 0.0769,5.09068 0.0242,0.43656 0.0572,1.2052 0.0732,1.70808 0.0274,0.85792 0.0591,0.91776 0.51425,0.97014 0.62082,0.0714 6.9258,0.0205 13.3183,-0.10751 z m -3.64683,-0.58633 c -0.0863,-0.27236 -0.30474,-0.30158 -1.85649,-0.24829 -1.99527,0.0685 -5.66232,-0.2225 -6.16001,-0.48886 -0.24261,-0.12984 -0.33535,-0.38523 -0.34679,-0.95496 -0.009,-0.42775 -0.11412,-1.32334 -0.23453,-1.9902 -0.20687,-1.14573 -0.23251,-5.60059 -0.0362,-6.28367 0.059,-0.20542 0.26524,-0.30868 0.61641,-0.30868 0.29023,0 0.48586,-0.0677 0.43474,-0.1504 -0.0511,-0.0827 0.004,-0.28113 0.12188,-0.44091 0.32021,-0.43299 6.98241,-0.63849 7.59913,-0.23441 0.44715,0.29299 0.56897,0.87687 0.74268,3.55975 0.0503,0.77611 0.16708,1.94225 0.25962,2.59143 0.0926,0.64917 0.16827,1.58637 0.16827,2.08265 0,0.49629 0.0894,1.25748 0.19872,1.69154 0.17267,0.68575 0.15753,0.83471 -0.11554,1.13644 -0.39706,0.43875 -1.25759,0.4626 -1.39192,0.0386 z m -1.64578,-1.58061 1.36702,-0.0877 v -0.73444 c 0,-1.00066 -0.66169,-1.94191 -1.69655,-2.41334 -0.66035,-0.30082 -0.90171,-0.33289 -1.34436,-0.17858 -0.29673,0.10345 -0.83513,0.18808 -1.19643,0.18808 -0.97672,0 -2.45908,1.12103 -2.46276,1.86247 -0.004,0.85796 0.31002,1.09718 1.67301,1.27343 1.49269,0.19301 1.89986,0.20304 3.66007,0.0901 z m -4.39941,-5.07238 c -0.0777,-0.77843 -0.0268,-0.96799 0.41358,-1.54071 0.27618,-0.35919 0.58153,-0.64412 0.67854,-0.63317 0.097,0.0109 0.41369,-0.0775 0.70372,-0.19648 0.78022,-0.32014 1.59895,-0.0991 2.08906,0.56404 0.5662,0.76609 0.65389,1.07271 0.48007,1.67875 -0.13579,0.47347 -0.0971,0.53992 0.47223,0.81142 0.34107,0.16264 0.66237,0.25347 0.714,0.20184 0.13515,-0.13515 -0.31168,-3.64439 -0.51161,-4.01795 -0.1499,-0.2801 -0.38966,-0.30597 -2.23409,-0.24107 -1.13639,0.04 -2.50413,0.0798 -3.03944,0.0886 l -0.97328,0.0159 -0.0554,2.48301 -0.0554,2.48302 0.70328,-0.40476 c 0.69878,-0.40216 0.70272,-0.41044 0.61472,-1.29239 z m 2.90011,-0.0612 c 0.48599,-0.60945 0.12948,-1.2674 -0.68674,-1.2674 -0.67519,0 -1.05913,0.57812 -0.82671,1.24483 0.15607,0.4477 0.23857,0.49283 0.73439,0.40172 0.30721,-0.0565 0.65779,-0.22707 0.77906,-0.37915 z m 7.58446,5.5317 c -0.6129,-0.19886 -0.81936,-0.66336 -0.47778,-1.07494 0.15732,-0.18955 0.63094,-0.25628 1.82255,-0.25678 0.8855,-3.5e-4 2.32438,-0.11804 3.1975,-0.2615 2.10758,-0.34628 3.16413,-0.34087 3.52306,0.0181 0.69209,0.6921 -0.058,1.02874 -3.08208,1.38323 -3.15682,0.37004 -4.29875,0.41402 -4.98325,0.19193 z m 0.0235,-3.02519 c -0.021,-0.33552 0.0269,-0.83414 0.0861,-0.89725 0.0174,-0.0186 0.4266,-0.0802 0.90927,-0.13698 0.48267,-0.0568 1.11571,-0.13979 1.40676,-0.18447 0.29104,-0.0447 1.40229,-0.12532 2.46944,-0.17919 1.06715,-0.0539 2.08912,-0.14276 2.27105,-0.19755 0.21481,-0.0647 0.28846,-0.0311 0.21007,0.0957 -0.0733,0.11864 0.0219,0.19528 0.2425,0.19528 0.50058,0 0.47726,0.63057 -0.0337,0.91086 -0.21828,0.11974 -1.23031,0.27784 -2.24896,0.35134 -5.69609,0.41099 -5.28972,0.40776 -5.31256,0.0423 z m -0.57765,-2.41542 c -0.19534,-0.14284 -0.29356,-0.3971 -0.25605,-0.66282 0.0542,-0.38395 0.17656,-0.44596 1.11918,-0.56712 0.58208,-0.0748 1.77271,-0.25434 2.64583,-0.39895 2.60705,-0.43178 4.72366,-0.63967 4.83504,-0.47488 0.0571,0.0845 0.24276,0.2049 0.41253,0.26754 0.16978,0.0626 0.30868,0.23361 0.30868,0.37994 0,0.48061 -0.76751,0.75983 -2.38125,0.86628 -0.87312,0.0576 -2.26218,0.21777 -3.0868,0.35593 -2.65215,0.44435 -3.25586,0.48364 -3.59716,0.23408 z m -1.12125,-2.35725 c -0.23937,-0.0966 -0.30505,-0.86843 -0.0854,-1.00416 0.43353,-0.26794 7.17884,-1.19689 10.29913,-1.41838 0.99447,-0.0706 1.22003,-0.0322 1.4766,0.25131 0.36462,0.40289 0.23796,0.82722 -0.30869,1.03424 -0.22077,0.0836 -1.27452,0.1985 -2.34167,0.25533 -2.42185,0.12897 -5.01686,0.40447 -6.96737,0.73968 -1.58855,0.273 -1.72472,0.28233 -2.07257,0.14198 z m 16.6129,-4.65644 c 0.0906,-0.0879 0.10931,-0.21507 0.0417,-0.28268 -0.21712,-0.21712 -26.11547,-0.05 -26.33541,0.16996 -0.055,0.055 -0.06,0.16482 -0.011,0.24403 0.12292,0.19897 26.09798,0.0693 26.30472,-0.13131 z m -57.40283,15.34569 c -1.89177,-0.0748 -3.99521,-0.18355 -4.6743,-0.24159 -2.70748,-0.2314 -11.77911,-0.28932 -15.08125,-0.0963 -1.89177,0.11059 -3.75709,0.21446 -4.14514,0.23082 l -0.70556,0.0298 -0.0175,-6.79097 c -0.01,-3.73503 0.0489,-7.3466 0.1301,-8.02569 0.0812,-0.6791 0.18973,-1.58957 0.24124,-2.02327 0.0691,-0.58224 0.23408,-0.9168 0.63043,-1.27882 0.29524,-0.26965 0.59142,-0.49402 0.6582,-0.4986 0.0668,-0.005 3.2964,-0.0467 7.17696,-0.0937 3.88055,-0.0469 8.72243,-0.14242 10.75972,-0.21216 2.03729,-0.0697 5.88698,-0.10775 8.55486,-0.0845 2.66788,0.0233 5.36663,0.0447 5.99722,0.0476 1.36318,0.006 2.0872,0.25814 2.21359,0.77028 0.0508,0.206 0.0778,1.64455 0.06,3.19677 -0.049,4.26793 0.13521,13.31443 0.28703,14.09251 0.089,0.45613 0.0733,0.64939 -0.0468,0.57516 -0.0995,-0.0615 -0.17001,0.0263 -0.15671,0.19499 0.0223,0.28313 -0.3022,0.30821 -4.20915,0.32527 -2.32833,0.0102 -5.78115,-0.0427 -7.67292,-0.11758 z m 10.58046,-3.84297 c 0.0764,-3.05457 0.0823,-2.35238 -0.0673,-8.05238 -0.0662,-2.52236 -0.15929,-4.8379 -0.20688,-5.14563 l -0.0865,-0.55952 -1.3616,-0.0758 c -1.30586,-0.0727 -18.43813,0.0384 -19.52966,0.12671 -0.29104,0.0235 -3.16267,0.0552 -6.3814,0.0704 l -5.85224,0.0276 -0.14498,1.01423 c -0.13197,0.92319 -0.15464,14.6654 -0.0244,14.7606 0.0307,0.0224 1.08763,-0.0206 2.34881,-0.0956 2.41387,-0.14347 13.04607,-0.0644 16.05139,0.11942 3.46408,0.21184 8.52036,0.37657 11.82839,0.38535 l 3.36173,0.009 0.0646,-2.58433 z m -8.3315,1.37029 c -0.40212,-0.23421 -0.39121,-0.56206 0.0315,-0.94457 0.44659,-0.40416 1.07097,-0.21879 1.07097,0.31795 0,0.70036 -0.49387,0.98108 -1.10243,0.62662 z m -14.55208,-2.28442 c -0.21828,-0.0877 -0.39688,-0.27964 -0.39688,-0.42645 0,-0.14681 -0.23134,-0.76452 -0.51409,-1.3727 -0.28275,-0.60817 -0.85822,-1.87588 -1.27882,-2.81712 -1.14028,-2.55178 -0.95425,-2.4304 -2.5695,-1.67653 -2.45537,1.14597 -4.00329,1.71097 -4.68923,1.71158 -0.62745,5.3e-4 -0.66939,-0.0317 -0.61737,-0.47497 0.0469,-0.39994 0.22001,-0.539 1.08834,-0.87442 0.56789,-0.21937 2.17197,-0.92792 3.56462,-1.57455 1.39266,-0.64664 2.6452,-1.13231 2.78343,-1.07926 0.3274,0.12563 1.15077,1.65366 2.25246,4.1802 0.48648,1.11566 0.99781,2.20316 1.13628,2.41668 l 0.25177,0.3882 1.01585,-0.57962 c 0.55871,-0.3188 1.77387,-1.08914 2.70034,-1.71187 0.92648,-0.62273 2.37007,-1.47822 3.20798,-1.90108 l 1.52347,-0.76884 0.57465,0.40918 c 0.31605,0.22505 1.46441,1.30558 2.55191,2.40118 1.0875,1.0956 2.06912,1.992 2.18136,1.992 0.18526,0 4.07027,-2.83641 5.41007,-3.94984 0.69214,-0.57521 1.39465,-0.61015 1.53425,-0.0763 0.0552,0.21096 0.0446,0.4816 -0.0235,0.60142 -0.18859,0.3318 -3.8749,3.21147 -4.27265,3.33771 -0.192,0.0609 -0.3491,0.17529 -0.3491,0.25411 0,0.28477 -1.93551,1.59681 -2.3556,1.59681 -0.31523,0 -1.08013,-0.6374 -2.85758,-2.38125 -1.33493,-1.30969 -2.5212,-2.38125 -2.63618,-2.38125 -0.51737,0 -7.6571,4.37196 -7.81985,4.78843 -0.0755,0.19307 -0.88312,0.17489 -1.39641,-0.0314 z m 1.05833,-2.40438 c -0.28013,-0.11303 -0.28516,-0.62989 -0.009,-0.90623 0.11642,-0.11642 0.43392,-0.21167 0.70556,-0.21167 0.59323,0 0.65252,0.37053 0.14111,0.88194 -0.3624,0.3624 -0.45787,0.38929 -0.83785,0.23596 z m 8.33861,-5.46039 c -0.26314,-0.26314 -0.26139,-0.31225 0.0223,-0.62571 0.59141,-0.6535 1.86505,-0.0385 1.30866,0.63189 -0.29956,0.36095 -0.96691,0.35785 -1.33095,-0.006 z m -11.63663,-2.31154 c -0.14119,-0.36793 0.32309,-0.7543 0.90639,-0.7543 0.31196,0 0.40726,0.0988 0.40726,0.4221 0,0.64486 -1.08808,0.92002 -1.31365,0.3322 z m 4.66503,-10.51173 c -0.14552,-0.11643 -0.5027,-0.65876 -0.79375,-1.20518 -1.90638,-3.57915 -4.03644,-7.07994 -4.70063,-7.72557 -0.25701,-0.24984 -0.49514,-0.65173 -0.52917,-0.8931 -0.0513,-0.36417 -0.15193,-0.43409 -0.59103,-0.41081 -0.29104,0.0154 -1.57041,0.0477 -2.84304,0.0716 -2.27779,0.0429 -2.3328,0.0347 -3.52778,-0.52366 -2.28696,-1.06865 -3.48436,-2.77017 -3.86492,-5.49216 -0.1221,-0.8733 0.32284,-3.88798 0.71091,-4.81676 0.23107,-0.55303 1.43964,-2.41289 1.67942,-2.58444 0.0678,-0.0485 0.25351,-0.34242 0.4127,-0.65315 0.33727,-0.65834 1.94463,-1.665728 3.30006,-2.068248 1.28942,-0.38292 4.2974,-0.54539 5.27918,-0.28515 1.18006,0.3128 3.39128,1.43748 3.77881,1.921988 0.18657,0.23326 0.56958,0.67193 0.85112,0.97482 0.62599,0.67345 1.30404,1.95949 1.41955,2.69241 0.0471,0.29903 0.16656,0.6948 0.2654,0.87948 0.0988,0.18469 0.14558,0.73141 0.10386,1.21495 -0.0417,0.48353 -0.10569,1.26136 -0.14217,1.72851 -0.0915,1.17145 -1.21981,3.3593 -2.21963,4.30383 -0.43656,0.41242 -0.8641,0.7512 -0.95009,0.75285 -0.086,0.002 0.0529,0.21225 0.30868,0.46801 0.25576,0.25576 0.46502,0.59531 0.46502,0.75454 0,0.15923 0.4738,0.88263 1.05288,1.60754 0.65975,0.82589 1.52397,2.27303 2.31453,3.87567 0.69391,1.4067 1.41074,2.76833 1.59296,3.02584 0.18221,0.25751 0.3313,0.58256 0.3313,0.72232 0,0.41278 -0.63915,0.8828 -1.03124,0.75836 -0.24218,-0.0769 -0.53314,0.0467 -0.93868,0.39854 -0.69611,0.60397 -1.36763,0.80027 -1.73425,0.50696 z m 1.48772,-2.04188 c 0.21786,-0.3525 -2.35426,-5.26015 -3.39544,-6.47857 -0.70199,-0.8215 -0.86471,-0.8894 -1.32193,-0.55164 -0.27226,0.20113 -0.23553,0.31339 0.41843,1.27882 0.3943,0.58209 0.78566,1.2274 0.8697,1.43404 0.084,0.20663 0.53278,0.96069 0.99719,1.67569 0.46442,0.715 0.93218,1.45874 1.03947,1.65277 0.48935,0.88495 0.71641,1.14653 0.99522,1.14653 0.16496,0 0.34378,-0.0709 0.39736,-0.15764 z m -4.71463,-8.25177 c 0.0525,-0.13687 0.0563,-0.2881 0.008,-0.33605 -0.14668,-0.14667 -1.01473,0.32146 -1.01473,0.54723 0,0.2926 0.88431,0.10704 1.00642,-0.21118 z m -3.77908,-1.3776 c 1.4959,-0.34693 2.27833,-0.68705 3.51963,-1.53 1.67762,-1.13925 2.64294,-2.83101 2.87915,-5.04582 0.17059,-1.5996 -0.5111,-3.51183 -1.82408,-5.11675 -0.6363,-0.77778 -2.1664,-1.619498 -3.67978,-2.024268 -0.81118,-0.21695 -3.50342,0.0418 -4.56045,0.438348 -0.81911,0.30727 -2.02848,1.1815 -2.02848,1.46634 0,0.14086 -0.0763,0.25611 -0.16951,0.25611 -0.2757,0 -0.85153,0.70495 -1.34195,1.64286 -0.84667,1.61922 -1.23833,4.77483 -0.79635,6.41621 0.24366,0.90488 1.22032,2.26384 2.01514,2.80394 1.33277,0.90564 3.82561,1.19421 5.98668,0.69303 z"
       id="path344" />
  </g>
</svg>
