<?xml version="1.0" encoding="UTF-8" standalone="no"?>
<!-- Created with Inkscape (http://www.inkscape.org/) -->

<svg
   width="89.199478mm"
   height="85.655235mm"
   viewBox="0 0 89.19948 85.655237"
   version="1.1"
   id="svg1184"
   sodipodi:docname="scie.svg"
   inkscape:version="1.2.1 (9c6d41e, 2022-07-14)"
   xml:space="preserve"
   xmlns:inkscape="http://www.inkscape.org/namespaces/inkscape"
   xmlns:sodipodi="http://sodipodi.sourceforge.net/DTD/sodipodi-0.dtd"
   xmlns="http://www.w3.org/2000/svg"
   xmlns:svg="http://www.w3.org/2000/svg"><sodipodi:namedview
     id="namedview1186"
     pagecolor="#505050"
     bordercolor="#ffffff"
     borderopacity="1"
     inkscape:showpageshadow="0"
     inkscape:pageopacity="0"
     inkscape:pagecheckerboard="1"
     inkscape:deskcolor="#505050"
     inkscape:document-units="mm"
     showgrid="false"
     inkscape:zoom="0.75491073"
     inkscape:cx="43.713778"
     inkscape:cy="256.98403"
     inkscape:window-width="1440"
     inkscape:window-height="872"
     inkscape:window-x="0"
     inkscape:window-y="0"
     inkscape:window-maximized="1"
     inkscape:current-layer="layer1" /><defs
     id="defs1181" /><g
     inkscape:label="Calque 1"
     inkscape:groupmode="layer"
     id="layer1"
     transform="translate(-315.23096,162.15394)"><path
       style="fill:#000000;stroke-width:1"
       d="m 400.15498,-77.665902 -0.38866,0.09941 -0.14932,-0.143875 -0.14932,-0.143876 -1.77836,0.454855 -1.77836,0.454856 -1.98517,0.222915 -1.98516,0.222915 -1.1249,-0.07883 -1.1249,-0.07883 -0.28194,-0.03457 -0.28194,-0.03457 -0.0929,-0.0072 -0.0929,-0.0072 -0.47433,-0.07492 -0.47434,-0.07492 -1.11421,-0.192033 -1.11422,-0.192031 -1.62981,-0.570708 -1.62981,-0.570709 -0.88861,-0.554544 -0.88861,-0.554544 -0.96734,-0.829105 -0.96734,-0.829106 -0.0395,-0.154471 -0.0395,-0.15447 -0.54613,-0.439886 -0.54614,-0.439884 -0.94441,-1.397049 -0.94442,-1.397049 -0.38382,-0.502788 -0.38382,-0.502787 0.0894,-0.363676 0.0894,-0.363675 0.41561,-0.539567 0.4156,-0.539562 -0.73037,-0.60708 -0.73036,-0.607084 -1.05871,-1.262609 -1.05872,-1.262612 -0.33634,0.168881 -0.33634,0.168878 -1.35059,0.756275 -1.35058,0.756271 -1.39521,0.253657 -1.3952,0.253657 -0.67864,-0.02502 -0.67863,-0.02502 -1.23858,-0.515204 -1.23857,-0.515201 -0.67918,-0.581725 -0.67917,-0.581726 -0.56417,-0.401903 -0.56415,-0.401906 -0.29693,-0.197153 -0.29694,-0.197154 -0.58746,-0.578012 -0.58746,-0.578013 -1.07739,-1.272004 -1.07739,-1.272003 -0.90258,-1.225685 -0.90257,-1.225684 -0.40454,-0.511244 -0.40454,-0.51123 -0.42935,-1.642351 -0.42936,-1.64235 0.15919,-0.99239 0.15921,-0.99239 0.58962,-0.90849 0.58961,-0.9085 -0.31803,-0.0845 -0.31804,-0.0845 -0.4367,-0.47097 -0.43671,-0.47097 -0.76684,-2.99004 -0.76683,-2.99005 -0.18684,-0.1724 -0.18683,-0.17243 -1.13574,-0.27708 -1.13575,-0.27707 -0.43387,-0.55779 -0.43387,-0.55779 -0.63004,-2.13117 -0.63005,-2.13116 -0.32331,-0.40152 -0.32332,-0.40152 -0.14346,0.0367 -0.14345,0.0367 -0.0601,-0.23516 -0.0602,-0.23517 -1.31796,-0.31335 -1.31795,-0.31335 -0.58178,-0.31557 -0.58178,-0.31557 -0.38532,-0.5109 -0.38533,-0.5109 -0.49026,-1.76871 -0.49027,-1.76871 -0.26671,-0.7191 -0.26671,-0.71912 -0.30403,-0.0228 -0.30402,-0.0228 -0.95913,-0.17274 -0.95914,-0.17275 -0.35189,-0.24263 -0.35188,-0.24263 -0.37613,-0.9962 -0.37612,-0.99619 -0.33682,-0.599 -0.33682,-0.59899 -0.68699,-0.46986 -0.687,-0.46986 -0.69487,-0.15791 -0.69486,-0.15792 -0.4428,-0.22363 -0.44281,-0.22362 -0.49357,-1.14773 -0.49357,-1.14772 -0.52928,-1.67504 -0.52927,-1.67504 -0.38021,-0.25522 -0.38021,-0.25523 -0.76051,-0.12607 -0.76052,-0.12608 -0.44889,-0.25271 -0.4489,-0.2527 -0.37868,-0.9968 -0.3787,-0.99681 -0.002,-0.43596 -0.002,-0.43597 -0.40534,-0.29529 -0.40536,-0.29531 -1.28618,-0.44398 -1.28618,-0.44397 -0.47582,-0.39437 -0.47582,-0.39436 -0.48428,-1.89341 -0.48428,-1.89341 -0.96879,-0.22855 -0.9688,-0.22856 -0.5332,-0.18748 -0.53319,-0.18749 -0.44395,-0.60758 -0.44394,-0.60758 -0.17032,-0.66592 -0.17033,-0.66593 0.13197,-0.84705 0.13196,-0.84705 0.53259,-0.64776 0.53259,-0.64776 0.90117,-1.51521 0.90119,-1.51521 0.82884,-0.83129 0.82884,-0.83129 0.83836,-0.30237 0.83833,-0.30247 1.0625,0.0464 1.06248,0.0464 1.41925,0.6362 1.41925,0.6362 0.70948,0.39194 0.70947,0.39194 1.46854,1.26299 1.46854,1.26299 0.75141,0.80919 0.75141,0.80918 1.4616,1.35579 1.46159,1.35581 0.49936,0.50951 0.49935,0.50952 0.46353,0.42765 0.46352,0.42763 0.62999,0.65817 0.62999,0.65817 0.299,0.28558 0.299,0.28556 0.4007,0.33065 0.40071,0.33065 -0.0546,0.17464 -0.0546,0.17464 0.18932,-0.0484 0.18933,-0.0484 0.45716,0.56581 0.45716,0.56583 1.0854,1.05099 1.08539,1.05098 0.24708,0.24681 0.24708,0.2468 0.74593,0.61032 0.74593,0.61032 0.059,0.23069 0.059,0.23069 0.17626,-0.0451 0.17624,-0.0451 0.18559,0.27115 0.18558,0.27116 1.27107,1.1753 1.27107,1.17531 0.0202,0.0791 0.0202,0.079 1.51059,1.45705 1.51059,1.45703 0.4646,0.45863 0.4646,0.45862 2.00257,1.89106 2.00257,1.89105 0.0423,0.16522 0.0423,0.16521 0.15899,0.02 0.159,0.02 1.08797,0.94023 1.08799,0.94023 0.0462,0.18068 0.0462,0.18069 0.13203,-0.0338 0.13202,-0.0338 0.50019,0.55481 0.50018,0.55484 0.11457,0.0617 0.11457,0.0617 1.02943,1.01115 1.02943,1.01117 0.29558,0.27765 0.29557,0.27764 1.42261,1.28564 1.4226,1.28563 1.03994,0.86802 1.03995,0.86801 0.22927,-0.17135 0.22928,-0.17137 0.79431,-0.45361 0.79432,-0.45363 0.79455,-0.0968 0.79456,-0.0968 0.37724,0.0513 0.37726,0.0513 0.82464,0.12064 0.82465,0.12065 0.63429,0.3473 0.63428,0.3473 0.14921,-0.0382 0.1492,-0.0382 1.1887,0.71737 1.1887,0.71736 0.0571,0.22329 0.0571,0.22329 0.15989,0.0198 0.1599,0.0198 0.78955,0.84495 0.78955,0.84494 0.79092,0.84459 0.79092,0.84458 0.52467,0.50305 0.52467,0.50304 0.3304,0.50324 0.33038,0.50325 0.74491,0.3785 0.7449,0.3785 0.0338,0.13232 0.0338,0.13231 0.4558,0.58842 0.45579,0.58841 0.11933,0.24258 0.11933,0.24258 0.41351,1.16869 0.41352,1.16871 0.12355,1.28563 0.12355,1.28562 -0.0615,0.79228 -0.0615,0.79228 -0.28575,1.07445 -0.28576,1.07446 -0.12828,0.34653 -0.12829,0.34653 0.84879,0.99044 0.84879,0.99045 0.34616,-0.21785 0.34617,-0.21785 0.40603,-0.1303 0.40604,-0.13029 0.8933,0.77288 0.89328,0.7729 0.95984,0.526121 0.95983,0.526125 0.76543,0.17224 0.76542,0.172242 1.19526,-0.02692 1.19524,-0.02692 1.17551,-0.506943 1.17551,-0.50693 0.41258,-0.13426 0.41258,-0.134255 0.33037,0.686095 0.33036,0.686096 0.0315,1.952368 0.0315,1.95237 -0.005,1.09378 -0.005,1.09378 -0.0772,1.02111 -0.0772,1.021109 -0.0397,2.086761 -0.0397,2.08676 -0.0744,0.309296 -0.0744,0.309295 0.003,0.727626 0.003,0.727624 -0.0849,2.185279 -0.0849,2.185278 0.1297,0.124935 0.12971,0.124935 0.94358,-0.361111 0.9436,-0.361113 0.31963,-0.346443 0.31963,-0.346442 0.28295,0.03297 0.28293,0.03297 0.149,0.582546 0.149,0.582546 -0.20901,0.28808 -0.20903,0.288086 -1.63868,0.616451 -1.63868,0.616453 -0.095,0.160837 -0.095,0.160837 z m -2.59576,-1.231539 1.93828,-0.511994 0.0478,-1.195669 0.0478,-1.195671 0.18763,-3.196916 0.18763,-3.196918 0.0384,-1.503599 0.0384,-1.503602 0.0756,-1.840011 0.0756,-1.840009 -0.0293,-1.686688 -0.0292,-1.686692 -0.0956,-0.05667 -0.0956,-0.05667 -0.76428,0.355238 -0.76428,0.35524 -1.04897,0.208143 -1.04898,0.208144 -0.9485,-0.03161 -0.94848,-0.03161 -0.98156,-0.320508 -0.98156,-0.320508 -0.14546,0.363141 -0.14545,0.363141 0.0603,0.235601 0.0603,0.235603 -0.31742,0.84226 -0.31741,0.842258 -0.32647,0.584188 -0.32648,0.584186 -0.12103,0.03187 -0.12103,0.03187 -0.48202,0.714134 -0.48201,0.714134 -0.89683,1.013299 -0.89683,1.0133 -0.57021,0.61795 -0.57022,0.617952 -1.0555,0.956116 -1.05551,0.956118 -1.3815,0.905157 -1.3815,0.905156 -1.06513,0.462567 -1.06513,0.462568 -0.72592,0.187116 -0.72593,0.187118 0.072,0.281365 0.072,0.281367 0.86555,0.798829 0.86555,0.798832 0.50373,0.461634 0.50373,0.461632 0.12846,-0.03162 0.12846,-0.03162 0.0594,0.232295 0.0594,0.232294 0.96065,0.462656 0.96064,0.462655 0.2378,0.1299 0.2378,0.129903 0.90244,0.325061 0.90245,0.325059 1.28132,0.249493 1.28133,0.249493 1.94928,0.129147 1.9493,0.129145 1.64707,-0.17177 1.64708,-0.17177 1.9383,-0.511999 z m -19.18908,-6.393534 0.49912,-0.218599 0.94359,-0.323277 0.94356,-0.323285 1.24424,-0.732735 1.24423,-0.732734 1.49945,-1.329217 1.49944,-1.329215 1.40824,-1.539151 1.40826,-1.539154 0.86412,-1.326477 0.86413,-1.32648 0.13452,-0.906515 0.13454,-0.906515 -0.0138,-0.451653 -0.0137,-0.451652 -0.6522,-0.463545 -0.65218,-0.463545 0.14148,0.553159 0.14148,0.553159 -0.34623,0.247923 -0.34624,0.247923 -0.84869,1.664694 -0.84868,1.664693 -0.96244,1.202559 -0.96244,1.202555 -1.42913,1.24213 -1.42912,1.242131 -0.98445,0.728164 -0.98446,0.728164 -1.36819,0.616636 -1.36818,0.61663 -0.74863,0.191479 -0.74863,0.191479 0.29352,0.698711 0.29352,0.698711 0.32543,0.145719 0.32541,0.145723 z m -0.18581,-3.323555 0.47324,-0.121043 1.1708,-0.576771 1.17079,-0.576772 0.14679,-0.190998 0.14679,-0.190997 1.28708,-1.018482 1.28706,-1.01848 1.17615,-1.301177 1.17614,-1.301177 0.85427,-1.67043 0.85427,-1.67043 0.0739,-0.41313 0.074,-0.413132 -1.46423,-1.764741 -1.46424,-1.76475 -0.0322,-0.12579 -0.0322,-0.1258 0.35752,-0.76148 0.35753,-0.76148 0.18885,-1.04411 0.18884,-1.0441 -0.0542,-1.32038 -0.0542,-1.32038 -0.46928,-1.51957 -0.46928,-1.51957 -0.45758,-0.5192 -0.45759,-0.5192 -0.65124,-0.32652 -0.65124,-0.32652 -0.92933,-0.0742 -0.92932,-0.0743 -1.29922,0.3194 -1.29921,0.3194 -0.59948,0.66212 -0.59947,0.66212 -0.34439,0.92619 -0.34437,0.92619 -0.67686,1.46481 -0.67686,1.46479 -10e-4,0.40998 -0.001,0.40998 -0.16198,0.0414 -0.162,0.0414 -0.36217,0.67941 -0.36216,0.67941 0.11933,0.46654 0.11932,0.46653 0.30613,0.38017 0.30613,0.38017 0.62775,0.043 0.62775,0.043 0.84382,-0.34399 0.84382,-0.34398 0.51428,-0.38786 0.51427,-0.38787 0.53118,-0.80079 0.53118,-0.8008 0.12809,-0.55495 0.12809,-0.55494 0.39705,-0.27973 0.39705,-0.27971 0.28555,0.13524 0.28555,0.13524 0.0284,0.11114 0.0284,0.11114 -0.35981,1.04373 -0.35981,1.04373 0.20428,-0.0502 0.20428,-0.0502 0.7264,0.44475 0.72641,0.44476 -0.004,0.41546 -0.004,0.41546 -0.71624,0.82043 -0.71623,0.82043 -0.6422,0.81488 -0.6422,0.81488 -0.91965,1.031326 -0.91965,1.031329 -1.52171,1.880684 -1.52172,1.880686 -0.90808,0.898602 -0.90808,0.898603 0.0475,0.185605 0.0475,0.185607 1.05629,1.207481 1.05628,1.207484 0.41401,0.269976 0.41401,0.269976 0.0303,0.118632 0.0303,0.118631 0.58621,0.394688 0.58621,0.394688 0.47324,-0.121041 z m -10.1331,-2.34533 0.55859,-0.121589 1.23422,-0.699188 1.23422,-0.699186 1.13786,-1.012881 1.13786,-1.01288 1.33212,-1.556718 1.33211,-1.556718 1.56915,-1.766844 1.56916,-1.766846 1.02606,-1.33017 1.02606,-1.33018 -0.2033,-0.3368 -0.20329,-0.33681 -0.15081,-0.0984 -0.1508,-0.0984 -0.46484,0.56926 -0.46484,0.56926 -0.79455,0.52016 -0.79454,0.52016 -1.44948,0.38351 -1.44948,0.38352 -0.32191,0.3053 -0.32191,0.30531 -0.38794,0.12262 -0.38794,0.12262 -0.32889,-0.0501 -0.32889,-0.0501 -0.0509,0.44116 -0.0509,0.44117 -0.24745,0.359956 -0.24745,0.35995 -0.47066,0.412003 -0.47065,0.412002 -0.90247,0.347335 -0.90247,0.347335 0.29655,1.081949 0.29646,1.081977 -0.47891,0.808838 -0.4789,0.808837 -1.07272,0.274371 -1.07272,0.274371 -0.4987,-0.170612 -0.49869,-0.170615 -0.26366,0.320086 -0.26364,0.320082 -0.30311,0.07752 -0.3031,0.07753 -0.26094,-0.284748 -0.26094,-0.284749 0.22118,-0.373203 0.22118,-0.373203 -0.27088,-0.01936 -0.27088,-0.01936 -1.26394,-0.786146 -1.26395,-0.786143 -0.86345,-0.759882 -0.86346,-0.759883 -0.2514,-0.866674 -0.2514,-0.866678 -0.33228,-0.825346 -0.33229,-0.82535 0.19984,-0.86375 0.19985,-0.86376 1.53963,-1.81059 1.53965,-1.81058 0.83392,-1.01062 0.83391,-1.01061 1.62675,-1.82593 1.62675,-1.82592 0.0574,-0.13147 0.0574,-0.13146 0.57046,-0.61701 0.57045,-0.617 0.95598,-0.88929 0.95599,-0.88927 1.13496,-0.76581 1.13496,-0.76582 0.12361,-0.0316 0.12361,-0.0316 0.58478,0.26009 0.58478,0.26007 1.41259,1.04872 1.41259,1.0487 0.1161,0.18032 0.1161,0.1803 0.85608,-0.45207 0.85608,-0.45207 1.45576,-0.27708 1.45578,-0.27707 -1.17617,-1.26386 -1.17617,-1.26385 -0.40429,-0.45115 -0.4043,-0.45115 -0.11566,-0.0616 -0.11576,-0.0615 -1.09462,-0.9945 -1.09463,-0.99449 -0.49017,-0.25373 -0.49018,-0.25372 -1.34455,-0.4225 -1.34454,-0.4225 -0.95894,0.0649 -0.95894,0.0649 -0.66956,0.47902 -0.66955,0.47903 -0.17148,0.21939 -0.17147,0.2194 0.0761,0.29746 0.0761,0.29747 -0.62586,0.95878 -0.62587,0.95877 -1.24788,1.50262 -1.24787,1.50261 -0.50564,0.51499 -0.50564,0.515 -1.29128,1.35794 -1.29128,1.35795 -1.7957,1.5213 -1.7957,1.5213 -0.97457,0.64147 -0.97457,0.64148 -0.52106,0.13327 -0.52104,0.13327 -0.48121,0.54474 -0.4812,0.54475 -0.23817,0.53894 -0.23817,0.53895 -0.0977,0.667 -0.0977,0.66701 0.33062,1.29264 0.33062,1.29263 0.44612,0.56281 0.44611,0.5628 0.0512,0.0779 0.0512,0.0779 0.58178,0.731107 0.58178,0.73111 0.0298,0.116528 0.0298,0.116534 0.53541,0.58863 0.5354,0.588629 1.01014,1.107139 1.01013,1.10714 1.21372,0.964036 1.21372,0.964032 1.15672,0.727447 1.15673,0.727447 0.61868,0.13871 0.61868,0.138715 0.94369,-0.08086 0.94369,-0.08086 z m 0.34019,-4.19459 0.31887,-0.177003 0.14411,-0.326374 0.1441,-0.326372 -0.16601,-0.649023 -0.166,-0.649023 -1.16652,-0.823664 -1.16652,-0.823664 -0.29343,-0.07949 -0.29344,-0.07949 -0.47317,-0.0704 -0.47317,-0.0704 -0.53562,-0.136573 -0.53561,-0.13658 -0.0527,-0.20603 -0.0527,-0.20604 -0.57,-0.367544 -0.56999,-0.36755 -0.42367,0.21974 -0.42365,0.21975 -0.33094,0.663654 -0.33094,0.663647 0.0915,0.357753 0.0915,0.357752 0.51995,0.424581 0.51996,0.42458 0.98127,0.639936 0.98127,0.639941 1.08857,0.521252 1.08858,0.521252 0.86776,0.0092 0.86778,0.0092 z m 1.7666,-4.064684 0.73294,-0.27583 0.44742,-0.44805 0.44741,-0.448046 -0.20927,-0.68943 -0.20926,-0.68943 -0.38898,-0.43671 -0.38898,-0.43671 -1.46606,-0.89425 -1.46606,-0.89424 -0.42429,-0.10404 -0.4243,-0.10404 -1.01128,0.25866 -1.01129,0.25866 -0.47457,0.53307 -0.47457,0.53308 5.2e-4,0.45299 5e-4,0.453 0.34664,0.40219 0.34665,0.4022 0.0519,0.37919 0.0519,0.3792 0.68023,0.16813 0.68024,0.16812 0.79712,0.447146 0.79712,0.44715 0.0399,0.156069 0.0399,0.156071 0.87781,0.05083 0.87783,0.05083 z m 3.43287,-2.792436 0.20509,-0.0459 0.0646,-0.2066 0.0646,-0.2066 -0.34683,-0.31691 -0.34683,-0.31691 -0.2838,-0.65171 -0.28381,-0.6517 0.50256,-1.20021 0.50255,-1.20021 -0.94346,-0.8915 -0.94346,-0.89151 -0.0444,-0.17377 -0.0444,-0.17379 -0.56135,0.0298 -0.56134,0.0298 -0.64047,0.16382 -0.64046,0.16381 -0.67485,0.53122 -0.67483,0.53122 -0.088,0.49177 -0.088,0.49177 0.0751,0.29084 0.0751,0.29084 0.48672,0.47469 0.48673,0.47469 1.28614,0.76492 1.28613,0.76492 0.41669,0.4762 0.41667,0.47621 0.54632,0.26337 0.54631,0.26337 0.20512,-0.0459 z m -12.79547,1.00317 0.4297,-0.38274 0.75846,-0.19399 0.75847,-0.19399 -0.0396,-0.60865 -0.0396,-0.60864 0.23852,-0.53972 0.23851,-0.53972 0.6144,-0.55584 0.61441,-0.55583 1.15449,-0.29116 1.15448,-0.29115 -0.11103,-0.43699 -0.11105,-0.43699 0.19468,-0.63578 0.19467,-0.63578 0.86189,-0.74739 0.86188,-0.7474 0.57223,-0.25416 0.57223,-0.25416 0.76214,-0.0455 0.76214,-0.0455 -0.11667,-0.45617 -0.11668,-0.45616 0.21523,-1.00047 0.21524,-1.00046 0.36272,-0.47698 0.36273,-0.47698 1.13243,-0.19943 1.13243,-0.19943 0.36889,0.0507 0.36889,0.0507 -0.87412,-0.62953 -0.87412,-0.62952 -0.31984,0.0818 -0.31984,0.0818 -1.17642,0.85782 -1.17644,0.85783 -0.85939,0.91101 -0.85938,0.91102 -0.46192,0.4631 -0.46193,0.46311 -1.00653,1.26989 -1.00653,1.26988 -0.44779,0.46759 -0.4478,0.46759 -1.35543,1.71219 -1.35543,1.71218 -0.45101,0.47949 -0.451,0.47949 -0.39516,0.56392 -0.39516,0.56391 -0.0509,0.59678 -0.0509,0.59678 0.42969,-0.38274 z m 13.54389,-7.01698 0.1289,-0.0299 -0.0355,-0.13867 -0.0355,-0.13866 0.22729,-0.41643 0.22728,-0.41642 0.4901,-1.42094 0.49011,-1.42094 0.19904,-0.27434 0.19903,-0.27432 -0.0313,-0.12223 -0.0313,-0.12223 -1.06711,-0.2218 -1.06712,-0.2218 -0.70447,0.23571 -0.70449,0.23572 -0.19944,0.87032 -0.19945,0.87031 0.33941,0.91456 0.3394,0.91456 0.4501,0.52211 0.45011,0.52211 0.203,0.0818 0.203,0.0818 0.12891,-0.0299 z m -18.70106,-0.13466 0.38128,-0.0924 1.16456,-0.84647 1.16454,-0.84648 0.72076,-0.63142 0.72075,-0.63141 1.27971,-1.29271 1.27973,-1.2927 0.90423,-0.9557 0.90423,-0.95569 0.91464,-1.18684 0.91464,-1.18685 0.73728,-0.85454 0.7373,-0.85454 -0.098,-0.35881 -0.098,-0.35882 -0.69077,-0.76601 -0.69075,-0.76601 -1.38918,-1.25094 -1.38916,-1.25094 -1.24097,-1.13913 -1.24097,-1.13913 -0.65425,-0.65196 -0.65425,-0.65197 -0.29728,-0.28382 -0.29729,-0.28384 -1.30612,-1.21777 -1.30612,-1.21777 -0.39009,-0.25317 -0.39009,-0.25317 -0.0573,-0.22412 -0.0573,-0.2241 -0.15937,0.0408 -0.15937,0.0408 -0.18903,-0.30302 -0.18902,-0.30303 -1.13805,-1.04166 -1.13804,-1.04167 -0.48066,-0.51429 -0.48067,-0.5143 -0.1073,-0.0636 -0.10731,-0.0636 -0.28769,-0.29056 -0.28768,-0.29055 -1.89892,-1.88118 -1.89892,-1.88118 -0.64742,-0.54448 -0.64741,-0.54448 -0.0351,-0.13706 -0.035,-0.13706 -1.05036,-0.90337 -1.05036,-0.90337 -0.0439,-0.17151 -0.0439,-0.1715 -0.2815,-0.0328 -0.28149,-0.0328 -0.0429,-0.16769 -0.0429,-0.16768 -0.67506,-0.61025 -0.67508,-0.61025 -0.8808,-0.95815 -0.8808,-0.95815 -1.28367,-1.31028 -1.28366,-1.31028 -0.21847,-0.21722 -0.21847,-0.21722 -2.27266,-2.14972 -2.27267,-2.14973 -1.29084,-1.30844 -1.29085,-1.30844 -1.37942,-1.10372 -1.37942,-1.10372 -1.35779,-0.65409 -1.35779,-0.65408 -0.8577,-0.19027 -0.8577,-0.19028 -0.80243,0.20524 -0.80243,0.20524 -0.34708,0.45291 -0.34709,0.45291 -0.0992,0.0254 -0.0993,0.0254 -0.28936,0.39263 -0.28935,0.39262 -0.30417,0.45179 -0.30416,0.4518 0.004,0.24172 0.004,0.24172 -0.53386,0.83969 -0.53386,0.83968 -0.17485,0.0447 -0.17484,0.0447 -0.17934,0.52418 -0.17933,0.52418 0.16323,1.01146 0.16322,1.01145 0.47033,0.39745 0.47033,0.39745 1.36458,0.27686 1.36457,0.27686 0.13598,0.43073 0.13597,0.43073 0.0908,0.43196 0.0908,0.43195 0.23437,1.05435 0.23437,1.05436 0.50346,0.42544 0.50345,0.42545 1.3502,0.4657 1.35019,0.4657 0.24857,0.18787 0.24858,0.18788 0.47407,1.48141 0.47407,1.48141 0.38629,0.25575 0.38628,0.25576 0.19618,-0.0502 0.19618,-0.0502 0.83898,0.33869 0.83899,0.3387 0.31848,0.50317 0.31848,0.50318 0.43414,1.34549 0.43415,1.34549 0.36867,0.98218 0.36867,0.98218 0.47062,0.25969 0.47061,0.2597 1.17004,0.48511 1.17004,0.48511 0.56634,0.70938 0.56635,0.70936 0.48884,1.14944 0.48885,1.14945 1.35311,0.32305 1.35312,0.32305 0.28143,0.26024 0.28145,0.26024 0.66111,2.19778 0.66112,2.19778 0.26475,0.47848 0.26474,0.47849 0.23912,0.22306 0.23911,0.22305 1.35473,0.35378 1.35473,0.35378 0.78891,0.47827 0.7889,0.47827 0.30965,0.71416 0.30963,0.71417 0.4937,1.60336 0.49371,1.60336 0.23472,0.53515 0.23473,0.53515 1.03076,0.27796 1.03077,0.27797 0.52878,0.33753 0.52879,0.33755 0.64364,2.6803 0.64363,2.68029 0.31716,0.56247 0.31716,0.56245 0.55009,0.17288 0.55008,0.17287 0.3813,-0.0924 z m -32.11761,-49.24555 -0.31631,0.18698 -0.48217,-0.1056 -0.48218,-0.1056 -0.36319,-0.43339 -0.36318,-0.43338 0.15469,-0.62242 0.15469,-0.62242 0.85498,-0.33169 0.85498,-0.33169 0.30169,0.23997 0.30168,0.23997 0.07,0.71037 0.07,0.71037 -0.21967,0.35577 -0.21968,0.35578 z m -0.50341,-0.84961 0.15869,-0.0406 0.19985,-0.33722 0.19985,-0.33722 -0.0671,-0.26241 -0.0671,-0.26241 -0.24378,0.17286 -0.24378,0.17287 -0.15691,0.0401 -0.15691,0.0401 0.10927,0.42721 0.10927,0.42722 z"
       id="path1454" /></g></svg>
