<?xml version="1.0" encoding="UTF-8" standalone="no"?>
<svg
   width="1518.1608"
   height="585.55231"
   viewBox="0 0 1518.1608 585.55231"
   fill="none"
   version="1.1"
   id="svg134"
   sodipodi:docname="alzo_noel.svg"
   xml:space="preserve"
   inkscape:version="1.2.1 (9c6d41e, 2022-07-14)"
   xmlns:inkscape="http://www.inkscape.org/namespaces/inkscape"
   xmlns:sodipodi="http://sodipodi.sourceforge.net/DTD/sodipodi-0.dtd"
   xmlns="http://www.w3.org/2000/svg"
   xmlns:svg="http://www.w3.org/2000/svg"><defs
     id="defs138" /><sodipodi:namedview
     id="namedview136"
     pagecolor="#505050"
     bordercolor="#ffffff"
     borderopacity="1"
     inkscape:showpageshadow="0"
     inkscape:pageopacity="0"
     inkscape:pagecheckerboard="1"
     inkscape:deskcolor="#505050"
     showgrid="false"
     inkscape:zoom="0.26579693"
     inkscape:cx="1275.4098"
     inkscape:cy="556.81606"
     inkscape:window-width="1440"
     inkscape:window-height="872"
     inkscape:window-x="0"
     inkscape:window-y="0"
     inkscape:window-maximized="1"
     inkscape:current-layer="svg134" /><path
     d="m 1226.2518,456.1741 c 12.001,57.829 63.606,102.096 125.579,102.096 96.16,0 166.33,-89.797 166.33,-174.3 0,-67.783 -47.46,-136.168 -130.51,-136.168 -8.52,0 -15.02,0.601 -20.83,1.443 -22.25,3.158 -38.9,21.743 -38.9,44.447 0,24.179 19.71,44.748 44.98,44.748 14.51,0 26.18,-6.916 33.5,-14.946 7.07,-7.789 20.31,-7.307 26.9,3.128 6.44,10.194 11.22,25.02 11.22,42.642 0,51.936 -44.38,99.51 -82.68,99.51 -25.25,0 -44.59,-19.607 -44.59,-41.77 0,-9.714 4.08,-19.006 11.42,-26.795 7.35,-7.789 14.15,-18.645 14.15,-33.741 0,-25.502 -21.92,-49.8 -53.75,-49.8 -13.936,0 -35.702,5.293 -47.976,27.546 l -45.921,83 c -11.759,21.081 -33.163,28.539 -51.725,28.539 -30.23,0 -47.039,-18.014 -53.569,-32.899 94.623,-108.442 145.985,-105.765 145.985,-145.762 0,-13.953 -11.85,-29.11 -31.44,-29.11 -11.367,0 -30.684,8.511 -79.507,8.511 -48.823,0 -64.513,-8.571 -84.526,-8.571 -80.35303,0 -110.97703,79.572 -143.41503,149.43 -3.235,6.977 -25.817,49.259 -25.817,49.259 -6.469,11.457 -18.169,16.389 -27.571,16.389 -23.308,0 -40.721,-24.389 -27.268,-48.597 18.864,-34.012 146.62,-265.1485 157.745,-285.2068 3.99,-7.15721 -2.63,-15.90829 -12.667,-14.01373 -27.933,5.23261 -68.11,4.54094 -83.105,-0.24058 -4.988,-1.59383 -10.278,0.51124 -13.029,5.65362 -16.536,31.09489 -162.884,294.34849 -193.054,349.32149 -6.258,11.427 -17.111,16.57 -27.571,16.57 -21.343,0 -41.356,-23.036 -27.419,-48.206 10.913,-19.728 13.09,-23.788 22.552,-40.568 9.583,-17.532 -10.823,-35.726 -35.673,-35.726 -69.017,0 -97.948,93.856 -151.093,93.856 -15.086,0 -28.085,-12.36 -28.085,-27.937 0,-43.214 39.119,-109.193 119.08,-109.193 11.487,0 22.945,2.706 31.168,5.262 6.197,1.925 11.91,5.383 15.961,10.436 7.286,9.021 21.585,18.614 40.933,18.614 26.815,0 50.334,-16.87 50.334,-42.793 0,-41.199 -74.851,-62.28 -130.083,-62.28 -138.064,-0.06 -240.154,96.503 -240.154,209.725 0,61.889 42.9883,100.743 80.7467,100.743 32.3163,0 61.4893,-11.067 121.2253,-66.731 -1.874,3.97 -4.051,9.623 -4.051,18.284 0,24.63 23.52,48.327 56.169,48.327 74.006,0 78.419,-46.222 102.241,-46.222 3.295,0 9.311,1.564 13.09,7.579 13.453,21.501 43.472,38.733 79.114,38.733 70.317,0 104.085,-30.884 139.758,-95.721 l 17.11,-30.974 c 8.495,-15.457 19.832,-33.741 28.024,-43.786 17.504,-21.471 47.856,-32.628 71.22403,-32.628 33.738,0 53.721,18.314 53.721,18.314 -29.506,40.658 -46.284,48.026 -84.43503,79.421 -51.635,42.462 -74.519,55.875 -74.519,76.083 0,17.382 15.871,29.171 31.44,29.171 14.057,0 24.517,-8.601 85.46203,-8.601 42.414,0 62.699,8.48 82.924,8.48 56.441,0 80.474,-39.876 114.816,-102.005 z"
     fill="#e84e0f"
     id="path132" /><g
     id="g2151"
     transform="matrix(1.9306646,0,0,1.9664352,-1572.2589,-63.205003)"
     style="stroke-width:0.513223"><path
       id="path1248"
       style="fill:#ffffff;fill-opacity:1;stroke-width:0.188866;stroke-linecap:round;stroke-linejoin:round"
       d="m 866.00972,240.94959 c -2.37158,-0.13457 -3.74609,3.77618 -3.74609,11.45117 0,9.76999 -3.17907,10.95929 -6.78906,2.5293 -3.02,-7.04 -9.10157,-9.09 -11.10157,-3.75 -0.69,1.83999 -0.20999,2.99 2.5,6 5.18,5.76999 3.96132,7.04945 -5.88867,6.18945 -7.12999,-0.62 -8.18086,-0.49937 -9.38086,1.14062 -1.19,1.62 -0.96898,2.22009 1.79102,5.08008 5.20999,5.37 1.77913,8.59937 -4.63086,4.35938 -1.65,-1.09 -3.72891,-1.99024 -4.62891,-1.99024 -2.35,-0.01 -4.87109,4.35165 -4.87109,8.43164 0,2.88 0.54117,3.78907 2.95117,5.03907 1.63,0.84 3.68813,1.51953 4.57813,1.51953 3.07999,0 1.09179,3.40133 -2.40821,4.11133 -9.04999,1.85999 -4.92038,10.43031 4.84961,10.07031 5.95,-0.22 6.5293,0.70915 6.5293,10.36914 0,7.36999 0.28117,8.8093 1.95117,10.0293 4.36,3.19999 10.54883,1.0403 10.54883,-3.67969 0,-4.05 1.65047,-6.90039 3.98047,-6.90039 2.71999,0 3.39953,1.68 2.01953,5 -1.06,2.57999 -0.9007,3.26141 1.5293,6.4414 3.12999,4.12 5.1107,4.41867 8.9707,1.38868 2.74,-2.15 2.74953,-2.24884 2.26953,-11.54883 -0.47,-8.96999 -0.39851,-9.37008 1.52148,-9.08008 2.35,0.36 3.01001,1.37899 5.75,8.95898 2.14,5.95 4.22923,7.70063 6.69922,5.64063 1.85,-1.53 1.10078,-9.87063 -1.19922,-13.39063 -4.11999,-6.27999 0.23001,-7.26913 6,-1.36914 2.5,2.56 4.67922,3.93 5.94922,3.75 5.45,-0.78 0.32921,-10.90946 -8.30078,-16.43945 -6.26999,-4.01 -6.69968,-6.65992 -1.17969,-7.16992 1.92,-0.17 3.90063,-0.71117 4.39063,-1.20117 1.36,-1.32 -1.98938,-5.78039 -4.60938,-6.15039 -3.21999,-0.46 -3.37132,-3.34993 -0.36132,-6.91993 2.62999,-3.12999 3.37054,-5.91015 1.56054,-5.91015 -0.55,0 -2.24,1.78117 -3.75,3.95117 -4.73999,6.83999 -7.93078,6.30866 -6.80078,-1.11133 2.04,-13.33999 1.91031,-15.21993 -1.42969,-20.16992 -2.05874,-3.0525 -3.84072,-4.58918 -5.26367,-4.66992 z"
       sodipodi:nodetypes="ssccccccccscsccscsscccccccccccccccscccs" /><path
       id="path1302"
       style="fill:#ffffff;fill-opacity:1;stroke-width:0.188866;stroke-linecap:round;stroke-linejoin:round"
       d="m 1083.5186,95.347415 c -2.19,-0.72 -5.3809,8.030945 -4.6309,12.710945 0.87,5.42999 -1.3582,5.44882 -6.4883,0.0488 -5.1099,-5.37 -7.0505,-5.30001 -6.8105,0.25 0.18,4.03998 0.049,4.25 -2.6211,4.25 -1.64,0 -3.2288,0.72999 -3.7988,1.75 -1.42,2.52999 -3.1112,2.17015 -6.4512,-1.33985 -3,-3.16 -7.42,-5.91015 -9.5,-5.91015 -1.1,-10e-6 -0.7691,5.38109 0.7109,11.62109 0.67,2.83 -2.23,3.89015 -5.25,1.91016 -3.73,-2.45 -5.4393,-1.9907 -4.7793,1.27929 0.78,3.95 -1.6203,5.8493 -5.4003,4.2793 -2.16,-0.89 -3.9712,-0.85008 -7.9512,0.16992 -4.87,1.24 -8.9699,4.28125 -14.5899,10.78124 -1.19,1.38 -2.42,1.87969 -3.5,1.42969 -4.00996,-1.66 -5.17965,-1.68007 -5.17965,-0.0801 0,0.89 -0.85992,2.48103 -1.91992,3.54101 -1.68,1.67 -2.40907,1.77836 -5.53907,0.81836 -3.02999,-0.93 -3.88101,-0.83992 -5.29101,0.58008 -1.57,1.57 -1.33922,2.01072 3.55078,6.97071 4.71,4.76999 5.16984,5.62 4.58984,8.5 -0.74,3.72999 -1.90094,3.9303 -9.21093,1.57031 -8.26,-2.66 -10.55969,0.0189 -5.67969,6.6289 2.66,3.61 3.19992,6.46055 1.41992,7.56056 -0.67,0.40999 -0.18,1.13008 1.25,1.83007 3.1,1.54 3.43961,4.86915 0.84961,8.36915 -3.08,4.17 -1.82898,6.62094 3.04102,5.96094 3.43999,-0.46 5.93945,0.55992 5.93945,2.41992 0,0.41 -1.64039,2.28969 -3.65039,4.17969 -4.09,3.87 -4.02,6.1007 0.25,7.7207 2.45,0.93 2.6,1.32962 2,5.09961 -1.11,6.91 2.56,9.20937 5.75,3.60938 l 1.85156,-3.24024 2.20899,2.77149 c 2.39999,3.01999 3.58989,2.70859 3.58989,-0.94141 0,-1.81 0.5594,-2.33984 2.4394,-2.33984 1.51,0 2.661,0.72015 3.041,1.91015 0.6,1.9 5.5603,5.8411 5.4903,4.3711 -0.02,-0.43 -0.6602,-1.88977 -1.4102,-3.25977 -0.94,-1.69 -1.0697,-3.05 -0.4297,-4.25 1.33,-2.48 3.3593,-2.20148 5.2793,0.72852 2.56,3.89999 3.8108,3.12007 3.0508,-1.91992 -0.95,-6.37 0.9485,-11.58008 4.2285,-11.58008 2.03,0 2.3813,-0.34 1.7813,-1.75 -2.61,-6.09 -1.1411,-9.47922 3.1289,-7.19922 3.18,1.71 3.9504,0.71984 1.9004,-2.41016 -1,-1.53 -1.4,-3.35915 -1,-4.61915 0.6,-1.89 1.2407,-2.04133 7.0507,-1.61132 l 6.4004,0.47069 -2.541,-4.0293 c -4.16,-6.57999 -1.5908,-8.96155 4.6992,-4.35156 4.86,3.57 10.0113,5.79149 11.0313,4.77149 0.49,-0.49 -0.2109,-2.34172 -1.6309,-4.26172 -2.52,-3.41 -3.3186,-7.00977 -1.5586,-7.00977 0.52,0 2.4889,0.92125 4.3789,2.03125 4.01,2.37 4.67,1.63867 4.67,-5.11133 0,-4.45999 1.2706,-4.94905 4.6406,-1.78906 3.2,3.01 5.1788,1.82945 5.5488,-3.31054 0.41,-5.64 2.7904,-6.20914 5.6504,-1.36914 1.15,1.95999 2.5401,3.54882 3.0801,3.54882 0.53,0 1.1112,-2.13023 1.2812,-4.74023 0.42,-6.49999 2.9399,-6.97835 5.5899,-1.06836 1.06,2.37 2.9189,5.19953 4.1289,6.26953 2.47,2.2 3.6004,1.35906 4.6504,-3.46094 1.78,-8.14999 3.2508,-11.5 5.0508,-11.5 1.27,0 1.9682,0.82001 2.1582,2.5 1.35,12.23999 9.2401,21.46 12.4101,14.5 1.31,-2.86999 3.0003,-3.16992 5.2402,-0.91992 1.77,1.77 1.9604,3.27008 0.6504,5.33008 -1.05,1.66 -0.329,4.08984 1.211,4.08984 0.59,0 2.2494,-1.40891 3.6894,-3.1289 2.46,-2.96 2.7103,-3.03969 4.3203,-1.42969 0.94,0.94 1.6993,3.17852 1.6993,4.97851 0,5.5 5.4011,8.65148 8.2011,4.77149 1.84,-2.55 3.3598,-3.29031 5.2598,-2.57031 1.31,0.51 1.4987,1.47953 0.9687,5.01953 -1.1299,7.52 3.8111,10.28938 6.8711,3.85938 1.14,-2.38001 2.3489,-3.50001 3.7989,-3.50001 1.96,0 2.0809,0.37118 1.4609,4.45118 -0.94,6.3 2.0193,11.54884 6.5293,11.54884 0.5,0 0.9102,-2.4893 0.9102,-5.5293 0,-7.11001 1.7903,-8.0304 6.5703,-3.40039 5.17,5.00999 6.0595,2.9396 2.7695,-6.40041 -2.17,-6.13999 -2.4587,-7.93968 -1.4687,-8.92968 1,-0.98 2.2594,-0.67024 6.1894,1.50976 8.36,4.65 9.0095,3.32999 2.9395,-6 -5.93,-9.12999 -5.2496,-10.92991 2.9004,-7.66992 4.2599,1.7 9.2303,1.60078 9.8203,-0.19922 0.56,-1.69999 -8.0706,-7.00016 -15.3106,-9.41015 -3.52,-1.17 -6.4101,-2.71969 -6.4101,-3.42969 0,-0.72 -0.9399,-1.54961 -2.0899,-1.84961 -1.76,-0.46 -1.9899,-1.0411 -1.4199,-3.62109 0.58,-2.65 0.3898,-3.07032 -1.4102,-3.07032 -2.47,0 -2.5907,-1.08859 -0.5507,-5.05859 1.15,-2.22 1.2707,-3.45117 0.4707,-4.95117 -1.57,-2.94 -2.8597,-2.49031 -7.5996,2.67969 -4.95,5.38999 -6.7093,5.01054 -7.7793,-1.68946 -0.35,-2.18 -1.1801,-3.98047 -1.8301,-3.98047 -0.65,0 -2.6399,1.41063 -4.4199,3.14063 -3.99,3.86 -6.3711,3.32054 -6.3711,-1.43945 0,-4.72 -0.8393,-5.07016 -4.0293,-1.66016 -1.89,2.02 -3.7308,2.95898 -5.8008,2.95898 -3.6,0 -4.4493,-1.83922 -4.0293,-8.69921 0.32,-5.22 -1.2907,-6.76938 -3.2207,-3.10938 -2.62,4.98 -6.579,5.05859 -15.209,0.30859 -5.56,-3.04999 -7.2598,-3.5 -13.3398,-3.5 -7.96,0 -9.3609,-0.87922 -9.3809,-5.94921 -0.02,-3.95 -1.81,-8.170545 -3.75,-8.810545 z"
       sodipodi:nodetypes="ccccsccscccccccscccccccccccsccccccssccccccscccsccccscscscccsccccsccccscssccccscssccccccccsccsccccscscscccsccc" /><path
       id="path3698"
       sodipodi:nodetypes="czscccccczzzzccccccccccccccccccz"
       style="fill:#e8290f;fill-opacity:1;fill-rule:evenodd;stroke:#000000;stroke-width:0.513223px"
       d="m 1154.4624,111.06734 c -3.51,-8.24 -56.07,-68.580002 -97.15,-74.290002 -41.17,-5.73 -70.00003,26.43 -75.71003,31.43 -5.71,5 -27.86,62.860002 -27.86,62.860002 l -19.28,65 -12.86,29.28 -12.14,19.29 -10,11.43 -16.43,7.14 c 0,0 1.87,-3.48 4.37,0.8 2.5,4.29 -11.87,13.57 10.63,17.32 22.63,3.77 43.21,-4.55 70,-19.55 26.78,-15 27.5,-30.89 32.14003,-41.43 4.64,-10.53 -13.57003,-0.71 -13.57003,-0.71 l -1.43,-10.72 -6.43,-14.28 -7.14,-30.72 7.14,-7.85 4.29,-3.58 -3.57,-10.71 50.71003,-21.43 11.43,-15.71 16.43,6.43 5.71,-11.430002 12.15,5.000002 5,-11.430002 5,-0.72 4.28,12.860002 30.72,7.86 5.71,-7.14 6.43,8.57 c -4.61,-5.22 24.94,4.66 21.43,-3.57 z" /><path
       id="path2801"
       sodipodi:nodetypes="csssssssssssssssssssssssssssssssssssssssssssssssssssssssssssssssssssssssssssssssssssssssssssssssssssssssssssssssssssssssssssssssssssssccssssssssssssssssssssssssssssssssssssccsssssssssssssssssssssssssssssssssssssssssssssssssssssssssssssssssssssssscsscccsssssssssssssssssssssssssssssssssssssssssssssssssssssssssssssssssssssssssssssssssssssssscccssssssssssc"
       style="fill:#000000;stroke-width:0.513223"
       d="m 868.09237,328.43734 c 1.22,-0.86 2.22,-2.38 2.22,-3.38 0,-3.38 2.1,-3.99 8.32,-2.41 6.94,1.77 8.22,1.1 9.42,-4.99 0.79,-4.04 0.95,-4.18 5.09,-4.48 3.49,-0.25 4.44,-0.76 5.22,-2.81 1.25,-3.27 1.22,-8.09 -0.05,-8.88 -0.55,-0.34 -1,-1.71 -1,-3.04 0,-1.75 -1.12,-3.14 -4,-4.96 -4.57,-2.89 -4.92,-4.31 -1.75,-7.2 1.67,-1.53 4.21,-2.23 9.75,-2.71 14.16,-1.21 21.51,-2.25 24.32,-3.42 1.55,-0.64 4.88,-1.17 7.41,-1.17 4.21,0 11.12,-1.53 18.77,-4.18 1.65,-0.56 4.82,-1.35 7.04,-1.73 4.12,-0.72 9.96,-4.33 10.88,-6.74 0.29,-0.74 1.14,-1.35 1.89,-1.35 0.76,0 3.04,-1.8 5.07,-4 2.04,-2.2 4.38,-4 5.2,-4 1.83,0 9.42,-7.56 9.42,-9.38 0,-0.72 0.9,-2.12 2,-3.12 1.1,-0.99 2,-2.25 2,-2.79 0,-0.54 0.7,-1.5 1.56,-2.12 0.86,-0.63 1.92,-3.6 2.36,-6.61 0.44,-3.01 1.53003,-6.83 2.44003,-8.48 0.9,-1.65 1.63,-3.53 1.64,-4.19 0.01,-2.22 2.01,-2.44 4.76,-0.51 3.53,2.48 9.91,4.55 11.79,3.83 0.81,-0.31 1.45,-1.84 1.45,-3.44 0,-1.58 0.88,-3.67 1.96,-4.64 1.34,-1.22 2.04,-3.36 2.25,-6.91 0.26,-4.62 0.54,-5.17 2.79,-5.48 3.19,-0.43 6,-2.93 6,-5.32 0,-1.02 0.95,-2.64 2.1,-3.6 1.15,-0.95 2.5,-2.8 3.01,-4.09 0.73,-1.85 1.43,-2.23 3.31,-1.76 4.51,1.13 8.7,-0.43 10.1,-3.77 1.16,-2.75 1.69,-3.05 4.94,-2.77 4.01,0.35 6.54,-1.14 6.54,-3.83 0,-0.96 0.86,-2.83 1.91,-4.16 1.04,-1.33 2.05,-3.52 2.25,-4.85 0.39,-2.74 4.31,-4.12 11.47,-4.04 2.5,0.02 4.62,-0.55 5.37,-1.46 1.6,-1.93 3.46,-1.91 6.47,0.06 3.39,2.23 8.78,1.52 10.02,-1.32 1.1,-2.5 2.51,-2.99 2.51,-0.86 0,1.71 7.51,8.61 9.37,8.61 0.75,0 3.06,1.35 5.13,3 2.7,2.15 4.86,3 7.57,3 2.89,0 3.95,0.47 4.42,1.96 0.35,1.12 3.26,3.2 6.82,4.89 3.41,1.62 7.24,4.16 8.52,5.64 1.97,2.28 2.86,2.61 5.7,2.08 2.77,-0.52 3.57,-0.26 4.48,1.45 2.76,5.14 12.38,7.75 16.12,4.37 0.99,-0.89 3.26,-1.92 5.05,-2.29 4.85,-0.99 7.05,-5.28 5.55,-10.84 -1.42,-5.29 -0.33,-6.82 3.74,-5.27 6.01,2.28 9.23,-2.22 6.17,-8.63 -2.76,-5.78 -2.31,-6.72 2.85,-6.01 3.77,0.51 4.79,0.27 6.5,-1.56 2.54,-2.73 2.53,-3.01 -0.42,-7.68 -2.62,-4.16 -6.54,-7.65 -9.71,-8.65 -2.92,-0.93 -1.82,-3.78 1.74,-4.51 1.69,-0.34 3.6,-0.95 4.24,-1.35 1.62,-1 1.45,-4.11 -0.3,-5.56 -2.13,-1.78 -8.93,-2.44 -12.44,-1.22 -2.82,0.98 -3.21,0.82 -5.28,-2.13 -1.24,-1.75 -2.82,-3.64 -3.54,-4.19 -0.71,-0.55 -2.08,-2.57 -3.03,-4.5 -1.43,-2.86 -2.43,-3.59 -5.52,-4 -2.6,-0.34 -4.3,-1.3 -5.5,-3.09 -0.95,-1.42 -2.63,-3.91 -3.73,-5.52 -1.1,-1.61 -5.22,-5.84 -9.17,-9.400002 -3.95,-3.57 -7.46,-7.42 -7.82,-8.56 -0.57,-1.88 -9.55,-10.77 -24.6,-24.37 -3.08,-2.78 -6.33,-5.06 -7.22,-5.06 -0.89,0 -2.08,-0.86 -2.64,-1.91 -0.56,-1.05 -2.71,-2.93 -4.78,-4.18 -2.07,-1.25 -5.42,-3.55 -7.44,-5.11 -2.03,-1.57 -5.18,-3.35 -7,-3.96 -1.83,-0.61 -4.45,-2.08 -5.83,-3.26 -1.37,-1.18 -5.87,-3.65 -10,-5.48 -4.12,-1.83 -8.97,-4.03 -10.77,-4.88 -2.76,-1.32 -4.25,-1.37 -9.61,-0.39 -3.49,0.65 -7.79,1.17 -9.56,1.17 -3.14,0 -13.89,3.68 -19.21,6.56 -1.46,0.8 -3.28,1.44 -4.04,1.44 -0.76,0 -6.99,2.9 -13.84,6.44 -11.20003,5.78 -13.19003,7.23 -19.55003,14.25 -8.25,9.09 -15.69,19.74 -18.4,26.31 -0.57,1.38 -1.75,3.78 -2.63,5.35 -0.89,1.56 -2.19,5.16 -2.9,8.000002 -1.38,5.54 -3.23,11.1 -4.62,13.89 -0.48,0.96 -0.87,2.62 -0.87,3.69 0,1.08 -0.41,2.21 -0.91,2.52 -0.5,0.31 -1.23,2.47 -1.62,4.81 -0.38,2.33 -1.32,5.44 -2.07,6.91 -2.03,3.98 -6.34,17.61 -7.04,22.26 -0.59,4 -5.18,16.6 -7.86,21.62 -0.75,1.4 -1.91,5.67 -2.57,9.5 -0.71,4.1 -2.99,10.69 -5.56,16.06 -2.4,5.01 -4.37,9.7 -4.37,10.42 0,0.73 -0.6,2.03 -1.33,2.89 -0.74,0.87 -1.94,3.16 -2.68,5.08 -0.74,1.93 -2.39,4.78 -3.67,6.33 -1.27,1.56 -2.32,3.29 -2.32,3.86 0,0.56 -1.12,2.36 -2.5,4 -1.37,1.63 -2.5,3.51 -2.5,4.18 0,0.66 -2.28,3.44 -5.07,6.17 -2.8,2.73 -5.7,6.14 -6.46,7.57 -0.93,1.78 -2.79,3 -5.86,3.86 -4.13,1.16 -4.72,1.09 -7.19,-0.85 -1.48,-1.16 -3.29,-2.12 -4.03,-2.12 -0.74,0 -1.6,-1.23 -1.91,-2.75 -1.57,-7.66 -2.83,-10.35 -6.84,-14.66 -4.36,-4.68 -4.39,-4.69 -7.75,-3.32 -2.62,1.07 -3.82,2.48 -5.34,6.31 -1.09,2.71 -2.11,5.12 -2.27,5.35 -0.17,0.24 -1.89,-0.32 -3.82,-1.25 -1.94,-0.92 -4.37,-1.68 -5.41,-1.68 -3.1,0 -7.77,4.69 -8.73,8.76 -0.75,3.14 -1.64,4.1 -5.56,5.96 -2.78,1.33 -5.28,3.4 -6.17,5.11 -0.82,1.59 -2.82,3.44 -4.44,4.11 -4.93,2.05 -7.38,5.47 -7.92,11.06 -0.38,3.96 -0.09,5.49 1.34,7.07 1.72,1.91 1.73,2.17 0.13,4.88 -1.89,3.2 -2.19,7.26 -0.73,9.99 0.53,0.99 3.57,2.84 6.75,4.1 7.94,3.15 8.28,3.52 8.28,9.13 0,6.29 3.08,12.56 6.6,13.45 1.42,0.35 5.47,0.41 9,0.13 5.06,-0.41 7.22,-0.12 10.13,1.37 4.49,2.29 9.07,2.41 12.05,0.33 z m -12.25,-6.01 c -2.43,-3.18 -2.59,-3.86 -1.53,-6.44 1.38,-3.32 0.7,-5 -2.02,-5 -2.33,0 -3.98,2.85 -3.98,6.9 0,4.72 -6.19,6.88 -10.55,3.68 -1.67,-1.22 -1.95,-2.66 -1.95,-10.03 0,-9.66 -0.58,-10.59 -6.53,-10.37 -9.77,0.36 -13.9,-8.21 -4.85,-10.07 3.5,-0.71 5.49,-4.11 2.41,-4.11 -0.89,0 -2.95,-0.68 -4.58,-1.52 -2.41,-1.25 -2.95,-2.16 -2.95,-5.04 0,-4.08 2.52,-8.44 4.87,-8.43 0.9,0 2.98,0.9 4.63,1.99 6.41,4.24 9.84,1.01 4.63,-4.36 -2.76,-2.86 -2.98,-3.46 -1.79,-5.08 1.2,-1.64 2.25,-1.76 9.38,-1.14 9.85,0.86 11.07,-0.42 5.89,-6.19 -2.71,-3.01 -3.19,-4.16 -2.5,-6 2,-5.34 8.08,-3.29 11.1,3.75 3.61,8.43 6.79,7.24 6.79,-2.53 0,-12.28 3.52,-14.92 9.01,-6.78 3.34,4.95 3.47,6.83 1.43,20.17 -1.13,7.42 2.06,7.95 6.8,1.11 1.51,-2.17 3.2,-3.95 3.75,-3.95 1.81,0 1.07,2.78 -1.56,5.91 -3.01,3.57 -2.86,6.46 0.36,6.92 2.62,0.37 5.97,4.83 4.61,6.15 -0.49,0.49 -2.47,1.03 -4.39,1.2 -5.52,0.51 -5.09,3.16 1.18,7.17 8.63,5.53 13.75,15.66 8.3,16.44 -1.27,0.18 -3.45,-1.19 -5.95,-3.75 -5.77,-5.9 -10.12,-4.91 -6,1.37 2.3,3.52 3.05,11.86 1.2,13.39 -2.47,2.06 -4.56,0.31 -6.7,-5.64 -2.74,-7.58 -3.4,-8.6 -5.75,-8.96 -1.92,-0.29 -1.99,0.11 -1.52,9.08 0.48,9.3 0.47,9.4 -2.27,11.55 -3.86,3.03 -5.84,2.73 -8.97,-1.39 z m 33.92,-45.62 c -3.05,-2.67 -3.53,-3.64 -3.04,-6.08 0.79,-3.94 4.34,-8.74 6.47,-8.74 1.97,0 17.5,-14.67 21.16,-20 1.33,-1.92 3.15,-4.31 4.06,-5.3 0.9,-0.99 2.42,-3.69 3.36,-6 0.95,-2.31 4.44,-10.05 7.76,-17.2 7.27,-15.64 7.62,-16.46 12.26,-28.5 2.01,-5.22 4.3,-10.97 5.09,-12.78 0.79,-1.81 1.43,-4.25 1.43,-5.43 0,-2.16 1.17,-6.35 3.57,-12.79 0.72,-1.92 1.76,-5.75 2.32,-8.5 2.82,-13.92 5.84,-25.61 8.24,-31.88 1.03,-2.69 1.87,-5.73 1.87,-6.77 0,-1.05 1.58,-5.02 3.5,-8.850002 1.93,-3.82 3.5,-7.58 3.5,-8.35 0,-0.77 0.63,-1.92 1.39,-2.55 0.77,-0.64 2.74,-3.95 4.39,-7.38 2.23,-4.63 5.55,-8.71 12.97,-15.97 5.49,-5.36 10.50003,-9.75 11.14003,-9.75 1.53,0 16.17,-6.88 18.11,-8.51 1.72,-1.44 12.23,-4.66 22.5,-6.89 9.81,-2.13 23.2,-0.06 30.32,4.68 2.03,1.35 6.61,4.11 10.18,6.13 13.43,7.61 29.3,18.6 34.59,23.96 2.25,2.27 10.52,10.21 18.38,17.63 7.86,7.43 15.01,14.580002 15.88,15.910002 1.5,2.27 1.45,2.48 -0.82,4 -2.85,1.89 -14.03,2.45 -14.03,0.7 0,-1.38 -6.65,-7.61 -8.13,-7.61 -0.58,0 -2.32,1.35 -3.87,3 -3.53,3.79 -7.89,3.95 -15.22,0.58 -2.9,-1.34 -7.86,-3.18 -11.03,-4.1 -3.16,-0.91 -5.75,-2.16 -5.75,-2.77 0,-2.250002 -5.24,-8.570002 -8.09,-9.750002 -2.56,-1.05 -3.24,-0.97 -5.04,0.66 -1.14,1.04 -2.76,3.59 -3.6,5.68 -0.83,2.08 -1.8,3.640002 -2.14,3.470002 -0.34,-0.18 -2.31,-1.170002 -4.36,-2.220002 -3.27,-1.66 -4.05,-1.73 -6.28,-0.54 -1.4,0.75 -2.79,2.370002 -3.1,3.600002 -0.31,1.24 -1.33,2.94 -2.26,3.78 -1.53,1.38 -2.17,1.3 -6.66,-0.85 -10.18,-4.870002 -11.8,-4.37 -13.99,4.27 -1.11,4.36 -1.47,4.74 -4.94,5.3 -3.61,0.59 -5.49,2.13 -5.52,4.54 -0.02,1.49 -2.38,2.35 -6.43,2.35 -2.21,0 -4.97,1.27 -8.66,3.98 -8.71,6.39 -9.36,6.61 -12.49003,4.15 -1.49,-1.17 -3.7,-2.13 -4.92,-2.13 -2.72,0 -6.12,3.58 -5.72,6.02 0.21,1.28 -0.69,2.12 -3.13,2.93 -6.62,2.18 -7.52,4.7 -5.12,14.3 0.53,2.13 0.33,2.75 -0.88,2.75 -5.71,0 -9.43,5.38 -8.11,11.74 0.94,4.55 0.71,6.27 -1.15,8.34 -1.49,1.67 -1.87,6.73 -0.64,8.45 0.4,0.56 1.97,1.81 3.48,2.77 2.28,1.45 2.76,2.47 2.79,5.98 0.01,2.32 0.69,5.1 1.5,6.16 0.8,1.07 1.46,3.17 1.46,4.66 0,1.64 1.39,4.38 3.5,6.9 1.93,2.31 3.5,5.3 3.5,6.65 0,6.31 5.35,10.84 9.91,8.4 2.76,-1.47 2.77,0.17 0.02,7.17 -2.16,5.49 -8.9,14.15 -16.83,21.61 -7.4,6.97 -8.46,7.56 -22.24,12.14 -3.1,1.04 -6.47,2.35 -7.5,2.92 -6.25,3.49 -17.77,7.5 -23.35,8.15 -3.58,0.41 -7.77,1.24 -9.32,1.85 -1.55,0.61 -6.27,1.12 -10.5,1.13 -4.23,0.01 -8.36,0.45 -9.19,0.98 -2.2,1.43 -2.59,1.3 -6.55,-2.18 z m 118.03003,-64.91 c -0.38,-1.19 -1.53,-1.91 -3.04,-1.91 -1.88,0 -2.44,0.53 -2.44,2.34 0,3.65 -1.19,3.96 -3.59003,0.94 l -2.21,-2.77 -1.85,3.24 c -3.19,5.6 -6.86,3.3 -5.75,-3.61 0.6,-3.77 0.45,-4.17 -2,-5.1 -4.27,-1.62 -4.34,-3.85 -0.25,-7.72 2.01,-1.89 3.65,-3.77 3.65,-4.18 0,-1.86 -2.5,-2.88 -5.94,-2.42 -4.87,0.66 -6.12,-1.79 -3.04,-5.96 2.59,-3.5 2.25,-6.83 -0.85,-8.37 -1.43,-0.7 -1.92,-1.42 -1.25,-1.83 1.78,-1.1 1.24,-3.95 -1.42,-7.56 -4.88,-6.61 -2.58,-9.29 5.68,-6.63 7.31,2.36 8.47,2.16 9.21,-1.57 0.58,-2.88 0.12,-3.73 -4.59,-8.5 -4.89,-4.96 -5.12,-5.4 -3.55,-6.97 1.41,-1.42 2.26,-1.51 5.29,-0.58 3.13,0.96 3.86,0.85 5.54,-0.82 1.06,-1.06 1.92,-2.65 1.92,-3.54 0,-1.6 1.17,-1.58 5.18003,0.08 1.08,0.45 2.31,-0.05 3.5,-1.43 5.62,-6.5 9.72,-9.54 14.59,-10.78 3.98,-1.02 5.79,-1.06 7.95,-0.17 3.78,1.57 6.18,-0.33 5.4,-4.28 -0.66,-3.27 1.05,-3.73 4.78,-1.28 3.02,1.98 5.92,0.92 5.25,-1.91 -1.48,-6.24 -1.81,-11.62 -0.71,-11.62 2.08,0 6.5,2.75 9.5,5.91 3.34,3.51 5.03,3.87 6.45,1.34 0.57,-1.02 2.16,-1.75 3.8,-1.75 2.67,0 2.8,-0.21 2.62,-4.25 -0.24,-5.55 1.7,-5.62 6.81,-0.25 5.13,5.4 7.36,5.38 6.49,-0.05 -0.75,-4.68 2.44,-13.430002 4.63,-12.710002 1.94,0.64 3.73,4.860002 3.75,8.810002 0.02,5.07 1.42,5.95 9.38,5.95 6.08,0 7.78,0.45 13.34,3.5 8.63,4.75 12.59,4.67 15.21,-0.31 1.93,-3.66 3.54,-2.11 3.22,3.11 -0.42,6.86 0.43,8.7 4.03,8.7 2.07,0 3.91,-0.94 5.8,-2.96 3.19,-3.41 4.03,-3.06 4.03,1.66 0,4.76 2.38,5.3 6.37,1.44 1.78,-1.73 3.77,-3.14 4.42,-3.14 0.65,0 1.48,1.8 1.83,3.98 1.07,6.7 2.83,7.08 7.78,1.69 4.74,-5.17 6.03,-5.62 7.6,-2.68 0.8,1.5 0.68,2.73 -0.47,4.95 -2.04,3.97 -1.92,5.06 0.55,5.06 1.8,0 1.99,0.42 1.41,3.07 -0.57,2.58 -0.34,3.16 1.42,3.62 1.15,0.3 2.09,1.13 2.09,1.85 0,0.71 2.89,2.26 6.41,3.43 7.24,2.41 15.87,7.71 15.31,9.41 -0.59,1.8 -5.56,1.9 -9.82,0.2 -8.15,-3.26 -8.83,-1.46 -2.9,7.67 6.07,9.33 5.42,10.65 -2.94,6 -3.93,-2.18 -5.19,-2.49 -6.19,-1.51 -0.99,0.99 -0.7,2.79 1.47,8.93 3.29,9.34 2.4,11.41 -2.77,6.4 -4.78,-4.63 -6.57,-3.71 -6.57,3.4 0,3.04 -0.41,5.53 -0.91,5.53 -4.51,0 -7.47,-5.25 -6.53,-11.55 0.62,-4.08 0.5,-4.45 -1.46,-4.45 -1.45,0 -2.66,1.12 -3.8,3.5 -3.06,6.43 -8,3.66 -6.87,-3.86 0.53,-3.54 0.34,-4.51 -0.97,-5.02 -1.9,-0.72 -3.42,0.02 -5.26,2.57 -2.8,3.88 -8.2,0.73 -8.2,-4.77 0,-1.8 -0.76,-4.04 -1.7,-4.98 -1.61,-1.61 -1.86,-1.53 -4.32,1.43 -1.44,1.72 -3.1,3.13 -3.69,3.13 -1.54,0 -2.26,-2.43 -1.21,-4.09 1.31,-2.06 1.12,-3.56 -0.65,-5.33 -2.24,-2.25 -3.93,-1.95 -5.24,0.92 -3.17,6.96 -11.06,-2.26 -12.41,-14.5 -0.19,-1.68 -0.89,-2.5 -2.16,-2.5 -1.8,0 -3.27,3.35 -5.05,11.5 -1.05,4.82 -2.18,5.66 -4.65,3.46 -1.21,-1.07 -3.07,-3.9 -4.13,-6.27 -2.65,-5.91 -5.17,-5.43 -5.59,1.07 -0.17,2.61 -0.75,4.74 -1.28,4.74 -0.54,0 -1.93,-1.59 -3.08,-3.55 -2.86,-4.84 -5.24,-4.27 -5.65,1.37 -0.37,5.14 -2.35,6.32 -5.55,3.31 -3.37,-3.16 -4.64,-2.67 -4.64,1.79 0,6.75 -0.66,7.48 -4.67,5.11 -1.89,-1.11 -3.86,-2.03 -4.38,-2.03 -1.76,0 -0.96,3.6 1.56,7.01 1.42,1.92 2.12,3.77 1.63,4.26 -1.02,1.02 -6.17,-1.2 -11.03,-4.77 -6.29,-4.61 -8.86,-2.23 -4.7,4.35 l 2.54,4.03 -6.4,-0.47 c -5.81,-0.43 -6.45,-0.28 -7.05,1.61 -0.4,1.26 0,3.09 1,4.62 2.05,3.13 1.28,4.12 -1.9,2.41 -4.27,-2.28 -5.74,1.11 -3.13,7.2 0.6,1.41 0.25,1.75 -1.78,1.75 -3.28,0 -5.18,5.21 -4.23,11.58 0.76,5.04 -0.49,5.82 -3.05,1.92 -1.92,-2.93 -3.95,-3.21 -5.28,-0.73 -0.64,1.2 -0.51,2.56 0.43,4.25 0.75,1.37 1.39,2.83 1.41,3.26 0.07,1.47 -4.89,-2.47 -5.49,-4.37 z" /></g></svg>
