<svg width="527" height="527" viewBox="0 0 527 527" fill="none" xmlns="http://www.w3.org/2000/svg">
<circle cx="263.5" cy="263.5" r="263.5" fill="#E84E0F"/>
<path d="M405.967 332.02C401.928 328.823 396.4 327.97 391.723 330.128C388.294 331.7 384.627 332.473 381.013 332.473C363.473 332.473 347.049 313.395 358.476 292.557C367.432 276.223 369.24 272.866 377 258.984C384.866 244.461 368.123 229.433 347.713 229.433C291.054 229.433 267.295 307.106 223.631 307.106C211.247 307.106 200.563 296.874 200.563 283.977C200.563 248.219 232.667 193.594 298.336 193.594C307.743 193.594 317.125 195.833 323.901 197.938C329.004 199.536 333.708 202.388 337.056 206.598C343.036 214.058 354.756 221.999 370.648 221.999C392.679 221.999 412 208.037 412 186.587C412 152.453 350.557 135 305.192 135C191.82 135 108 214.911 108 308.625C108 359.838 143.293 392 174.306 392C200.856 392 224.8 382.834 273.859 336.763C272.318 340.04 270.537 344.73 270.537 351.898C270.537 372.282 289.858 391.84 316.673 391.893C359.965 391.973 386.222 375.959 407.668 352.511C413.169 346.515 412.345 337.056 405.994 331.993L405.967 332.02Z" fill="#F8F6F2"/>
</svg>
