<?xml version="1.0" encoding="UTF-8"?>
<svg id="Calque_1" data-name="Calque 1" xmlns="http://www.w3.org/2000/svg" width="384.59mm" height="161.33mm" viewBox="0 0 1090.18 457.32">
  <g>
    <path d="M260.43,280.29h-32.61l-65.76-160.11-.61-1.7-.04.11-.04-.06-.04.06-.04-.11-.61,1.7-65.76,160.11h-32.57L151.48,63.27h19.8l89.15,217.02ZM161.57,259.46c5.7,0,10.42,4.71,10.42,10.42s-4.71,10.42-10.42,10.42-10.42-4.71-10.42-10.42,4.71-10.42,10.42-10.42Z" style="fill: #47301c;"/>
    <path d="M422.54,240.07c-10.41,24.57-39.59,39.9-76,40.22v-26.62c25.11-.31,39.84-9.56,45.91-24.01,4.63-10.71.87-22.28.58-22.57-6.08-16.79-22.86-20.55-46.58-27.78-26.91-8.1-57.88-14.76-68-43.12-5.5-14.76-4.05-31.83,3.47-45.72,16.79-31.83,59.61-32.7,64.53-32.7,31.82,0,60.18,13.89,80.44,36.17l-21.12,21.12c-11.87-17.36-35.01-30.67-59.32-30.67-.29,0-25.76,0-35.6,18.52-3.76,7.24-4.63,16.78-2.03,24.31,5.79,15.91,22.28,19.67,45.43,26.62,27.49,8.39,58.45,14.76,69.45,43.98.87,2.03,7.81,21.7-1.16,42.25Z" style="fill: #47301c;"/>
    <path d="M641.89,280.29h-32.61l-65.76-160.11-.61-1.7-.04.11-.04-.06-.04.06-.04-.11-.61,1.7-65.76,160.11h-32.57l89.11-217.02h19.8l89.15,217.02ZM543.03,259.46c5.71,0,10.42,4.71,10.42,10.42s-4.71,10.42-10.42,10.42-10.42-4.71-10.42-10.42,4.71-10.42,10.42-10.42Z" style="fill: #47301c;"/>
    <path d="M770.17,63.27h47.14l-106.77,89.7,106.77,127.32h-44.84l-86.53-106.78-31.53,26.33v-37.62l115.77-98.96Z" style="fill: #47301c;"/>
    <path d="M1027.81,280.29h-32.61l-65.76-160.11-.61-1.7-.04.11-.04-.06-.04.06-.04-.11-.61,1.7-65.76,160.11h-32.57l89.11-217.02h19.8l89.15,217.02ZM928.95,259.46c5.71,0,10.42,4.71,10.42,10.42s-4.71,10.42-10.42,10.42-10.42-4.71-10.42-10.42,4.71-10.42,10.42-10.42Z" style="fill: #47301c;"/>
  </g>
  <g>
    <path d="M590.79,389.66v-5.4l-4.47,4.47c-4.47,4.36-7.79,6.23-11.22,6.23-6.65,0-10.8-4.26-10.8-10.39,0-10.39,7.89-15.37,22.64-19.32l4.05-1.14v-5.92c0-7.79-2.6-10.49-7.79-10.49-2.7,0-6.13.62-10.28,3.01v6.34c0,1.66-.73,4.47-3.95,4.47s-4.78-1.77-4.78-4.36c0-2.18.62-4.47,7.27-8.72,5.71-3.74,10.28-5.92,16.1-5.92,5.5,0,10.7,2.49,10.59,12.36l-.21,32.82c0,2.18,2.08,3.22,3.84,1.97l2.6-1.87c1.77-1.25,3.64.93,2.08,2.28l-1.45,1.25c-3.01,2.49-5.61,3.63-8.2,3.63-4.15,0-6.02-1.87-6.02-5.3ZM583.93,386.23l6.96-4.99v-14.85l-4.57,1.87c-11.53,4.57-14.85,7.89-14.64,13.71.1,6.34,6.65,8.52,12.26,4.26Z" style="fill: #47301c;"/>
    <path d="M622.99,393.82l-8.62.42c-.94,0-1.66-.73-1.66-1.56s.52-1.66,1.66-1.66h2.49c2.39,0,3.32-.93,3.32-3.32v-37.49l-6.23-1.66c-1.35-.31-1.97-.83-1.97-1.56,0-.62.52-1.25,1.97-1.66l9.14-2.49c1.04-.31,1.35-.31,1.87-.31,1.04,0,2.08.83,2.08,2.18v8.72l10.28-9.04c1.76-1.56,3.53-1.87,4.99-1.87,3.32,0,4.88,1.66,4.88,4.26,0,3.84-3.63,5.5-7.06,5.4l-3.43-.1c-6.23-.21-9.66,2.8-9.66,10.28v25.34c0,2.39.93,3.32,3.32,3.32h4.57c1.25,0,1.76.83,1.76,1.66s-.52,1.56-1.97,1.56l-8.52-.42h-3.22Z" style="fill: #47301c;"/>
    <path d="M651.76,369.1c0-16.2,10.39-26.59,23.99-26.59,7.89,0,15.99,3.84,17.14,10.18,0,2.91-1.87,5.09-4.99,5.09-2.91,0-5.19-1.66-5.19-5.09v-3.22c-1.35-1.97-3.84-3.95-8.31-3.95-8.72,0-15.27,7.27-15.27,21.6s8,21.5,17.14,21.5c6.44,0,10.39-2.49,14.23-7.69.52-.62,1.04-.83,1.25-.83.62,0,1.04.73.73,1.66-1.35,4.88-7.27,13.19-18.07,13.19-14.23,0-22.64-9.76-22.64-25.86Z" style="fill: #47301c;"/>
    <path d="M698.3,321.53c0-.94.83-1.66,2.08-1.97l9.45-2.39c1.04-.31,1.45-.42,2.08-.42,1.14,0,2.08.73,2.08,2.39v32.2l3.22-2.18c6.96-4.78,12.46-6.65,16.93-6.65,7.69,0,11.32,4.47,11.32,11.63v33.55c0,2.39.94,3.32,3.32,3.32h2.39c1.25,0,1.76.83,1.76,1.66s-.52,1.56-1.97,1.56l-8.52-.42h-1.25l-8.62.42c-.94,0-1.66-.73-1.66-1.56s.52-1.66,1.66-1.66h2.49c2.39,0,3.32-.93,3.32-3.32v-30.74c0-6.02-3.53-8.52-8.31-8.52-3.32,0-7.37,1.35-11.42,3.43l-4.67,2.39v33.44c0,2.39,1.04,3.32,3.53,3.32h2.39c1.25,0,1.76.83,1.76,1.66s-.52,1.56-1.97,1.56l-8.52-.42h-1.45l-8.62.42c-.94,0-1.66-.73-1.66-1.56s.52-1.66,1.66-1.66h2.49c2.39,0,3.32-.93,3.32-3.32v-62.73l-6.54-1.66c-1.25-.31-2.08-.83-2.08-1.76Z" style="fill: #47301c;"/>
    <path d="M777.55,391.01h2.39c1.25,0,1.76.83,1.76,1.66s-.52,1.56-1.97,1.56l-8.52-.42h-1.25l-8.62.42c-.94,0-1.66-.73-1.66-1.56s.52-1.66,1.66-1.66h2.49c2.39,0,3.32-.93,3.32-3.32v-37.49l-6.23-1.66c-1.25-.21-1.97-.93-1.97-1.66,0-.42.31-1.14,1.97-1.56l10.07-2.7c.1,0,.52-.1.94-.1,1.04,0,2.28.83,2.28,2.18v43c0,2.39.94,3.32,3.32,3.32ZM763.84,323.82c0-3.95,2.7-6.44,6.13-6.44s6.23,2.49,6.23,6.44c0,3.74-3.01,5.92-6.23,5.92s-6.13-2.28-6.13-5.92Z" style="fill: #47301c;"/>
    <path d="M799.78,336.59v6.96l15.68-.42c3.12-.1,3.22,4.47-.21,4.47h-15.47v30.53c0,12.15,9.87,13.71,14.85,8.72l.62-.62c1.87-1.87,3.84.62,2.29,2.18l-.62.62c-4.99,4.99-7.69,5.92-12.78,5.92-4.78,0-11.63-3.32-11.32-13.19l1.04-34.17h-6.34c-1.35,0-2.29-1.56-.94-2.7l10.8-8.83c1.25-1.04,2.39-.62,2.39.52Z" style="fill: #47301c;"/>
    <path d="M846,342.51c9.03,0,17.34,7.48,17.14,18.18-.1,1.35-.41,1.66-1.97,1.66l-31.05-.42c-.21,1.45-.31,3.01-.31,4.67,0,15.06,8.31,21.91,16.83,21.91,6.44,0,11.32-2.91,14.02-6.75,1.04-1.45,2.6-.31,1.87,1.35-2.28,5.09-8.1,11.84-18.38,11.84s-21.19-7.27-21.19-25.45,12.78-27,23.06-27ZM852.23,357.99c2.39,0,3.84-1.45,3.84-3.32,0-4.47-4.99-9.04-10.8-9.04-6.13,0-12.25,3.74-14.54,12.67l21.5-.31Z" style="fill: #47301c;"/>
    <path d="M870.41,369.1c0-16.2,10.39-26.59,23.99-26.59,7.89,0,15.99,3.84,17.14,10.18,0,2.91-1.87,5.09-4.99,5.09-2.91,0-5.19-1.66-5.19-5.09v-3.22c-1.35-1.97-3.84-3.95-8.31-3.95-8.72,0-15.27,7.27-15.27,21.6s8,21.5,17.14,21.5c6.44,0,10.39-2.49,14.23-7.69.52-.62,1.04-.83,1.25-.83.62,0,1.04.73.73,1.66-1.35,4.88-7.27,13.19-18.07,13.19-14.23,0-22.64-9.76-22.64-25.86Z" style="fill: #47301c;"/>
    <path d="M930.86,336.59v6.96l15.68-.42c3.12-.1,3.22,4.47-.21,4.47h-15.47v30.53c0,12.15,9.87,13.71,14.85,8.72l.62-.62c1.87-1.87,3.84.62,2.29,2.18l-.62.62c-4.99,4.99-7.69,5.92-12.78,5.92-4.78,0-11.63-3.32-11.32-13.19l1.04-34.17h-6.34c-1.35,0-2.29-1.56-.94-2.7l10.8-8.83c1.25-1.04,2.39-.62,2.39.52Z" style="fill: #47301c;"/>
    <path d="M977.08,342.51c9.03,0,17.34,7.48,17.14,18.18-.1,1.35-.41,1.66-1.97,1.66l-31.05-.42c-.21,1.45-.31,3.01-.31,4.67,0,15.06,8.31,21.91,16.83,21.91,6.44,0,11.32-2.91,14.02-6.75,1.04-1.45,2.6-.31,1.87,1.35-2.28,5.09-8.1,11.84-18.38,11.84s-21.19-7.27-21.19-25.45,12.78-27,23.06-27ZM983.31,357.99c2.39,0,3.84-1.45,3.84-3.32,0-4.47-4.99-9.04-10.8-9.04-6.13,0-12.25,3.74-14.54,12.67l21.5-.31Z" style="fill: #47301c;"/>
    <path d="M1009.28,393.3c-1.76,1.35-5.19.62-5.92-1.97l-1.76-8.83c-.73-3.01,2.39-4.36,3.95-1.45l1.97,3.43c3.63,5.92,6.96,7.58,12.36,7.58,5.82,0,10.07-4.05,10.07-9.04,0-4.05-2.08-6.54-5.71-8.52l-11.22-6.34c-6.85-3.84-9.35-7.79-9.35-12.77,0-7.06,7.58-12.88,16.2-12.88,3.22,0,5.71.42,8.62,1.56.73-.73,1.66-1.14,2.6-1.14,1.87,0,3.01,1.45,3.22,3.01l.94,6.54c.62,3.74-2.8,3.63-3.74,1.66l-1.45-2.49c-3.64-4.57-6.34-6.34-11.32-6.34s-8.93,3.63-8.93,8c0,3.43,2.39,6.02,6.23,8.2l9.03,4.88c7.48,3.95,11.42,7.79,11.42,14.54,0,8.1-7.79,14.02-18.38,14.02-1.45,0-5.61-.83-8.83-1.66Z" style="fill: #47301c;"/>
  </g>
</svg>