<?xml version="1.0" encoding="UTF-8" standalone="no"?>
<svg
   width="30"
   height="30"
   viewBox="0 0 30 30"
   fill="none"
   version="1.1"
   id="svg1"
   sodipodi:docname="LOGO_PASTILLE.svg"
   xml:space="preserve"
   inkscape:version="1.4 (e7c3feb1, 2024-10-09)"
   xmlns:inkscape="http://www.inkscape.org/namespaces/inkscape"
   xmlns:sodipodi="http://sodipodi.sourceforge.net/DTD/sodipodi-0.dtd"
   xmlns="http://www.w3.org/2000/svg"
   xmlns:svg="http://www.w3.org/2000/svg"><defs
     id="defs1" /><sodipodi:namedview
     id="namedview1"
     pagecolor="#505050"
     bordercolor="#ffffff"
     borderopacity="1"
     inkscape:showpageshadow="0"
     inkscape:pageopacity="0"
     inkscape:pagecheckerboard="1"
     inkscape:deskcolor="#d1d1d1"
     inkscape:zoom="19.610428"
     inkscape:cx="14.992024"
     inkscape:cy="18.077117"
     inkscape:window-width="2560"
     inkscape:window-height="1412"
     inkscape:window-x="2370"
     inkscape:window-y="89"
     inkscape:window-maximized="1"
     inkscape:current-layer="svg1" /><path
     id="rect1"
     style="fill:#ffffff;stroke-width:0.755906;stroke-linecap:round;stroke-linejoin:round"
     d="m 12.18313,0.54519975 h 5.511691 c 2.344773,0 4.232442,1.88766905 4.232442,4.23244195 V 25.011523 c 0,2.344772 -1.887669,4.232442 -4.232442,4.232442 H 12.18313 c -2.3447725,0 -4.2324416,-1.88767 -4.2324416,-4.232442 V 4.7776417 c 0,-2.3447729 1.8876691,-4.23244195 4.2324416,-4.23244195 z" /><path
     id="path1"
     style="fill:#f9ec00;stroke-width:3.77951"
     d="M 14.964844 0 A 14.963943 14.963943 0 0 0 0 14.964844 A 14.963943 14.963943 0 0 0 14.964844 29.927734 A 14.963943 14.963943 0 0 0 29.927734 14.964844 A 14.963943 14.963943 0 0 0 14.964844 0 z M 16.087891 1.8222656 L 16.261719 1.9648438 L 16.433594 2.1054688 L 16.560547 2.2167969 L 16.6875 2.328125 L 16.912109 2.5195312 L 17.136719 2.7128906 L 17.320312 2.8867188 L 17.501953 3.0585938 L 17.677734 3.2363281 L 17.853516 3.4121094 L 18.017578 3.5820312 L 18.181641 3.7539062 L 18.371094 3.9785156 L 18.5625 4.203125 L 18.652344 4.3066406 L 18.740234 4.4121094 L 18.886719 4.6035156 L 19.035156 4.796875 L 19.046875 4.8066406 L 19.060547 4.8164062 L 19.181641 4.9902344 L 19.300781 5.1640625 L 19.314453 5.1738281 L 19.328125 5.1835938 L 19.501953 5.4492188 L 19.675781 5.7148438 L 19.835938 5.9804688 L 19.994141 6.2460938 L 20.205078 6.6660156 L 20.414062 7.0839844 L 20.490234 7.2695312 L 20.566406 7.453125 L 20.605469 7.5546875 L 20.644531 7.65625 L 20.707031 7.8300781 L 20.771484 8.0039062 L 20.806641 8.1269531 L 20.84375 8.25 L 20.916016 8.5136719 L 20.990234 8.7773438 L 20.998047 8.8300781 L 21.005859 8.8828125 L 21.046875 9.0761719 L 21.087891 9.2714844 L 21.119141 9.4960938 L 21.152344 9.7207031 L 21.177734 9.9042969 L 21.203125 10.087891 L 21.203125 10.691406 L 21.203125 11.292969 L 21.177734 11.478516 L 21.152344 11.662109 L 21.121094 11.876953 L 21.087891 12.089844 L 21.037109 12.335938 L 20.986328 12.582031 L 20.945312 12.734375 L 20.904297 12.886719 L 20.896484 12.919922 L 20.890625 12.951172 L 20.828125 13.154297 L 20.763672 13.357422 L 20.681641 13.582031 L 20.599609 13.806641 L 20.582031 13.839844 L 20.564453 13.873047 L 20.478516 14.074219 L 20.392578 14.277344 L 20.279297 14.501953 L 20.167969 14.726562 L 20.056641 14.919922 L 19.945312 15.115234 L 19.919922 15.15625 L 19.896484 15.195312 L 19.753906 15.421875 L 19.613281 15.646484 L 19.525391 15.769531 L 19.4375 15.890625 L 19.308594 16.070312 L 19.181641 16.25 L 18.96875 16.509766 L 18.757812 16.769531 L 18.585938 16.970703 L 18.414062 17.171875 L 18.484375 17.308594 L 18.554688 17.443359 L 18.71875 17.78125 L 18.880859 18.119141 L 19.222656 18.833984 L 19.5625 19.548828 L 19.773438 19.978516 L 19.982422 20.40625 L 20.054688 20.560547 L 20.126953 20.712891 L 20.363281 21.199219 L 20.601562 21.685547 L 20.601562 21.693359 L 20.601562 21.701172 L 20.84375 22.199219 L 21.085938 22.699219 L 21.099609 22.742188 L 21.115234 22.787109 L 19.716797 22.787109 L 18.316406 22.787109 L 18.164062 22.476562 L 18.009766 22.164062 L 17.898438 21.929688 L 17.785156 21.693359 L 17.466797 21.033203 L 17.148438 20.371094 L 17.158203 20.355469 L 17.167969 20.339844 L 17.150391 20.332031 L 17.132812 20.324219 L 17.03125 20.121094 L 16.929688 19.916016 L 16.826172 19.701172 L 16.722656 19.488281 L 16.523438 19.078125 L 16.326172 18.669922 L 15.982422 17.955078 L 15.640625 17.240234 L 15.507812 16.964844 L 15.375 16.6875 L 15.361328 16.644531 L 15.349609 16.601562 L 15.501953 16.476562 L 15.654297 16.349609 L 16.0625 15.947266 L 16.46875 15.542969 L 16.619141 15.371094 L 16.771484 15.197266 L 16.933594 14.994141 L 17.097656 14.791016 L 17.238281 14.605469 L 17.376953 14.419922 L 17.482422 14.267578 L 17.585938 14.113281 L 17.746094 13.847656 L 17.90625 13.582031 L 18.037109 13.314453 L 18.167969 13.046875 L 18.230469 12.886719 L 18.292969 12.724609 L 18.308594 12.693359 L 18.326172 12.662109 L 18.390625 12.458984 L 18.453125 12.253906 L 18.503906 12.060547 L 18.554688 11.865234 L 18.599609 11.630859 L 18.642578 11.396484 L 18.662109 11.058594 L 18.679688 10.722656 L 18.667969 10.435547 L 18.658203 10.150391 L 18.636719 9.9960938 L 18.617188 9.84375 L 18.585938 9.6699219 L 18.552734 9.4960938 L 18.501953 9.2910156 L 18.451172 9.0878906 L 18.392578 8.9023438 L 18.335938 8.71875 L 18.283203 8.5761719 L 18.228516 8.4335938 L 18.173828 8.3007812 L 18.119141 8.1679688 L 17.951172 7.8300781 L 17.783203 7.4941406 L 17.726562 7.390625 L 17.667969 7.2890625 L 17.658203 7.2792969 L 17.648438 7.2695312 L 17.609375 7.1972656 L 17.568359 7.125 L 17.441406 6.9316406 L 17.314453 6.7382812 L 17.214844 6.59375 L 17.115234 6.4511719 L 16.931641 6.2148438 L 16.75 5.9765625 L 16.505859 5.6933594 L 16.261719 5.4101562 L 15.873047 5.0195312 L 15.482422 4.6289062 L 15.185547 4.3769531 L 14.890625 4.1230469 L 14.878906 4.1113281 L 14.869141 4.1015625 L 14.695312 3.9589844 L 14.521484 3.8183594 L 14.503906 3.8027344 L 14.486328 3.7871094 L 14.625 3.6171875 L 14.765625 3.4472656 L 14.777344 3.4375 L 14.789062 3.4277344 L 14.992188 3.1738281 L 15.197266 2.921875 L 15.257812 2.8476562 L 15.318359 2.7734375 L 15.470703 2.5839844 L 15.625 2.3925781 L 15.765625 2.2148438 L 15.90625 2.0371094 L 15.998047 1.9296875 L 16.087891 1.8222656 z M 8.4433594 12.529297 L 9.8476562 12.535156 L 11.251953 12.541016 L 11.294922 12.621094 L 11.335938 12.703125 L 11.720703 13.511719 L 12.105469 14.318359 L 12.183594 14.470703 L 12.259766 14.625 L 12.373047 14.859375 L 12.484375 15.09375 L 12.677734 15.492188 L 12.873047 15.890625 L 13.189453 16.554688 L 13.505859 17.21875 L 13.714844 17.648438 L 13.923828 18.078125 L 14.082031 18.404297 L 14.240234 18.730469 L 14.417969 19.09375 L 14.59375 19.455078 L 14.59375 19.464844 L 14.59375 19.472656 L 14.789062 19.878906 L 14.986328 20.285156 L 15.125 20.570312 L 15.263672 20.855469 L 15.462891 21.265625 L 15.660156 21.673828 L 15.982422 22.347656 L 16.304688 23.021484 L 16.535156 23.492188 L 16.763672 23.962891 L 16.896484 24.238281 L 17.029297 24.513672 L 17.376953 25.238281 L 17.724609 25.964844 L 17.769531 26.056641 L 17.816406 26.148438 L 17.939453 26.404297 L 18.0625 26.660156 L 18.232422 27.005859 L 18.400391 27.353516 L 18.673828 27.923828 L 18.945312 28.494141 L 18.945312 28.501953 L 18.945312 28.507812 L 17.548828 28.507812 L 16.152344 28.507812 L 16.123047 28.462891 L 16.09375 28.416016 L 16 28.222656 L 15.90625 28.029297 L 15.40625 26.986328 L 14.904297 25.943359 L 14.685547 25.494141 L 14.466797 25.044922 L 14.144531 24.371094 L 13.822266 23.697266 L 13.667969 23.376953 L 13.513672 23.058594 L 13.480469 23.044922 L 13.445312 23.03125 L 11.582031 23.033203 L 9.7207031 23.033203 L 9.6855469 23.033203 L 9.6503906 23.033203 L 9.5683594 22.873047 L 9.4882812 22.712891 L 9.2949219 22.285156 L 9.1015625 21.857422 L 9.0097656 21.664062 L 8.9179688 21.46875 L 8.875 21.373047 L 8.8320312 21.277344 L 8.8320312 21.265625 L 8.8320312 21.255859 L 10.732422 21.255859 L 12.632812 21.255859 L 12.632812 21.242188 L 12.632812 21.230469 L 12.458984 20.875 L 12.285156 20.519531 L 12.285156 20.511719 L 12.285156 20.501953 L 11.986328 19.892578 L 11.6875 19.283203 L 11.363281 18.603516 L 11.037109 17.921875 L 10.988281 17.826172 L 10.939453 17.730469 L 10.837891 17.515625 L 10.736328 17.300781 L 10.630859 17.085938 L 10.523438 16.873047 L 10.181641 16.15625 L 9.8378906 15.441406 L 9.6816406 15.115234 L 9.5253906 14.787109 L 9.4160156 14.5625 L 9.3066406 14.337891 L 9.1269531 13.970703 L 8.9492188 13.603516 L 8.6953125 13.074219 L 8.4433594 12.546875 L 8.4433594 12.539062 L 8.4433594 12.529297 z " /></svg>
